<svg width="12" height="12" viewBox="0 0 12 12" fill="none" xmlns="http://www.w3.org/2000/svg">
<g id="Frame 145620">
<path id="Vector" d="M6.59322 8.35865L10.1265 4.82532C10.2047 4.74785 10.2667 4.65568 10.309 4.55413C10.3513 4.45258 10.373 4.34366 10.373 4.23365C10.373 4.12364 10.3513 4.01472 10.309 3.91317C10.2667 3.81162 10.2047 3.71945 10.1265 3.64199C9.97041 3.48678 9.7592 3.39966 9.53905 3.39966C9.31889 3.39966 9.10768 3.48678 8.95155 3.64199L6.00155 6.59198L3.05155 3.64199C2.89541 3.48678 2.6842 3.39966 2.46405 3.39966C2.24389 3.39966 2.03268 3.48678 1.87655 3.64199C1.79931 3.71985 1.73821 3.8122 1.69674 3.91373C1.65527 4.01526 1.63425 4.12398 1.63488 4.23365C1.63425 4.34332 1.65527 4.45204 1.69674 4.55357C1.73821 4.6551 1.79931 4.74745 1.87655 4.82532L5.40988 8.35865C5.48735 8.43676 5.57952 8.49875 5.68107 8.54106C5.78262 8.58337 5.89154 8.60515 6.00155 8.60515C6.11156 8.60515 6.22048 8.58337 6.32203 8.54106C6.42358 8.49875 6.51575 8.43676 6.59322 8.35865Z" fill="#66ACFF"/>
</g>
</svg>
