<svg width="160" height="88" viewBox="0 0 160 88" fill="none" xmlns="http://www.w3.org/2000/svg">
<g id="Hand &#38; currency">
<g id="last 3 fingers">
<g id="Group 34997">
<path id="Vector" d="M60.3741 29.535L60.374 29.5351L58.9813 31.0896C58.4293 31.7058 58.7939 32.7004 59.6132 32.8128L78.7057 35.4334C78.9613 35.4684 79.2199 35.405 79.4298 35.2556L79.9495 34.886L84.4998 31.907C84.5697 31.8603 84.6472 31.8276 84.7288 31.8072L90.2164 30.427C90.3452 30.3952 90.4593 30.3312 90.5554 30.2393L93.0076 27.8878C93.2044 27.7004 93.4814 27.6319 93.7403 27.7075L95.9282 28.3468C96.0815 28.3914 96.2473 28.3869 96.3977 28.3309L100.749 26.7252C100.762 26.7199 100.776 26.7169 100.789 26.7127L107.089 24.7767C107.155 24.7546 107.217 24.7273 107.278 24.6888L109.191 23.4542C109.318 23.3708 109.417 23.2538 109.479 23.1129L110.325 21.1679C110.366 21.0764 110.387 20.9773 110.391 20.8773L110.412 20.1165C110.417 19.9339 110.358 19.7541 110.243 19.6109L109.985 19.285C109.826 19.083 109.578 18.9763 109.325 18.9985L99.2993 19.9096C98.6975 19.9644 98.2779 19.3201 98.5594 18.777L98.7226 18.4606C98.7602 18.3919 98.785 18.3169 98.7972 18.2384L99.057 16.8009C99.0798 16.6738 99.0715 16.5428 99.031 16.419L98.9394 16.1399C98.815 15.7569 98.4228 15.536 98.0371 15.6303L96.6987 15.9626L82.9255 19.4479C82.8946 19.4555 82.8639 19.4615 82.8339 19.4656C82.8014 19.4702 82.7721 19.4875 82.7498 19.5116C82.7177 19.5452 82.684 19.5735 82.649 19.5983C82.5464 19.6807 82.4222 19.729 82.2925 19.7151C82.2557 19.7112 82.2186 19.7156 82.1848 19.7306C82.1296 19.755 82.0899 19.8061 82.072 19.8643C82.0312 19.9973 81.9297 20.1109 81.7983 20.1556C81.7433 20.1746 81.6913 20.2016 81.6419 20.2325C81.6182 20.2472 81.5937 20.2602 81.5688 20.2712C81.5631 20.2741 81.5602 20.2741 81.5562 20.2765C81.5257 20.3001 81.495 20.3236 81.4636 20.3461C81.4044 20.3883 81.3367 20.4161 81.2658 20.4251C81.2168 20.4313 81.1675 20.4416 81.12 20.455C81.0569 20.4727 80.9961 20.4995 80.9376 20.5288C80.886 20.5547 80.8303 20.5661 80.774 20.5655C80.5945 20.5636 80.3728 20.6018 80.203 20.6593L80.1978 20.661C80.112 20.69 80.0191 20.7215 79.9752 20.801C79.9693 20.8116 79.9637 20.8224 79.9584 20.8334C79.9152 20.9204 79.8511 20.9898 79.7746 21.0396C79.7225 21.0736 79.6676 21.1045 79.6095 21.1266L79.6039 21.1287C79.5022 21.1659 79.3915 21.1805 79.2833 21.1858C79.1913 21.1903 79.0982 21.1742 79.0152 21.1373C78.516 20.9182 78.5663 20.417 78.8071 20.0796C78.9938 19.8173 79.2011 19.6757 79.4453 19.5634C79.4493 19.5615 79.453 19.5589 79.4561 19.5557C79.5214 19.4881 79.5787 19.4344 79.5038 19.5318C79.5023 19.5337 79.505 19.5371 79.5072 19.5364L79.508 19.5359C79.5417 19.5035 79.5809 19.4783 79.6229 19.4612C79.6454 19.4521 79.6679 19.4436 79.6904 19.4346C79.7111 19.4263 79.7323 19.4185 79.7533 19.4108L79.7643 19.4068L79.7754 19.4029C79.8458 19.3791 79.9195 19.3637 79.9887 19.3367L80.0103 19.3285C80.1941 19.2602 80.3655 19.132 80.5373 19.0374C80.62 18.9918 80.7144 18.9636 80.8106 18.9489C80.8123 18.9487 80.8141 18.9477 80.8155 18.9465L80.8173 18.9448C80.8331 18.9327 80.8503 18.922 80.8685 18.9128C80.9757 18.8584 81.0809 18.7808 81.1387 18.6747C81.145 18.6631 81.1516 18.6516 81.1585 18.6404C81.1681 18.6245 81.177 18.6081 81.1845 18.5911C81.2244 18.5005 81.2702 18.4139 81.334 18.3472C81.4947 18.1782 81.7163 18.0908 81.9474 18.1349C81.956 18.1364 81.9646 18.1381 81.9731 18.14C82.0071 18.1478 82.0419 18.1518 82.0767 18.1512C82.1048 18.1507 82.1319 18.152 82.1583 18.155C82.1856 18.158 82.2114 18.1487 82.2311 18.1295L86.0492 14.5948C86.1402 14.5106 86.212 14.4036 86.2522 14.2852L87.074 11.9799C87.1136 11.8684 87.1278 11.7472 87.1144 11.6297L86.9598 10.2095C86.9482 10.1031 86.9159 10.001 86.8624 9.91003L86.5708 9.39529C86.4887 9.2478 86.3596 9.1322 86.2044 9.06768L85.8876 8.93401C85.6077 8.81589 85.2857 8.87648 85.0677 9.0897L82.3389 11.7432C82.2988 11.7815 82.2559 11.8169 82.2065 11.8447L72.5431 17.8098C72.4955 17.84 72.4525 17.8724 72.4137 17.9113L60.3741 29.535Z" fill="#0075FF"/>
<path id="Vector 43" d="M79.4844 20.666L75.0604 21.9527L69.9748 23.2729L67.5397 25.044" stroke="#DBFF00" stroke-width="1.02962"/>
<g id="other fingernails">
<g id="Group">
<g id="Group_2">
<path id="Vector 42" d="M99.3867 19.8345L97.2558 19.6435L93.3451 20.1663L85.6796 23.1122L81.5681 23.7533L75.5367 25.694L68.7866 27.7857" stroke="#DBFF00" stroke-width="1.02962"/>
</g>
</g>
<path id="Vector 46" d="M98.2378 16.2728L98.623 15.4268L94.4841 16.2728L94.6744 17.1151L94.9054 17.2306L95.1666 17.58L97.094 17.4504L98.2378 16.2728Z" fill="#DBFF00"/>
<g id="Group_3">
<path id="Pinky nails" d="M85.7071 8.5434L85.3546 8.19719L80.8042 12.2638L81.1595 13.0488L82.4554 13.1867L83.4315 12.8L84.3471 11.9457L85.204 10.9163L85.6017 10.0946L85.7108 9.12846L85.7071 8.5434Z" fill="#DBFF00"/>
</g>
<path id="Vector 45" d="M109.656 19.0657L109.39 17.9851L106.715 18.178L104.7 18.1911L103.756 18.9578L103.471 19.5447L105.121 21.026L107.552 21.3893L108.517 20.9747L109.656 19.0657Z" fill="#DBFF00"/>
</g>
</g>
<path id="Vector_2" d="M93.0238 38.9443C92.8282 39.0563 92.6094 39.0833 92.3957 39.1502C92.1821 39.2172 91.9839 39.3163 91.7715 39.3858C91.5772 39.4488 91.3777 39.4784 91.1731 39.5003C90.962 39.5235 90.7226 39.5055 90.5283 39.6033C90.4073 39.4257 90.2876 39.2493 90.1666 39.0743C90.3777 39.1412 90.5643 39.0125 90.7535 38.934C90.9337 38.862 91.119 38.7937 91.3018 38.7294C91.4897 38.6599 91.6814 38.6239 91.8745 38.5749C92.0611 38.526 92.2001 38.4347 92.3726 38.3536C92.491 38.2969 92.8539 38.7976 92.76 38.88C92.6184 38.9997 92.4331 39.0151 92.258 39.0537C92.0109 39.1052 91.7651 39.1824 91.5257 39.2661C91.3185 39.3369 91.1435 39.4218 90.9659 39.5518C90.8037 39.6689 90.6492 39.7847 90.4498 39.8234C90.0289 39.9044 89.5836 39.6844 89.1795 39.8748C89.0199 39.9482 88.9285 40.0113 88.7483 39.9714C88.5411 39.9263 88.4265 39.8826 88.2219 39.9804C88.1138 39.8079 88.0044 39.6367 87.8963 39.4643C88.1781 39.6496 88.5848 39.5235 88.868 39.4025C89.0276 39.3343 89.1782 39.2429 89.3468 39.2004C89.5025 39.1618 89.6492 39.1618 89.7856 39.0653C89.9053 39.2429 90.0263 39.4192 90.1473 39.5943C89.8757 39.6046 89.6454 39.7436 89.3944 39.8324C89.1717 39.9122 88.9349 39.9379 88.702 39.9739C88.6041 39.9881 88.5076 40.0113 88.4111 39.9842C88.3339 39.9611 88.2811 39.8826 88.2103 39.8633C88.0404 39.8156 87.8847 39.9675 87.7045 39.9044C87.5089 39.8349 87.4098 39.6419 87.2618 39.517C87.0469 39.333 86.7881 39.2609 86.5295 39.167C86.227 39.0576 85.7753 38.7706 85.4715 39.0112C85.3634 38.8388 85.2553 38.6676 85.1472 38.4951C85.263 38.5621 85.3969 38.5441 85.5243 38.5646C85.6659 38.5827 85.81 38.6071 85.949 38.6341C86.0404 38.6522 86.4265 39.0949 86.3107 39.1631C86.1434 39.2635 85.9349 39.2069 85.7521 39.185C85.6453 39.1721 85.2991 38.6843 85.3904 38.656C85.5436 38.6084 85.6787 38.6393 85.8345 38.656C85.9979 38.674 86.173 38.6354 86.3313 38.6831C86.5887 38.759 86.8628 39.2699 87.1511 39.1914C87.2438 39.3536 87.339 39.5145 87.4317 39.6766C87.2013 39.5106 86.8615 39.4862 86.5951 39.4038C86.4844 39.2262 86.3712 39.046 86.2592 38.8697C86.2733 38.8748 86.2901 38.88 86.3042 38.8851C86.4291 38.9263 86.5243 39.0679 86.5912 39.1747C86.6028 39.1953 86.7302 39.4488 86.6402 39.4192C86.626 39.4141 86.6093 39.4089 86.5951 39.4038C86.4715 39.3626 86.375 39.221 86.3094 39.1142C86.2965 39.0936 86.1704 38.8401 86.2592 38.8697C86.6015 38.9752 86.958 39.019 87.2553 39.2326C87.3004 39.2661 87.6337 39.6921 87.5359 39.7178C87.303 39.7796 87.0095 39.5222 86.8551 39.3781C86.6582 39.194 86.5539 39.2082 86.3107 39.203C86.1331 39.1979 85.9503 39.1284 85.7753 39.185C85.6543 39.0074 85.5346 38.8311 85.4136 38.656C85.5784 38.6766 85.7675 38.7358 85.9233 38.6432C86.043 38.8208 86.164 38.9971 86.2849 39.1721C86.0134 39.1194 85.6543 39.1464 85.411 39.0048C85.3364 38.9623 84.9722 38.5801 85.0867 38.4887C85.3724 38.2622 85.7843 38.472 86.0739 38.5891C86.5127 38.7654 86.9503 38.8916 87.2824 39.2571C87.366 39.3484 87.3763 39.4076 87.4986 39.3986C87.5925 39.3922 87.6788 39.3407 87.7714 39.3356C87.868 39.3291 87.922 39.3523 88.0044 39.3948C88.1588 39.4746 88.2116 39.4694 88.3956 39.4411C88.6492 39.4025 88.8873 39.3652 89.1254 39.2686C89.3519 39.176 89.5668 39.0756 89.8152 39.0666C89.9208 39.0627 90.2773 39.5235 90.1769 39.5956C90.0199 39.7075 89.8268 39.6972 89.6518 39.7577C89.4729 39.8169 89.3146 39.9173 89.1383 39.9829C88.832 40.0923 88.4549 40.167 88.1679 39.9765C88.1112 39.9405 87.7213 39.5183 87.8422 39.4604C87.9877 39.3909 88.1048 39.3678 88.2631 39.4012C88.4729 39.4475 88.5758 39.4681 88.7715 39.3703C89.1795 39.1644 89.6183 39.3587 90.0456 39.306C90.2464 39.2815 90.4021 39.1708 90.5617 39.055C90.7355 38.9289 90.8989 38.8362 91.1023 38.7654C91.3468 38.6792 91.5978 38.5981 91.8526 38.5441C92.0354 38.5029 92.2323 38.4913 92.3816 38.3652C92.5116 38.5402 92.639 38.7165 92.769 38.8916C92.5991 38.9713 92.4562 39.0666 92.2722 39.1129C92.0495 39.1708 91.8294 39.2185 91.6145 39.3008C91.4176 39.3768 91.2181 39.4424 91.0263 39.5273C90.8565 39.602 90.6981 39.6831 90.5128 39.6226C90.4343 39.5968 90.0289 39.1554 90.1512 39.0936C90.3095 39.0138 90.4794 39.0138 90.6531 39.001C90.9041 38.9816 91.155 38.9546 91.3957 38.8761C91.6068 38.8066 91.8088 38.7075 92.0199 38.6393C92.2323 38.5724 92.4524 38.5453 92.648 38.4334C92.7613 38.3484 93.1165 38.8928 93.0238 38.9443Z" fill="#DBFF00"/>
<path id="Vector 47" d="M73.5176 76.603L69.9783 78.984L66.1815 80.3354" stroke="#DBFF00" stroke-width="1.02962"/>
<path id="Vector 48" d="M48.3574 57.4263L43.7885 58.0698L41.0214 57.8767L36.5811 58.0698" stroke="#DBFF00" stroke-width="1.02962"/>
</g>
<g id="Middle palm">
<path id="Vector 50" d="M111.423 49.1894V48.4172L110.844 47.1945L110.265 46.4222L109.364 45.9718L108.721 45.1996H107.948L106.597 44.9422L104.409 45.1996L103.573 45.5857H102.929L99.0036 46.1648L96.1077 47.5806L95.0781 48.8032L94.0485 49.1894L91.5388 49.7685L90.5735 50.7981L87.7421 52.0208L83.6879 53.5009C82.5039 54.1187 82.2508 53.7583 82.2722 53.5009L81.693 52.9861L80.7278 52.0208L79.8912 51.2486L79.0546 50.3477L77.6389 48.8032L76.738 47.6449L76.4162 47.2588V45.9718L75.9658 44.6848L75.7084 43.7195L75.9658 42.9473L81.693 40.8237L84.3958 38.9575H86.1333L88.5786 39.6653L93.598 38.2496L96.3008 39.4079L110.008 44.6848L112.196 44.4273L113.611 42.3681V41.2098L113.161 40.3732L112.453 39.4079L111.037 38.2496L109.364 37.1556L106.597 35.5469L105.31 34.4529L101.835 32.5867L98.5531 30.7205L97.3304 29.9483L93.2119 27.5029L81.693 28.0177L78.2824 28.79L64.3182 29.3048C59.7363 28.9444 58.3335 30.3559 58.2048 31.1066L56.596 36.8339V38.1853L55.1803 47.9667L54.2794 50.3477C52.0142 56.9373 47.4152 58.1128 45.3989 57.8768H38.3202H0.996399L2.92694 87.8646L36.5827 84.2609L56.0812 82.5234L66.0557 80.4642L73.1987 77.0535L87.6777 69.9105L96.2365 60.837L107.369 53.5009L107.948 52.9861L109.364 51.7634L111.037 50.3477L111.423 49.1894Z" fill="#0075FF"/>
<path id="stroke" d="M96.4297 39.6008L93.4695 38.3781M93.4695 38.3781L95.1427 35.0962M93.4695 38.3781L88.2571 39.6008L86.1335 39.0216M86.1335 39.0216V35.9971M86.1335 39.0216H84.2029L81.7576 40.6948L75.5155 43.2045L74.6789 39.0216" stroke="#DBFF00" stroke-width="1.02962"/>
<path id="Vector 51" d="M63.5469 26.2158L58.8492 29.9482L56.4039 37.0912L56.0178 40.8879" stroke="#DBFF00" stroke-width="1.02962"/>
<path id="Vector_3" d="M82.3953 19.7996C82.1651 19.9259 81.921 20.0215 81.6799 20.1266C81.5688 20.1747 81.4608 20.2254 81.3564 20.2845C81.2481 20.3462 81.1422 20.4089 81.0245 20.4529C81.0211 20.4543 80.9434 20.3548 80.9448 20.3512C81.0038 20.2501 81.1402 20.2081 81.2428 20.1705C81.3843 20.1195 81.5205 20.0607 81.6556 19.9946C81.804 19.9228 81.9525 19.8509 82.0988 19.7741C82.1637 19.7406 82.2349 19.6986 82.3092 19.6898C82.3802 19.6825 82.4458 19.7159 82.5169 19.7016C82.5433 19.7359 82.5701 19.769 82.5965 19.8033C82.5521 19.8034 82.5245 19.8269 82.4883 19.8511C82.4433 19.8801 82.3954 19.9024 82.3475 19.9247C82.2565 19.9642 82.1625 19.9942 82.0748 20.0393C81.9539 20.1014 81.7904 20.2241 81.646 20.1726C81.6341 20.1678 81.5702 20.0683 81.5664 20.071C81.6375 20.022 81.722 20.009 81.8038 19.9851C81.9081 19.9538 82.0091 19.9169 82.1125 19.881C82.2058 19.8493 82.3006 19.821 82.3979 19.8035C82.4474 19.7943 82.5624 19.802 82.5815 19.7444C82.6079 19.7787 82.6347 19.8118 82.6611 19.8461C82.5334 19.8736 82.417 19.9348 82.3068 20.0012C82.2517 20.0345 82.2004 20.072 82.142 20.0998C82.0886 20.1254 82.0291 20.1318 81.9745 20.1569C81.9481 20.1227 81.9212 20.0896 81.8948 20.0553C82.0391 20.004 82.1697 19.9249 82.2995 19.8442C82.3573 19.8078 82.4152 19.7744 82.4685 19.732C82.526 19.6859 82.5793 19.6366 82.6451 19.6008C82.6456 19.5996 82.7262 19.6989 82.7248 19.7025C82.657 19.8014 82.5318 19.8465 82.43 19.9025C82.3553 19.9431 82.2336 20.0244 82.1465 19.9822C82.1363 19.9767 82.0644 19.8865 82.0669 19.8806C82.1073 19.7942 82.2179 19.7681 82.2974 19.7295C82.4164 19.6721 82.5283 19.6049 82.6515 19.5576C82.6633 19.5526 82.7211 19.6635 82.7312 19.6592C82.6203 19.7102 82.4944 19.7092 82.3973 19.7879C82.3709 19.7537 82.344 19.7206 82.3176 19.6863C82.442 19.6464 82.553 19.5816 82.6629 19.5122C82.6668 19.5096 82.7409 19.6146 82.7426 19.6139C82.6091 19.707 82.4758 19.8031 82.3352 19.8864C82.2708 19.9256 82.2009 19.9542 82.135 19.99C82.0802 20.0192 82.0307 20.0728 81.9714 20.0891C81.9618 20.0921 81.8972 19.9841 81.8917 19.9874C82.0271 19.8895 82.1882 19.838 82.325 19.7434C82.3272 19.7415 82.403 19.8458 82.4047 19.8451C82.2966 19.9235 82.17 19.9723 82.0564 20.0402C81.9309 20.1171 81.8053 20.194 81.6765 20.2655C81.4497 20.3903 81.2125 20.5373 80.9533 20.574C80.9269 20.5397 80.9 20.5066 80.8736 20.4724C81.0651 20.4485 81.2481 20.4045 81.4248 20.3247C81.4761 20.301 81.7305 20.1971 81.6683 20.1108C81.6939 20.1434 81.7203 20.1777 81.746 20.2103C81.6953 20.1606 81.6052 20.2186 81.5554 20.2456C81.4469 20.3045 81.3372 20.3628 81.2263 20.4207C81.1099 20.4819 81.0011 20.5517 80.8888 20.6201C80.8057 20.6712 80.6995 20.7518 80.5962 20.7461C80.5869 20.7451 80.5182 20.6438 80.5166 20.6445C80.6385 20.5147 80.836 20.4933 80.9966 20.4361C81.1802 20.3701 81.3862 20.3549 81.5518 20.2442C81.5782 20.2785 81.6051 20.3115 81.6315 20.3458C81.562 20.3358 81.4807 20.389 81.4175 20.4148C81.3292 20.4512 81.2404 20.4889 81.1535 20.5287C80.988 20.6047 80.8306 20.6952 80.6604 20.7624C80.6341 20.7281 80.6072 20.695 80.5808 20.6607C80.6803 20.6413 80.7696 20.5886 80.8654 20.5579C80.9707 20.5241 81.0793 20.4959 81.185 20.4609C81.2846 20.4276 81.3865 20.3953 81.4771 20.3431C81.5367 20.3089 81.5971 20.2181 81.6693 20.2181C81.6819 20.2177 81.7434 20.3231 81.7489 20.3198C81.596 20.4301 81.4142 20.4814 81.2501 20.5678C81.1675 20.6107 81.0965 20.6695 81.0198 20.7217C80.9585 20.7636 80.8863 20.8288 80.8093 20.8337C80.8007 20.8344 80.7313 20.7314 80.7296 20.7321C80.7961 20.6604 80.9009 20.6417 80.9909 20.6114C81.0983 20.5758 81.2048 20.5356 81.3094 20.4932C81.4028 20.4546 81.5007 20.422 81.5898 20.3734C81.6712 20.33 81.7311 20.2473 81.817 20.2168C81.8237 20.2139 81.8945 20.3203 81.8966 20.3184C81.8465 20.3634 81.7669 20.3784 81.7049 20.4047C81.6323 20.4364 81.5638 20.4753 81.496 20.5159C81.3592 20.5967 81.2234 20.675 81.0691 20.7167C81.0612 20.719 80.9933 20.6124 80.9894 20.615C81.1146 20.5116 81.2452 20.4256 81.3962 20.3645C81.5595 20.2973 81.7185 20.22 81.8751 20.1348C81.879 20.1322 81.9531 20.2372 81.9548 20.2364C81.862 20.3114 81.7628 20.3781 81.6617 20.4427C81.5694 20.5026 81.4753 20.5603 81.3664 20.5857C81.3619 20.5866 81.2855 20.4905 81.2868 20.484C81.318 20.3828 81.4917 20.3379 81.5755 20.2954C81.7122 20.2286 81.8717 20.1432 81.9735 20.0288C81.9999 20.0631 82.0268 20.0962 82.0532 20.1305C81.9935 20.1855 81.9057 20.2069 81.8329 20.2427C81.7445 20.286 81.6588 20.3333 81.5711 20.3783C81.4918 20.4198 81.4147 20.4664 81.3354 20.5079C81.2545 20.5501 81.1665 20.5686 81.0846 20.6063C81.0582 20.572 81.0313 20.539 81.0049 20.5047C81.1799 20.4394 81.3093 20.2946 81.4854 20.2298C81.4921 20.227 81.5617 20.3329 81.5651 20.3315C81.4752 20.4061 81.3653 20.4478 81.2614 20.4988C81.1414 20.5585 81.0245 20.6278 80.9083 20.6919C80.7883 20.7586 80.6676 20.8236 80.549 20.8936C80.4427 20.9575 80.3484 21.0429 80.2325 21.0891C80.2292 21.0905 80.1514 20.991 80.1529 20.9874C80.1841 20.9376 80.2414 20.9163 80.289 20.8842C80.3427 20.8476 80.3938 20.8072 80.4475 20.7706C80.5477 20.7015 80.6583 20.6477 80.752 20.5704C80.7516 20.5715 80.8339 20.6701 80.8317 20.672C80.7454 20.7481 80.6327 20.7761 80.5383 20.8379C80.446 20.8978 80.3618 20.972 80.2502 20.9907C80.2382 20.9928 80.176 20.8857 80.1705 20.889C80.2678 20.8201 80.3784 20.7802 80.4811 20.7218C80.5678 20.6722 80.6736 20.6372 80.7327 20.5528C80.7591 20.5871 80.786 20.6202 80.8124 20.6545C80.7692 20.6995 80.7051 20.7138 80.6505 20.7389C80.5775 20.7719 80.5106 20.817 80.439 20.8533C80.2941 20.9266 80.1325 20.9556 79.984 21.0205C79.9576 20.9862 79.9308 20.9531 79.9044 20.9188C80.0769 20.8526 80.2422 20.7736 80.4064 20.6902C80.5556 20.6131 80.7153 20.5583 80.8524 20.4596C80.8788 20.4939 80.9056 20.527 80.932 20.5613C80.8705 20.535 80.7616 20.6325 80.7156 20.6639C80.6247 20.7271 80.5277 20.785 80.4219 20.82C80.3956 20.7857 80.3687 20.7526 80.3423 20.7183C80.4721 20.7098 80.5897 20.6352 80.6964 20.5673C80.7002 20.5646 80.7743 20.6696 80.776 20.6689C80.7235 20.706 80.6925 20.7518 80.6317 20.7785C80.5697 20.8048 80.5077 20.8242 80.4471 20.8538C80.3059 20.9216 80.1573 20.9698 80.0134 21.0337C79.987 20.9994 79.9601 20.9663 79.9337 20.9321C80.0139 20.902 80.0822 20.8533 80.1583 20.8161C80.2345 20.7789 80.3173 20.7596 80.3958 20.7303C80.5561 20.6702 80.6645 20.5363 80.8196 20.4686C80.846 20.5029 80.8729 20.5359 80.8992 20.5702C80.8473 20.5201 80.6486 20.6646 80.6064 20.7003C80.5801 20.666 80.5532 20.6329 80.5268 20.5986C80.6078 20.5495 80.6916 20.507 80.774 20.4612C80.8492 20.4194 80.9334 20.3966 81.0027 20.3455C81.0291 20.3798 81.0559 20.4129 81.0823 20.4471C80.9312 20.4707 80.789 20.527 80.6542 20.596C80.6278 20.5617 80.6009 20.5286 80.5745 20.4944C80.7574 20.4712 80.8842 20.3295 81.0517 20.2654C81.0584 20.2625 81.1293 20.3689 81.1314 20.367C81.0201 20.4636 80.8851 20.5228 80.7586 20.5952C80.6968 20.6313 80.635 20.6674 80.5692 20.6963C80.5167 20.7195 80.4426 20.7242 80.4009 20.7657C80.3745 20.7314 80.3476 20.6983 80.3212 20.664C80.4043 20.6782 80.509 20.6358 80.5806 20.5995C80.607 20.6338 80.6338 20.6669 80.6602 20.7012C80.5061 20.7458 80.3596 20.8128 80.21 20.8703C80.0805 20.9193 79.9619 20.9962 79.8237 21.0222C79.8055 21.026 79.761 20.9163 79.744 20.9206C79.8486 20.8921 79.9469 20.8513 80.0555 20.8439C80.0819 20.8782 80.1087 20.9112 80.1351 20.9455C80.0356 20.8997 79.9196 20.9875 79.8344 21.0335C79.7774 21.0646 79.718 21.0947 79.6548 21.1136C79.5876 21.1322 79.5173 21.1273 79.4584 21.1701C79.432 21.1359 79.4051 21.1028 79.3787 21.0685C79.4461 21.118 79.5446 21.0495 79.6131 21.0314C79.7052 21.0062 79.7995 20.9652 79.896 20.9737C79.9053 20.9747 79.9755 21.0656 79.9757 21.0754C79.9719 21.1363 79.7364 21.159 79.6909 21.1684C79.6285 21.182 79.5686 21.2064 79.5071 21.2246C79.4107 21.2536 79.3122 21.2776 79.2195 21.3179C79.1931 21.2836 79.1662 21.2505 79.1398 21.2162C79.3479 21.131 79.5775 21.1434 79.7867 21.0656C79.8131 21.0998 79.8399 21.1329 79.8663 21.1672C79.7654 21.1319 79.6408 21.2065 79.5491 21.2443C79.4026 21.3045 79.2533 21.351 79.1085 21.4173C79.0821 21.383 79.0552 21.3499 79.0288 21.3157C79.0946 21.2868 79.1524 21.2435 79.2216 21.2201C79.2907 21.1967 79.3632 21.1858 79.4331 21.1641C79.552 21.1275 79.6579 21.044 79.7895 21.0653C79.8065 21.068 79.8575 21.172 79.8692 21.167C79.8067 21.1945 79.7393 21.2033 79.6759 21.2262C79.6057 21.252 79.5404 21.2866 79.4709 21.3141C79.4053 21.3389 79.3386 21.3563 79.2716 21.3778C79.2187 21.3953 79.1634 21.4326 79.1067 21.425C79.0939 21.4225 79.0326 21.32 79.0271 21.3233C79.145 21.2377 79.2934 21.2519 79.4299 21.2267C79.5859 21.1981 79.7225 21.1076 79.8838 21.0965C79.908 21.0952 79.9405 21.2 79.9635 21.1982C79.7856 21.2123 79.6276 21.2941 79.4731 21.3774C79.4017 21.4166 79.3291 21.4552 79.2509 21.4805C79.1698 21.506 79.0861 21.5068 79.0168 21.558C78.9904 21.5237 78.9636 21.4906 78.9372 21.4563C79.0569 21.4075 79.1839 21.3853 79.3073 21.3478C79.432 21.3108 79.5441 21.2465 79.6633 21.1989C79.675 21.1939 79.7329 21.3048 79.743 21.3006C79.6199 21.3507 79.4928 21.3937 79.3662 21.4355C79.2487 21.4755 79.1275 21.5041 79.0149 21.5558C78.9885 21.5215 78.9617 21.4884 78.9353 21.4541C79.0993 21.4261 79.2559 21.3617 79.4129 21.31C79.4916 21.2836 79.5715 21.2576 79.6477 21.2273C79.7159 21.1994 79.7808 21.1659 79.8565 21.1674C79.8647 21.1679 79.9367 21.2609 79.9362 21.2691C79.921 21.3546 79.7254 21.3782 79.6599 21.3961C79.5994 21.4118 79.5424 21.436 79.4811 21.4501C79.3926 21.4698 79.3008 21.4771 79.2121 21.494C79.2013 21.4965 79.138 21.389 79.1324 21.3923C79.2161 21.3331 79.3189 21.3331 79.416 21.3126C79.5363 21.2864 79.6481 21.233 79.7684 21.2067C79.7775 21.2049 79.8443 21.311 79.8481 21.3084C79.7565 21.3838 79.647 21.3936 79.5414 21.4384C79.4404 21.4822 79.3519 21.5533 79.236 21.5481C79.2238 21.5473 79.1619 21.4431 79.1564 21.4464C79.2728 21.3644 79.4156 21.3444 79.5465 21.2988C79.6825 21.2511 79.8265 21.2108 79.9444 21.1252C79.9708 21.1595 79.9977 21.1926 80.0241 21.2269C79.9217 21.2535 79.8468 21.3426 79.7346 21.3041C79.7198 21.2995 79.6633 21.1989 79.6549 21.2025C79.7816 21.1399 79.9178 21.0881 80.0252 20.9941C80.0516 21.0284 80.0785 21.0615 80.1049 21.0957C80.0156 21.1484 79.9141 21.1727 79.8241 21.2237C79.7544 21.2621 79.6939 21.3224 79.6107 21.329C79.6021 21.3296 79.5327 21.2266 79.531 21.2273C79.6739 21.063 79.9003 21.0282 80.0912 20.9444C80.1176 20.9787 80.1444 21.0118 80.1708 21.046C80.0179 21.105 79.8685 21.1722 79.7172 21.2374C79.6908 21.2031 79.6639 21.17 79.6375 21.1357C79.7813 21.1064 79.898 21.0273 80.0168 20.9463C80.019 20.9443 80.0948 21.0486 80.0965 21.0479C79.963 21.148 79.8031 21.1999 79.6492 21.2612C79.5149 21.3152 79.3636 21.3734 79.217 21.3515C79.2053 21.3496 79.1395 21.248 79.1373 21.2499C79.2361 21.1635 79.4079 21.2469 79.4869 21.1303C79.5133 21.1646 79.5402 21.1977 79.5666 21.232C79.36 21.2761 79.1606 21.3468 78.965 21.4287C78.9386 21.3944 78.9117 21.3613 78.8853 21.327C78.968 21.3286 79.0339 21.2789 79.1086 21.2522C79.1929 21.2224 79.2728 21.2033 79.3323 21.1316C79.3587 21.1659 79.3856 21.199 79.412 21.2333C79.3244 21.2506 79.2328 21.2816 79.1514 21.3181C79.0783 21.351 79.016 21.4021 78.9347 21.4109C78.9216 21.4125 78.8622 21.3052 78.8551 21.3092C78.9128 21.2729 78.9788 21.2607 79.0415 21.2361C79.1098 21.2082 79.1744 21.1719 79.2412 21.1406C79.3059 21.1112 79.3731 21.0926 79.438 21.0661C79.5012 21.0403 79.5542 20.9951 79.6171 20.9664C79.6238 20.9636 79.6935 21.0695 79.6968 21.0681C79.5117 21.2098 79.2577 21.1959 79.0734 21.3393C79.047 21.305 79.0201 21.2719 78.9937 21.2376C79.0763 21.253 79.1519 21.1933 79.2173 21.1517C79.3079 21.0926 79.4008 21.0344 79.5021 20.9935C79.5285 21.0277 79.5553 21.0608 79.5817 21.0951C79.4689 21.1133 79.3814 21.182 79.2813 21.2304C79.1706 21.2842 79.0581 21.3428 78.9446 21.3899C78.9182 21.3556 78.8913 21.3225 78.8649 21.2882C78.9712 21.2452 79.0944 21.2117 79.1877 21.1425C79.2378 21.1045 79.3098 21.0156 79.3807 21.0429C79.3915 21.0473 79.4621 21.1369 79.4604 21.1446C79.428 21.2314 79.3167 21.2628 79.2418 21.3005C79.1946 21.3244 79.1562 21.3644 79.1071 21.3862C79.0597 21.4073 79.0091 21.409 78.9638 21.4351C78.9374 21.4009 78.9105 21.3678 78.8841 21.3335C78.8994 21.3438 78.9134 21.3537 78.9292 21.3628C78.9413 21.3705 79.0115 21.4544 79.0088 21.4645C78.9853 21.5466 78.8391 21.5957 78.7633 21.5942C78.7552 21.5937 78.6827 21.495 78.6837 21.4926C78.72 21.4268 78.7971 21.3872 78.8601 21.3516C78.9294 21.3143 79.0012 21.2809 79.0747 21.2537C79.0814 21.2509 79.151 21.3568 79.1543 21.3554C79.0404 21.4481 78.8922 21.4645 78.7596 21.5177C78.7479 21.5227 78.69 21.4118 78.6799 21.4161C78.7905 21.3692 78.8914 21.3017 79.0013 21.2532C79.0085 21.2491 79.0759 21.357 79.081 21.3548C78.9899 21.4152 78.8939 21.4638 78.7919 21.5031C78.7802 21.508 78.7223 21.3971 78.7123 21.4014C78.7721 21.377 78.8371 21.3672 78.8946 21.335C78.9466 21.306 78.9872 21.2641 79.0425 21.2407C79.0458 21.2393 79.1226 21.3411 79.1221 21.3423C79.052 21.4195 78.9475 21.4341 78.8727 21.5024C78.8463 21.4681 78.8194 21.435 78.793 21.4008C78.9636 21.367 79.1107 21.2711 79.2625 21.1909C79.3401 21.1501 79.4187 21.1138 79.4963 21.073C79.5616 21.0384 79.6248 20.9751 79.6996 20.9651C79.707 20.9639 79.7797 21.0655 79.7793 21.0667C79.7365 21.1244 79.6679 21.1189 79.6066 21.1399C79.5425 21.1611 79.4995 21.216 79.429 21.2221C79.4118 21.2235 79.3611 21.1155 79.3493 21.1205C79.492 21.056 79.6297 20.9868 79.7703 20.9173C79.8498 20.8787 79.9763 20.8577 80.0247 20.7759C80.0511 20.8102 80.0779 20.8432 80.1043 20.8775C80.0228 20.8973 79.9447 20.9323 79.8709 20.9705C79.806 21.004 79.7521 21.0585 79.6789 21.0747C79.6714 21.0759 79.6004 20.9735 79.5992 20.973C79.7034 20.8528 79.8561 20.791 79.9986 20.7306C80.0249 20.7649 80.0518 20.798 80.0782 20.8323C79.9899 20.8687 79.9241 20.9351 79.8451 20.9864C79.7626 21.0392 79.6686 21.0692 79.5874 21.1224C79.561 21.0881 79.5341 21.055 79.5077 21.0207C79.5609 21.0436 79.6378 20.9942 79.6845 20.9715C79.7595 20.9338 79.8356 20.8965 79.9106 20.8588C80.0071 20.809 80.11 20.7674 80.2013 20.7099C80.248 20.6802 80.2921 20.6467 80.3396 20.6187C80.3836 20.5921 80.4272 20.5736 80.4611 20.5345C80.4875 20.5688 80.5143 20.6019 80.5407 20.6362C80.4596 20.6686 80.3773 20.7006 80.3127 20.7605C80.2863 20.7262 80.2594 20.6932 80.2331 20.6589C80.3358 20.6143 80.4365 20.5815 80.5052 20.4872C80.5316 20.5214 80.5585 20.5545 80.5849 20.5888C80.5026 20.6652 80.407 20.7196 80.3043 20.7641C80.2943 20.7683 80.2343 20.6594 80.2247 20.6624C80.3061 20.626 80.3717 20.5428 80.4661 20.5393C80.4759 20.5391 80.5441 20.6417 80.5457 20.641C80.4677 20.7205 80.3582 20.7304 80.2591 20.7694C80.1332 20.8198 80.0239 20.9047 79.9001 20.9601C79.8738 20.9259 79.8469 20.8928 79.8205 20.8585C79.9847 20.7958 80.1316 20.69 80.2979 20.6324C80.3755 20.6054 80.5661 20.5701 80.5722 20.4657C80.5986 20.5 80.6255 20.533 80.6519 20.5673C80.5944 20.5927 80.547 20.6345 80.4867 20.6532C80.4259 20.673 80.3623 20.6792 80.3022 20.7007C80.2141 20.7331 80.1057 20.7643 80.0364 20.8292C80.01 20.7949 79.9831 20.7619 79.9567 20.7276C79.9828 20.7284 80.0038 20.7313 80.0286 20.7386C80.0422 20.7427 80.1028 20.8436 80.1083 20.8403C80.0747 20.8614 80.0388 20.8746 80.0025 20.8891C79.9907 20.894 79.9329 20.7832 79.9228 20.7874C79.9977 20.7567 80.0736 20.7304 80.1438 20.6908C80.2046 20.6571 80.2535 20.6186 80.3267 20.6162C80.3451 20.6153 80.3917 20.7231 80.4063 20.7179C80.2347 20.7817 80.0906 20.9011 79.9225 20.9734C79.9108 20.9783 79.8529 20.8675 79.8429 20.8717C80.0109 20.7995 80.1551 20.6801 80.3267 20.6162C80.3531 20.6505 80.3799 20.6836 80.4063 20.7179C80.3337 20.719 80.2848 20.7575 80.2234 20.7924C80.1533 20.8321 80.0762 20.8578 80.0025 20.8891C79.9761 20.8548 79.9492 20.8217 79.9228 20.7874C79.9592 20.773 79.9956 20.7586 80.0286 20.7386C80.055 20.7729 80.0819 20.806 80.1083 20.8403C80.0835 20.833 80.0625 20.83 80.0364 20.8292C80.0254 20.8289 79.9589 20.7257 79.9567 20.7276C80.0261 20.6626 80.1349 20.6303 80.2225 20.5991C80.2793 20.579 80.3381 20.5709 80.3962 20.5541C80.4618 20.5362 80.5114 20.4924 80.5727 20.4645C80.5744 20.4638 80.6522 20.5563 80.6524 20.5661C80.645 20.6701 80.4539 20.7066 80.3781 20.7328C80.2117 20.7905 80.0653 20.8951 79.9006 20.9589C79.8889 20.9639 79.831 20.853 79.821 20.8573C79.9447 20.8019 80.0552 20.7174 80.18 20.6666C80.2795 20.6263 80.3879 20.616 80.4666 20.5382C80.493 20.5724 80.5198 20.6055 80.5462 20.6398C80.4518 20.6433 80.3867 20.7252 80.3048 20.7629C80.2784 20.7286 80.2516 20.6955 80.2252 20.6612C80.3279 20.6167 80.4234 20.5624 80.5057 20.486C80.5014 20.4898 80.59 20.5798 80.5854 20.5876C80.5167 20.682 80.4159 20.7148 80.3132 20.7593C80.3082 20.7615 80.2352 20.657 80.2335 20.6577C80.2985 20.5965 80.3797 20.5641 80.4616 20.5333C80.4661 20.5324 80.5417 20.6338 80.5412 20.635C80.5074 20.6741 80.4638 20.6925 80.4197 20.7191C80.3723 20.7471 80.3282 20.7807 80.2815 20.8104C80.1902 20.8678 80.0872 20.9095 79.9907 20.9593C79.9153 20.9982 79.8396 21.0342 79.7647 21.0719C79.718 21.0947 79.6411 21.1441 79.5879 21.1212C79.5759 21.1164 79.512 21.0169 79.5082 21.0195C79.5899 20.9651 79.6839 20.9351 79.7659 20.8836C79.8461 20.8328 79.9095 20.7654 79.999 20.7294C80.0108 20.7244 80.0686 20.8353 80.0787 20.8311C79.9363 20.8914 79.7835 20.9532 79.6793 21.0735C79.6529 21.0392 79.6261 21.0061 79.5997 20.9719C79.6729 20.9557 79.7269 20.9011 79.7918 20.8677C79.8655 20.8295 79.9436 20.7944 80.0252 20.7747C80.0297 20.7737 80.1058 20.874 80.1048 20.8763C80.0553 20.9576 79.9299 20.9791 79.8504 21.0178C79.7104 21.086 79.5722 21.1565 79.4295 21.2209C79.4031 21.1866 79.3762 21.1536 79.3498 21.1193C79.4199 21.1143 79.4629 21.0595 79.5275 21.037C79.5904 21.0153 79.6573 21.0215 79.7001 20.9639C79.7265 20.9982 79.7534 21.0312 79.7797 21.0655C79.709 21.0758 79.6511 21.1329 79.5891 21.1661C79.5089 21.21 79.4241 21.2479 79.3427 21.2913C79.1908 21.3715 79.0437 21.4675 78.8732 21.5012C78.8641 21.5031 78.7957 21.3977 78.7935 21.3996C78.8684 21.3313 78.9741 21.3171 79.043 21.2395C79.0693 21.2738 79.0962 21.3068 79.1226 21.3411C79.0673 21.3646 79.0268 21.4065 78.9748 21.4354C78.919 21.467 78.8522 21.4775 78.7924 21.5019C78.766 21.4676 78.7391 21.4345 78.7127 21.4002C78.8147 21.3609 78.9107 21.3123 79.0018 21.252C79.0282 21.2863 79.0551 21.3194 79.0815 21.3536C78.9716 21.4022 78.8707 21.4697 78.7601 21.5165C78.7337 21.4823 78.7068 21.4492 78.6804 21.4149C78.813 21.3616 78.9613 21.3453 79.0752 21.2525C79.1015 21.2868 79.1284 21.3199 79.1548 21.3542C79.0813 21.3814 79.0083 21.4143 78.9403 21.452C78.8766 21.4859 78.8002 21.5272 78.7638 21.593C78.7374 21.5588 78.7106 21.5257 78.6842 21.4914C78.7599 21.4929 78.9061 21.4438 78.9297 21.3616C78.956 21.3959 78.9829 21.429 79.0093 21.4633C78.9936 21.4541 78.9778 21.445 78.9643 21.434C78.9533 21.4267 78.8879 21.3309 78.8846 21.3323C78.9299 21.3062 78.9805 21.3045 79.0279 21.2834C79.0758 21.2611 79.1142 21.2211 79.1626 21.1976C79.2381 21.1587 79.3488 21.1286 79.3812 21.0417C79.4076 21.076 79.4345 21.1091 79.4609 21.1434C79.39 21.1161 79.3179 21.205 79.2678 21.243C79.1746 21.3122 79.0519 21.3444 78.9451 21.3887C78.9334 21.3937 78.8755 21.2828 78.8654 21.2871C78.9789 21.2399 79.0915 21.1814 79.2021 21.1275C79.3022 21.0792 79.3897 21.0105 79.5026 20.9923C79.5191 20.9892 79.5693 21.0984 79.5822 21.0939C79.4817 21.1365 79.3892 21.1935 79.2974 21.2522C79.2315 21.295 79.1565 21.3534 79.0739 21.3381C79.0622 21.3361 78.998 21.2338 78.9942 21.2364C79.1786 21.093 79.4326 21.1069 79.6176 20.9652C79.644 20.9995 79.6709 21.0326 79.6973 21.0669C79.6348 21.0944 79.5818 21.1396 79.5181 21.1665C79.4533 21.1931 79.3848 21.2112 79.3214 21.2411C79.2546 21.2723 79.1899 21.3086 79.1217 21.3366C79.0602 21.3617 78.9929 21.3734 78.9352 21.4097C78.9088 21.3754 78.8819 21.3423 78.8555 21.308C78.9368 21.2993 78.9997 21.247 79.0722 21.2152C79.1536 21.1787 79.2453 21.1478 79.3328 21.1304C79.3402 21.1293 79.4125 21.2321 79.4125 21.2321C79.3529 21.3038 79.273 21.3228 79.1888 21.3526C79.1129 21.3788 79.0482 21.429 78.9655 21.4275C78.9476 21.4272 78.8988 21.3214 78.8858 21.3259C79.0802 21.2435 79.2803 21.1744 79.4874 21.1291C79.4937 21.1275 79.5676 21.2296 79.5671 21.2308C79.488 21.3474 79.3151 21.2635 79.2175 21.3503C79.1911 21.3161 79.1642 21.283 79.1378 21.2487C79.2852 21.2722 79.4357 21.2124 79.57 21.1584C79.7239 21.0971 79.8826 21.0447 80.0173 20.9451C80.0437 20.9793 80.0706 21.0124 80.097 21.0467C79.9781 21.1277 79.8614 21.2069 79.7177 21.2362C79.7023 21.2397 79.6497 21.1296 79.638 21.1345C79.7893 21.0694 79.9382 21.0033 80.0916 20.9432C80.1034 20.9382 80.1612 21.0491 80.1713 21.0449C79.98 21.1299 79.754 21.1634 79.6112 21.3278C79.5848 21.2935 79.5579 21.2604 79.5315 21.2261C79.6147 21.2195 79.674 21.1588 79.7449 21.1208C79.8356 21.0715 79.9376 21.0461 80.0257 20.9929C80.0291 20.9915 80.1054 21.0945 80.1054 21.0945C79.9979 21.1885 79.8617 21.2403 79.7351 21.3029C79.7087 21.2686 79.6818 21.2356 79.6554 21.2013C79.7676 21.2397 79.8425 21.1506 79.9449 21.124C79.9545 21.121 80.019 21.229 80.0246 21.2257C79.9066 21.3112 79.7626 21.3515 79.6267 21.3993C79.4957 21.4449 79.3525 21.4661 79.2365 21.5469C79.2101 21.5126 79.1832 21.4795 79.1568 21.4452C79.2727 21.4505 79.3612 21.3793 79.4622 21.3355C79.5666 21.2903 79.6773 21.2809 79.7689 21.2055C79.7953 21.2398 79.8222 21.2729 79.8486 21.3072C79.7287 21.3323 79.6164 21.3868 79.4961 21.4131C79.4002 21.434 79.2962 21.4336 79.2126 21.4928C79.1862 21.4585 79.1593 21.4254 79.1329 21.3911C79.2183 21.3757 79.3049 21.3677 79.3895 21.3505C79.4548 21.3367 79.5163 21.3116 79.5819 21.2937C79.6475 21.2758 79.8442 21.2527 79.8582 21.1667C79.8846 21.201 79.9115 21.2341 79.9379 21.2683C79.8662 21.2671 79.8039 21.2974 79.7386 21.3252C79.6586 21.3581 79.5753 21.3855 79.4937 21.4121C79.3356 21.4634 79.1802 21.5283 79.0161 21.5563C79.0013 21.5586 78.9482 21.4497 78.9365 21.4546C79.0502 21.4035 79.1708 21.3731 79.2878 21.3344C79.4144 21.2926 79.5403 21.2491 79.6645 21.1994C79.6909 21.2337 79.7178 21.2668 79.7442 21.301C79.6238 21.3481 79.5124 21.4141 79.3882 21.45C79.2652 21.4863 79.1382 21.5085 79.018 21.5584C79.0113 21.5613 78.9422 21.4542 78.9384 21.4568C79.0088 21.4062 79.093 21.4041 79.1724 21.3793C79.2502 21.3553 79.3232 21.3154 79.3946 21.2762C79.5496 21.1918 79.7071 21.1111 79.885 21.097C79.9114 21.1313 79.9383 21.1644 79.9647 21.1987C79.8033 21.2097 79.6667 21.3003 79.5108 21.3288C79.3742 21.3541 79.2259 21.3399 79.1079 21.4254C79.0815 21.3912 79.0547 21.3581 79.0283 21.3238C79.0844 21.3326 79.1402 21.2941 79.1931 21.2766C79.2589 21.2547 79.3274 21.2365 79.3925 21.2129C79.4626 21.1871 79.5273 21.1508 79.5974 21.125C79.6608 21.1021 79.7282 21.0933 79.7907 21.0658C79.8171 21.1001 79.844 21.1332 79.8704 21.1675C79.7388 21.1462 79.634 21.2301 79.5139 21.2662C79.4486 21.287 79.3795 21.2965 79.3153 21.3178C79.2416 21.3421 79.1805 21.3868 79.1113 21.4171C79.1013 21.4213 79.04 21.3119 79.0316 21.3154C79.1753 21.2486 79.3258 21.2026 79.4723 21.1425C79.5635 21.1058 79.6881 21.0312 79.7895 21.0653C79.8067 21.0709 79.858 21.1708 79.8692 21.167C79.66 21.2448 79.4292 21.2319 79.2224 21.3176C79.2106 21.3226 79.1528 21.2117 79.1427 21.216C79.232 21.1771 79.3248 21.1536 79.4174 21.1272C79.4835 21.1081 79.5467 21.0823 79.6136 21.0677C79.6579 21.0579 79.8946 21.0356 79.8984 20.9747C79.9248 21.009 79.9517 21.0421 79.9781 21.0763C79.8815 21.0678 79.7872 21.1088 79.6951 21.134C79.6262 21.1533 79.527 21.2201 79.4607 21.1711C79.451 21.1644 79.3828 21.0687 79.3811 21.0695C79.4357 21.0305 79.5012 21.0334 79.5651 21.0162C79.633 20.9992 79.6967 20.9653 79.7583 20.9333C79.8435 20.8873 79.9579 20.8002 80.059 20.8453C80.0812 20.8557 80.1174 20.9481 80.1387 20.947C80.0302 20.9544 79.9318 20.9951 79.8272 21.0237C79.8008 20.9894 79.774 20.9563 79.7476 20.922C79.8846 20.8955 80.0044 20.8191 80.1339 20.7701C80.2835 20.7126 80.4308 20.6472 80.5841 20.601C80.5966 20.5977 80.6537 20.7069 80.6638 20.7026C80.5905 20.7396 80.4864 20.7808 80.4045 20.7671C80.394 20.7656 80.3265 20.6647 80.3248 20.6655C80.3644 20.6259 80.4311 20.6224 80.4814 20.6011C80.5518 20.5712 80.6174 20.5325 80.683 20.4938C80.8095 20.4214 80.9457 20.3627 81.0558 20.2656C81.0822 20.2999 81.1091 20.333 81.1355 20.3673C80.9679 20.4314 80.8416 20.5719 80.6582 20.5963C80.6434 20.5986 80.5886 20.4904 80.5786 20.4946C80.7139 20.4244 80.8556 20.3693 81.0067 20.3457C81.017 20.3443 81.0809 20.4507 81.0864 20.4474C81.0171 20.4985 80.9329 20.5214 80.8577 20.5631C80.7753 20.6089 80.6903 20.6509 80.6105 20.7005C80.6072 20.7019 80.532 20.5994 80.5308 20.5989C80.5752 20.5613 80.6301 20.5321 80.6811 20.5055C80.7093 20.4906 80.7925 20.4395 80.8237 20.4688C80.8337 20.4784 80.8983 20.5726 80.9033 20.5705C80.7482 20.6382 80.6399 20.7721 80.4795 20.8322C80.4043 20.8601 80.3249 20.8779 80.2526 20.9125C80.1719 20.9507 80.0993 21.0032 80.0158 21.0347C80.004 21.0397 79.9461 20.9288 79.9361 20.933C80.0795 20.8703 80.2281 20.8221 80.3699 20.7531C80.4304 20.7235 80.4936 20.7046 80.5544 20.6778C80.6164 20.6516 80.6475 20.6058 80.6987 20.5682C80.7251 20.6025 80.752 20.6356 80.7784 20.6699C80.6718 20.7378 80.5541 20.8124 80.4243 20.821C80.4054 20.823 80.3605 20.7146 80.3447 20.7193C80.4493 20.6839 80.5475 20.6264 80.6383 20.5632C80.6848 20.5306 80.7925 20.4326 80.8548 20.4606C80.8667 20.4654 80.9311 20.5636 80.9344 20.5622C80.7973 20.6609 80.6377 20.7157 80.4885 20.7928C80.3237 20.8774 80.159 20.9552 79.9864 21.0214C79.9747 21.0264 79.9168 20.9155 79.9067 20.9198C80.054 20.8544 80.2169 20.8259 80.3617 20.7526C80.4295 20.7189 80.4937 20.6769 80.5615 20.6432C80.6199 20.6155 80.6898 20.6007 80.7356 20.5526C80.7308 20.5576 80.8203 20.6452 80.8153 20.6543C80.7561 20.7386 80.6511 20.7753 80.5637 20.8232C80.4609 20.8816 80.3487 20.9222 80.253 20.9904C80.2266 20.9562 80.1998 20.9231 80.1734 20.8888C80.285 20.8701 80.3692 20.7959 80.4615 20.736C80.5559 20.6743 80.6697 20.6467 80.7549 20.5701C80.7813 20.6044 80.8082 20.6375 80.8346 20.6718C80.7403 20.7503 80.6302 20.8029 80.53 20.872C80.4763 20.9086 80.4253 20.9491 80.3716 20.9857C80.3239 21.0177 80.2679 21.0395 80.2354 21.0888C80.209 21.0546 80.1821 21.0215 80.1558 20.9872C80.2716 20.941 80.3664 20.8544 80.4723 20.7918C80.5896 20.7212 80.7108 20.655 80.8315 20.59C80.9494 20.5252 81.0651 20.4554 81.1846 20.3969C81.2885 20.3459 81.3984 20.3043 81.4883 20.2296C81.5147 20.2639 81.5416 20.297 81.568 20.3312C81.393 20.3965 81.2636 20.5413 81.0874 20.6061C81.0762 20.6099 81.0178 20.5002 81.0078 20.5044C81.0851 20.4677 81.1693 20.4518 81.2464 20.4122C81.3302 20.3697 81.4105 20.3189 81.4943 20.2765C81.577 20.2335 81.6589 20.1889 81.7422 20.1477C81.8171 20.11 81.9128 20.0862 81.9747 20.0293C81.9721 20.0324 82.058 20.1255 82.0544 20.131C81.9526 20.2453 81.7931 20.3307 81.6564 20.3976C81.5714 20.4395 81.3977 20.4845 81.3676 20.5862C81.3412 20.5519 81.3144 20.5188 81.288 20.4845C81.3963 20.4603 81.4898 20.401 81.5832 20.3416C81.6831 20.2765 81.783 20.2114 81.8763 20.1353C81.9027 20.1696 81.9296 20.2026 81.956 20.2369C81.8005 20.3226 81.642 20.3987 81.4771 20.4666C81.3267 20.5294 81.1954 20.6137 81.0703 20.7172C81.0439 20.6829 81.017 20.6498 80.9906 20.6155C81.1449 20.5738 81.2807 20.4955 81.4175 20.4148C81.4815 20.3768 81.5467 20.3393 81.6158 20.309C81.6805 20.2796 81.7659 20.2641 81.8186 20.2161C81.845 20.2504 81.8719 20.2834 81.8983 20.3177C81.8124 20.3482 81.7525 20.4309 81.6711 20.4743C81.5808 20.5225 81.4841 20.5556 81.3908 20.5941C81.2857 20.6377 81.1797 20.6767 81.0722 20.7124C80.9822 20.7426 80.8775 20.7613 80.811 20.833C80.7846 20.7987 80.7577 20.7656 80.7313 20.7314C80.8042 20.7261 80.8711 20.6671 80.9303 20.6272C81.0109 20.5723 81.0857 20.511 81.1721 20.4654C81.3367 20.3779 81.5185 20.3265 81.6709 20.2174C81.6973 20.2517 81.7242 20.2848 81.7506 20.3191C81.6779 20.3202 81.6181 20.4098 81.5584 20.444C81.4674 20.4974 81.3659 20.5286 81.2664 20.5619C81.1606 20.5968 81.0532 20.6256 80.9467 20.6588C80.851 20.6895 80.7599 20.7429 80.6621 20.7617C80.6456 20.7647 80.5954 20.6555 80.5825 20.66C80.7515 20.5923 80.9093 20.5007 81.0755 20.4263C81.1586 20.3891 81.2423 20.3536 81.3261 20.3181C81.3927 20.2909 81.4799 20.2331 81.5535 20.2435C81.5669 20.2447 81.6276 20.3484 81.6331 20.3451C81.4676 20.4558 81.2615 20.471 81.0779 20.537C80.9173 20.5942 80.7215 20.6149 80.5979 20.7454C80.5715 20.7111 80.5446 20.678 80.5182 20.6438C80.6365 20.65 80.7646 20.5463 80.8609 20.4867C80.9912 20.4047 81.1251 20.3312 81.2609 20.2598C81.3562 20.2095 81.4511 20.1465 81.5519 20.1067C81.6409 20.072 81.6668 20.1074 81.717 20.1722C81.7517 20.2168 81.7712 20.2441 81.727 20.2915C81.6791 20.3415 81.6106 20.3735 81.5495 20.4043C81.3606 20.4972 81.1613 20.5471 80.9537 20.5728C80.9315 20.5763 80.8946 20.4684 80.8741 20.4712C81.1333 20.4344 81.371 20.2862 81.5973 20.1626C81.7262 20.0912 81.8517 20.0143 81.9772 19.9373C82.0913 19.8682 82.2179 19.8195 82.3255 19.7422C82.3519 19.7765 82.3788 19.8096 82.4052 19.8439C82.2683 19.9385 82.1073 19.9899 81.9719 20.0879C81.9455 20.0536 81.9186 20.0205 81.8922 19.9862C81.9487 19.9702 81.9921 19.9211 82.0436 19.8934C82.1133 19.8549 82.1882 19.8241 82.2565 19.7824C82.3971 19.699 82.5299 19.6042 82.6639 19.5098C82.6903 19.5441 82.7172 19.5772 82.7436 19.6115C82.6336 19.6808 82.5215 19.7452 82.3982 19.7855C82.3903 19.7879 82.3224 19.6813 82.3186 19.6839C82.4157 19.6052 82.5428 19.6066 82.6525 19.5552C82.6789 19.5895 82.7058 19.6226 82.7322 19.6568C82.6089 19.7042 82.497 19.7714 82.378 19.8287C82.299 19.8662 82.188 19.8935 82.1475 19.9798C82.1211 19.9455 82.0942 19.9124 82.0678 19.8782C82.1549 19.9203 82.2771 19.8379 82.3513 19.7985C82.4538 19.7442 82.5783 19.6973 82.6461 19.5984C82.6725 19.6327 82.6994 19.6658 82.7258 19.7001C82.6637 19.7333 82.6119 19.779 82.5582 19.8225C82.5024 19.8679 82.4417 19.9045 82.379 19.943C82.2491 20.0237 82.1186 20.1028 81.9742 20.1541C81.9613 20.1586 81.9046 20.0482 81.8946 20.0524C81.9441 20.0294 81.9996 20.0227 82.0499 20.0014C82.1131 19.9756 82.168 19.9326 82.2264 19.8979C82.3378 19.8319 82.4535 19.769 82.5808 19.7428C82.5853 19.7418 82.6617 19.838 82.6604 19.8444C82.6408 19.9031 82.5276 19.8948 82.4769 19.9034C82.3791 19.9222 82.2848 19.9493 82.1914 19.9809C82.0885 20.0157 81.9859 20.0533 81.8827 20.0851C81.8021 20.1094 81.716 20.1232 81.6453 20.1709C81.6189 20.1366 81.592 20.1036 81.5656 20.0693C81.7088 20.1203 81.873 19.9993 81.9945 19.936C82.0821 19.8909 82.1778 19.8602 82.2671 19.8214C82.3129 19.801 82.3586 19.7806 82.4003 19.7531C82.4393 19.7286 82.4684 19.7015 82.5162 19.7C82.5386 19.6993 82.576 19.8061 82.5958 19.8016C82.5277 19.8157 82.468 19.7846 82.4009 19.7894C82.3267 19.7941 82.2537 19.834 82.19 19.8679C82.0403 19.9462 81.888 20.0206 81.7362 20.0939C81.605 20.1574 81.4716 20.2159 81.3335 20.2655C81.2275 20.3046 81.0858 20.3458 81.0254 20.4505C80.9991 20.4162 80.9722 20.3831 80.9458 20.3489C81.0624 20.3044 81.1694 20.2422 81.2777 20.1805C81.3826 20.1202 81.4913 20.0711 81.6012 20.0226C81.8418 19.9186 82.0853 19.8213 82.3166 19.6956C82.3228 19.6939 82.3903 19.8018 82.3953 19.7996Z" fill="#004699"/>
<path id="Vector_4" d="M82.064 18.0076C82.0804 17.9967 82.0955 17.9853 82.1119 17.9744C82.1102 17.975 82.1895 18.0767 82.1867 18.0796C82.1131 18.1534 82.0178 18.2003 81.926 18.2459C81.8268 18.2951 81.7301 18.3484 81.6334 18.4016C81.5354 18.4543 81.4357 18.5048 81.3445 18.5676C81.2785 18.6124 81.2106 18.6831 81.126 18.6853C81.1145 18.6856 81.0551 18.5776 81.0512 18.58C81.2306 18.4486 81.4365 18.3706 81.6355 18.2737C81.8459 18.1707 82.0147 18.0132 82.2153 17.8944C82.24 17.9299 82.2653 17.9642 82.2901 17.9997C82.2048 17.9973 82.1228 18.08 82.0587 18.127C81.9619 18.1986 81.8537 18.2522 81.7539 18.3182C81.5097 18.4793 81.2702 18.6581 81.037 18.8356C81.0392 18.8338 80.9588 18.7344 80.9622 18.7303C81.0403 18.6529 81.153 18.6112 81.2456 18.5547C81.3512 18.4914 81.4538 18.4224 81.5588 18.3574C81.6485 18.3009 81.7322 18.236 81.8184 18.1751C81.8606 18.1449 81.9034 18.1164 81.9493 18.0936C81.9969 18.0702 82.0496 18.0605 82.096 18.0336C82.0982 18.0318 82.1696 18.1383 82.1708 18.1389C82.0194 18.2492 81.8523 18.3352 81.7106 18.4584C81.598 18.5554 81.4886 18.6608 81.336 18.6813C81.3298 18.6827 81.2607 18.5772 81.2612 18.5761C81.2977 18.5277 81.3592 18.5078 81.4107 18.4791C81.4881 18.434 81.5576 18.3753 81.632 18.3245C81.7086 18.2719 81.7921 18.2352 81.8742 18.1922C81.9467 18.1548 82.0217 18.0873 82.0999 18.0652C82.1096 18.0625 82.169 18.1735 82.1747 18.1704C82.0748 18.2336 81.9737 18.2961 81.869 18.3514C81.822 18.3765 81.7673 18.3938 81.7264 18.4303C81.6918 18.4625 81.674 18.5011 81.6304 18.5249C81.6304 18.5249 81.554 18.4232 81.5556 18.4197C81.6464 18.3056 81.787 18.2555 81.8969 18.1645C81.9513 18.1201 82.0524 17.9867 82.1326 18.0094C82.1425 18.0125 82.2074 18.1147 82.2074 18.1147C82.1902 18.1336 82.1817 18.1397 82.1584 18.1473C82.1516 18.1499 82.0858 18.0403 82.0836 18.0421C82.1414 17.9964 82.1962 17.9296 82.275 17.9247C82.2882 17.9237 82.3424 18.0337 82.3498 18.03C82.26 18.0836 82.1941 18.1652 82.1007 18.2143C82.0202 18.2566 81.9252 18.2908 81.8777 18.3724C81.853 18.3369 81.8277 18.3026 81.8029 18.2671C81.8925 18.2233 81.9687 18.1592 82.0492 18.1014C82.1387 18.0363 82.233 17.9791 82.3182 17.9078C82.343 17.9433 82.3683 17.9776 82.393 18.013C82.203 18.0659 82.062 18.2305 81.9109 18.3466C81.8165 18.4193 81.7185 18.4875 81.6211 18.5575C81.5423 18.6148 81.4649 18.6783 81.3659 18.6965C81.3613 18.6972 81.2889 18.5959 81.2911 18.5912C81.3212 18.5257 81.4069 18.4873 81.4625 18.4434C81.531 18.39 81.5983 18.3331 81.6711 18.2858C81.798 18.2039 81.9568 18.1452 82.0347 18.0097C82.0595 18.0452 82.0848 18.0795 82.1095 18.1149C81.9587 18.2056 81.8193 18.3115 81.6703 18.4044C81.6003 18.4488 81.5273 18.4874 81.4591 18.5339C81.3977 18.5751 81.3477 18.6314 81.2753 18.6562C81.2736 18.6569 81.199 18.5573 81.2005 18.551C81.2364 18.4484 81.3865 18.39 81.4748 18.3428C81.614 18.2681 81.7258 18.1637 81.847 18.0636C81.8717 18.099 81.897 18.1333 81.9218 18.1688C81.8002 18.2177 81.7046 18.3083 81.5957 18.3786C81.4694 18.4593 81.3387 18.5338 81.2178 18.6212C81.2178 18.6212 81.1424 18.5171 81.1429 18.516C81.3549 18.3571 81.598 18.2352 81.7782 18.0376C81.803 18.0731 81.8283 18.1074 81.853 18.1428C81.7307 18.2055 81.6174 18.2823 81.5096 18.3688C81.4142 18.4467 81.3237 18.5326 81.2084 18.5801C81.205 18.5813 81.133 18.476 81.1336 18.4748C81.3159 18.291 81.5372 18.1548 81.7375 17.9905C81.7353 17.9923 81.8156 18.0916 81.8123 18.0958C81.6321 18.2565 81.4636 18.4411 81.232 18.5258C81.2234 18.5289 81.1628 18.4174 81.1571 18.4205C81.3607 18.3045 81.5244 18.1304 81.731 18.0201C81.7293 18.0207 81.809 18.1183 81.8058 18.1254C81.7553 18.2381 81.6457 18.3039 81.5579 18.3839C81.474 18.4615 81.4012 18.5583 81.2945 18.6084C81.2945 18.6084 81.217 18.509 81.2197 18.5031C81.2908 18.3701 81.4302 18.2982 81.5484 18.2137C81.6783 18.1191 81.8115 18.0175 81.9087 17.8894C81.901 17.9 81.9912 17.9811 81.9835 17.9946C81.8777 18.157 81.7189 18.2681 81.5719 18.3904C81.5747 18.3874 81.4933 18.2904 81.4971 18.2851C81.5813 18.2006 81.6662 18.1178 81.7551 18.0354C81.8239 17.9722 81.891 17.894 81.9834 17.8657C81.9868 17.8644 82.0604 17.9662 82.0582 17.9709C82.029 18.0283 81.9663 18.066 81.9247 18.1163C81.8859 18.1637 81.8459 18.2076 81.8 18.2488C81.7379 18.3038 81.6359 18.4084 81.5458 18.401C81.536 18.4007 81.4727 18.2951 81.471 18.2957C81.5709 18.1986 81.6916 18.121 81.7868 18.0189C81.8319 17.9702 81.9054 17.8567 81.985 17.8806C81.9984 17.8853 82.0594 17.9714 82.0598 17.9858C82.0679 18.1468 81.8729 18.2597 81.7579 18.3342C81.5768 18.4507 81.4066 18.5835 81.2279 18.7038C81.2296 18.7032 81.1503 18.6015 81.1531 18.5986C81.2384 18.5117 81.3438 18.4582 81.4484 18.4001C81.4467 18.4007 81.5253 18.4978 81.5233 18.5054C81.4762 18.6169 81.352 18.6589 81.2585 18.7236C81.169 18.7858 81.0869 18.8656 80.9802 18.8973C80.9774 18.8974 80.9033 18.7967 80.9054 18.792C80.9671 18.6702 81.108 18.6288 81.2226 18.5739C81.3666 18.5041 81.5086 18.408 81.6308 18.3055C81.6269 18.308 81.71 18.4043 81.7056 18.4108C81.6011 18.527 81.4746 18.6204 81.3431 18.703C81.2833 18.7406 81.2179 18.7687 81.1568 18.8029C81.0975 18.8365 81.0477 18.883 80.9853 18.9109C80.9819 18.9122 80.9105 18.8057 80.9105 18.8057C80.9877 18.7364 81.084 18.7056 81.1759 18.6629C81.282 18.614 81.3723 18.5379 81.4748 18.4845C81.4799 18.4826 81.5462 18.591 81.5496 18.5898C81.422 18.6699 81.2877 18.737 81.159 18.8166C81.0484 18.8847 80.9528 18.9753 80.8305 19.0225C80.822 19.0257 80.7625 18.9147 80.7557 18.9172C80.8413 18.8759 80.9227 18.8283 81.0035 18.7791C81.0707 18.7377 81.1316 18.6822 81.2061 18.6527C81.2147 18.6496 81.2741 18.7605 81.2809 18.758C81.129 18.8326 80.9839 18.9202 80.8454 19.018C80.7361 19.0952 80.6351 19.1947 80.5064 19.2374C80.5018 19.2382 80.431 19.1333 80.4316 19.1322C80.4912 19.0703 80.5685 19.0408 80.6384 18.9936C80.7026 18.9495 80.7489 18.8858 80.8265 18.862C80.835 18.8588 80.8962 18.9691 80.9013 18.9672C80.7947 19.0357 80.6868 19.1009 80.5795 19.1677C80.4938 19.2217 80.4081 19.2786 80.3094 19.3083C80.3065 19.3084 80.2337 19.2111 80.2346 19.203C80.2499 19.1421 80.3696 19.1037 80.4201 19.0801C80.5267 19.03 80.6281 18.9605 80.7202 18.8867C80.7174 18.8897 80.7989 18.9867 80.795 18.992C80.7165 19.0763 80.6162 19.1095 80.5172 19.1616C80.4662 19.1892 80.4219 19.2269 80.3704 19.2528C80.3193 19.2775 80.2668 19.2901 80.2194 19.3222C80.1947 19.2867 80.1694 19.2524 80.1446 19.2169C80.2444 19.1693 80.3454 19.1223 80.4385 19.0617C80.5157 19.0108 80.5743 18.9358 80.6613 18.9007C80.6647 18.8994 80.7367 19.0048 80.7361 19.006C80.5007 19.2405 80.2073 19.3917 79.923 19.5569C79.919 19.5594 79.8499 19.451 79.8482 19.4517C79.952 19.3861 80.0638 19.3341 80.1712 19.2731C80.2628 19.2217 80.3469 19.1499 80.4478 19.1184C80.4512 19.1171 80.5237 19.2213 80.5226 19.2237C80.4777 19.2781 80.41 19.3022 80.3464 19.3296C80.2686 19.3632 80.1919 19.3974 80.1142 19.4338C80.0473 19.4654 79.978 19.4958 79.9136 19.5342C79.8628 19.5646 79.8185 19.6024 79.7563 19.6021C79.7315 19.5666 79.7062 19.5323 79.6815 19.4968C79.774 19.5266 79.8801 19.4408 79.9564 19.3981C80.0932 19.3193 80.2259 19.2373 80.3621 19.1569C80.3868 19.1924 80.4121 19.2267 80.4369 19.2621C80.2441 19.3363 80.0673 19.4434 79.8832 19.5386C79.7977 19.5829 79.7067 19.6175 79.6255 19.6708C79.5589 19.7138 79.5069 19.7777 79.4205 19.7777C79.4032 19.7782 79.3588 19.6685 79.3457 19.6724C79.5926 19.5792 79.7898 19.3908 80.0386 19.3027C80.05 19.2994 80.1031 19.4117 80.1134 19.4079C79.9627 19.4675 79.829 19.5704 79.6918 19.656C79.5767 19.7277 79.4601 19.827 79.3211 19.8396C79.3091 19.8412 79.2537 19.7307 79.2463 19.7343C79.3616 19.6655 79.4819 19.6104 79.6046 19.5592C79.7256 19.5086 79.8525 19.4607 79.9521 19.3706C79.9768 19.406 80.0021 19.4403 80.0269 19.4758C79.8878 19.5903 79.72 19.6562 79.5657 19.7453C79.417 19.8313 79.2733 19.9281 79.108 19.9795C79.096 19.984 79.0434 19.8705 79.0332 19.8743C79.1827 19.8141 79.3339 19.7534 79.4783 19.6796C79.5395 19.6483 79.5976 19.6112 79.6559 19.5771C79.7062 19.5478 79.7625 19.527 79.7878 19.4721C79.8125 19.5075 79.8378 19.5418 79.8626 19.5773C79.7765 19.6043 79.7099 19.6629 79.6402 19.7158C79.5559 19.779 79.4638 19.8344 79.3746 19.8897C79.2859 19.9438 79.1957 19.9859 79.1021 20.0293C79.0164 20.0677 78.9357 20.1354 78.8416 20.146C78.8341 20.1468 78.7667 20.0407 78.7667 20.0407C78.8112 19.9903 78.8942 19.9761 78.9524 19.942C79.0282 19.8975 79.0998 19.8525 79.1792 19.8154C79.3448 19.7358 79.5128 19.6601 79.6674 19.5612C79.6691 19.5606 79.7428 19.6653 79.7423 19.6665C79.5698 19.801 79.3905 19.9353 79.2023 20.0456C79.1152 20.0962 79.0232 20.136 78.9288 20.1719C78.848 20.2028 78.7678 20.2509 78.6809 20.2519C78.6739 20.2516 78.6044 20.1502 78.606 20.1467C78.6469 20.0762 78.7352 20.0446 78.8044 20.0113C78.9087 19.9601 79.0136 19.9106 79.1162 19.8601C79.2222 19.8083 79.3252 19.7508 79.4331 19.7041C79.4757 19.6855 79.5166 19.6703 79.5606 19.6579C79.5965 19.6476 79.6423 19.6374 79.6583 19.5995C79.6831 19.635 79.7084 19.6693 79.7331 19.7048C79.5699 19.7515 79.4477 19.8724 79.3018 19.9525C79.218 19.999 79.1294 20.0376 79.0427 20.0813C78.9725 20.117 78.9051 20.171 78.8254 20.181C78.8208 20.1818 78.7491 20.0822 78.7506 20.0758C78.7869 19.9692 78.9813 19.9284 79.074 19.8902C79.2444 19.8185 79.3767 19.6696 79.5373 19.5792C79.5373 19.5792 79.6112 19.6741 79.6121 19.6845C79.6165 19.7488 79.5179 19.797 79.4732 19.8232C79.4037 19.8634 79.3311 19.898 79.2591 19.9343C79.0602 20.0341 78.893 20.1881 78.6624 20.2151C78.6549 20.2159 78.5876 20.1098 78.5876 20.1098C78.6448 20.0441 78.7543 20.0307 78.8297 19.9932C78.9289 19.9439 79.0219 19.8833 79.1181 19.8283C79.2147 19.7722 79.3151 19.7235 79.4105 19.6668C79.4998 19.6144 79.5741 19.5423 79.6634 19.4899C79.6882 19.5254 79.7135 19.5597 79.7382 19.5952C79.6422 19.6346 79.5625 19.6999 79.4732 19.7523C79.3749 19.8091 79.274 19.8619 79.172 19.9112C79.0836 19.9556 78.9892 19.9914 78.9044 20.0403C78.8546 20.0684 78.7828 20.1289 78.7228 20.1055C78.7117 20.1018 78.6497 19.9996 78.648 20.0002C78.7302 19.9261 78.8366 19.8858 78.9334 19.8355C79.0541 19.7734 79.1747 19.7113 79.2942 19.6487C79.4075 19.5903 79.5184 19.528 79.6341 19.4736C79.6863 19.4494 79.7402 19.4246 79.7943 19.4056C79.8347 19.3916 79.8772 19.3885 79.8848 19.3382C79.9096 19.3737 79.9349 19.408 79.9596 19.4434C79.8632 19.4713 79.7823 19.5517 79.6916 19.5949C79.5731 19.6523 79.4515 19.7041 79.3361 19.7671C79.1249 19.8811 78.9212 20.0098 78.6927 20.0846C78.6847 20.0865 78.6219 19.9769 78.6179 19.9793C78.8125 19.852 79.0363 19.7751 79.2418 19.6671C79.3495 19.6118 79.4571 19.5565 79.5604 19.4921C79.6597 19.4301 79.7731 19.3746 79.8568 19.2913C79.8816 19.3268 79.9068 19.3611 79.9316 19.3966C79.8698 19.4078 79.8224 19.4398 79.7712 19.4743C79.7125 19.5125 79.6514 19.5467 79.5928 19.5849C79.4749 19.6624 79.368 19.7563 79.2464 19.8265C79.1413 19.8886 79.0234 19.9293 78.9225 19.9948C78.8678 20.0305 78.7631 20.1255 78.6932 20.0805C78.6832 20.0745 78.6183 19.9752 78.6183 19.9752C78.713 19.8927 78.8354 19.8484 78.9502 19.8021C79.0508 19.762 79.1613 19.6881 79.2729 19.7012C79.2838 19.702 79.3454 19.8083 79.3477 19.8065C79.1852 19.9471 78.9709 19.9972 78.7963 20.1181C78.7715 20.0826 78.7462 20.0483 78.7215 20.0128C78.8086 19.9806 78.8972 19.9449 78.9805 19.9025C79.0519 19.8673 79.1148 19.8169 79.1881 19.7869C79.1967 19.7838 79.2561 19.8947 79.2629 19.8922C79.1043 19.9722 78.9463 20.0539 78.8053 20.1633C78.7805 20.1278 78.7552 20.0935 78.7304 20.058C78.8214 20.0205 78.9062 19.9717 78.9966 19.9354C79.0665 19.9066 79.1487 19.8849 79.1891 19.8157C79.2138 19.8511 79.2391 19.8855 79.2639 19.9209C79.0475 19.997 78.8801 20.1637 78.6643 20.2387C78.6524 20.2431 78.5997 20.1296 78.5895 20.1334C78.717 20.0872 78.8342 20.0264 78.9556 19.9689C79.0622 19.9188 79.1814 19.9 79.2836 19.8379C79.3084 19.8734 79.3337 19.9077 79.3585 19.9432C79.2469 20.001 79.1347 20.057 79.0226 20.1159C78.924 20.1669 78.8334 20.2315 78.7256 20.2655C78.7009 20.23 78.6756 20.1957 78.6508 20.1602C78.8121 20.1268 78.9479 20.0348 79.085 19.9463C79.1098 19.9818 79.1351 20.0161 79.1598 20.0516C79.0044 20.143 78.8648 20.2587 78.6971 20.3274C78.6724 20.2919 78.6471 20.2576 78.6223 20.2222C78.8655 20.1371 79.0632 19.966 79.2996 19.8679C79.3081 19.8648 79.3676 19.9757 79.3744 19.9732C79.2384 20.041 79.1185 20.126 78.9776 20.1859C78.8435 20.2432 78.7261 20.3323 78.5908 20.3862C78.5874 20.3874 78.5154 20.2821 78.5159 20.2809C78.6001 20.1935 78.7115 20.1484 78.8199 20.1006C78.934 20.0497 79.0425 19.9863 79.1598 19.9439C79.1683 19.9407 79.229 20.0522 79.2346 20.0491C79.061 20.1463 78.923 20.3138 78.7184 20.3429C78.7063 20.3444 78.6509 20.2339 78.6435 20.2376C78.8008 20.1484 78.9402 20.027 79.1122 19.9673C79.1185 19.9659 79.1853 20.0732 79.187 20.0726C79.1186 20.1289 79.0395 20.1776 78.9589 20.2141C78.9124 20.2352 78.8336 20.2556 78.8105 20.3059C78.7857 20.2704 78.7604 20.2361 78.7356 20.2006C78.7896 20.1787 78.8263 20.1361 78.8748 20.1046C78.8725 20.1064 78.9534 20.2016 78.9496 20.2098C78.9169 20.284 78.8345 20.3028 78.7645 20.3258C78.7525 20.3302 78.6999 20.2168 78.6896 20.2206C78.8051 20.1759 78.9118 20.1103 79.0285 20.0691C79.0533 20.1045 79.0786 20.1389 79.1033 20.1743C78.9957 20.2112 78.8932 20.2646 78.7991 20.3276C78.7743 20.2921 78.749 20.2578 78.7243 20.2223C78.833 20.1647 78.9392 20.1031 79.0419 20.037C79.0413 20.0381 79.1195 20.1393 79.1167 20.1422C79.0438 20.2206 78.9597 20.2924 78.8468 20.2886C78.8341 20.2884 78.7776 20.1803 78.7719 20.1833C78.79 20.1718 78.8057 20.1592 78.8226 20.1471C78.8231 20.146 78.8979 20.2512 78.8974 20.2524C78.8805 20.2645 78.8648 20.2771 78.8468 20.2886C78.822 20.2531 78.7967 20.2188 78.7719 20.1833C78.8849 20.1872 78.969 20.1153 79.0419 20.037C79.0666 20.0724 79.0919 20.1068 79.1167 20.1422C79.014 20.2083 78.9078 20.2699 78.7991 20.3276C78.7951 20.33 78.726 20.2217 78.7243 20.2223C78.8184 20.1594 78.922 20.1065 79.0285 20.0691C79.0405 20.0646 79.0919 20.1776 79.1033 20.1743C78.9855 20.215 78.8799 20.2812 78.7645 20.3258C78.7397 20.2904 78.7144 20.256 78.6896 20.2206C78.7603 20.1964 78.8409 20.1782 78.8748 20.1046C78.8995 20.14 78.9248 20.1744 78.9496 20.2098C78.9011 20.2413 78.8645 20.284 78.8105 20.3059C78.8099 20.3071 78.733 20.2065 78.7356 20.2006C78.7588 20.1504 78.8376 20.13 78.8841 20.1089C78.9647 20.0723 79.0438 20.0237 79.1122 19.9673C79.1369 20.0028 79.1622 20.0371 79.187 20.0726C79.015 20.1323 78.8756 20.2537 78.7184 20.3429C78.6936 20.3074 78.6683 20.2731 78.6435 20.2376C78.8494 20.2091 78.9879 20.0404 79.1598 19.9439C79.1846 19.9794 79.2099 20.0137 79.2346 20.0491C79.1168 20.0927 79.0088 20.1549 78.8947 20.2059C78.7858 20.2549 78.6749 20.2988 78.5908 20.3862C78.566 20.3507 78.5407 20.3164 78.5159 20.2809C78.6513 20.227 78.7676 20.1374 78.9028 20.0806C79.0437 20.0208 79.1641 19.9345 79.2996 19.8679C79.3243 19.9034 79.3496 19.9377 79.3744 19.9732C79.138 20.0713 78.9403 20.2424 78.6971 20.3274C78.6857 20.3307 78.6308 20.219 78.6223 20.2222C78.79 20.1534 78.9308 20.0383 79.085 19.9463C79.0884 19.945 79.1581 20.0522 79.1598 20.0516C79.0239 20.1406 78.8881 20.2326 78.7256 20.2655C78.7102 20.2683 78.6639 20.1563 78.6508 20.1602C78.7569 20.1268 78.8492 20.0616 78.9477 20.0106C79.0593 19.9529 79.1721 19.8957 79.2836 19.8379C79.2888 19.836 79.355 19.9445 79.3585 19.9432C79.2562 20.0053 79.1376 20.0229 79.0304 20.0742C78.909 20.1317 78.7918 20.1925 78.6643 20.2387C78.6396 20.2032 78.6143 20.1689 78.5895 20.1334C78.8053 20.0584 78.9739 19.8923 79.1891 19.8157C79.1908 19.815 79.266 19.9163 79.2639 19.9209C79.2235 19.9902 79.1413 20.0119 79.0714 20.0406C78.981 20.0769 78.895 20.1252 78.8053 20.1633C78.8001 20.1652 78.7322 20.0574 78.7304 20.058C78.872 19.9474 79.0295 19.8669 79.1881 19.7869C79.2129 19.8224 79.2382 19.8567 79.2629 19.8922C79.1891 19.9234 79.1268 19.9726 79.0553 20.0077C78.9714 20.0485 78.8839 20.0847 78.7963 20.1181C78.7895 20.1206 78.7249 20.0115 78.7215 20.0128C78.8961 19.892 79.1104 19.8418 79.2729 19.7012C79.2976 19.7367 79.3229 19.771 79.3477 19.8065C79.2361 19.7934 79.1257 19.8673 79.025 19.9074C78.9102 19.9537 78.7878 19.998 78.6932 20.0805C78.6684 20.045 78.6431 20.0107 78.6183 19.9752C78.6883 20.0202 78.7929 19.9252 78.8476 19.8895C78.9503 19.8234 79.067 19.7822 79.1716 19.7212C79.2925 19.6493 79.4006 19.556 79.5179 19.4796C79.5766 19.4415 79.6377 19.4072 79.6963 19.3691C79.7476 19.3346 79.795 19.3025 79.8568 19.2913C79.8631 19.2899 79.9299 19.3972 79.9316 19.3966C79.8479 19.4799 79.7345 19.5354 79.6352 19.5974C79.5319 19.6617 79.4243 19.7171 79.3166 19.7724C79.1099 19.8798 78.8878 19.9561 78.6927 20.0846C78.668 20.0491 78.6427 20.0148 78.6179 19.9793C78.8469 19.9033 79.0501 19.7758 79.2612 19.6619C79.3727 19.6013 79.4892 19.5514 79.6037 19.4964C79.6984 19.4508 79.785 19.3673 79.8848 19.3382C79.8882 19.3369 79.9605 19.4354 79.9596 19.4434C79.952 19.4938 79.9112 19.4963 79.8691 19.5109C79.8138 19.5294 79.7616 19.5535 79.7089 19.5788C79.5932 19.6333 79.4823 19.6956 79.369 19.754C79.2495 19.8166 79.1289 19.8787 79.0082 19.9407C78.9114 19.9911 78.8039 20.0309 78.7228 20.1055C78.698 20.07 78.6727 20.0357 78.648 20.0002C78.7057 20.0225 78.7758 19.9655 78.8222 19.9387C78.9092 19.8881 79.0059 19.8504 79.0972 19.806C79.1946 19.7573 79.2915 19.707 79.3854 19.6538C79.4781 19.6001 79.5639 19.5306 79.6634 19.4899C79.6708 19.4862 79.7331 19.5971 79.7382 19.5952C79.6495 19.6464 79.5735 19.7191 79.4854 19.7721C79.3899 19.8287 79.289 19.8787 79.1929 19.9336C79.0968 19.9885 79.0049 20.0497 78.9045 20.0984C78.8291 20.136 78.7184 20.1488 78.6624 20.2151C78.6376 20.1796 78.6123 20.1453 78.5876 20.1098C78.8182 20.0828 78.9854 19.9288 79.1843 19.8291C79.2563 19.7928 79.3295 19.7599 79.3984 19.7179C79.443 19.6917 79.541 19.6419 79.5373 19.5792C79.562 19.6147 79.5873 19.649 79.6121 19.6845C79.4515 19.7749 79.3193 19.9237 79.1488 19.9955C79.0574 20.0342 78.8617 20.0745 78.8254 20.181C78.8007 20.1456 78.7754 20.1112 78.7506 20.0758C78.8263 20.0653 78.8886 20.016 78.9554 19.9816C79.0461 19.9355 79.1381 19.8956 79.2269 19.8473C79.3729 19.7671 79.4951 19.6462 79.6583 19.5995C79.6612 19.5994 79.7346 19.6984 79.7331 19.7048C79.708 19.7655 79.5761 19.7812 79.5215 19.8043C79.4085 19.8529 79.3016 19.9128 79.191 19.9653C79.089 20.0147 78.9869 20.0641 78.8865 20.1128C78.814 20.1474 78.7228 20.1792 78.6809 20.2519C78.6561 20.2165 78.6308 20.1822 78.606 20.1467C78.6941 20.1461 78.7737 20.0963 78.854 20.0667C78.9484 20.0308 79.0404 19.9909 79.1274 19.9403C79.3168 19.8305 79.4962 19.6963 79.6674 19.5612C79.6922 19.5967 79.7175 19.631 79.7423 19.6665C79.5871 19.7665 79.4197 19.841 79.2541 19.9207C79.1792 19.9571 79.1103 19.999 79.0386 20.0411C78.9781 20.077 78.8882 20.0938 78.8416 20.146C78.8168 20.1105 78.7915 20.0762 78.7667 20.0407C78.8568 20.0297 78.933 19.9656 79.0148 19.9296C79.1135 19.8843 79.2071 19.841 79.2998 19.7844C79.3862 19.7321 79.4748 19.678 79.5564 19.6178C79.63 19.5624 79.6983 19.5003 79.7878 19.4721C79.7895 19.4714 79.8647 19.5726 79.8626 19.5773C79.8368 19.6334 79.781 19.6531 79.7307 19.6824C79.6708 19.7171 79.6143 19.7535 79.5532 19.7849C79.4092 19.8575 79.258 19.9182 79.108 19.9795C79.0832 19.9441 79.0579 19.9098 79.0332 19.8743C79.1985 19.8228 79.3416 19.7243 79.4909 19.64C79.6452 19.551 79.8135 19.4839 79.9521 19.3706C79.9498 19.3724 80.0302 19.4717 80.0269 19.4758C79.9273 19.566 79.8021 19.6133 79.6794 19.6645C79.5567 19.7156 79.4358 19.772 79.3211 19.8396C79.2964 19.8041 79.2711 19.7698 79.2463 19.7343C79.387 19.7212 79.503 19.6229 79.617 19.5507C79.753 19.4645 79.8879 19.3623 80.0386 19.3027C80.0633 19.3382 80.0886 19.3725 80.1134 19.4079C79.8646 19.4961 79.6674 19.6844 79.4205 19.7777C79.3957 19.7422 79.3704 19.7079 79.3457 19.6724C79.4303 19.6731 79.4829 19.608 79.5507 19.5655C79.6325 19.5139 79.7235 19.4793 79.8084 19.4334C79.9913 19.3376 80.1676 19.2317 80.3621 19.1569C80.3706 19.1537 80.4318 19.264 80.4369 19.2621C80.3013 19.3414 80.168 19.4246 80.0312 19.5033C79.956 19.5466 79.85 19.6324 79.7563 19.6021C79.7289 19.5937 79.7068 19.4971 79.6815 19.4968C79.7403 19.4984 79.7829 19.4642 79.8303 19.435C79.897 19.3948 79.9685 19.3625 80.0389 19.3297C80.1109 19.2963 80.1841 19.2634 80.2568 19.2317C80.3238 19.203 80.3991 19.1781 80.4467 19.1207C80.4715 19.1562 80.4968 19.1905 80.5215 19.226C80.4206 19.2575 80.3366 19.3293 80.245 19.3807C80.1369 19.44 80.0263 19.4925 79.9219 19.5593C79.8971 19.5238 79.8718 19.4895 79.8471 19.454C80.1314 19.2887 80.4254 19.1364 80.6602 18.9031C80.685 18.9385 80.7103 18.9728 80.7351 19.0083C80.6481 19.0434 80.5895 19.1184 80.5122 19.1693C80.4203 19.2304 80.3182 19.2769 80.2184 19.3245C80.2132 19.3264 80.1458 19.2174 80.1436 19.2192C80.1909 19.1872 80.2446 19.1751 80.2945 19.1499C80.3472 19.1245 80.3909 19.0851 80.4413 19.0587C80.5403 19.0066 80.6406 18.9734 80.7191 18.8891C80.7439 18.9245 80.7692 18.9588 80.7939 18.9943C80.703 19.0687 80.6016 19.1382 80.4938 19.1877C80.4428 19.2124 80.323 19.248 80.3083 19.3107C80.2836 19.2752 80.2583 19.2409 80.2335 19.2054C80.3322 19.1757 80.4167 19.1183 80.5036 19.0648C80.6109 18.9979 80.7193 18.9317 80.8254 18.8643C80.8502 18.8998 80.8755 18.9341 80.9002 18.9696C80.8227 18.9934 80.7775 19.0576 80.7121 19.1012C80.6423 19.1484 80.5649 19.178 80.5053 19.2398C80.4805 19.2043 80.4552 19.17 80.4305 19.1345C80.5598 19.0906 80.6602 18.9923 80.7695 18.9151C80.908 18.8173 81.0531 18.7296 81.205 18.655C81.2298 18.6905 81.2551 18.7248 81.2799 18.7603C81.2054 18.7898 81.1456 18.8459 81.0772 18.8867C80.9965 18.9359 80.9139 18.9829 80.8295 19.0248C80.8047 18.9894 80.7794 18.955 80.7546 18.9196C80.8775 18.8712 80.9725 18.7818 81.0831 18.7137C81.2113 18.6353 81.3462 18.567 81.4737 18.4868C81.4985 18.5223 81.5238 18.5566 81.5485 18.5921C81.446 18.6455 81.3558 18.7216 81.2497 18.7705C81.1566 18.8127 81.0614 18.844 80.9842 18.9133C80.9594 18.8778 80.9341 18.8435 80.9094 18.808C80.9707 18.7795 81.0209 18.7318 81.081 18.7C81.1432 18.6663 81.2074 18.6377 81.2672 18.6001C81.3987 18.5175 81.5252 18.4241 81.6297 18.3079C81.6545 18.3433 81.6798 18.3776 81.7045 18.4131C81.5823 18.5156 81.4397 18.61 81.2963 18.6815C81.1812 18.7376 81.0409 18.7778 80.9792 18.8996C80.9544 18.8642 80.9291 18.8298 80.9043 18.7944C81.0098 18.7622 81.0931 18.6829 81.1826 18.6206C81.2761 18.556 81.4003 18.514 81.4474 18.4024C81.4721 18.4379 81.4974 18.4722 81.5222 18.5077C81.4175 18.5658 81.3116 18.6205 81.2269 18.7062C81.2021 18.6707 81.1768 18.6364 81.152 18.6009C81.3307 18.4805 81.5003 18.3489 81.682 18.2313C81.7987 18.1561 81.992 18.0439 81.984 17.8829C82.0087 17.9184 82.034 17.9527 82.0588 17.9882C81.9791 17.9643 81.9062 18.0766 81.8605 18.1265C81.7666 18.2291 81.6458 18.3068 81.5447 18.4033C81.52 18.3679 81.4947 18.3335 81.4699 18.2981C81.5612 18.3061 81.662 18.2009 81.7241 18.1459C81.7667 18.1088 81.8039 18.0678 81.8411 18.024C81.8843 17.9702 81.9509 17.93 81.9818 17.8692C82.0066 17.9046 82.0318 17.9389 82.0566 17.9744C81.9642 18.0028 81.8959 18.0804 81.8283 18.1442C81.7411 18.2259 81.6562 18.3087 81.5703 18.3939C81.5456 18.3584 81.5203 18.3241 81.4955 18.2886C81.6424 18.1664 81.8001 18.0547 81.9071 17.8929C81.9319 17.9284 81.9572 17.9627 81.9819 17.9981C81.8854 18.128 81.7522 18.2296 81.6216 18.3225C81.5045 18.4075 81.3635 18.48 81.2929 18.6119C81.2681 18.5764 81.2428 18.5421 81.2181 18.5066C81.3236 18.456 81.3964 18.3592 81.4815 18.2821C81.5693 18.2021 81.6783 18.1347 81.7294 18.0236C81.7541 18.0591 81.7794 18.0934 81.8042 18.1289C81.597 18.2404 81.4339 18.4133 81.2303 18.5293C81.2056 18.4938 81.1803 18.4595 81.1555 18.424C81.3872 18.3393 81.5557 18.1548 81.7359 17.994C81.7607 18.0295 81.786 18.0638 81.8107 18.0993C81.611 18.2624 81.3897 18.3986 81.2068 18.5836C81.182 18.5481 81.1567 18.5138 81.1319 18.4783C81.2461 18.4303 81.3372 18.3432 81.4332 18.267C81.5398 18.18 81.6531 18.1032 81.7766 18.0411C81.7783 18.0404 81.8525 18.144 81.8514 18.1463C81.6701 18.3434 81.4281 18.4658 81.215 18.6242C81.1902 18.5887 81.1649 18.5544 81.1402 18.5189C81.2617 18.4303 81.3929 18.3576 81.5181 18.2763C81.627 18.206 81.7225 18.1154 81.8442 18.0665C81.8493 18.0646 81.9173 18.1724 81.919 18.1718C81.7979 18.2719 81.6855 18.3775 81.5468 18.4511C81.4585 18.4983 81.3084 18.5567 81.2726 18.6592C81.2478 18.6237 81.2225 18.5894 81.1977 18.5539C81.2649 18.531 81.3116 18.4788 81.3691 18.4401C81.4412 18.3911 81.5188 18.3489 81.5927 18.3022C81.7417 18.2092 81.8823 18.1039 82.0319 18.0127C82.0302 18.0133 82.11 18.1109 82.1067 18.1179C82.0282 18.2546 81.8683 18.3128 81.7431 18.394C81.6743 18.4389 81.6104 18.4916 81.5458 18.5427C81.4879 18.5883 81.3949 18.6305 81.3631 18.6995C81.3384 18.664 81.3131 18.6297 81.2883 18.5942C81.3828 18.5767 81.4574 18.5162 81.5339 18.4607C81.6335 18.3889 81.7349 18.3194 81.8321 18.2437C81.9838 18.1265 82.1242 17.963 82.3142 17.9102C82.3211 17.9077 82.3868 18.0173 82.3891 18.0155C82.3038 18.0868 82.2095 18.144 82.1201 18.2091C82.0396 18.2669 81.9633 18.331 81.8738 18.3748C81.8738 18.3748 81.7963 18.2754 81.799 18.2696C81.847 18.1868 81.942 18.1526 82.0219 18.1115C82.1153 18.0624 82.1812 17.9808 82.271 17.9272C82.2958 17.9626 82.3211 17.997 82.3458 18.0324C82.2671 18.0373 82.2123 18.1041 82.1544 18.1498C82.1297 18.1143 82.1044 18.08 82.0796 18.0445C82.1041 18.0374 82.1114 18.0308 82.1287 18.0118C82.1534 18.0473 82.1787 18.0816 82.2035 18.1171C82.1233 18.0944 82.021 18.2272 81.9678 18.2721C81.8579 18.3632 81.7172 18.4133 81.6265 18.5274C81.6017 18.4919 81.5764 18.4576 81.5517 18.4221C81.5947 18.3994 81.613 18.3597 81.6477 18.3274C81.6873 18.2904 81.7421 18.2731 81.7902 18.2485C81.8944 18.1945 81.996 18.1307 82.0959 18.0676C82.1207 18.1031 82.146 18.1374 82.1707 18.1729C82.0925 18.195 82.0187 18.263 81.9451 18.3C81.8635 18.3418 81.7795 18.3796 81.7029 18.4322C81.6285 18.483 81.559 18.5416 81.4816 18.5868C81.4312 18.616 81.3685 18.6354 81.3321 18.6838C81.3073 18.6483 81.282 18.614 81.2573 18.5785C81.411 18.5585 81.5204 18.4531 81.6319 18.3556C81.7736 18.2324 81.9407 18.1463 82.092 18.036C82.1168 18.0715 82.1421 18.1058 82.1668 18.1413C82.1244 18.1657 82.0763 18.1748 82.0327 18.1958C81.9868 18.2185 81.9428 18.2465 81.9011 18.2755C81.811 18.3388 81.7245 18.4067 81.6308 18.4656C81.5298 18.5282 81.4317 18.5936 81.33 18.6545C81.2334 18.7134 81.1156 18.757 81.033 18.838C81.0083 18.8025 80.983 18.7682 80.9582 18.7327C81.1914 18.5553 81.4304 18.3777 81.6751 18.2154C81.7749 18.1494 81.8849 18.0952 81.9799 18.0241C82.0446 17.976 82.126 17.8944 82.2113 17.8968C82.224 17.897 82.2788 18.0058 82.2861 18.0021C82.0867 18.1214 81.9179 18.2789 81.7064 18.3814C81.5074 18.4782 81.3008 18.5546 81.122 18.6877C81.0973 18.6522 81.072 18.6179 81.0472 18.5824C81.1284 18.5815 81.1947 18.5143 81.2578 18.4696C81.3513 18.405 81.4532 18.3527 81.5534 18.2982C81.6474 18.248 81.7395 18.1955 81.8348 18.1486C81.9317 18.1011 82.0315 18.0536 82.1079 17.9768C82.1327 18.0123 82.158 18.0466 82.1828 18.0821C82.1664 18.093 82.1512 18.1044 82.1349 18.1153C82.1371 18.1135 82.064 18.0076 82.064 18.0076Z" fill="#004699"/>
<path id="Vector 41" d="M63.9321 40.3811L67.2784 34.2323L70.8821 31.2233L76.7958 29.6725L84.0269 28.0724L85.0902 27.5023L90.115 26.0557L94.1128 28.0724" stroke="#DBFF00" stroke-width="1.02962"/>
</g>
<g id="naira note">
<path id="Currency" d="M158.818 27.7951L158.914 31.6716L158.506 35.8197L158.094 39.8378L158.013 43.4595L157.085 47.2318L157.848 50.5755L158.121 54.7056L157.991 55.9257L153.826 56.3337L151.33 56.5409L148.021 56.4443C148.021 56.4443 132.435 55.2487 129.441 55.5344C128.626 55.6116 118.555 55.5743 118.555 55.5743L106.312 58.4714C106.312 58.4714 95.73 58.8678 90.2833 53.963C89.7337 53.4675 92.3141 38.1209 92.3141 38.1209C92.3141 38.1209 93.7441 29.3048 93.7441 28.5004C93.349 28.27 102.655 26.7899 104.798 26.7307C108.627 26.6264 113.1 28.5506 117.135 28.5506C122.893 29.14 128.956 29.001 140.414 28.7179C140.655 28.7127 157.344 27.1606 157.344 27.1606L158.818 27.7951Z" fill="#0052C5"/>
<path id="Currency stroke" d="M102.162 58.1985H106.538L112.072 56.5897L114.968 56.2036L122.304 55.2383L132.922 55.7531L143.475 56.2036L149.074 56.5897L156.217 56.2036L157.182 52.986L157.761 40.5018L158.855 27.5672H150.554L140.387 28.4038L128.096 28.7255L115.483 28.4038L112.072 28.082L105.766 26.5376L96.8851 27.5672L93.8606 28.4038L92.9596 34.1311L91.3509 44.1699L90.3212 52.5356" stroke="black" stroke-width="0.514811"/>
<g id="Naira sign">
<path id="Vector_5" d="M121.328 39.8231C121.214 41.2804 121.191 42.7436 121.205 44.2088C121.212 44.8693 121.225 45.5245 121.2 46.1849C121.181 46.7229 121.172 47.2674 121.384 47.7723C121.515 48.08 122.683 47.2565 122.758 47.0565C123.357 45.4588 123.132 43.7452 122.993 42.0865C122.929 41.3032 122.936 40.5068 122.818 39.7297C122.704 38.9857 122.463 38.2879 122.144 37.6072C122.033 37.3666 120.633 38.0792 120.769 38.3872C121.106 39.1454 121.098 39.9418 121.135 40.758C121.174 41.5955 121.305 42.4181 121.382 43.2515C121.537 44.9935 121.303 46.756 121.671 48.4785C122.13 48.2202 122.585 47.9556 123.046 47.6985C122.712 47.0962 122.837 46.5081 122.786 45.8558C122.727 45.1325 122.474 44.443 122.326 43.7362C122.034 42.3321 121.903 40.8681 122.133 39.4424C121.675 39.6634 121.212 39.8783 120.755 40.0993C120.635 41.7691 121.308 43.3181 121.569 44.941C121.707 45.791 121.766 46.664 121.822 47.5216C121.863 48.1123 121.793 48.8709 122.224 49.3476C122.344 49.4823 122.718 49.2826 122.829 49.2341C123.61 48.8901 124.085 48.3732 124.084 47.5106C124.082 46.7019 123.873 45.8918 123.663 45.1191C123.426 44.2507 123.248 43.3928 123.107 42.4992C122.995 41.7718 122.911 41.0384 122.787 40.3135C122.669 39.6219 122.451 38.9399 122.577 38.2337C122.121 38.4713 121.658 38.713 121.203 38.9495C121.526 39.4644 121.278 40.0508 121.302 40.618C121.329 41.3456 121.479 42.0703 121.537 42.7981C121.665 44.3424 121.572 45.895 121.917 47.4203C122.376 47.1619 122.831 46.8973 123.292 46.6402C122.809 45.3403 122.764 43.9289 122.618 42.568C122.538 41.8092 122.411 41.0513 122.341 40.2945C122.294 39.7981 122.341 39.2179 121.964 38.8321C121.743 38.6097 120.594 39.2651 120.59 39.548C120.571 40.2942 121.163 40.9662 121.533 41.5748C122.052 42.42 122.632 43.2233 123.199 44.0349C124.375 45.6977 125.757 47.1732 127.046 48.7443C127.273 49.0221 128.569 48.1468 128.421 47.9642C127.186 46.4185 126.131 44.736 124.841 43.228C124.215 42.4972 123.538 41.815 122.815 41.1782C122.359 40.778 121.335 40.2625 121.485 39.5407C121.398 39.6367 121.317 39.7286 121.229 39.8258C120.249 40.5342 120.179 40.0665 120.631 40.3107C120.753 40.3754 120.858 40.4762 120.957 40.5741C121.217 40.8207 121.438 41.1016 121.653 41.3878C122.147 42.0461 122.584 42.7537 123.011 43.4594C123.372 44.0568 123.722 44.6241 124.162 45.1717C125.087 46.3067 126.161 47.3024 127.055 48.463C127.515 48.2046 127.97 47.9401 128.43 47.6829C128.378 47.6191 128.326 47.5564 128.274 47.4879C128.047 47.2101 126.751 48.0854 126.899 48.268C126.951 48.3318 127.003 48.3945 127.055 48.463C127.277 48.7392 128.576 47.8759 128.43 47.6829C127.315 46.2403 125.849 45.0483 124.872 43.4973C124.308 42.6064 123.799 41.6824 123.18 40.8234C122.703 40.1629 122.06 39.1229 121.121 39.4801C120.81 39.5993 120.283 39.8454 120.122 40.1638C119.961 40.4879 120.151 40.8494 120.376 41.0838C120.628 41.3449 120.944 41.5468 121.217 41.7803C121.656 42.1557 122.075 42.5495 122.482 42.9563C124.218 44.7116 125.505 46.8232 127.039 48.7508C127.499 48.4924 127.954 48.229 128.414 47.9707C127.164 46.4495 125.809 45.0264 124.678 43.4152C124.127 42.633 123.564 41.8545 123.05 41.0424C122.68 40.4607 121.941 39.6225 121.957 38.8971C121.502 39.1348 121.039 39.3765 120.584 39.613C120.944 39.9798 120.917 40.537 120.957 41.02C121.017 41.7971 121.157 42.5725 121.24 43.349C121.384 44.7145 121.43 46.1213 121.913 47.42C121.996 47.6384 123.368 46.9915 123.288 46.6399C122.942 45.1192 123.03 43.5663 122.909 42.0177C122.845 41.2567 122.648 40.4652 122.678 39.6987C122.7 39.1726 122.877 38.6484 122.575 38.1691C122.4 37.8966 121.242 38.6366 121.201 38.885C121.111 39.4044 121.188 39.9161 121.291 40.4334C121.409 41.0384 121.5 41.6506 121.59 42.2617C121.734 43.2572 121.844 44.2795 122.114 45.2558C122.295 45.8998 122.481 46.5442 122.601 47.2043C122.668 47.5701 122.727 47.9458 122.707 48.3163C122.698 48.449 122.689 48.5864 122.655 48.7136C122.552 49.129 122.346 48.9722 122.998 48.68C123.198 48.6421 123.398 48.6041 123.603 48.5666C123.199 48.1167 123.241 47.4237 123.211 46.855C123.162 46.0213 123.098 45.1737 122.982 44.3488C122.744 42.7091 122.019 41.129 122.141 39.443C122.158 39.2056 120.825 39.7363 120.763 40.1C120.537 41.5038 120.654 42.9619 120.927 44.3458C121.066 45.0461 121.313 45.734 121.402 46.4467C121.49 47.1594 121.32 47.8187 121.681 48.4746C121.821 48.7303 123.119 48.0109 123.056 47.6945C122.688 45.972 122.922 44.2095 122.767 42.4675C122.686 41.5951 122.551 40.7348 122.519 39.8615C122.49 39.0846 122.474 38.3273 122.158 37.6048C121.699 37.8632 121.244 38.1277 120.783 38.3849C121.074 39.0165 121.308 39.6647 121.432 40.3521C121.569 41.1213 121.554 41.9006 121.619 42.6794C121.754 44.3589 122.002 46.0918 121.394 47.7099C121.849 47.4723 122.312 47.2305 122.767 46.9941C122.536 46.4479 122.572 45.8715 122.599 45.2921C122.627 44.6494 122.597 44.0011 122.592 43.357C122.583 41.9567 122.609 40.5639 122.716 39.1704C122.726 38.9453 121.361 39.4383 121.328 39.8231Z" fill="#99C8FF"/>
<path id="Vector_6" d="M126.934 40.1373C126.756 41.7967 126.765 43.465 126.806 45.1276C126.837 46.4139 126.699 47.9149 127.451 49.0336C127.653 49.3329 128.74 48.5428 128.824 48.3178C129.389 46.8261 128.693 45.1384 128.464 43.6503C128.322 42.7087 128.181 41.7613 128.088 40.8118C128.041 40.3377 128.039 39.8869 128.077 39.4172C128.107 39.0803 128.134 38.7313 127.988 38.4201C127.864 38.1622 126.587 38.8798 126.613 39.2002C126.758 40.7646 126.81 42.3381 126.838 43.9072C126.85 44.6536 126.813 45.4079 126.809 46.1565C126.808 46.8902 126.987 47.6568 126.882 48.3764C127.34 48.1554 127.802 47.9405 128.26 47.7194C128.453 45.2749 129.09 42.7464 128.408 40.3235C128.336 40.0698 127.37 40.6951 127.285 40.7539C126.297 41.498 126.898 42.8576 126.804 43.8894C126.78 44.1367 127.326 43.8735 127.408 43.8343C127.595 43.7462 128.157 43.4855 128.183 43.2277C128.223 42.8015 128.15 42.3591 128.122 41.931C128.107 41.6653 128.086 41.3991 128.108 41.1352C128.116 41.0352 128.124 40.9352 128.145 40.8421C128.17 40.7341 128.307 40.5449 128.151 40.6659C127.777 40.8105 127.403 40.9516 127.028 41.0963C127.703 43.481 127.069 45.9618 126.876 48.3689C126.854 48.6001 128.197 48.0819 128.254 47.712C128.367 46.9825 128.181 46.2257 128.182 45.4921C128.186 44.6838 128.228 43.8727 128.206 43.0646C128.16 41.5138 128.121 39.9578 127.981 38.4172C127.522 38.6756 127.066 38.9402 126.606 39.1973C126.763 39.5363 126.701 39.9 126.673 40.2593C126.64 40.6441 126.659 41.0283 126.69 41.4145C126.768 42.3827 126.928 43.3434 127.061 44.3053C127.272 45.8013 128.002 47.4777 127.438 48.9706C127.894 48.733 128.356 48.4913 128.812 48.2548C128.046 47.1232 128.199 45.5976 128.171 44.2964C128.135 42.688 128.132 41.081 128.303 39.4844C128.328 39.237 127.777 39.4998 127.7 39.5394C127.521 39.6246 126.96 39.8796 126.934 40.1373Z" fill="#99C8FF"/>
<path id="Vector_7" d="M120.153 43.5093C121.574 43.1718 122.996 43.3854 124.424 43.5622C125.34 43.677 126.265 43.7354 127.181 43.8187C127.95 43.8857 128.766 43.9553 129.527 43.7793C130.159 43.633 131.171 43.2196 131.369 42.5227C131.384 42.4723 131.368 42.4418 131.317 42.4272C130.322 42.2815 129.35 42.7027 128.347 42.6616C127.382 42.6176 126.431 42.4321 125.473 42.3137C123.559 42.0738 121.487 42.1631 119.6 42.5865C119.349 42.6414 119.101 42.7037 118.851 42.733C118.666 42.7522 117.061 43.1536 117.608 43.2052C117.887 43.2298 118.213 43.2042 118.492 43.2018C119.467 43.1997 120.411 43.0946 121.387 43.2002C122.479 43.3151 123.537 43.6121 124.63 43.7552C125.801 43.9068 126.979 43.9946 128.154 44.1207C128.47 44.1517 128.82 43.9326 129.071 43.7641C129.12 43.7306 129.654 43.2979 129.423 43.2726C127.901 43.0825 126.389 43.3029 124.863 43.3056C124.103 43.3049 123.34 43.2337 122.591 43.1122C121.786 42.985 121.037 42.6282 120.223 42.5741C119.906 42.5535 119.563 42.7579 119.307 42.9307C119.257 42.9642 118.725 43.3911 118.954 43.4222C120.458 43.6249 121.955 43.456 123.463 43.4331C124.231 43.425 125.005 43.4327 125.77 43.4292C126.145 43.4286 126.513 43.4379 126.887 43.4373C126.919 43.4374 127.977 43.5098 127.898 43.6124C128.248 43.398 128.604 43.1806 128.954 42.9661C128.954 42.9614 128.96 42.9561 128.96 42.9561C128.651 42.9209 128.289 43.1426 128.044 43.3127C127.994 43.3462 127.466 43.7794 127.691 43.8043C128.194 43.8653 129.238 43.4521 129.287 42.872C129.301 42.8217 129.286 42.7912 129.235 42.7766C128.702 42.5014 128.043 42.5894 127.466 42.5846C126.649 42.5781 125.833 42.5893 125.016 42.5829C123.417 42.5775 121.821 42.7865 120.226 42.579C119.805 42.8603 119.379 43.1459 118.957 43.4272C119.739 43.48 120.454 43.8153 121.215 43.9507C121.91 44.0738 122.632 44.137 123.333 44.1588C124.945 44.2097 126.544 43.9261 128.156 44.1267C128.577 43.8454 129.004 43.5599 129.425 43.2786C128.04 43.1298 126.65 43.0346 125.275 42.8247C124.031 42.6333 122.843 42.3177 121.579 42.2933C120.678 42.2767 119.719 42.2777 118.818 42.3465C118.194 42.3976 117.077 42.7921 116.921 43.4971C116.907 43.5486 116.922 43.5778 116.973 43.5925C117.888 43.7132 118.755 43.3374 119.656 43.2346C120.848 43.0953 122.089 43.0137 123.285 43.0843C124.408 43.1466 125.513 43.3936 126.63 43.4871C127.094 43.524 127.577 43.5541 128.043 43.5174C128.575 43.4766 129.091 43.2871 129.621 43.2567C129.736 43.2459 129.854 43.2459 129.968 43.2621C130.509 42.9973 130.644 42.905 130.374 42.9783C130.232 42.9577 130.028 43.0222 129.889 43.0287C129.564 43.0497 129.234 43.0363 128.911 43.0142C128.399 42.9782 127.887 42.9117 127.374 42.8756C125.234 42.7277 123.114 42.2082 120.983 42.7105C120.652 42.7884 120.234 43.0009 120.014 43.2608C119.835 43.4571 119.849 43.5824 120.153 43.5093Z" fill="#99C8FF"/>
<path id="Vector_8" d="M120.952 46.5934C122.527 46.6694 124.084 46.496 125.658 46.4104C127.016 46.3335 128.362 46.4954 129.623 45.8924C129.781 45.8148 130.455 45.4997 130.394 45.2257C130.24 44.5231 129.394 44.6618 128.853 44.7276C127.743 44.8605 126.634 44.7467 125.52 44.7236C124.415 44.7026 123.401 44.9542 122.324 45.1366C121.346 45.2988 120.427 45.3814 119.527 45.8482C119.713 45.8559 119.898 45.8683 120.089 45.8765C119.898 45.9807 119.715 46.0808 119.524 46.185C119.583 46.185 119.636 46.1846 119.695 46.1845C119.776 46.205 119.874 46.2011 119.957 46.2112C120.182 46.2361 120.407 46.2727 120.632 46.2976C121.245 46.3674 121.865 46.4284 122.479 46.4936C123.582 46.6058 124.682 46.76 125.797 46.7304C126.834 46.7075 127.917 46.5806 128.921 46.2988C129.216 46.2134 130.249 45.6273 130.342 46.1426C130.751 45.8697 131.16 45.5967 131.569 45.3238C130.215 45.5837 128.688 45.103 127.34 44.9245C126.562 44.8182 125.788 44.7192 125.006 44.7834C124.669 44.8128 124.334 44.8576 124.01 44.964C123.816 45.0247 123.636 45.104 123.458 45.1999C123.383 45.2337 123.311 45.2748 123.243 45.3209C123.002 45.4644 123.002 45.469 123.252 45.3274C122.91 45.3506 122.535 45.5864 122.277 45.7964C122.182 45.8755 121.833 46.2023 122.168 46.1833C122.509 46.1601 122.816 46.0347 123.118 45.8762C123.172 45.8488 123.683 45.6004 123.426 45.6865C123.174 45.7695 123.768 45.6587 123.833 45.6545C124.727 45.5676 125.597 45.728 126.481 45.8322C127.785 45.9862 129.168 46.4401 130.484 46.1843C130.76 46.1337 131.787 45.7601 131.709 45.3654C131.577 44.6609 130.152 45.3622 129.799 45.4792C128.67 45.8494 127.129 45.9411 125.859 45.8623C124.398 45.7755 122.917 45.5887 121.465 45.4007C120.487 45.2738 119.383 45.4611 118.802 46.3722C118.585 46.7118 119.275 46.4484 119.364 46.4005C120.075 46.0275 120.981 46.0504 121.753 45.8976C122.753 45.702 123.678 45.5556 124.7 45.5888C125.636 45.6164 126.584 45.7 127.522 45.6106C128.039 45.5617 128.867 45.3068 129.022 46.0107C129.277 45.7899 129.537 45.5649 129.792 45.3441C129.322 45.5677 128.705 45.5186 128.197 45.5216C127.571 45.5244 126.947 45.5427 126.323 45.5833C124.957 45.6748 123.593 45.8191 122.225 45.749C121.902 45.7327 121.566 45.9271 121.308 46.1044C121.263 46.1313 120.734 46.5854 120.952 46.5934Z" fill="#99C8FF"/>
</g>
</g>
<g id="Thumb">
<path id="Vector_9" d="M111.028 50.371L111.409 49.2062L111.418 48.3967L110.848 47.3259L110.17 46.4777L109.502 45.9282L108.558 45.1032L107.484 45.2293L106.256 45.0479L104.716 45.1328L103.468 45.5717L102.296 45.6682L100.549 46.053L98.9106 46.2178L97.8527 46.9758L96.4949 47.6361L95.2928 48.4958L94.3996 49.1972L93.294 49.5357L92.1216 49.7416L91.5488 49.8935L90.6209 50.6915L87.4883 53.4612L95.056 62.0624L96.3263 60.7071L97.3211 60.0675L98.4228 59.4046L99.7189 58.541L101.414 57.4445L102.61 56.6144L104.039 55.55L104.916 55.03L105.877 54.3814L107.395 53.4612L108.548 52.4032L109.731 51.4328L111.028 50.371Z" fill="#0075FF"/>
<path id="Vector 49" d="M109.881 49.8974V50.734L108.851 51.4419L107.114 52.7289L106.599 53.0507L105.569 53.2437L104.797 52.9863L103.703 51.9567L102.931 50.541L103.381 48.8678L105.569 47.259L106.728 46.5512L107.049 46.4868L108.272 47.4521L109.881 49.8974Z" fill="#DBFF00"/>
</g>
</g>
</svg>
