<svg width="87" height="36" viewBox="0 0 87 36" fill="none" xmlns="http://www.w3.org/2000/svg">
<path id="Orange ticket" d="M2.44583 2.13632L1.47859 2.14559L1.4557 3.11261L1.34434 7.81719L1.32221 8.75181L2.25323 8.83672C4.01862 8.99773 4.83266 9.47646 5.2285 9.94681C5.62226 10.4147 5.77534 11.077 5.74118 12.0266C5.64474 12.9139 5.14014 13.4723 4.49804 13.8352C3.80797 14.2252 3.05713 14.3254 2.7686 14.3043L1.70676 14.2267L1.69576 15.2913L1.64237 20.4577L1.63332 21.334L2.50085 21.458C3.76591 21.6388 4.40265 22.2298 4.74444 22.8368C5.11448 23.4941 5.17946 24.2521 5.12319 24.7205C5.06159 25.2333 4.79331 25.6585 4.32159 26.0427C3.8339 26.44 3.16967 26.7563 2.43347 27.0138L1.7731 27.2448L1.7637 27.9443L1.69582 32.9952L1.68205 34.02L2.70689 34.0086L84.7231 33.0935L85.7399 33.0821L85.7116 32.0657L85.5781 27.2746L85.5449 26.0839L84.378 26.3227C82.8972 26.6257 82.0656 26.2139 81.5695 25.7169C81.0184 25.1649 80.758 24.378 80.704 23.829L80.7027 23.8156L80.7011 23.8022C80.6209 23.1636 80.7627 22.7167 80.9853 22.3845C81.2203 22.034 81.5916 21.7447 82.0566 21.5277C82.5208 21.3112 83.0325 21.1888 83.4756 21.1467C83.6956 21.1258 83.8833 21.1261 84.026 21.139C84.1587 21.1509 84.2142 21.1702 84.2144 21.1695L85.6533 21.8376L85.6302 20.2455L85.5539 14.9782L85.5378 13.8613L84.4295 14.0005C83.3236 14.1393 82.5965 13.7714 82.1132 13.2962C81.5914 12.7831 81.3413 12.1276 81.296 11.7665C81.1295 10.4401 81.6528 9.70608 82.319 9.25135C83.0604 8.74531 84.0119 8.58001 84.5172 8.6029L85.6013 8.65201L85.5618 7.5675L85.3703 2.31461L85.3348 1.34175L84.3614 1.35108L2.44583 2.13632Z" fill="#B8CAE0" stroke="black" stroke-width="2"/>
</svg>
