<svg width="20" height="20" viewBox="0 0 20 20" fill="none" xmlns="http://www.w3.org/2000/svg">
<g id="CaretDown" clip-path="url(#clip0_1567_17295)">
<path id="Vector" d="M16.8278 7.26094C16.7806 7.14673 16.7005 7.0491 16.5977 6.9804C16.4949 6.91171 16.3741 6.87503 16.2505 6.875H3.75049C3.62681 6.8749 3.50587 6.91151 3.403 6.98017C3.30013 7.04884 3.21995 7.14649 3.1726 7.26076C3.12526 7.37502 3.11288 7.50076 3.13704 7.62207C3.16119 7.74337 3.2208 7.85478 3.3083 7.94219L9.5583 14.1922C9.61635 14.2503 9.68528 14.2964 9.76115 14.3279C9.83703 14.3593 9.91836 14.3755 10.0005 14.3755C10.0826 14.3755 10.164 14.3593 10.2398 14.3279C10.3157 14.2964 10.3846 14.2503 10.4427 14.1922L16.6927 7.94219C16.7801 7.85473 16.8395 7.74333 16.8636 7.62206C16.8877 7.5008 16.8752 7.37513 16.8278 7.26094Z" fill="black"/>
</g>
<defs>
<clipPath id="clip0_1567_17295">
<rect width="20" height="20" fill="white"/>
</clipPath>
</defs>
</svg>
