<svg width="87" height="36" viewBox="0 0 87 36" fill="none" xmlns="http://www.w3.org/2000/svg">
<path id="Orange ticket" d="M2.44583 2.13638L1.47859 2.14565L1.4557 3.11267L1.34434 7.81725L1.32221 8.75187L2.25323 8.83678C4.01862 8.99779 4.83266 9.47652 5.2285 9.94687C5.62226 10.4147 5.77534 11.0771 5.74118 12.0266C5.64474 12.914 5.14014 13.4724 4.49804 13.8353C3.80797 14.2253 3.05713 14.3255 2.7686 14.3044L1.70676 14.2268L1.69576 15.2914L1.64237 20.4577L1.63332 21.334L2.50085 21.458C3.76591 21.6388 4.40265 22.2299 4.74444 22.8369C5.11448 23.4941 5.17946 24.2521 5.12319 24.7206C5.06159 25.2334 4.79331 25.6585 4.32159 26.0428C3.8339 26.44 3.16967 26.7564 2.43347 27.0139L1.7731 27.2448L1.7637 27.9444L1.69582 32.9953L1.68205 34.0201L2.70689 34.0087L84.7231 33.0935L85.7399 33.0822L85.7116 32.0657L85.5781 27.2746L85.5449 26.084L84.378 26.3228C82.8972 26.6258 82.0656 26.214 81.5695 25.717C81.0184 25.165 80.758 24.3781 80.704 23.829L80.7027 23.8156L80.7011 23.8022C80.6209 23.1636 80.7627 22.7168 80.9853 22.3846C81.2203 22.0341 81.5916 21.7448 82.0566 21.5278C82.5208 21.3113 83.0325 21.1889 83.4756 21.1468C83.6956 21.1258 83.8833 21.1262 84.026 21.139C84.1587 21.151 84.2142 21.1703 84.2144 21.1696L85.6533 21.8377L85.6302 20.2456L85.5539 14.9782L85.5378 13.8614L84.4295 14.0005C83.3236 14.1393 82.5965 13.7715 82.1132 13.2963C81.5914 12.7832 81.3413 12.1276 81.296 11.7665C81.1295 10.4401 81.6528 9.70614 82.319 9.25141C83.0604 8.74537 84.0119 8.58007 84.5172 8.60296L85.6013 8.65207L85.5618 7.56756L85.3703 2.31467L85.3348 1.34181L84.3614 1.35114L2.44583 2.13638Z" fill="#DBFF00" stroke="black" stroke-width="2"/>
</svg>
