<svg width="290" height="306" viewBox="0 0 290 306" fill="none" xmlns="http://www.w3.org/2000/svg">
<mask id="mask0_908_6252" style="mask-type:alpha" maskUnits="userSpaceOnUse" x="0" y="0" width="290" height="306">
<rect width="289.271" height="306" fill="#D9D9D9"/>
</mask>
<g mask="url(#mask0_908_6252)">
<path d="M-92.9818 -18.68L-106.389 -23.2841L-107.09 -9.12557L-109.338 36.2959L-208.711 0.289245L-223.144 -4.94026L-223.001 10.41L-222.602 53.4238L-273.063 42.8075L-286.039 40.0775L-285.916 53.3375L-284.915 161.036L-336.462 155.901L-348.884 154.664L-348.159 167.127L-331.412 455.369L-331.034 461.873L-325.074 464.503L-252.501 496.528L-227.649 627.907L-226.654 633.17L-221.837 635.512L-170.246 660.603L-159.982 721.887L-158.95 728.049L-153.069 730.159L-34.5088 772.698L-7.1205 858.799L-5.26254 864.64L0.720374 865.973L286.221 929.548L305.417 933.823L298.52 915.406L275.732 854.551L346.557 862.234L363.95 864.12L357.651 847.799L336.337 792.571L335.758 789.812L360.277 791.76L379.315 793.272L370.609 776.274L321.107 679.629L320.603 677.225L352.345 679.303L365.962 680.194L363.531 666.767L319.039 421.051L317.957 415.076L312.266 412.959L273.979 398.721L285.981 258.918L286.741 250.069L278.174 247.725L236.198 236.241L232.431 170.075L232.005 162.603L224.834 160.465L129.393 132.016L122.354 61.8299L121.672 55.0314L115.21 52.8123L-92.9818 -18.68Z" fill="#FFC60C" stroke="black" stroke-width="21.3185"/>
</g>
</svg>
