<svg width="273" height="198" viewBox="0 0 273 198" fill="none" xmlns="http://www.w3.org/2000/svg">
<mask id="mask0_908_6255" style="mask-type:alpha" maskUnits="userSpaceOnUse" x="0" y="0" width="273" height="198">
<rect width="273" height="198" fill="#D9D9D9"/>
</mask>
<g mask="url(#mask0_908_6255)">
<path d="M357.17 1275.36L425.008 1259.08C415.567 1203.5 438.575 1186.78 469.296 1179.93C507.703 1173.69 527.873 1211.32 530.582 1225.7L604.816 1206.83C599.307 1160.06 635.485 1143.08 654.263 1140.44C678.909 1136.98 697.854 1156.24 711.68 1176.64L784.315 1158.42L459.571 -13.3603L391.424 6.75679C415.381 54.9866 381.494 81.9231 361.555 89.3627C313.579 108.752 287.475 48.768 290.313 32.7721L215.124 53.8791C231.116 93.4486 202.82 120.105 186.828 126.568C138.852 145.958 113.54 101.741 109.215 81.8334L34.6709 104.536L357.17 1275.36Z" fill="#DBFF00" stroke="black" stroke-width="17.0548"/>
</g>
</svg>
