<svg width="124" height="36" viewBox="0 0 124 36" fill="none" xmlns="http://www.w3.org/2000/svg">
<path d="M13.44 29.352C10.9013 29.352 8.74667 28.872 6.976 27.912C5.22667 26.952 3.89333 25.608 2.976 23.88C2.05867 22.152 1.6 20.1253 1.6 17.8C1.6 15.4107 2.06933 13.3413 3.008 11.592C3.968 9.84267 5.344 8.488 7.136 7.528C8.928 6.568 11.0827 6.088 13.6 6.088C15.1787 6.088 16.672 6.312 18.08 6.76C19.5093 7.208 20.672 7.80533 21.568 8.552L19.968 12.424C18.9867 11.6987 17.984 11.1867 16.96 10.888C15.936 10.568 14.8267 10.408 13.632 10.408C11.3493 10.408 9.632 11.048 8.48 12.328C7.34933 13.5867 6.784 15.4107 6.784 17.8C6.784 20.2107 7.36 22.0347 8.512 23.272C9.68533 24.5093 11.4133 25.128 13.696 25.128C14.912 25.128 16.192 24.936 17.536 24.552V20.136H12.672V16.552H21.632V27.624C20.5227 28.1787 19.2427 28.6053 17.792 28.904C16.3413 29.2027 14.8907 29.352 13.44 29.352ZM33.158 29.352C31.4727 29.352 30.0007 29.0213 28.742 28.36C27.5047 27.6773 26.5447 26.728 25.862 25.512C25.1793 24.2747 24.838 22.8133 24.838 21.128C24.838 19.464 25.1793 18.024 25.862 16.808C26.5447 15.5707 27.5047 14.6213 28.742 13.96C30.0007 13.2987 31.4727 12.968 33.158 12.968C34.8433 12.968 36.3047 13.2987 37.542 13.96C38.8007 14.6213 39.7713 15.5707 40.454 16.808C41.158 18.024 41.51 19.464 41.51 21.128C41.51 22.8133 41.158 24.2747 40.454 25.512C39.7713 26.728 38.8007 27.6773 37.542 28.36C36.3047 29.0213 34.8433 29.352 33.158 29.352ZM33.158 25.736C34.182 25.736 35.014 25.3627 35.654 24.616C36.3153 23.8693 36.646 22.7067 36.646 21.128C36.646 19.5707 36.3153 18.4293 35.654 17.704C35.014 16.9573 34.182 16.584 33.158 16.584C32.134 16.584 31.302 16.9573 30.662 17.704C30.022 18.4293 29.702 19.5707 29.702 21.128C29.702 22.7067 30.022 23.8693 30.662 24.616C31.302 25.3627 32.134 25.736 33.158 25.736ZM54.1458 29.352C53.0364 29.352 52.0338 29.1067 51.1378 28.616C50.2631 28.1253 49.6124 27.4747 49.1858 26.664V29H44.4498V6.44H49.2818V15.4C49.7511 14.6533 50.4124 14.0667 51.2658 13.64C52.1404 13.192 53.1004 12.968 54.1458 12.968C55.5111 12.968 56.7058 13.2987 57.7298 13.96C58.7751 14.6213 59.5858 15.56 60.1618 16.776C60.7378 17.992 61.0258 19.4427 61.0258 21.128C61.0258 22.8133 60.7378 24.2747 60.1618 25.512C59.5858 26.728 58.7751 27.6773 57.7298 28.36C56.7058 29.0213 55.5111 29.352 54.1458 29.352ZM52.7058 25.736C53.7298 25.736 54.5618 25.3627 55.2018 24.616C55.8418 23.8693 56.1618 22.7067 56.1618 21.128C56.1618 19.5707 55.8418 18.4293 55.2018 17.704C54.5618 16.9573 53.7298 16.584 52.7058 16.584C51.6604 16.584 50.8178 16.9573 50.1778 17.704C49.5378 18.4293 49.2178 19.5707 49.2178 21.128C49.2178 22.7067 49.5378 23.8693 50.1778 24.616C50.8178 25.3627 51.6604 25.736 52.7058 25.736ZM71.533 29.352C69.8477 29.352 68.3757 29.0213 67.117 28.36C65.8797 27.6773 64.9197 26.728 64.237 25.512C63.5543 24.2747 63.213 22.8133 63.213 21.128C63.213 19.464 63.5543 18.024 64.237 16.808C64.9197 15.5707 65.8797 14.6213 67.117 13.96C68.3757 13.2987 69.8477 12.968 71.533 12.968C73.2183 12.968 74.6797 13.2987 75.917 13.96C77.1757 14.6213 78.1463 15.5707 78.829 16.808C79.533 18.024 79.885 19.464 79.885 21.128C79.885 22.8133 79.533 24.2747 78.829 25.512C78.1463 26.728 77.1757 27.6773 75.917 28.36C74.6797 29.0213 73.2183 29.352 71.533 29.352ZM71.533 25.736C72.557 25.736 73.389 25.3627 74.029 24.616C74.6903 23.8693 75.021 22.7067 75.021 21.128C75.021 19.5707 74.6903 18.4293 74.029 17.704C73.389 16.9573 72.557 16.584 71.533 16.584C70.509 16.584 69.677 16.9573 69.037 17.704C68.397 18.4293 68.077 19.5707 68.077 21.128C68.077 22.7067 68.397 23.8693 69.037 24.616C69.677 25.3627 70.509 25.736 71.533 25.736ZM82.8248 29V13.288H87.5608V16.008C88.3074 14.1733 89.9074 13.16 92.3608 12.968L93.7688 12.872L94.0568 16.936L91.3368 17.224C88.9474 17.4587 87.7528 18.6747 87.7528 20.872V29H82.8248ZM96.0123 29V13.288H100.748V16.008C101.495 14.1733 103.095 13.16 105.548 12.968L106.956 12.872L107.244 16.936L104.524 17.224C102.135 17.4587 100.94 18.6747 100.94 20.872V29H96.0123ZM114.066 18.472L111.186 16.84L113.362 13.576L109.522 13.832V10.568L113.394 10.856L111.218 7.592L114.098 5.928L115.858 9.832L117.618 5.928L120.498 7.624L118.322 10.856L122.194 10.568V13.832L118.322 13.576L120.498 16.84L117.618 18.504L115.858 14.568L114.066 18.472Z" fill="black"/>
</svg>
