<svg width="12" height="12" viewBox="0 0 12 12" fill="none" xmlns="http://www.w3.org/2000/svg">
<g id="Medal" clip-path="url(#clip0_1390_2121)">
<path id="Vector" d="M10.125 4.50001C10.1254 3.80485 9.95014 3.12087 9.61546 2.51158C9.28078 1.9023 8.79754 1.38747 8.21064 1.01493C7.62374 0.642389 6.95221 0.424211 6.25842 0.380662C5.56463 0.337113 4.87108 0.469606 4.2422 0.765835C3.61332 1.06206 3.06951 1.51242 2.66126 2.07507C2.25302 2.63772 1.99359 3.29442 1.90707 3.98417C1.82056 4.67392 1.90976 5.37435 2.16639 6.0204C2.42302 6.66645 2.83877 7.23717 3.375 7.67954V11.25C3.37495 11.314 3.39127 11.3769 3.42238 11.4327C3.4535 11.4886 3.49839 11.5356 3.55279 11.5692C3.60718 11.6029 3.66928 11.622 3.73317 11.6249C3.79706 11.6278 3.86062 11.6143 3.91781 11.5856L6 10.5469L8.08266 11.588C8.13487 11.613 8.19212 11.6256 8.25 11.625C8.34946 11.625 8.44484 11.5855 8.51517 11.5152C8.58549 11.4448 8.625 11.3495 8.625 11.25V7.67954C9.09419 7.29312 9.47201 6.80762 9.73135 6.25789C9.9907 5.70816 10.1251 5.10784 10.125 4.50001ZM2.625 4.50001C2.625 3.8325 2.82294 3.17997 3.19379 2.62496C3.56464 2.06994 4.09174 1.63736 4.70844 1.38191C5.32514 1.12647 6.00375 1.05963 6.65843 1.18986C7.31312 1.32008 7.91448 1.64152 8.38649 2.11352C8.85849 2.58553 9.17993 3.18689 9.31015 3.84158C9.44038 4.49626 9.37354 5.17486 9.11809 5.79156C8.86265 6.40827 8.43007 6.93537 7.87505 7.30622C7.32003 7.67707 6.66751 7.87501 6 7.87501C5.1052 7.87402 4.24733 7.51812 3.61461 6.8854C2.98189 6.25268 2.62599 5.39481 2.625 4.50001ZM3.375 4.50001C3.375 3.98083 3.52895 3.47332 3.81739 3.04164C4.10583 2.60996 4.5158 2.2735 4.99546 2.07482C5.47511 1.87614 6.00291 1.82416 6.51211 1.92545C7.02131 2.02673 7.48904 2.27674 7.85616 2.64385C8.22327 3.01097 8.47328 3.4787 8.57456 3.9879C8.67585 4.4971 8.62387 5.0249 8.42519 5.50455C8.22651 5.98421 7.89005 6.39418 7.45837 6.68262C7.02669 6.97106 6.51918 7.12501 6 7.12501C5.30404 7.12426 4.63679 6.84746 4.14467 6.35534C3.65255 5.86322 3.37575 5.19597 3.375 4.50001Z" fill="#3347FF"/>
</g>
<defs>
<clipPath id="clip0_1390_2121">
<rect width="12" height="12" fill="white"/>
</clipPath>
</defs>
</svg>
