<svg width="235" height="131" viewBox="0 0 235 131" fill="none" xmlns="http://www.w3.org/2000/svg">
<g id="Hand &#38; currency">
<g id="last 3 fingers">
<g id="Group 34997">
<path id="Vector" d="M106.593 27.3542L88.7917 44.5404L86.7325 46.8389C85.9162 47.75 86.4554 49.2206 87.6668 49.3868L115.896 53.2614C116.274 53.3133 116.656 53.2195 116.967 52.9986L117.735 52.4521L124.463 48.0475C124.566 47.9785 124.681 47.9302 124.801 47.9L132.915 45.8593C133.106 45.8122 133.274 45.7177 133.416 45.5818L137.042 42.1049C137.333 41.8279 137.743 41.7266 138.125 41.8383L141.36 42.7836C141.587 42.8496 141.832 42.8428 142.055 42.76L148.489 40.386C148.507 40.3781 148.529 40.3736 148.547 40.3675L157.862 37.5049C157.96 37.4723 158.052 37.4319 158.141 37.3751L160.969 35.5496C161.158 35.4264 161.304 35.2533 161.396 35.0451L162.646 32.1692C162.707 32.0339 162.738 31.8875 162.744 31.7395L162.775 30.6147C162.783 30.3447 162.695 30.0789 162.526 29.8672L162.144 29.3852C161.909 29.0865 161.542 28.9289 161.168 28.9616L146.345 30.3088C145.455 30.3898 144.835 29.4371 145.251 28.6342L145.492 28.1664C145.548 28.0648 145.584 27.9538 145.602 27.8378L145.986 25.7124C146.02 25.5244 146.008 25.3307 145.948 25.1477L145.813 24.7351C145.629 24.1688 145.049 23.8421 144.479 23.9816L142.5 24.4729L122.135 29.6261C122.09 29.6373 122.044 29.6461 122 29.6523C121.952 29.659 121.908 29.6847 121.875 29.7204C121.828 29.77 121.778 29.8118 121.726 29.8485C121.575 29.9704 121.391 30.0416 121.199 30.0212C121.145 30.0154 121.09 30.022 121.04 30.044C120.958 30.0801 120.9 30.1557 120.873 30.2418C120.813 30.4385 120.663 30.6064 120.469 30.6724C120.387 30.7006 120.31 30.7406 120.237 30.7861C120.202 30.8079 120.166 30.8271 120.129 30.8433C120.121 30.8477 120.117 30.8477 120.111 30.8512C120.065 30.8861 120.02 30.9209 119.974 30.9541C119.886 31.0166 119.786 31.0576 119.681 31.0709C119.609 31.0801 119.536 31.0953 119.466 31.1151C119.372 31.1414 119.283 31.1809 119.196 31.2243C119.12 31.2625 119.037 31.2793 118.954 31.2785C118.689 31.2757 118.361 31.3322 118.11 31.4172L118.102 31.4198C117.975 31.4627 117.838 31.5091 117.773 31.6267C117.764 31.6424 117.756 31.6583 117.748 31.6746C117.684 31.8033 117.589 31.9058 117.476 31.9795C117.399 32.0297 117.318 32.0754 117.232 32.1082L117.224 32.1113C117.074 32.1663 116.91 32.1879 116.75 32.1957C116.614 32.2024 116.476 32.1785 116.354 32.1239C115.615 31.8 115.69 31.059 116.046 30.5602C116.322 30.1723 116.629 29.9629 116.989 29.7968C116.995 29.7941 117.001 29.7903 117.005 29.7855C117.102 29.6856 117.187 29.6061 117.076 29.7502C117.074 29.753 117.078 29.7581 117.081 29.7569C117.082 29.7567 117.082 29.7565 117.082 29.7562C117.132 29.7083 117.19 29.6711 117.252 29.6458C117.285 29.6323 117.319 29.6198 117.352 29.6064C117.382 29.5941 117.414 29.5827 117.445 29.5714L117.461 29.5653L117.478 29.5595C117.582 29.5243 117.691 29.5016 117.793 29.4617L117.825 29.4495C118.097 29.3486 118.35 29.159 118.604 29.0192C118.726 28.9518 118.866 28.9101 119.008 28.8883C119.011 28.8879 119.013 28.8865 119.015 28.8848C119.016 28.884 119.017 28.883 119.018 28.8822C119.041 28.8643 119.067 28.8486 119.094 28.8349C119.252 28.7545 119.408 28.6398 119.493 28.4828C119.503 28.4657 119.512 28.4488 119.523 28.4321C119.537 28.4087 119.55 28.3844 119.561 28.3592C119.62 28.2254 119.688 28.0973 119.782 27.9986C120.02 27.7488 120.347 27.6195 120.689 27.6848C120.702 27.6869 120.714 27.6895 120.727 27.6924C120.777 27.7039 120.829 27.7098 120.88 27.7088C120.922 27.7081 120.962 27.71 121.001 27.7144C121.041 27.7189 121.079 27.7052 121.108 27.6768L126.754 22.4506C126.888 22.326 126.994 22.1679 127.054 21.9927L128.269 18.5842C128.327 18.4195 128.348 18.2403 128.329 18.0665L128.1 15.9667C128.083 15.8094 128.035 15.6583 127.956 15.5239L127.525 14.7628C127.404 14.5447 127.213 14.3738 126.983 14.2784L126.515 14.0808C126.101 13.9061 125.625 13.9957 125.303 14.311L121.268 18.2344C121.209 18.291 121.145 18.3433 121.072 18.3844L106.784 27.2041C106.714 27.2487 106.65 27.2967 106.593 27.3542Z" fill="#0075FF"/>
<path id="Vector 43" d="M117.047 31.4268L110.506 33.3292L102.986 35.2812L99.386 37.8998" stroke="#DBFF00" stroke-width="1.52235"/>
<g id="other fingernails">
<g id="Group">
<g id="Group_2">
<path id="Vector 42" d="M146.477 30.1978L143.326 29.9154L137.544 30.6883L126.21 35.0441L120.131 35.9919L111.213 38.8614L101.233 41.954" stroke="#DBFF00" stroke-width="1.52235"/>
</g>
</g>
<path id="Vector 46" d="M144.776 24.9319L145.346 23.6809L139.227 24.9318L139.508 26.1772L139.849 26.348L140.236 26.8645L143.085 26.673L144.776 24.9319Z" fill="#DBFF00"/>
<g id="Group_3">
<path id="Pinky nails" d="M126.249 13.5035L125.728 12.9916L119 19.0044L119.525 20.1651L121.441 20.3689L122.884 19.7972L124.238 18.534L125.505 17.0119L126.093 15.797L126.254 14.3686L126.249 13.5035Z" fill="#DBFF00"/>
</g>
<path id="Vector 45" d="M161.659 29.0613L161.266 27.4634L157.31 27.7486L154.332 27.768L152.935 28.9017L152.515 29.7695L154.954 31.9596L158.548 32.4968L159.975 31.8837L161.659 29.0613Z" fill="#DBFF00"/>
</g>
</g>
<path id="Vector_2" d="M137.067 58.4523C136.778 58.6179 136.455 58.6578 136.139 58.7568C135.823 58.8557 135.53 59.0022 135.216 59.105C134.928 59.1983 134.633 59.242 134.331 59.2744C134.019 59.3086 133.665 59.282 133.377 59.4266C133.199 59.164 133.022 58.9033 132.843 58.6445C133.155 58.7434 133.431 58.5532 133.711 58.4371C133.977 58.3305 134.251 58.2297 134.521 58.1345C134.799 58.0317 135.083 57.9785 135.368 57.9062C135.644 57.8338 135.849 57.6987 136.104 57.5788C136.279 57.4951 136.816 58.2354 136.677 58.3572C136.468 58.5341 136.194 58.557 135.935 58.614C135.57 58.6902 135.206 58.8043 134.852 58.928C134.546 59.0327 134.287 59.1583 134.024 59.3505C133.785 59.5237 133.556 59.6949 133.261 59.752C132.639 59.8719 131.981 59.5465 131.383 59.8281C131.147 59.9366 131.012 60.0298 130.746 59.9708C130.439 59.9042 130.27 59.8395 129.967 59.9842C129.808 59.7292 129.646 59.4761 129.486 59.2211C129.903 59.4951 130.504 59.3086 130.923 59.1297C131.159 59.0289 131.381 58.8938 131.631 58.831C131.861 58.7739 132.078 58.7739 132.279 58.6312C132.456 58.8938 132.635 59.1545 132.814 59.4133C132.413 59.4285 132.072 59.634 131.701 59.7653C131.372 59.8833 131.022 59.9214 130.677 59.9747C130.533 59.9956 130.39 60.0298 130.247 59.9899C130.133 59.9556 130.055 59.8395 129.95 59.811C129.699 59.7406 129.469 59.9651 129.202 59.8719C128.913 59.7691 128.767 59.4837 128.548 59.2991C128.23 59.027 127.848 58.9204 127.465 58.7815C127.018 58.6198 126.35 58.1954 125.901 58.5512C125.741 58.2963 125.581 58.0432 125.421 57.7882C125.593 57.8871 125.79 57.8605 125.979 57.8909C126.188 57.9176 126.401 57.9537 126.607 57.9937C126.742 58.0203 127.313 58.6749 127.142 58.7758C126.894 58.9242 126.586 58.8405 126.316 58.8082C126.158 58.7891 125.646 58.0679 125.781 58.026C126.007 57.9556 126.207 58.0013 126.437 58.026C126.679 58.0527 126.938 57.9956 127.172 58.066C127.553 58.1783 127.958 58.9337 128.384 58.8177C128.521 59.0574 128.662 59.2953 128.799 59.5351C128.458 59.2896 127.956 59.2534 127.562 59.1316C127.398 58.869 127.231 58.6026 127.065 58.3419C127.086 58.3495 127.111 58.3572 127.132 58.3648C127.317 58.4257 127.457 58.635 127.556 58.7929C127.574 58.8234 127.762 59.1983 127.629 59.1545C127.608 59.1469 127.583 59.1393 127.562 59.1316C127.379 59.0707 127.237 58.8614 127.14 58.7035C127.121 58.673 126.934 58.2982 127.065 58.3419C127.572 58.498 128.099 58.5627 128.538 58.8786C128.605 58.928 129.098 59.5579 128.953 59.596C128.609 59.6873 128.175 59.3067 127.947 59.0936C127.655 58.8215 127.501 58.8424 127.142 58.8348C126.879 58.8272 126.609 58.7244 126.35 58.8082C126.171 58.5455 125.994 58.2848 125.815 58.026C126.059 58.0565 126.339 58.144 126.569 58.007C126.746 58.2696 126.925 58.5303 127.104 58.7891C126.702 58.7111 126.171 58.7511 125.811 58.5417C125.701 58.4789 125.163 57.9138 125.332 57.7787C125.754 57.4437 126.363 57.7539 126.791 57.9271C127.44 58.1878 128.087 58.3743 128.578 58.9147C128.702 59.0498 128.717 59.1374 128.898 59.124C129.037 59.1145 129.164 59.0384 129.301 59.0308C129.444 59.0213 129.524 59.0555 129.646 59.1183C129.874 59.2363 129.952 59.2287 130.224 59.1868C130.599 59.1297 130.951 59.0746 131.303 58.9318C131.638 58.7948 131.956 58.6464 132.323 58.6331C132.479 58.6274 133.006 59.3086 132.858 59.4152C132.626 59.5807 132.34 59.5655 132.082 59.6549C131.817 59.7425 131.583 59.8909 131.322 59.988C130.869 60.1497 130.312 60.2601 129.888 59.9784C129.804 59.9252 129.227 59.301 129.406 59.2154C129.621 59.1126 129.794 59.0784 130.028 59.1278C130.339 59.1963 130.491 59.2268 130.78 59.0822C131.383 58.7777 132.032 59.065 132.664 58.987C132.961 58.9509 133.191 58.7872 133.427 58.616C133.684 58.4295 133.926 58.2925 134.226 58.1878C134.588 58.0603 134.959 57.9404 135.336 57.8605C135.606 57.7996 135.897 57.7825 136.118 57.596C136.31 57.8548 136.498 58.1155 136.691 58.3743C136.439 58.4923 136.228 58.6331 135.956 58.7016C135.627 58.7872 135.301 58.8576 134.984 58.9794C134.692 59.0917 134.397 59.1887 134.114 59.3143C133.863 59.4247 133.629 59.5446 133.355 59.4551C133.239 59.4171 132.639 58.7644 132.82 58.673C133.054 58.5551 133.305 58.5551 133.562 58.536C133.933 58.5075 134.304 58.4675 134.66 58.3514C134.972 58.2487 135.271 58.1022 135.583 58.0013C135.897 57.9024 136.222 57.8624 136.512 57.6968C136.679 57.5712 137.204 58.3762 137.067 58.4523Z" fill="#DBFF00"/>
<path id="Vector 47" d="M108.225 114.133L102.992 117.653L97.3779 119.651" stroke="#DBFF00" stroke-width="1.52235"/>
<path id="Vector 48" d="M71.0254 85.7788L64.27 86.7303L60.1787 86.4448L53.6135 86.7303" stroke="#DBFF00" stroke-width="1.52235"/>
</g>
<g id="Middle palm">
<path id="Vector 50" d="M164.271 73.5997V72.4579L163.415 70.6501L162.558 69.5083L161.226 68.8423L160.275 67.7005H159.133L157.135 67.3199L153.9 67.7005L152.663 68.2714H151.711L145.908 69.1277L141.626 71.221L140.104 73.0287L138.581 73.5997L134.871 74.456L133.443 75.9783L129.257 77.7861L123.263 79.9745C121.512 80.8879 121.138 80.3551 121.169 79.9745L120.313 79.2133L118.886 77.7861L117.649 76.6443L116.412 75.3123L114.319 73.0287L112.987 71.3161L112.511 70.7452V68.8423L111.845 66.9394L111.464 65.5122L111.845 64.3704L120.313 61.2305L124.309 58.4713H126.878L130.494 59.5179L137.915 57.4247L141.911 59.1373L162.178 66.9394L165.413 66.5588L167.506 63.5141V61.8014L166.84 60.5645L165.793 59.1373L163.7 57.4247L161.226 55.8072L157.135 53.4285L155.232 51.811L150.094 49.0518L145.242 46.2925L143.434 45.1507L137.344 41.5352L120.313 42.2963L115.27 43.4381L94.6234 44.1993C87.849 43.6665 85.7748 45.7534 85.5845 46.8634L83.2058 55.3315V57.3296L81.1126 71.7919L79.7805 75.3123C76.4313 85.0553 69.6315 86.7934 66.6503 86.4445H56.1841H0.998962L3.85336 130.783L53.6151 125.455L82.4446 122.886L97.1924 119.841L107.754 114.798L129.162 104.237L141.816 90.8212L158.277 79.9745L159.133 79.2133L161.226 77.4055L163.7 75.3123L164.271 73.5997Z" fill="#0075FF"/>
<path id="stroke" d="M142.102 59.4225L137.725 57.6147M137.725 57.6147L140.199 52.7622M137.725 57.6147L130.018 59.4225L126.878 58.5662M126.878 58.5662V54.0943M126.878 58.5662H124.024L120.408 61.04L111.179 64.7507L109.942 58.5662" stroke="#DBFF00" stroke-width="1.52235"/>
<path id="Vector 51" d="M93.4824 39.6323L86.5367 45.1508L82.9211 55.7121L82.3502 61.3258" stroke="#DBFF00" stroke-width="1.52235"/>
<path id="Vector_3" d="M121.352 30.1457C121.012 30.3323 120.651 30.4737 120.294 30.6292C120.13 30.7002 119.971 30.7752 119.816 30.8626C119.656 30.9538 119.5 31.0465 119.325 31.1116C119.32 31.1137 119.205 30.9666 119.208 30.9613C119.295 30.8118 119.496 30.7497 119.648 30.6941C119.857 30.6186 120.059 30.5317 120.259 30.4339C120.478 30.3277 120.698 30.2215 120.914 30.1079C121.01 30.0585 121.115 29.9963 121.225 29.9833C121.33 29.9724 121.427 30.0219 121.532 30.0008C121.571 30.0515 121.611 30.1004 121.65 30.1511C121.584 30.1512 121.543 30.186 121.49 30.2219C121.423 30.2647 121.352 30.2976 121.282 30.3306C121.147 30.3891 121.008 30.4334 120.878 30.5C120.7 30.5919 120.458 30.7733 120.244 30.6971C120.227 30.69 120.132 30.543 120.127 30.5469C120.232 30.4745 120.357 30.4552 120.478 30.42C120.632 30.3736 120.781 30.3191 120.934 30.2659C121.072 30.2191 121.212 30.1773 121.356 30.1514C121.429 30.1379 121.599 30.1491 121.628 30.0641C121.667 30.1148 121.706 30.1637 121.745 30.2144C121.556 30.255 121.384 30.3455 121.221 30.4438C121.14 30.4929 121.064 30.5485 120.978 30.5895C120.899 30.6273 120.811 30.6368 120.73 30.674C120.691 30.6233 120.651 30.5744 120.612 30.5237C120.826 30.4479 121.019 30.3309 121.211 30.2116C121.296 30.1578 121.382 30.1083 121.46 30.0457C121.546 29.9775 121.624 29.9047 121.722 29.8517C121.722 29.85 121.842 29.9967 121.839 30.002C121.739 30.1483 121.554 30.215 121.404 30.2978C121.293 30.3578 121.113 30.478 120.984 30.4156C120.969 30.4074 120.863 30.2741 120.867 30.2653C120.926 30.1376 121.09 30.0991 121.207 30.0419C121.383 29.9571 121.549 29.8578 121.731 29.7878C121.748 29.7805 121.834 29.9444 121.849 29.9381C121.685 30.0134 121.499 30.012 121.355 30.1284C121.316 30.0777 121.276 30.0288 121.237 29.9781C121.421 29.9191 121.585 29.8233 121.748 29.7207C121.754 29.7169 121.863 29.8721 121.866 29.871C121.668 30.0088 121.471 30.1507 121.263 30.274C121.168 30.3319 121.065 30.3742 120.967 30.4272C120.886 30.4704 120.813 30.5496 120.725 30.5736C120.711 30.5782 120.616 30.4184 120.608 30.4233C120.808 30.2785 121.046 30.2024 121.248 30.0626C121.252 30.0598 121.364 30.2139 121.366 30.2129C121.206 30.3289 121.019 30.4009 120.851 30.5013C120.666 30.6151 120.48 30.7288 120.289 30.8344C119.954 31.019 119.603 31.2363 119.22 31.2907C119.181 31.24 119.141 31.191 119.102 31.1404C119.386 31.1051 119.656 31.0401 119.917 30.922C119.993 30.887 120.369 30.7333 120.277 30.6058C120.315 30.654 120.354 30.7047 120.392 30.7529C120.317 30.6794 120.184 30.7651 120.11 30.8051C119.95 30.8921 119.788 30.9784 119.624 31.064C119.452 31.1545 119.291 31.2577 119.125 31.3588C119.002 31.4343 118.845 31.5535 118.692 31.5451C118.678 31.5436 118.577 31.3938 118.574 31.3948C118.755 31.2029 119.047 31.1712 119.284 31.0867C119.556 30.9891 119.86 30.9667 120.105 30.803C120.144 30.8537 120.184 30.9026 120.223 30.9533C120.12 30.9384 120 31.0171 119.907 31.0552C119.776 31.1091 119.645 31.1648 119.516 31.2236C119.272 31.3361 119.039 31.4698 118.787 31.5692C118.748 31.5185 118.708 31.4695 118.669 31.4189C118.817 31.3901 118.949 31.3122 119.09 31.2668C119.246 31.2169 119.406 31.1751 119.563 31.1235C119.71 31.0742 119.861 31.0264 119.995 30.9492C120.083 30.8986 120.172 30.7644 120.279 30.7644C120.297 30.7638 120.388 30.9196 120.397 30.9147C120.17 31.0778 119.902 31.1538 119.659 31.2814C119.537 31.3449 119.432 31.4318 119.319 31.5091C119.228 31.5709 119.121 31.6673 119.007 31.6746C118.995 31.6756 118.892 31.5233 118.889 31.5243C118.988 31.4184 119.143 31.3907 119.276 31.346C119.435 31.2933 119.592 31.2338 119.747 31.1712C119.885 31.1141 120.03 31.0659 120.161 30.994C120.282 30.9298 120.37 30.8076 120.497 30.7625C120.507 30.7583 120.612 30.9156 120.615 30.9128C120.541 30.9793 120.423 31.0014 120.331 31.0403C120.224 31.0872 120.123 31.1447 120.023 31.2048C119.82 31.3241 119.62 31.4399 119.391 31.5016C119.38 31.5051 119.279 31.3474 119.274 31.3513C119.459 31.1983 119.652 31.0711 119.875 30.9809C120.116 30.8815 120.352 30.7672 120.583 30.6412C120.589 30.6374 120.698 30.7926 120.701 30.7915C120.564 30.9023 120.417 31.001 120.268 31.0966C120.131 31.1851 119.992 31.2704 119.831 31.3079C119.824 31.3093 119.711 31.1672 119.713 31.1576C119.759 31.008 120.016 30.9415 120.14 30.8787C120.342 30.7799 120.578 30.6536 120.729 30.4846C120.768 30.5353 120.807 30.5842 120.846 30.6349C120.758 30.7161 120.628 30.7478 120.521 30.8007C120.39 30.8649 120.263 30.9347 120.134 31.0013C120.016 31.0627 119.902 31.1315 119.785 31.1929C119.665 31.2553 119.535 31.2827 119.414 31.3384C119.375 31.2877 119.336 31.2388 119.296 31.1881C119.555 31.0916 119.746 30.8775 120.007 30.7817C120.017 30.7775 120.12 30.9341 120.125 30.932C119.992 31.0425 119.829 31.104 119.676 31.1794C119.498 31.2677 119.325 31.3702 119.154 31.465C118.976 31.5635 118.798 31.6597 118.622 31.7632C118.465 31.8577 118.326 31.984 118.154 32.0522C118.15 32.0543 118.035 31.9072 118.037 31.9019C118.083 31.8282 118.168 31.7968 118.238 31.7493C118.317 31.6952 118.393 31.6354 118.472 31.5813C118.62 31.4791 118.784 31.3995 118.923 31.2852C118.922 31.287 119.044 31.4327 119.04 31.4355C118.913 31.5481 118.746 31.5895 118.607 31.6808C118.47 31.7693 118.346 31.8791 118.181 31.9067C118.163 31.9098 118.071 31.7515 118.063 31.7564C118.207 31.6545 118.37 31.5954 118.522 31.5091C118.65 31.4358 118.807 31.3841 118.894 31.2593C118.933 31.31 118.973 31.3589 119.012 31.4096C118.948 31.4762 118.853 31.4973 118.772 31.5345C118.665 31.5832 118.566 31.6499 118.46 31.7036C118.246 31.8119 118.007 31.8548 117.787 31.9507C117.748 31.9 117.708 31.8511 117.669 31.8004C117.924 31.7025 118.169 31.5858 118.412 31.4624C118.632 31.3484 118.868 31.2673 119.071 31.1215C119.11 31.1722 119.15 31.2211 119.189 31.2718C119.098 31.2329 118.937 31.3772 118.869 31.4235C118.734 31.517 118.591 31.6027 118.435 31.6543C118.396 31.6037 118.356 31.5547 118.317 31.5041C118.509 31.4914 118.683 31.3811 118.84 31.2807C118.846 31.2768 118.956 31.432 118.958 31.431C118.88 31.4858 118.835 31.5534 118.745 31.593C118.653 31.6319 118.561 31.6605 118.472 31.7043C118.263 31.8046 118.043 31.8758 117.83 31.9703C117.791 31.9196 117.752 31.8707 117.713 31.82C117.831 31.7756 117.932 31.7036 118.045 31.6486C118.157 31.5935 118.28 31.565 118.396 31.5217C118.633 31.4329 118.793 31.2349 119.022 31.1347C119.061 31.1854 119.101 31.2343 119.14 31.285C119.064 31.2109 118.77 31.4246 118.707 31.4773C118.668 31.4266 118.629 31.3777 118.59 31.327C118.709 31.2544 118.833 31.1916 118.955 31.1239C119.066 31.0621 119.191 31.0283 119.293 30.9528C119.332 31.0034 119.372 31.0524 119.411 31.1031C119.187 31.1379 118.977 31.2211 118.778 31.3232C118.739 31.2725 118.699 31.2236 118.66 31.1729C118.931 31.1386 119.118 30.9291 119.366 30.8343C119.376 30.8301 119.48 30.9874 119.484 30.9846C119.319 31.1274 119.119 31.215 118.932 31.322C118.841 31.3754 118.75 31.4287 118.652 31.4715C118.575 31.5058 118.465 31.5128 118.403 31.574C118.364 31.5233 118.325 31.4744 118.286 31.4237C118.409 31.4447 118.563 31.382 118.669 31.3284C118.708 31.3791 118.748 31.428 118.787 31.4787C118.559 31.5446 118.342 31.6437 118.121 31.7287C117.93 31.8011 117.754 31.9149 117.55 31.9533C117.523 31.9589 117.457 31.7968 117.432 31.803C117.587 31.7609 117.732 31.7007 117.893 31.6897C117.932 31.7403 117.971 31.7893 118.01 31.8399C117.863 31.7722 117.692 31.9019 117.566 31.97C117.481 32.016 117.394 32.0605 117.3 32.0884C117.201 32.1159 117.097 32.1088 117.01 32.172C116.971 32.1214 116.931 32.0724 116.892 32.0217C116.992 32.0949 117.137 31.9937 117.239 31.9669C117.375 31.9297 117.514 31.8691 117.657 31.8817C117.671 31.8831 117.774 32.0175 117.775 32.032C117.769 32.122 117.421 32.1556 117.354 32.1695C117.261 32.1896 117.173 32.2257 117.082 32.2525C116.939 32.2954 116.794 32.3309 116.657 32.3904C116.618 32.3398 116.578 32.2908 116.539 32.2401C116.846 32.1141 117.186 32.1325 117.495 32.0174C117.534 32.0681 117.574 32.117 117.613 32.1677C117.464 32.1155 117.28 32.2258 117.144 32.2818C116.927 32.3707 116.707 32.4394 116.492 32.5375C116.453 32.4868 116.414 32.4379 116.375 32.3872C116.472 32.3445 116.557 32.2805 116.66 32.2459C116.762 32.2113 116.869 32.1952 116.972 32.1631C117.148 32.109 117.305 31.9856 117.5 32.0171C117.525 32.0211 117.6 32.1747 117.617 32.1674C117.525 32.208 117.425 32.221 117.331 32.2549C117.228 32.293 117.131 32.3443 117.028 32.3848C116.931 32.4216 116.833 32.4473 116.734 32.4791C116.655 32.5049 116.574 32.5601 116.49 32.5488C116.471 32.5452 116.38 32.3936 116.372 32.3985C116.547 32.272 116.766 32.293 116.968 32.2556C117.198 32.2134 117.4 32.0796 117.639 32.0632C117.675 32.0612 117.723 32.2162 117.757 32.2135C117.494 32.2344 117.26 32.3554 117.032 32.4785C116.926 32.5364 116.819 32.5936 116.703 32.6309C116.583 32.6686 116.459 32.6699 116.357 32.7455C116.318 32.6948 116.278 32.6459 116.239 32.5952C116.416 32.5231 116.604 32.4902 116.787 32.4348C116.971 32.38 117.137 32.2849 117.313 32.2146C117.33 32.2072 117.416 32.3712 117.431 32.3649C117.249 32.4391 117.061 32.5026 116.874 32.5644C116.7 32.6235 116.521 32.6659 116.354 32.7423C116.315 32.6916 116.275 32.6427 116.236 32.592C116.479 32.5505 116.71 32.4553 116.943 32.3789C117.059 32.3397 117.177 32.3013 117.29 32.2566C117.391 32.2153 117.487 32.1658 117.599 32.168C117.611 32.1688 117.717 32.3063 117.716 32.3183C117.694 32.4447 117.405 32.4796 117.308 32.5061C117.218 32.5294 117.134 32.5651 117.044 32.586C116.913 32.6151 116.777 32.6259 116.646 32.6508C116.63 32.6547 116.536 32.4956 116.528 32.5005C116.652 32.413 116.804 32.4129 116.947 32.3828C117.125 32.3439 117.29 32.265 117.468 32.2262C117.482 32.2234 117.58 32.3803 117.586 32.3765C117.451 32.4879 117.289 32.5025 117.133 32.5687C116.983 32.6334 116.852 32.7386 116.681 32.7308C116.663 32.7297 116.571 32.5756 116.563 32.5805C116.736 32.4593 116.947 32.4298 117.14 32.3623C117.341 32.2917 117.554 32.2321 117.728 32.1056C117.768 32.1563 117.807 32.2052 117.846 32.2559C117.695 32.2952 117.584 32.427 117.418 32.3701C117.396 32.3633 117.313 32.2146 117.3 32.2198C117.488 32.1273 117.689 32.0507 117.848 31.9117C117.887 31.9624 117.927 32.0114 117.966 32.062C117.834 32.14 117.684 32.1758 117.551 32.2512C117.447 32.3081 117.358 32.3971 117.235 32.4069C117.222 32.4079 117.12 32.2555 117.117 32.2566C117.328 32.0136 117.663 31.9623 117.945 31.8383C117.984 31.889 118.024 31.9379 118.063 31.9886C117.837 32.0757 117.616 32.1752 117.392 32.2714C117.353 32.2208 117.314 32.1718 117.275 32.1212C117.487 32.0778 117.66 31.9608 117.836 31.841C117.839 31.8382 117.951 31.9924 117.953 31.9913C117.756 32.1393 117.52 32.2161 117.292 32.3067C117.093 32.3865 116.87 32.4726 116.653 32.4403C116.636 32.4374 116.538 32.2871 116.535 32.29C116.681 32.1623 116.935 32.2855 117.052 32.1132C117.091 32.1639 117.131 32.2128 117.17 32.2635C116.864 32.3287 116.57 32.4332 116.28 32.5543C116.241 32.5036 116.202 32.4547 116.163 32.404C116.285 32.4063 116.382 32.3328 116.493 32.2933C116.617 32.2493 116.735 32.2211 116.823 32.1151C116.862 32.1658 116.902 32.2147 116.941 32.2654C116.812 32.2911 116.676 32.3368 116.556 32.3907C116.448 32.4394 116.356 32.5151 116.236 32.528C116.216 32.5304 116.128 32.3717 116.118 32.3777C116.203 32.324 116.301 32.306 116.394 32.2696C116.494 32.2283 116.59 32.1746 116.689 32.1284C116.784 32.0849 116.884 32.0574 116.98 32.0182C117.073 31.9801 117.151 31.9132 117.245 31.8708C117.255 31.8666 117.357 32.0232 117.362 32.0211C117.089 32.2307 116.713 32.2101 116.441 32.4221C116.402 32.3714 116.362 32.3225 116.323 32.2718C116.445 32.2945 116.557 32.2063 116.653 32.1448C116.787 32.0574 116.925 31.9714 117.074 31.9108C117.113 31.9615 117.153 32.0104 117.192 32.0611C117.025 32.088 116.896 32.1896 116.748 32.2611C116.584 32.3407 116.418 32.4273 116.25 32.497C116.211 32.4463 116.171 32.3974 116.132 32.3467C116.29 32.283 116.472 32.2335 116.61 32.1312C116.684 32.075 116.79 31.9436 116.895 31.984C116.911 31.9904 117.015 32.1229 117.013 32.1342C116.965 32.2627 116.8 32.309 116.69 32.3648C116.62 32.4002 116.563 32.4593 116.491 32.4916C116.42 32.5227 116.346 32.5253 116.279 32.5639C116.24 32.5132 116.2 32.4643 116.161 32.4136C116.183 32.4289 116.204 32.4434 116.227 32.4569C116.245 32.4683 116.349 32.5924 116.345 32.6072C116.31 32.7287 116.094 32.8013 115.982 32.7991C115.97 32.7983 115.863 32.6523 115.864 32.6488C115.918 32.5515 116.032 32.4929 116.125 32.4403C116.228 32.3852 116.334 32.3358 116.443 32.2956C116.452 32.2914 116.555 32.448 116.56 32.4459C116.392 32.583 116.173 32.6073 115.977 32.686C115.959 32.6934 115.874 32.5294 115.859 32.5357C116.022 32.4664 116.172 32.3666 116.334 32.2948C116.345 32.2889 116.444 32.4483 116.452 32.4451C116.317 32.5343 116.175 32.6062 116.024 32.6643C116.007 32.6716 115.922 32.5077 115.907 32.514C115.995 32.4779 116.091 32.4635 116.176 32.4158C116.253 32.3729 116.313 32.311 116.395 32.2763C116.4 32.2742 116.513 32.4249 116.513 32.4266C116.409 32.5407 116.255 32.5624 116.144 32.6633C116.105 32.6127 116.065 32.5637 116.026 32.513C116.278 32.4632 116.496 32.3213 116.72 32.2027C116.835 32.1424 116.951 32.0888 117.066 32.0284C117.163 31.9772 117.256 31.8836 117.367 31.8688C117.377 31.8671 117.485 32.0174 117.484 32.0191C117.421 32.1044 117.32 32.0962 117.229 32.1273C117.134 32.1588 117.071 32.2398 116.966 32.2489C116.941 32.2509 116.866 32.0913 116.849 32.0986C117.06 32.0033 117.263 31.901 117.471 31.7982C117.589 31.7411 117.776 31.71 117.847 31.5891C117.886 31.6398 117.926 31.6887 117.965 31.7394C117.844 31.7686 117.729 31.8205 117.62 31.8769C117.524 31.9264 117.444 32.007 117.336 32.0309C117.325 32.0327 117.22 31.8814 117.218 31.8806C117.372 31.7028 117.598 31.6114 117.809 31.5222C117.848 31.5729 117.887 31.6218 117.926 31.6725C117.796 31.7264 117.699 31.8246 117.582 31.9004C117.46 31.9784 117.321 32.0227 117.201 32.1014C117.162 32.0507 117.122 32.0018 117.083 31.9511C117.161 31.985 117.275 31.912 117.344 31.8783C117.455 31.8226 117.568 31.7675 117.678 31.7118C117.821 31.6381 117.973 31.5765 118.108 31.4916C118.177 31.4477 118.243 31.3981 118.313 31.3567C118.378 31.3174 118.442 31.29 118.492 31.2323C118.531 31.283 118.571 31.3319 118.61 31.3826C118.49 31.4305 118.368 31.4777 118.273 31.5664C118.234 31.5157 118.194 31.4668 118.155 31.4161C118.307 31.3503 118.456 31.3018 118.558 31.1622C118.597 31.2129 118.636 31.2618 118.675 31.3125C118.554 31.4255 118.413 31.5058 118.261 31.5717C118.246 31.578 118.157 31.4168 118.143 31.4214C118.263 31.3674 118.36 31.2445 118.5 31.2394C118.514 31.2391 118.615 31.3907 118.618 31.3897C118.502 31.5073 118.34 31.5218 118.194 31.5795C118.008 31.6541 117.846 31.7796 117.663 31.8615C117.624 31.8109 117.584 31.7619 117.545 31.7113C117.788 31.6186 118.005 31.4622 118.251 31.3769C118.366 31.3371 118.648 31.2848 118.657 31.1305C118.696 31.1811 118.736 31.2301 118.775 31.2808C118.69 31.3182 118.619 31.3802 118.53 31.4077C118.44 31.437 118.346 31.4462 118.258 31.478C118.127 31.5259 117.967 31.5719 117.865 31.668C117.825 31.6173 117.786 31.5684 117.747 31.5177C117.785 31.5189 117.816 31.5233 117.853 31.534C117.873 31.5401 117.963 31.6892 117.971 31.6843C117.921 31.7156 117.868 31.7351 117.814 31.7565C117.797 31.7638 117.711 31.5999 117.697 31.6062C117.807 31.5607 117.92 31.5219 118.023 31.4633C118.113 31.4135 118.186 31.3565 118.294 31.3531C118.321 31.3518 118.39 31.5111 118.411 31.5034C118.158 31.5978 117.945 31.7743 117.696 31.8811C117.679 31.8885 117.593 31.7245 117.578 31.7308C117.827 31.624 118.04 31.4475 118.294 31.3531C118.333 31.4038 118.372 31.4527 118.411 31.5034C118.304 31.5051 118.232 31.562 118.141 31.6136C118.037 31.6722 117.923 31.7103 117.814 31.7565C117.775 31.7058 117.736 31.6569 117.697 31.6062C117.75 31.5848 117.804 31.5635 117.853 31.534C117.892 31.5847 117.932 31.6336 117.971 31.6843C117.934 31.6736 117.903 31.6692 117.865 31.668C117.848 31.6676 117.75 31.5149 117.747 31.5177C117.849 31.4216 118.01 31.3739 118.14 31.3277C118.224 31.298 118.311 31.286 118.397 31.2612C118.493 31.2348 118.567 31.17 118.657 31.1287C118.66 31.1277 118.775 31.2645 118.775 31.279C118.764 31.4327 118.482 31.4867 118.37 31.5255C118.124 31.6107 117.907 31.7653 117.664 31.8598C117.646 31.8671 117.561 31.7032 117.546 31.7095C117.729 31.6275 117.892 31.5027 118.077 31.4275C118.224 31.368 118.384 31.3527 118.501 31.2376C118.54 31.2883 118.579 31.3372 118.618 31.3879C118.479 31.393 118.382 31.5142 118.261 31.5699C118.222 31.5192 118.183 31.4703 118.144 31.4196C118.295 31.3538 118.437 31.2734 118.558 31.1605C118.552 31.1661 118.683 31.2991 118.676 31.3108C118.575 31.4503 118.426 31.4988 118.274 31.5647C118.266 31.5678 118.158 31.4133 118.156 31.4144C118.252 31.3239 118.372 31.276 118.493 31.2305C118.5 31.2291 118.612 31.3791 118.611 31.3808C118.561 31.4386 118.496 31.4659 118.431 31.5052C118.361 31.5466 118.296 31.5962 118.227 31.6401C118.092 31.7251 117.94 31.7867 117.797 31.8603C117.685 31.9178 117.574 31.9711 117.463 32.0268C117.394 32.0605 117.28 32.1335 117.201 32.0997C117.184 32.0925 117.089 31.9455 117.084 31.9494C117.204 31.8689 117.343 31.8246 117.465 31.7484C117.583 31.6732 117.677 31.5736 117.809 31.5204C117.827 31.5131 117.912 31.677 117.927 31.6707C117.716 31.76 117.491 31.8513 117.337 32.0292C117.298 31.9785 117.258 31.9296 117.219 31.8789C117.327 31.8549 117.407 31.7743 117.503 31.7249C117.612 31.6684 117.727 31.6166 117.848 31.5874C117.855 31.586 117.967 31.7341 117.966 31.7376C117.892 31.8579 117.707 31.8896 117.59 31.9468C117.382 32.0477 117.178 32.1519 116.967 32.2471C116.928 32.1965 116.888 32.1475 116.849 32.0969C116.953 32.0895 117.016 32.0085 117.112 31.9753C117.205 31.9431 117.304 31.9523 117.367 31.8671C117.406 31.9178 117.446 31.9667 117.485 32.0174C117.38 32.0325 117.295 32.117 117.203 32.1661C117.085 32.231 116.959 32.287 116.839 32.3512C116.614 32.4698 116.397 32.6117 116.145 32.6616C116.131 32.6643 116.03 32.5085 116.027 32.5113C116.137 32.4103 116.294 32.3894 116.396 32.2746C116.435 32.3253 116.474 32.3742 116.513 32.4249C116.432 32.4595 116.372 32.5215 116.295 32.5643C116.212 32.611 116.114 32.6265 116.025 32.6625C115.986 32.6118 115.946 32.5629 115.907 32.5122C116.058 32.4542 116.2 32.3823 116.335 32.2931C116.374 32.3437 116.414 32.3927 116.453 32.4434C116.29 32.5152 116.141 32.6149 115.977 32.6842C115.938 32.6335 115.899 32.5846 115.86 32.5339C116.056 32.4552 116.275 32.431 116.443 32.2938C116.482 32.3445 116.522 32.3934 116.561 32.4441C116.452 32.4843 116.344 32.533 116.244 32.5888C116.15 32.639 116.037 32.7 115.983 32.7973C115.944 32.7466 115.904 32.6977 115.865 32.647C115.977 32.6492 116.193 32.5766 116.228 32.4552C116.267 32.5059 116.307 32.5548 116.346 32.6055C116.323 32.592 116.299 32.5784 116.279 32.5621C116.263 32.5514 116.166 32.4097 116.161 32.4118C116.228 32.3732 116.303 32.3707 116.373 32.3395C116.444 32.3066 116.501 32.2474 116.573 32.2127C116.684 32.1552 116.848 32.1106 116.896 31.9822C116.935 32.0329 116.975 32.0818 117.014 32.1325C116.909 32.0921 116.802 32.2235 116.728 32.2798C116.59 32.382 116.409 32.4297 116.251 32.4952C116.234 32.5026 116.148 32.3386 116.133 32.3449C116.301 32.2753 116.467 32.1886 116.631 32.1091C116.779 32.0376 116.908 31.9359 117.075 31.909C117.1 31.9045 117.174 32.066 117.193 32.0593C117.044 32.1224 116.908 32.2066 116.772 32.2934C116.674 32.3566 116.564 32.4431 116.441 32.4203C116.424 32.4174 116.329 32.2662 116.324 32.27C116.596 32.058 116.972 32.0786 117.245 31.8691C117.284 31.9198 117.324 31.9687 117.363 32.0194C117.271 32.06 117.192 32.1268 117.098 32.1667C117.002 32.2059 116.901 32.2327 116.807 32.2769C116.709 32.3232 116.613 32.3768 116.512 32.4181C116.421 32.4552 116.322 32.4725 116.236 32.5262C116.197 32.4756 116.158 32.4266 116.119 32.3759C116.239 32.363 116.332 32.2856 116.439 32.2387C116.559 32.1847 116.695 32.139 116.824 32.1134C116.835 32.1116 116.942 32.2636 116.942 32.2636C116.854 32.3697 116.736 32.3978 116.611 32.4419C116.499 32.4806 116.403 32.5548 116.281 32.5526C116.255 32.5521 116.182 32.3956 116.163 32.4023C116.451 32.2804 116.747 32.1784 117.053 32.1114C117.062 32.109 117.171 32.26 117.171 32.2617C117.054 32.4341 116.798 32.3101 116.654 32.4385C116.615 32.3878 116.575 32.3389 116.536 32.2882C116.754 32.323 116.976 32.2345 117.175 32.1547C117.402 32.0641 117.637 31.9865 117.836 31.8393C117.875 31.8899 117.915 31.9389 117.954 31.9895C117.778 32.1094 117.606 32.2264 117.393 32.2697C117.371 32.2749 117.293 32.112 117.275 32.1194C117.499 32.0231 117.719 31.9254 117.946 31.8365C117.964 31.8292 118.049 31.9931 118.064 31.9868C117.781 32.1125 117.447 32.1621 117.236 32.4051C117.197 32.3544 117.157 32.3055 117.118 32.2548C117.241 32.245 117.329 32.1553 117.433 32.0992C117.568 32.0262 117.718 31.9886 117.849 31.91C117.854 31.9079 117.966 32.0603 117.966 32.0603C117.808 32.1992 117.606 32.2758 117.419 32.3684C117.38 32.3177 117.34 32.2688 117.301 32.2181C117.467 32.2749 117.578 32.1432 117.729 32.1039C117.743 32.0993 117.839 32.2591 117.847 32.2542C117.673 32.3807 117.46 32.4403 117.259 32.5109C117.065 32.5783 116.853 32.6096 116.682 32.7291C116.643 32.6784 116.603 32.6295 116.564 32.5788C116.735 32.5865 116.866 32.4814 117.016 32.4166C117.17 32.3497 117.334 32.3359 117.469 32.2244C117.508 32.2751 117.548 32.324 117.587 32.3747C117.41 32.4118 117.244 32.4924 117.066 32.5313C116.924 32.5622 116.77 32.5616 116.646 32.6491C116.607 32.5984 116.568 32.5495 116.529 32.4988C116.655 32.476 116.783 32.4641 116.908 32.4388C117.005 32.4183 117.096 32.3812 117.192 32.3548C117.289 32.3283 117.58 32.2941 117.601 32.167C117.64 32.2176 117.68 32.2666 117.719 32.3173C117.613 32.3154 117.521 32.3603 117.424 32.4012C117.306 32.4499 117.183 32.4904 117.062 32.5299C116.828 32.6056 116.599 32.7015 116.356 32.743C116.334 32.7464 116.256 32.5853 116.238 32.5927C116.406 32.517 116.585 32.4721 116.758 32.4149C116.945 32.3531 117.131 32.2888 117.315 32.2153C117.354 32.266 117.393 32.3149 117.432 32.3656C117.254 32.4352 117.09 32.5328 116.906 32.5858C116.724 32.6395 116.536 32.6723 116.359 32.7462C116.349 32.7504 116.247 32.592 116.241 32.5959C116.345 32.521 116.47 32.518 116.587 32.4813C116.702 32.4458 116.81 32.3868 116.916 32.3289C117.145 32.204 117.378 32.0848 117.641 32.0639C117.68 32.1146 117.719 32.1635 117.758 32.2142C117.52 32.2306 117.318 32.3644 117.087 32.4066C116.885 32.444 116.666 32.423 116.492 32.5495C116.453 32.4988 116.413 32.4499 116.374 32.3992C116.457 32.4123 116.539 32.3554 116.618 32.3295C116.715 32.297 116.816 32.2702 116.912 32.2353C117.016 32.1972 117.112 32.1435 117.215 32.1054C117.309 32.0715 117.409 32.0584 117.501 32.0178C117.54 32.0685 117.58 32.1174 117.619 32.1681C117.424 32.1366 117.27 32.2607 117.092 32.3141C116.995 32.3448 116.893 32.3589 116.798 32.3903C116.689 32.4263 116.599 32.4923 116.497 32.5372C116.482 32.5435 116.391 32.3816 116.379 32.3869C116.591 32.2881 116.814 32.22 117.03 32.1311C117.165 32.0769 117.35 31.9667 117.5 32.0171C117.525 32.0253 117.601 32.173 117.617 32.1674C117.308 32.2824 116.967 32.2634 116.661 32.3901C116.644 32.3975 116.558 32.2335 116.543 32.2398C116.675 32.1824 116.812 32.1476 116.949 32.1086C117.047 32.0803 117.14 32.0422 117.239 32.0207C117.305 32.0061 117.655 31.9732 117.66 31.8831C117.699 31.9338 117.739 31.9827 117.778 32.0334C117.636 32.0208 117.496 32.0814 117.36 32.1186C117.258 32.1472 117.111 32.2459 117.013 32.1735C116.999 32.1635 116.898 32.0221 116.896 32.0232C116.976 31.9655 117.073 31.9698 117.168 31.9444C117.268 31.9194 117.362 31.8692 117.453 31.8218C117.579 31.7538 117.748 31.6251 117.898 31.6918C117.931 31.7071 117.984 31.8437 118.016 31.8421C117.855 31.8531 117.71 31.9133 117.555 31.9555C117.516 31.9048 117.476 31.8559 117.437 31.8052C117.64 31.766 117.817 31.653 118.009 31.5806C118.23 31.4956 118.448 31.3989 118.674 31.3305C118.693 31.3257 118.777 31.4871 118.792 31.4808C118.684 31.5355 118.53 31.5964 118.409 31.5761C118.393 31.574 118.293 31.4248 118.291 31.4259C118.349 31.3674 118.448 31.3622 118.522 31.3307C118.626 31.2865 118.724 31.2293 118.821 31.1721C119.008 31.0651 119.209 30.9782 119.372 30.8347C119.411 30.8854 119.45 30.9343 119.49 30.985C119.242 31.0798 119.055 31.2875 118.784 31.3235C118.762 31.327 118.681 31.167 118.666 31.1733C118.866 31.0694 119.076 30.9879 119.299 30.9531C119.314 30.9511 119.409 31.1083 119.417 31.1034C119.315 31.179 119.19 31.2128 119.079 31.2745C118.957 31.3423 118.831 31.4043 118.713 31.4777C118.708 31.4798 118.597 31.3281 118.596 31.3274C118.661 31.2718 118.742 31.2287 118.818 31.1894C118.859 31.1673 118.982 31.0918 119.028 31.1351C119.043 31.1493 119.139 31.2886 119.146 31.2854C118.917 31.3856 118.757 31.5835 118.52 31.6723C118.409 31.7136 118.291 31.74 118.184 31.7912C118.065 31.8476 117.957 31.9253 117.834 31.9718C117.817 31.9791 117.731 31.8152 117.716 31.8215C117.928 31.7287 118.148 31.6574 118.358 31.5554C118.447 31.5116 118.541 31.4837 118.63 31.4442C118.722 31.4053 118.768 31.3376 118.844 31.2821C118.883 31.3328 118.923 31.3817 118.962 31.4324C118.804 31.5328 118.63 31.6431 118.438 31.6558C118.41 31.6588 118.344 31.4985 118.32 31.5055C118.475 31.4531 118.62 31.3681 118.754 31.2747C118.823 31.2265 118.982 31.0816 119.074 31.1229C119.092 31.1301 119.187 31.2753 119.192 31.2732C118.99 31.4191 118.754 31.5001 118.533 31.6141C118.289 31.7393 118.046 31.8542 117.791 31.9522C117.773 31.9595 117.688 31.7956 117.673 31.8019C117.89 31.7052 118.131 31.663 118.346 31.5547C118.446 31.5049 118.541 31.4427 118.641 31.393C118.727 31.3519 118.831 31.3301 118.898 31.259C118.891 31.2664 119.024 31.3959 119.016 31.4093C118.929 31.534 118.773 31.5882 118.644 31.6591C118.492 31.7454 118.326 31.8055 118.185 31.9064C118.146 31.8557 118.106 31.8068 118.067 31.7561C118.232 31.7285 118.357 31.6187 118.493 31.5302C118.633 31.4389 118.801 31.3982 118.927 31.2849C118.966 31.3356 119.006 31.3845 119.045 31.4352C118.905 31.5513 118.742 31.6291 118.594 31.7313C118.515 31.7854 118.439 31.8452 118.36 31.8993C118.29 31.9467 118.207 31.9789 118.159 32.0518C118.12 32.0012 118.08 31.9522 118.041 31.9016C118.212 31.8333 118.352 31.7053 118.509 31.6126C118.682 31.5083 118.862 31.4104 119.04 31.3143C119.214 31.2185 119.385 31.1153 119.562 31.0287C119.716 30.9534 119.878 30.8918 120.011 30.7814C120.05 30.8321 120.09 30.881 120.129 30.9317C119.87 31.0282 119.679 31.2423 119.419 31.3381C119.402 31.3437 119.316 31.1815 119.301 31.1878C119.415 31.1335 119.54 31.1099 119.654 31.0514C119.778 30.9886 119.896 30.9135 120.02 30.8507C120.142 30.7872 120.263 30.7213 120.387 30.6603C120.497 30.6045 120.639 30.5694 120.73 30.4853C120.727 30.4899 120.854 30.6275 120.848 30.6356C120.698 30.8046 120.462 30.9309 120.26 31.0297C120.134 31.0918 119.877 31.1583 119.833 31.3086C119.794 31.2579 119.754 31.209 119.715 31.1583C119.875 31.1226 120.013 31.0348 120.152 30.947C120.299 30.8507 120.447 30.7545 120.585 30.642C120.624 30.6926 120.664 30.7416 120.703 30.7923C120.473 30.9189 120.238 31.0314 119.995 31.1319C119.772 31.2246 119.578 31.3493 119.393 31.5023C119.354 31.4516 119.314 31.4027 119.275 31.352C119.504 31.2904 119.704 31.1745 119.907 31.0552C120.001 30.999 120.097 30.9436 120.2 30.8987C120.295 30.8553 120.422 30.8325 120.5 30.7614C120.539 30.8121 120.578 30.861 120.617 30.9117C120.49 30.9568 120.402 31.0791 120.282 31.1433C120.148 31.2145 120.005 31.2634 119.867 31.3204C119.712 31.3848 119.555 31.4425 119.396 31.4952C119.263 31.5399 119.108 31.5676 119.01 31.6736C118.971 31.6229 118.931 31.574 118.892 31.5233C119 31.5156 119.099 31.4283 119.186 31.3693C119.305 31.2882 119.416 31.1974 119.544 31.1301C119.787 31.0007 120.056 30.9247 120.281 30.7634C120.32 30.8141 120.36 30.863 120.399 30.9137C120.292 30.9154 120.203 31.0479 120.115 31.0984C119.98 31.1774 119.83 31.2235 119.683 31.2727C119.527 31.3244 119.368 31.3669 119.21 31.4161C119.069 31.4614 118.934 31.5404 118.79 31.5681C118.765 31.5726 118.691 31.4112 118.672 31.4178C118.922 31.3177 119.155 31.1823 119.401 31.0723C119.524 31.0173 119.648 30.9648 119.771 30.9123C119.87 30.872 119.999 30.7866 120.108 30.8019C120.127 30.8038 120.217 30.9571 120.225 30.9522C119.981 31.1159 119.676 31.1384 119.404 31.2359C119.167 31.3205 118.877 31.3511 118.695 31.544C118.656 31.4934 118.616 31.4444 118.577 31.3938C118.752 31.4029 118.941 31.2496 119.084 31.1615C119.276 31.0403 119.474 30.9316 119.675 30.826C119.816 30.7516 119.956 30.6585 120.105 30.5998C120.237 30.5483 120.275 30.6008 120.349 30.6965C120.401 30.7624 120.429 30.8028 120.364 30.8729C120.293 30.9468 120.192 30.9941 120.102 31.0397C119.822 31.1771 119.528 31.2509 119.221 31.2889C119.188 31.2941 119.133 31.1345 119.103 31.1386C119.486 31.0843 119.838 30.8652 120.172 30.6824C120.363 30.5768 120.549 30.463 120.734 30.3493C120.903 30.2471 121.09 30.175 121.249 30.0608C121.288 30.1115 121.328 30.1604 121.367 30.2111C121.165 30.351 120.926 30.4271 120.726 30.5718C120.687 30.5212 120.647 30.4722 120.608 30.4216C120.692 30.3979 120.756 30.3253 120.832 30.2843C120.935 30.2274 121.046 30.1819 121.147 30.1201C121.355 29.9969 121.551 29.8567 121.749 29.7172C121.788 29.7679 121.828 29.8168 121.867 29.8675C121.705 29.97 121.539 30.0651 121.357 30.1249C121.345 30.1283 121.244 29.9707 121.239 29.9746C121.382 29.8582 121.57 29.8603 121.733 29.7843C121.772 29.835 121.811 29.8839 121.85 29.9346C121.668 30.0045 121.503 30.1039 121.327 30.1887C121.21 30.2441 121.046 30.2844 120.986 30.4121C120.947 30.3614 120.907 30.3125 120.868 30.2618C120.997 30.3241 121.177 30.2022 121.287 30.144C121.439 30.0637 121.623 29.9945 121.723 29.8482C121.762 29.8989 121.802 29.9478 121.841 29.9985C121.749 30.0476 121.673 30.1151 121.593 30.1795C121.511 30.2467 121.421 30.3007 121.328 30.3576C121.136 30.477 120.943 30.5939 120.73 30.6697C120.711 30.6764 120.627 30.5132 120.612 30.5195C120.685 30.4855 120.767 30.4755 120.842 30.444C120.935 30.4059 121.016 30.3422 121.103 30.291C121.267 30.1934 121.438 30.1004 121.626 30.0616C121.633 30.0602 121.746 30.2024 121.744 30.2119C121.715 30.2987 121.548 30.2864 121.473 30.2992C121.328 30.3269 121.189 30.367 121.051 30.4138C120.899 30.4651 120.747 30.5207 120.594 30.5678C120.475 30.6037 120.348 30.6241 120.243 30.6947C120.204 30.644 120.165 30.5951 120.126 30.5444C120.337 30.6198 120.58 30.4409 120.76 30.3472C120.889 30.2806 121.031 30.2352 121.163 30.1778C121.23 30.1477 121.298 30.1176 121.36 30.0768C121.417 30.0406 121.46 30.0005 121.531 29.9983C121.564 29.9974 121.619 30.1552 121.649 30.1486C121.548 30.1694 121.46 30.1235 121.36 30.1305C121.251 30.1375 121.143 30.1965 121.049 30.2466C120.827 30.3623 120.602 30.4724 120.378 30.5807C120.184 30.6747 119.987 30.7612 119.782 30.8346C119.626 30.8922 119.416 30.9533 119.327 31.108C119.288 31.0573 119.248 31.0084 119.209 30.9577C119.381 30.892 119.54 30.8 119.7 30.7088C119.855 30.6196 120.016 30.5471 120.178 30.4753C120.534 30.3216 120.894 30.1778 121.236 29.9919C121.245 29.9894 121.345 30.1488 121.352 30.1457Z" fill="#004699"/>
<path id="Vector_4" d="M120.862 27.4958C120.887 27.4797 120.909 27.4628 120.933 27.4467C120.931 27.4476 121.048 27.598 121.044 27.6024C120.935 27.7115 120.794 27.7807 120.658 27.8481C120.512 27.921 120.369 27.9997 120.226 28.0784C120.081 28.1563 119.933 28.2309 119.799 28.3239C119.701 28.39 119.601 28.4946 119.476 28.4978C119.458 28.4984 119.371 28.3386 119.365 28.3422C119.63 28.148 119.935 28.0325 120.229 27.8893C120.54 27.737 120.789 27.5042 121.086 27.3285C121.123 27.381 121.16 27.4317 121.197 27.4842C121.071 27.4806 120.949 27.6029 120.855 27.6723C120.712 27.7783 120.551 27.8576 120.404 27.9552C120.043 28.1933 119.689 28.4577 119.344 28.72C119.347 28.7174 119.228 28.5705 119.233 28.5644C119.349 28.45 119.515 28.3884 119.652 28.3048C119.809 28.2111 119.96 28.1092 120.115 28.013C120.248 27.9295 120.372 27.8336 120.499 27.7434C120.562 27.6989 120.625 27.6568 120.693 27.6231C120.763 27.5884 120.841 27.574 120.91 27.5343C120.913 27.5317 121.019 27.6892 121.02 27.69C120.797 27.853 120.549 27.9802 120.34 28.1624C120.173 28.3058 120.012 28.4617 119.786 28.492C119.777 28.494 119.675 28.3381 119.675 28.3364C119.729 28.2648 119.82 28.2355 119.896 28.193C120.011 28.1262 120.114 28.0395 120.224 27.9644C120.337 27.8867 120.46 27.8324 120.582 27.7689C120.689 27.7135 120.8 27.6137 120.915 27.581C120.93 27.5771 121.018 27.7411 121.026 27.7366C120.878 27.8299 120.729 27.9225 120.574 28.0041C120.505 28.0413 120.424 28.0669 120.363 28.1208C120.312 28.1684 120.286 28.2255 120.221 28.2608C120.221 28.2608 120.108 28.1103 120.111 28.1051C120.245 27.9365 120.453 27.8625 120.615 27.7278C120.696 27.6622 120.845 27.4649 120.964 27.4985C120.978 27.5031 121.074 27.6541 121.074 27.6541C121.049 27.6822 121.037 27.6911 121.002 27.7025C120.992 27.7062 120.895 27.5442 120.891 27.5468C120.977 27.4794 121.058 27.3805 121.174 27.3733C121.194 27.3719 121.274 27.5344 121.285 27.529C121.152 27.6082 121.055 27.7289 120.917 27.8015C120.798 27.8641 120.657 27.9146 120.587 28.0352C120.55 27.9828 120.513 27.932 120.476 27.8796C120.609 27.8148 120.722 27.7201 120.841 27.6345C120.973 27.5382 121.112 27.4537 121.238 27.3483C121.275 27.4007 121.312 27.4515 121.349 27.5039C121.068 27.582 120.859 27.8254 120.636 27.997C120.496 28.1046 120.352 28.2055 120.208 28.3089C120.091 28.3936 119.977 28.4875 119.83 28.5144C119.823 28.5155 119.716 28.3657 119.72 28.3588C119.764 28.262 119.891 28.2051 119.973 28.1403C120.074 28.0612 120.174 27.9771 120.281 27.9072C120.469 27.7862 120.704 27.6994 120.819 27.4989C120.856 27.5514 120.893 27.6021 120.93 27.6546C120.707 27.7887 120.501 27.9452 120.28 28.0826C120.177 28.1481 120.069 28.2053 119.968 28.2741C119.877 28.3349 119.803 28.4182 119.696 28.4549C119.694 28.4558 119.583 28.3087 119.586 28.2992C119.639 28.1477 119.861 28.0613 119.991 27.9915C120.197 27.881 120.362 27.7266 120.542 27.5786C120.578 27.631 120.616 27.6818 120.652 27.7342C120.472 27.8065 120.331 27.9405 120.17 28.0445C119.983 28.1638 119.79 28.2739 119.611 28.4032C119.611 28.4032 119.5 28.2492 119.501 28.2475C119.814 28.0126 120.173 27.8323 120.44 27.5402C120.476 27.5926 120.514 27.6434 120.55 27.6958C120.37 27.7885 120.202 27.9021 120.043 28.0298C119.902 28.1451 119.768 28.2721 119.597 28.3423C119.592 28.3442 119.486 28.1884 119.487 28.1867C119.756 27.9148 120.084 27.7135 120.38 27.4706C120.376 27.4733 120.495 27.6201 120.49 27.6262C120.224 27.8639 119.975 28.1368 119.632 28.262C119.62 28.2666 119.53 28.1018 119.522 28.1063C119.823 27.9348 120.065 27.6775 120.37 27.5143C120.368 27.5153 120.485 27.6596 120.481 27.67C120.406 27.8367 120.244 27.9339 120.114 28.0522C119.99 28.1669 119.882 28.3101 119.725 28.3841C119.725 28.3841 119.61 28.2371 119.614 28.2285C119.719 28.0318 119.925 27.9255 120.1 27.8007C120.292 27.6608 120.489 27.5105 120.633 27.321C120.621 27.3367 120.755 27.4567 120.743 27.4767C120.587 27.7168 120.352 27.881 120.135 28.0618C120.139 28.0574 120.019 27.914 120.024 27.9061C120.149 27.7812 120.274 27.6588 120.406 27.537C120.507 27.4435 120.607 27.3279 120.743 27.286C120.748 27.2841 120.857 27.4347 120.854 27.4416C120.811 27.5265 120.718 27.5823 120.656 27.6566C120.599 27.7266 120.54 27.7915 120.472 27.8525C120.38 27.9338 120.229 28.0885 120.096 28.0775C120.082 28.0771 119.988 27.9209 119.986 27.9219C120.133 27.7783 120.312 27.6635 120.453 27.5125C120.519 27.4405 120.628 27.2727 120.746 27.308C120.765 27.3151 120.856 27.4424 120.856 27.4637C120.868 27.7017 120.58 27.8686 120.41 27.9788C120.142 28.1509 119.89 28.3473 119.626 28.5253C119.629 28.5243 119.512 28.374 119.516 28.3696C119.642 28.2412 119.798 28.1621 119.952 28.0762C119.95 28.0771 120.066 28.2207 120.063 28.2319C119.993 28.3967 119.81 28.4589 119.671 28.5545C119.539 28.6464 119.418 28.7645 119.26 28.8113C119.256 28.8114 119.146 28.6626 119.149 28.6557C119.241 28.4756 119.449 28.4144 119.618 28.3331C119.831 28.23 120.041 28.0878 120.222 27.9364C120.216 27.9399 120.339 28.0824 120.333 28.092C120.178 28.2639 119.991 28.4019 119.797 28.524C119.708 28.5797 119.611 28.6211 119.521 28.6717C119.433 28.7214 119.36 28.7902 119.267 28.8315C119.262 28.8334 119.157 28.6759 119.157 28.6759C119.271 28.5734 119.413 28.5279 119.549 28.4648C119.706 28.3924 119.84 28.28 119.991 28.201C119.999 28.1982 120.097 28.3585 120.102 28.3566C119.913 28.4751 119.715 28.5744 119.524 28.6921C119.361 28.7927 119.219 28.9267 119.039 28.9964C119.026 29.0011 118.938 28.8371 118.928 28.8408C119.055 28.7796 119.175 28.7093 119.294 28.6365C119.394 28.5754 119.484 28.4933 119.594 28.4497C119.607 28.445 119.695 28.6091 119.705 28.6053C119.48 28.7156 119.265 28.8452 119.061 28.9898C118.899 29.104 118.75 29.251 118.559 29.3142C118.553 29.3153 118.448 29.1603 118.449 29.1586C118.537 29.0672 118.651 29.0235 118.755 28.9537C118.85 28.8885 118.918 28.7943 119.033 28.7591C119.045 28.7544 119.136 28.9175 119.143 28.9147C118.986 29.016 118.826 29.1123 118.668 29.2111C118.541 29.291 118.414 29.3751 118.268 29.419C118.264 29.4192 118.156 29.2754 118.158 29.2634C118.18 29.1733 118.357 29.1164 118.432 29.0817C118.589 29.0076 118.739 28.9048 118.876 28.7957C118.871 28.8001 118.992 28.9435 118.986 28.9513C118.87 29.076 118.722 29.125 118.575 29.2022C118.5 29.2429 118.435 29.2987 118.358 29.3369C118.283 29.3734 118.205 29.3921 118.135 29.4395C118.099 29.3871 118.061 29.3363 118.025 29.2839C118.172 29.2135 118.321 29.144 118.459 29.0544C118.573 28.9792 118.66 28.8682 118.788 28.8164C118.794 28.8145 118.9 28.9703 118.899 28.972C118.551 29.3188 118.117 29.5423 117.697 29.7866C117.691 29.7902 117.589 29.6301 117.586 29.631C117.74 29.5341 117.905 29.4572 118.064 29.3669C118.199 29.291 118.324 29.1848 118.473 29.1382C118.478 29.1364 118.585 29.2904 118.583 29.2939C118.517 29.3744 118.417 29.4099 118.323 29.4505C118.208 29.5002 118.094 29.5507 117.98 29.6046C117.881 29.6513 117.778 29.6963 117.683 29.753C117.608 29.798 117.542 29.8538 117.45 29.8534C117.414 29.8009 117.376 29.7502 117.34 29.6977C117.477 29.7418 117.633 29.615 117.746 29.5517C117.949 29.4353 118.145 29.314 118.346 29.1951C118.383 29.2476 118.42 29.2983 118.457 29.3508C118.172 29.4605 117.91 29.6188 117.638 29.7596C117.512 29.825 117.377 29.8762 117.257 29.955C117.159 30.0186 117.082 30.1131 116.954 30.113C116.928 30.1138 116.863 29.9516 116.843 29.9573C117.208 29.8195 117.5 29.541 117.868 29.4107C117.885 29.4059 117.963 29.5719 117.978 29.5663C117.756 29.6544 117.558 29.8065 117.355 29.9331C117.185 30.0391 117.012 30.186 116.807 30.2046C116.789 30.2069 116.707 30.0435 116.696 30.0489C116.867 29.9472 117.045 29.8657 117.226 29.79C117.405 29.7152 117.593 29.6444 117.74 29.5111C117.776 29.5635 117.814 29.6142 117.85 29.6667C117.645 29.836 117.397 29.9334 117.169 30.0651C116.949 30.1923 116.736 30.3354 116.492 30.4115C116.474 30.418 116.396 30.2502 116.381 30.2558C116.602 30.1669 116.826 30.0771 117.039 29.968C117.13 29.9216 117.216 29.8669 117.302 29.8165C117.376 29.7732 117.46 29.7424 117.497 29.6611C117.534 29.7136 117.571 29.7643 117.608 29.8168C117.48 29.8566 117.382 29.9433 117.279 30.0216C117.154 30.115 117.018 30.1969 116.886 30.2787C116.755 30.3587 116.622 30.4209 116.483 30.485C116.356 30.5419 116.237 30.642 116.098 30.6575C116.087 30.6587 115.987 30.5019 115.987 30.5019C116.053 30.4274 116.176 30.4064 116.262 30.3559C116.374 30.2901 116.48 30.2237 116.597 30.1688C116.842 30.051 117.09 29.9391 117.319 29.7929C117.322 29.792 117.43 29.9468 117.43 29.9486C117.175 30.1475 116.909 30.346 116.631 30.5091C116.502 30.584 116.366 30.6429 116.227 30.6959C116.107 30.7415 115.989 30.8126 115.86 30.8142C115.85 30.8137 115.747 30.6638 115.75 30.6586C115.81 30.5545 115.941 30.5077 116.043 30.4584C116.197 30.3827 116.352 30.3096 116.504 30.2348C116.661 30.1582 116.813 30.0733 116.972 30.0042C117.035 29.9766 117.096 29.9543 117.161 29.936C117.214 29.9206 117.282 29.9057 117.305 29.8495C117.342 29.902 117.379 29.9527 117.416 30.0052C117.175 30.0743 116.994 30.253 116.778 30.3715C116.655 30.4403 116.524 30.4973 116.395 30.5619C116.291 30.6146 116.192 30.6945 116.074 30.7094C116.067 30.7105 115.961 30.5632 115.963 30.5537C116.017 30.3962 116.305 30.3358 116.442 30.2794C116.694 30.1733 116.889 29.9533 117.127 29.8196C117.127 29.8196 117.236 29.9599 117.237 29.9752C117.244 30.0704 117.098 30.1415 117.032 30.1803C116.929 30.2398 116.822 30.291 116.715 30.3446C116.421 30.4921 116.174 30.7198 115.833 30.7598C115.822 30.761 115.722 30.6041 115.722 30.6041C115.807 30.5069 115.969 30.4872 116.08 30.4316C116.227 30.3587 116.365 30.2691 116.507 30.1879C116.65 30.1049 116.798 30.0329 116.939 29.9491C117.071 29.8716 117.181 29.765 117.313 29.6875C117.35 29.74 117.387 29.7907 117.424 29.8432C117.282 29.9014 117.164 29.998 117.032 30.0755C116.886 30.1594 116.737 30.2375 116.586 30.3105C116.456 30.376 116.316 30.4291 116.191 30.5013C116.117 30.5428 116.011 30.6322 115.922 30.5977C115.906 30.5922 115.814 30.4411 115.812 30.442C115.933 30.3325 116.091 30.2729 116.234 30.1985C116.412 30.1067 116.59 30.0149 116.767 29.9223C116.935 29.836 117.099 29.7439 117.27 29.6634C117.347 29.6277 117.427 29.591 117.506 29.5629C117.566 29.5422 117.629 29.5376 117.64 29.4632C117.677 29.5157 117.714 29.5664 117.751 29.6188C117.608 29.6601 117.489 29.7789 117.355 29.8428C117.179 29.9277 117 30.0042 116.829 30.0974C116.517 30.2659 116.216 30.4562 115.878 30.5667C115.866 30.5697 115.773 30.4075 115.767 30.4111C116.055 30.223 116.386 30.1092 116.69 29.9495C116.849 29.8677 117.008 29.7859 117.161 29.6907C117.308 29.5991 117.475 29.5171 117.599 29.3939C117.636 29.4463 117.673 29.4971 117.71 29.5495C117.618 29.5661 117.548 29.6135 117.472 29.6645C117.386 29.7209 117.295 29.7715 117.209 29.828C117.034 29.9426 116.876 30.0814 116.696 30.1852C116.541 30.277 116.367 30.3372 116.217 30.434C116.137 30.4868 115.982 30.6272 115.878 30.5608C115.864 30.5519 115.768 30.4051 115.768 30.4051C115.908 30.2831 116.089 30.2176 116.259 30.1491C116.407 30.0898 116.571 29.9806 116.736 30C116.752 30.0012 116.843 30.1583 116.846 30.1556C116.606 30.3635 116.289 30.4376 116.031 30.6163C115.994 30.5638 115.957 30.5131 115.92 30.4606C116.049 30.413 116.18 30.3603 116.303 30.2975C116.409 30.2456 116.502 30.171 116.61 30.1267C116.623 30.122 116.711 30.286 116.721 30.2823C116.486 30.4006 116.253 30.5214 116.044 30.6831C116.008 30.6307 115.97 30.5799 115.934 30.5275C116.068 30.472 116.193 30.3999 116.327 30.3461C116.43 30.3036 116.552 30.2716 116.612 30.1692C116.648 30.2216 116.686 30.2724 116.722 30.3248C116.402 30.4374 116.155 30.6838 115.836 30.7946C115.818 30.8011 115.74 30.6334 115.725 30.6389C115.914 30.5707 116.087 30.4808 116.266 30.3958C116.424 30.3217 116.6 30.2939 116.752 30.2021C116.788 30.2546 116.826 30.3053 116.862 30.3578C116.697 30.4431 116.531 30.526 116.366 30.6131C116.22 30.6885 116.086 30.7839 115.926 30.8342C115.89 30.7818 115.852 30.731 115.816 30.6786C116.054 30.6291 116.255 30.4932 116.458 30.3623C116.494 30.4148 116.532 30.4655 116.568 30.518C116.339 30.6531 116.132 30.8242 115.884 30.9258C115.848 30.8734 115.81 30.8227 115.774 30.7702C116.133 30.6445 116.426 30.3915 116.775 30.2465C116.788 30.2418 116.876 30.4058 116.886 30.4021C116.685 30.5023 116.507 30.6281 116.299 30.7166C116.101 30.8013 115.927 30.933 115.727 31.0127C115.722 31.0145 115.616 30.8588 115.616 30.857C115.741 30.7278 115.906 30.6612 116.066 30.5904C116.235 30.5152 116.395 30.4214 116.568 30.3587C116.581 30.3541 116.671 30.5189 116.679 30.5144C116.422 30.6581 116.218 30.9057 115.916 30.9487C115.898 30.9509 115.816 30.7876 115.805 30.793C116.038 30.6612 116.244 30.4817 116.498 30.3934C116.507 30.3914 116.606 30.55 116.609 30.549C116.507 30.6323 116.391 30.7042 116.271 30.7583C116.203 30.7895 116.086 30.8197 116.052 30.894C116.015 30.8416 115.978 30.7908 115.941 30.7384C116.021 30.706 116.075 30.6429 116.147 30.5963C116.144 30.599 116.263 30.7399 116.258 30.752C116.209 30.8617 116.088 30.8895 115.984 30.9235C115.966 30.93 115.888 30.7622 115.873 30.7678C116.044 30.7019 116.202 30.6048 116.374 30.5438C116.411 30.5963 116.448 30.647 116.485 30.6995C116.326 30.754 116.174 30.833 116.035 30.9261C115.998 30.8736 115.961 30.8229 115.924 30.7704C116.085 30.6852 116.242 30.5941 116.394 30.4964C116.393 30.4981 116.509 30.6476 116.505 30.652C116.397 30.7679 116.273 30.8741 116.106 30.8684C116.087 30.8682 116.003 30.7083 115.995 30.7128C116.022 30.6958 116.045 30.6771 116.07 30.6593C116.071 30.6576 116.181 30.8132 116.18 30.8149C116.155 30.8328 116.132 30.8514 116.106 30.8684C116.069 30.816 116.032 30.7653 115.995 30.7128C116.162 30.7185 116.286 30.6123 116.394 30.4964C116.431 30.5488 116.468 30.5996 116.505 30.652C116.353 30.7497 116.196 30.8408 116.035 30.9261C116.029 30.9297 115.927 30.7695 115.924 30.7704C116.064 30.6774 116.217 30.5992 116.374 30.5438C116.392 30.5373 116.468 30.7043 116.485 30.6995C116.311 30.7596 116.155 30.8575 115.984 30.9235C115.947 30.871 115.91 30.8203 115.873 30.7678C115.978 30.7321 116.097 30.7052 116.147 30.5963C116.184 30.6488 116.221 30.6995 116.258 30.752C116.186 30.7986 116.132 30.8616 116.052 30.894C116.051 30.8958 115.937 30.747 115.941 30.7384C115.975 30.664 116.092 30.6339 116.161 30.6027C116.28 30.5486 116.397 30.4767 116.498 30.3934C116.535 30.4458 116.572 30.4966 116.609 30.549C116.354 30.6373 116.148 30.8168 115.916 30.9487C115.879 30.8962 115.842 30.8455 115.805 30.793C116.109 30.7508 116.314 30.5015 116.568 30.3587C116.605 30.4112 116.642 30.4619 116.679 30.5144C116.505 30.5788 116.345 30.6708 116.177 30.7461C116.015 30.8186 115.851 30.8835 115.727 31.0127C115.69 30.9602 115.653 30.9095 115.616 30.857C115.817 30.7773 115.988 30.6449 116.188 30.5609C116.397 30.4725 116.575 30.3449 116.775 30.2465C116.812 30.2989 116.849 30.3497 116.886 30.4021C116.536 30.5471 116.244 30.8001 115.884 30.9258C115.867 30.9306 115.786 30.7655 115.774 30.7702C116.022 30.6685 116.23 30.4983 116.458 30.3623C116.463 30.3605 116.566 30.5189 116.568 30.518C116.368 30.6496 116.167 30.7856 115.926 30.8342C115.904 30.8384 115.835 30.6728 115.816 30.6786C115.973 30.6292 116.109 30.5328 116.255 30.4575C116.42 30.3721 116.587 30.2875 116.752 30.2021C116.759 30.1993 116.857 30.3596 116.862 30.3578C116.711 30.4495 116.536 30.4756 116.377 30.5514C116.198 30.6364 116.024 30.7263 115.836 30.7946C115.799 30.7421 115.762 30.6914 115.725 30.6389C116.044 30.5281 116.293 30.2825 116.612 30.1692C116.614 30.1682 116.725 30.3179 116.722 30.3248C116.663 30.4272 116.541 30.4593 116.438 30.5018C116.304 30.5555 116.177 30.6269 116.044 30.6831C116.037 30.6859 115.936 30.5265 115.934 30.5275C116.143 30.364 116.376 30.2449 116.61 30.1267C116.647 30.1791 116.684 30.2298 116.721 30.2823C116.612 30.3284 116.52 30.4012 116.414 30.4532C116.29 30.5134 116.16 30.5669 116.031 30.6163C116.021 30.62 115.925 30.4588 115.92 30.4606C116.179 30.282 116.495 30.2079 116.736 30C116.772 30.0524 116.81 30.1032 116.846 30.1556C116.681 30.1363 116.518 30.2454 116.369 30.3048C116.199 30.3733 116.018 30.4387 115.878 30.5608C115.842 30.5083 115.804 30.4576 115.768 30.4051C115.871 30.4716 116.026 30.3312 116.107 30.2783C116.259 30.1806 116.431 30.1197 116.586 30.0295C116.765 29.9233 116.924 29.7852 117.098 29.6723C117.185 29.6159 117.275 29.5653 117.362 29.5088C117.438 29.4578 117.508 29.4105 117.599 29.3939C117.608 29.3919 117.707 29.5504 117.71 29.5495C117.586 29.6727 117.418 29.7548 117.271 29.8464C117.119 29.9416 116.959 30.0234 116.8 30.1052C116.495 30.2641 116.166 30.3769 115.878 30.5667C115.841 30.5143 115.804 30.4636 115.767 30.4111C116.106 30.2988 116.406 30.1103 116.718 29.9418C116.883 29.8522 117.055 29.7785 117.225 29.6972C117.365 29.6296 117.493 29.5063 117.64 29.4632C117.645 29.4613 117.752 29.6069 117.751 29.6188C117.74 29.6933 117.679 29.6969 117.617 29.7185C117.535 29.7459 117.458 29.7816 117.38 29.819C117.209 29.8995 117.045 29.9917 116.878 30.078C116.701 30.1705 116.523 30.2623 116.344 30.3541C116.201 30.4285 116.042 30.4873 115.922 30.5977C115.886 30.5452 115.848 30.4945 115.812 30.442C115.897 30.475 116.001 30.3908 116.069 30.3511C116.198 30.2762 116.341 30.2205 116.476 30.1548C116.62 30.0829 116.763 30.0085 116.902 29.9299C117.039 29.8505 117.166 29.7476 117.313 29.6875C117.324 29.6821 117.416 29.846 117.424 29.8432C117.292 29.9189 117.18 30.0265 117.05 30.1047C116.909 30.1885 116.759 30.2623 116.617 30.3435C116.475 30.4248 116.339 30.5152 116.191 30.5873C116.08 30.6428 115.916 30.6617 115.833 30.7598C115.796 30.7073 115.759 30.6566 115.722 30.6041C116.063 30.5641 116.311 30.3365 116.605 30.189C116.711 30.1353 116.819 30.0867 116.921 30.0246C116.987 29.9859 117.132 29.9122 117.127 29.8196C117.163 29.872 117.201 29.9228 117.237 29.9752C117 30.1089 116.804 30.329 116.552 30.4351C116.417 30.4922 116.128 30.5518 116.074 30.7094C116.037 30.6569 116 30.6062 115.963 30.5537C116.075 30.5382 116.167 30.4654 116.266 30.4145C116.4 30.3463 116.536 30.2874 116.668 30.2159C116.884 30.0974 117.064 29.9187 117.305 29.8495C117.31 29.8494 117.418 29.9957 117.416 30.0052C117.379 30.0949 117.184 30.1183 117.103 30.1524C116.936 30.2242 116.778 30.3128 116.615 30.3905C116.464 30.4635 116.313 30.5365 116.164 30.6085C116.057 30.6597 115.922 30.7066 115.86 30.8142C115.824 30.7618 115.786 30.711 115.75 30.6586C115.88 30.6578 115.998 30.5841 116.116 30.5403C116.256 30.4872 116.392 30.4283 116.521 30.3535C116.801 30.1912 117.066 29.9927 117.319 29.7929C117.356 29.8454 117.393 29.8961 117.43 29.9486C117.2 30.0965 116.953 30.2067 116.708 30.3244C116.597 30.3783 116.495 30.4403 116.389 30.5025C116.3 30.5556 116.167 30.5804 116.098 30.6575C116.061 30.6051 116.024 30.5543 115.987 30.5019C116.12 30.4857 116.233 30.3909 116.354 30.3376C116.5 30.2707 116.638 30.2066 116.775 30.123C116.903 30.0456 117.034 29.9656 117.155 29.8766C117.264 29.7947 117.365 29.7029 117.497 29.6611C117.499 29.6602 117.611 29.8099 117.608 29.8168C117.569 29.8997 117.487 29.9288 117.412 29.9721C117.324 30.0235 117.24 30.0773 117.15 30.1236C116.937 30.231 116.714 30.3208 116.492 30.4115C116.455 30.359 116.418 30.3083 116.381 30.2558C116.626 30.1798 116.837 30.0341 117.058 29.9095C117.286 29.7778 117.535 29.6786 117.74 29.5111C117.737 29.5137 117.855 29.6606 117.85 29.6667C117.703 29.8 117.518 29.8699 117.337 29.9456C117.155 30.0213 116.977 30.1046 116.807 30.2046C116.77 30.1521 116.733 30.1014 116.696 30.0489C116.904 30.0294 117.076 29.8842 117.244 29.7775C117.445 29.65 117.645 29.4988 117.868 29.4107C117.904 29.4632 117.942 29.5139 117.978 29.5663C117.61 29.6966 117.319 29.9751 116.954 30.113C116.917 30.0605 116.88 30.0098 116.843 29.9573C116.968 29.9584 117.046 29.8622 117.146 29.7993C117.267 29.7231 117.402 29.6719 117.527 29.6039C117.798 29.4624 118.058 29.3058 118.346 29.1951C118.359 29.1905 118.449 29.3536 118.457 29.3508C118.256 29.468 118.059 29.591 117.857 29.7074C117.746 29.7714 117.589 29.8983 117.45 29.8534C117.41 29.841 117.377 29.6982 117.34 29.6977C117.427 29.7 117.49 29.6494 117.56 29.6063C117.658 29.5469 117.764 29.4992 117.868 29.4507C117.975 29.4013 118.083 29.3527 118.19 29.3057C118.29 29.2634 118.401 29.2266 118.471 29.1417C118.508 29.1941 118.545 29.2449 118.582 29.2973C118.433 29.3439 118.308 29.4501 118.173 29.526C118.013 29.6138 117.85 29.6914 117.695 29.7901C117.659 29.7376 117.621 29.6869 117.585 29.6344C118.005 29.3901 118.44 29.1649 118.787 28.8198C118.823 28.8723 118.861 28.923 118.898 28.9755C118.769 29.0273 118.682 29.1383 118.568 29.2135C118.432 29.3039 118.281 29.3726 118.134 29.443C118.126 29.4458 118.026 29.2847 118.023 29.2873C118.093 29.2399 118.172 29.222 118.246 29.1847C118.324 29.1473 118.389 29.089 118.463 29.05C118.61 28.9729 118.758 28.9238 118.874 28.7991C118.911 28.8516 118.948 28.9023 118.985 28.9548C118.85 29.0647 118.7 29.1675 118.541 29.2408C118.465 29.2773 118.288 29.3298 118.267 29.4225C118.23 29.37 118.193 29.3193 118.156 29.2668C118.302 29.223 118.427 29.138 118.555 29.0589C118.714 28.9601 118.874 28.8621 119.031 28.7625C119.068 28.815 119.105 28.8657 119.142 28.9182C119.027 28.9534 118.96 29.0484 118.864 29.1128C118.76 29.1825 118.646 29.2263 118.558 29.3177C118.521 29.2652 118.484 29.2145 118.447 29.1621C118.638 29.0971 118.787 28.9518 118.948 28.8376C119.153 28.693 119.368 28.5634 119.592 28.4531C119.629 28.5056 119.666 28.5563 119.703 28.6088C119.593 28.6524 119.504 28.7353 119.403 28.7956C119.284 28.8684 119.162 28.938 119.037 28.9999C119 28.9474 118.963 28.8967 118.926 28.8443C119.108 28.7728 119.249 28.6405 119.412 28.5399C119.602 28.4239 119.801 28.3229 119.99 28.2044C120.026 28.2569 120.064 28.3076 120.1 28.3601C119.949 28.439 119.815 28.5515 119.658 28.6239C119.521 28.6862 119.38 28.7325 119.266 28.835C119.229 28.7825 119.192 28.7318 119.155 28.6793C119.246 28.6372 119.32 28.5667 119.409 28.5195C119.501 28.4697 119.596 28.4275 119.684 28.3718C119.879 28.2497 120.066 28.1117 120.22 27.9398C120.257 27.9923 120.294 28.043 120.331 28.0955C120.15 28.2469 119.939 28.3866 119.727 28.4922C119.557 28.5752 119.35 28.6347 119.258 28.8148C119.222 28.7623 119.184 28.7116 119.148 28.6591C119.304 28.6115 119.427 28.4943 119.559 28.4023C119.697 28.3067 119.881 28.2445 119.951 28.0797C119.987 28.1321 120.025 28.1828 120.061 28.2353C119.907 28.3212 119.75 28.4021 119.625 28.5287C119.588 28.4763 119.551 28.4256 119.514 28.3731C119.778 28.1951 120.029 28.0005 120.298 27.8266C120.47 27.7154 120.756 27.5495 120.744 27.3115C120.781 27.3639 120.818 27.4147 120.855 27.4671C120.737 27.4318 120.629 27.5979 120.562 27.6716C120.423 27.8234 120.244 27.9382 120.095 28.081C120.058 28.0285 120.021 27.9778 119.984 27.9253C120.119 27.9371 120.268 27.7816 120.36 27.7003C120.423 27.6455 120.478 27.5849 120.533 27.5201C120.597 27.4406 120.695 27.3812 120.741 27.2912C120.777 27.3436 120.815 27.3943 120.851 27.4468C120.715 27.4887 120.614 27.6035 120.514 27.6978C120.385 27.8187 120.26 27.9411 120.132 28.067C120.096 28.0145 120.058 27.9638 120.022 27.9113C120.239 27.7306 120.472 27.5655 120.63 27.3262C120.667 27.3787 120.704 27.4294 120.741 27.4819C120.598 27.6738 120.401 27.8241 120.208 27.9615C120.035 28.0871 119.827 28.1944 119.722 28.3893C119.686 28.3369 119.648 28.2862 119.612 28.2337C119.768 28.1588 119.875 28.0157 120.001 27.9018C120.131 27.7835 120.292 27.6838 120.368 27.5195C120.404 27.572 120.442 27.6227 120.478 27.6752C120.172 27.8401 119.931 28.0956 119.63 28.2672C119.593 28.2147 119.556 28.164 119.519 28.1115C119.862 27.9863 120.111 27.7135 120.377 27.4758C120.414 27.5282 120.451 27.579 120.488 27.6314C120.193 27.8726 119.865 28.0739 119.595 28.3475C119.558 28.295 119.521 28.2443 119.484 28.1918C119.653 28.1208 119.788 27.9921 119.93 27.8794C120.087 27.7508 120.255 27.6373 120.437 27.5454C120.44 27.5444 120.55 27.6975 120.548 27.701C120.28 27.9924 119.922 28.1734 119.607 28.4075C119.57 28.3551 119.533 28.3044 119.496 28.2519C119.676 28.1209 119.87 28.0133 120.055 27.8932C120.216 27.7892 120.358 27.6552 120.537 27.583C120.545 27.5802 120.646 27.7396 120.648 27.7386C120.469 27.8866 120.303 28.0427 120.098 28.1515C119.967 28.2213 119.745 28.3077 119.692 28.4593C119.656 28.4068 119.618 28.3561 119.582 28.3036C119.681 28.2698 119.75 28.1926 119.835 28.1354C119.942 28.0629 120.056 28.0005 120.166 27.9314C120.386 27.794 120.594 27.6382 120.815 27.5033C120.812 27.5043 120.93 27.6486 120.926 27.659C120.81 27.8611 120.573 27.9471 120.388 28.0672C120.286 28.1335 120.192 28.2115 120.096 28.287C120.011 28.3545 119.873 28.4168 119.826 28.5188C119.79 28.4663 119.752 28.4156 119.716 28.3632C119.855 28.3373 119.966 28.2478 120.079 28.1658C120.226 28.0597 120.376 27.9569 120.52 27.845C120.744 27.6717 120.951 27.4299 121.232 27.3519C121.243 27.3481 121.34 27.5102 121.343 27.5075C121.217 27.6129 121.078 27.6975 120.945 27.7937C120.826 27.8793 120.714 27.9741 120.581 28.0388C120.581 28.0388 120.467 27.8918 120.471 27.8832C120.542 27.7608 120.682 27.7103 120.8 27.6494C120.938 27.5768 121.036 27.4562 121.169 27.3769C121.205 27.4294 121.243 27.4801 121.279 27.5326C121.163 27.5398 121.082 27.6386 120.996 27.7061C120.96 27.6536 120.922 27.6029 120.886 27.5504C120.922 27.5399 120.933 27.5302 120.958 27.5021C120.995 27.5546 121.032 27.6053 121.069 27.6577C120.95 27.6241 120.799 27.8206 120.72 27.887C120.558 28.0217 120.35 28.0957 120.216 28.2644C120.179 28.2119 120.142 28.1612 120.105 28.1087C120.169 28.0752 120.196 28.0164 120.247 27.9688C120.306 27.9141 120.386 27.8885 120.458 27.8521C120.612 27.7722 120.762 27.6779 120.91 27.5846C120.946 27.637 120.984 27.6877 121.02 27.7402C120.905 27.7729 120.795 27.8735 120.687 27.9281C120.566 27.9899 120.442 28.0459 120.328 28.1236C120.219 28.1987 120.116 28.2855 120.001 28.3522C119.927 28.3955 119.834 28.424 119.78 28.4956C119.744 28.4431 119.706 28.3924 119.67 28.34C119.897 28.3105 120.059 28.1545 120.223 28.0104C120.433 27.8282 120.68 27.701 120.904 27.5379C120.94 27.5904 120.978 27.6411 121.014 27.6936C120.952 27.7296 120.881 27.743 120.816 27.7741C120.748 27.8078 120.683 27.849 120.622 27.8919C120.488 27.9856 120.36 28.086 120.222 28.1731C120.073 28.2656 119.927 28.3623 119.777 28.4523C119.634 28.5395 119.46 28.6039 119.338 28.7236C119.301 28.6712 119.264 28.6205 119.227 28.568C119.572 28.3056 119.926 28.043 120.287 27.8031C120.435 27.7055 120.598 27.6253 120.738 27.5203C120.834 27.4491 120.954 27.3285 121.08 27.3321C121.099 27.3324 121.18 27.4932 121.191 27.4877C120.896 27.6642 120.646 27.8971 120.334 28.0485C120.039 28.1917 119.734 28.3047 119.47 28.5014C119.433 28.4489 119.396 28.3982 119.359 28.3458C119.479 28.3444 119.577 28.245 119.67 28.179C119.809 28.0834 119.959 28.0062 120.107 27.9256C120.246 27.8513 120.383 27.7736 120.524 27.7044C120.667 27.6341 120.814 27.5638 120.927 27.4503C120.964 27.5028 121.001 27.5535 121.038 27.6059C121.014 27.6221 120.991 27.639 120.967 27.6551C120.971 27.6524 120.862 27.4958 120.862 27.4958Z" fill="#004699"/>
<path id="Vector 41" d="M94.0523 60.5761L99 51.4848L104.328 47.0358L113.072 44.7429L123.763 42.377L125.336 41.5342L132.765 39.3952L138.676 42.377" stroke="#DBFF00" stroke-width="1.52235"/>
</g>
<g id="naira note">
<path id="Currency" d="M234.346 41.9676L234.488 47.6992L233.885 53.8324L233.276 59.7734L233.156 65.1282L231.784 70.7057L232.913 75.6496L233.316 81.7561L233.124 83.5601L226.966 84.1633L223.274 84.4697L218.382 84.327C218.382 84.327 195.337 82.5591 190.911 82.9816C189.706 83.0958 174.816 83.0406 174.816 83.0406L156.713 87.3241C156.713 87.3241 141.067 87.9102 133.014 80.6581C132.202 79.9255 136.017 57.2348 136.017 57.2348C136.017 57.2348 138.131 44.1997 138.131 43.0104C137.547 42.6698 151.307 40.4813 154.475 40.3937C160.137 40.2396 166.749 43.0846 172.715 43.0846C181.229 43.9562 190.194 43.7506 207.135 43.332C207.491 43.3244 232.167 41.0294 232.167 41.0294L234.346 41.9676Z" fill="#0052C5"/>
<path id="Currency stroke" d="M150.578 86.9206H157.048L165.231 84.542L169.512 83.9711L180.359 82.5439L196.058 83.305L211.662 83.9711L219.94 84.542L230.501 83.9711L231.929 79.2137L232.785 60.7553L234.402 41.6307H222.128L207.095 42.8677L188.922 43.3434L170.273 42.8677L165.231 42.3919L155.906 40.1084L142.776 41.6307L138.304 42.8677L136.972 51.3357L134.593 66.1786L133.071 78.5477" stroke="black" stroke-width="0.761174"/>
<g id="Naira sign">
<path id="Vector_5" d="M178.916 59.7519C178.748 61.9066 178.713 64.0701 178.735 66.2364C178.745 67.2131 178.763 68.1817 178.727 69.1582C178.699 69.9536 178.685 70.7588 178.999 71.5053C179.193 71.9602 180.92 70.7427 181.03 70.4469C181.917 68.0846 181.583 65.551 181.379 63.0985C181.284 61.9403 181.294 60.7628 181.119 59.6139C180.951 58.5139 180.595 57.482 180.123 56.4756C179.959 56.1199 177.889 57.1735 178.09 57.629C178.587 58.7499 178.577 59.9274 178.631 61.1343C178.689 62.3725 178.883 63.5887 178.996 64.821C179.225 67.3966 178.88 70.0026 179.423 72.5495C180.102 72.1674 180.775 71.7763 181.456 71.3961C180.963 70.5056 181.148 69.6361 181.072 68.6715C180.984 67.6022 180.61 66.5827 180.392 65.5376C179.96 63.4616 179.766 61.2971 180.106 59.189C179.43 59.5159 178.745 59.8335 178.069 60.1604C177.891 62.6292 178.886 64.9196 179.273 67.3191C179.476 68.5758 179.564 69.8666 179.646 71.1346C179.707 72.0079 179.604 73.1296 180.242 73.8344C180.418 74.0335 180.971 73.7383 181.136 73.6667C182.29 73.158 182.993 72.3937 182.991 71.1183C182.989 69.9226 182.679 68.7248 182.368 67.5824C182.019 66.2984 181.755 65.0299 181.546 63.7088C181.381 62.6332 181.256 61.5488 181.073 60.4771C180.898 59.4544 180.577 58.4461 180.762 57.4019C180.089 57.7532 179.405 58.1107 178.732 58.4603C179.209 59.2215 178.843 60.0887 178.878 60.9272C178.917 62.0031 179.14 63.0745 179.226 64.1506C179.414 66.434 179.277 68.7295 179.786 70.9848C180.466 70.6027 181.139 70.2115 181.819 69.8314C181.105 67.9094 181.039 65.8226 180.824 63.8105C180.705 62.6885 180.518 61.568 180.414 60.4489C180.345 59.7149 180.415 58.8571 179.856 58.2867C179.529 57.9579 177.831 58.9268 177.825 59.3451C177.797 60.4485 178.673 61.4421 179.219 62.342C179.986 63.5917 180.844 64.7793 181.683 65.9793C183.422 68.4378 185.465 70.6194 187.37 72.9424C187.706 73.3532 189.622 72.059 189.403 71.789C187.578 69.5035 186.018 67.016 184.11 64.7863C183.185 63.7058 182.184 62.697 181.115 61.7556C180.441 61.1639 178.927 60.4016 179.148 59.3343C179.019 59.4764 178.9 59.6122 178.77 59.7559C177.32 60.8034 177.218 60.1118 177.886 60.4729C178.066 60.5685 178.222 60.7176 178.368 60.8624C178.752 61.2269 179.079 61.6422 179.397 62.0654C180.127 63.0388 180.773 64.085 181.404 65.1284C181.938 66.0117 182.456 66.8505 183.106 67.6601C184.475 69.3382 186.062 70.8105 187.384 72.5265C188.063 72.1445 188.737 71.7533 189.417 71.3731C189.34 71.2787 189.263 71.186 189.186 71.0848C188.85 70.674 186.934 71.9682 187.153 72.2382C187.23 72.3326 187.308 72.4252 187.384 72.5265C187.712 72.9349 189.633 71.6585 189.417 71.3731C187.768 69.2401 185.6 67.4777 184.156 65.1845C183.323 63.8673 182.57 62.5011 181.655 61.231C180.949 60.2544 179.998 58.7167 178.61 59.2449C178.15 59.4211 177.372 59.7849 177.134 60.2556C176.895 60.735 177.176 61.2695 177.508 61.616C177.881 62.002 178.348 62.3005 178.752 62.6457C179.402 63.2009 180.021 63.783 180.622 64.3845C183.19 66.9798 185.092 70.1019 187.361 72.952C188.04 72.57 188.713 72.1805 189.394 71.7986C187.545 69.5494 185.542 67.4454 183.87 65.0631C183.055 63.9065 182.223 62.7555 181.462 61.5547C180.916 60.6947 179.822 59.4554 179.847 58.3829C179.173 58.7342 178.489 59.0916 177.816 59.4413C178.349 59.9837 178.308 60.8075 178.367 61.5216C178.456 62.6706 178.664 63.817 178.785 64.9652C178.999 66.9841 179.067 69.0641 179.781 70.9844C179.904 71.3073 181.932 70.3507 181.814 69.8309C181.303 67.5825 181.433 65.2864 181.254 62.9968C181.16 61.8716 180.869 60.7013 180.912 59.568C180.944 58.7902 181.207 58.0151 180.759 57.3065C180.501 56.9036 178.789 57.9977 178.729 58.3649C178.595 59.1329 178.71 59.8895 178.862 60.6542C179.036 61.5488 179.17 62.454 179.304 63.3575C179.516 64.8295 179.68 66.3409 180.079 67.7845C180.346 68.7366 180.621 69.6894 180.798 70.6655C180.897 71.2063 180.984 71.7617 180.955 72.3096C180.942 72.5059 180.928 72.7089 180.878 72.897C180.726 73.5112 180.421 73.2793 181.386 72.8474C181.681 72.7912 181.976 72.7351 182.28 72.6796C181.682 72.0144 181.745 70.9899 181.701 70.1489C181.627 68.9164 181.533 67.6631 181.362 66.4435C181.01 64.0191 179.937 61.6828 180.118 59.19C180.143 58.8389 178.172 59.6236 178.081 60.1613C177.746 62.237 177.919 64.3928 178.324 66.439C178.529 67.4745 178.894 68.4915 179.025 69.5452C179.156 70.599 178.904 71.5738 179.438 72.5437C179.645 72.9218 181.565 71.858 181.471 71.3903C180.927 68.8434 181.273 66.2374 181.043 63.6618C180.924 62.372 180.724 61.0999 180.676 59.8088C180.635 58.66 180.611 57.5404 180.144 56.472C179.465 56.8541 178.792 57.2453 178.111 57.6254C178.54 58.5593 178.886 59.5177 179.07 60.5341C179.272 61.6714 179.25 62.8237 179.347 63.9751C179.546 66.4583 179.913 69.0206 179.014 71.413C179.687 71.0616 180.371 70.7042 181.044 70.3546C180.702 69.547 180.756 68.6948 180.796 67.8381C180.837 66.888 180.792 65.9293 180.785 64.977C180.771 62.9066 180.81 60.8472 180.969 58.7869C180.983 58.4541 178.965 59.1831 178.916 59.7519Z" fill="#99C8FF"/>
<path id="Vector_6" d="M187.204 60.2165C186.941 62.6699 186.955 65.1366 187.015 67.5949C187.061 69.4967 186.857 71.716 187.968 73.3701C188.267 73.8126 189.874 72.6444 189.999 72.3117C190.833 70.1062 189.805 67.6107 189.466 65.4106C189.257 64.0184 189.048 62.6176 188.91 61.2138C188.841 60.5127 188.837 59.8463 188.894 59.1518C188.939 58.6535 188.978 58.1376 188.762 57.6775C188.58 57.2961 186.691 58.3572 186.729 58.8309C186.943 61.1439 187.021 63.4704 187.062 65.7905C187.08 66.8941 187.026 68.0093 187.019 69.1161C187.018 70.2009 187.282 71.3345 187.127 72.3983C187.805 72.0716 188.488 71.7538 189.164 71.427C189.45 67.8126 190.392 64.0741 189.383 60.4918C189.278 60.1166 187.849 61.0412 187.723 61.1281C186.262 62.2283 187.151 64.2386 187.012 65.764C186.976 66.1297 187.784 65.7406 187.904 65.6827C188.181 65.5524 189.013 65.167 189.05 64.7858C189.111 64.1556 189.002 63.5015 188.96 62.8684C188.938 62.4756 188.907 62.0821 188.94 61.6919C188.951 61.5441 188.963 61.3962 188.995 61.2586C189.032 61.0989 189.234 60.8191 189.004 60.998C188.45 61.2118 187.897 61.4205 187.344 61.6343C188.34 65.1602 187.404 68.8283 187.119 72.3873C187.087 72.7291 189.071 71.9629 189.156 71.416C189.324 70.3374 189.047 69.2185 189.049 68.1337C189.056 66.9387 189.118 65.7394 189.085 64.5446C189.016 62.2517 188.959 59.9511 188.752 57.6732C188.073 58.0552 187.4 58.4464 186.719 58.8266C186.951 59.3278 186.86 59.8656 186.818 60.3969C186.769 60.9657 186.798 61.5338 186.843 62.1049C186.959 63.5364 187.196 64.9567 187.392 66.3791C187.704 68.591 188.783 71.0696 187.95 73.277C188.623 72.9256 189.307 72.5682 189.98 72.2185C188.849 70.5454 189.075 68.2898 189.034 66.3659C188.98 63.9878 188.975 61.6117 189.229 59.251C189.265 58.8853 188.45 59.2739 188.337 59.3324C188.072 59.4584 187.243 59.8354 187.204 60.2165Z" fill="#99C8FF"/>
<path id="Vector_7" d="M177.177 65.202C179.279 64.7029 181.38 65.0188 183.493 65.2801C184.846 65.45 186.215 65.5363 187.569 65.6594C188.706 65.7585 189.913 65.8613 191.037 65.6012C191.972 65.3848 193.468 64.7736 193.761 63.7431C193.783 63.6687 193.759 63.6236 193.684 63.6021C192.214 63.3865 190.776 64.0094 189.293 63.9486C187.866 63.8836 186.46 63.6092 185.043 63.4343C182.213 63.0795 179.15 63.2116 176.36 63.8376C175.988 63.9188 175.623 64.0109 175.252 64.0541C174.978 64.0825 172.606 64.676 173.415 64.7524C173.827 64.7886 174.309 64.7508 174.721 64.7473C176.163 64.7442 177.56 64.5887 179.002 64.7449C180.617 64.9148 182.181 65.354 183.797 65.5656C185.529 65.7897 187.27 65.9194 189.007 66.106C189.474 66.1518 189.992 65.8278 190.363 65.5787C190.436 65.5292 191.225 64.8894 190.884 64.8519C188.633 64.5709 186.397 64.8967 184.141 64.9008C183.018 64.8998 181.89 64.7945 180.783 64.6148C179.592 64.4267 178.485 63.8992 177.282 63.8192C176.812 63.7887 176.305 64.091 175.926 64.3464C175.853 64.396 175.066 65.0273 175.405 65.0732C177.629 65.3728 179.843 65.1232 182.072 65.0893C183.206 65.0774 184.351 65.0888 185.483 65.0836C186.037 65.0826 186.581 65.0964 187.134 65.0954C187.181 65.0957 188.745 65.2027 188.629 65.3544C189.146 65.0373 189.673 64.7159 190.19 64.3988C190.191 64.3919 190.2 64.384 190.2 64.384C189.742 64.332 189.207 64.6598 188.845 64.9113C188.771 64.9608 187.99 65.6013 188.323 65.6381C189.067 65.7283 190.61 65.1174 190.682 64.2597C190.704 64.1853 190.681 64.1402 190.605 64.1186C189.817 63.7117 188.843 63.8419 187.991 63.8347C186.782 63.8251 185.576 63.8418 184.368 63.8322C182.003 63.8242 179.644 64.1333 177.286 63.8264C176.663 64.2424 176.033 64.6646 175.41 65.0805C176.566 65.1586 177.622 65.6543 178.748 65.8546C179.775 66.0366 180.842 66.1301 181.88 66.1623C184.263 66.2376 186.627 65.8182 189.01 66.1149C189.633 65.699 190.264 65.2767 190.887 64.8608C188.838 64.6409 186.784 64.5001 184.751 64.1897C182.912 63.9068 181.155 63.4401 179.285 63.404C177.953 63.3794 176.536 63.381 175.204 63.4828C174.281 63.5582 172.629 64.1415 172.399 65.1838C172.378 65.26 172.4 65.3033 172.476 65.3249C173.829 65.5034 175.11 64.9477 176.443 64.7958C178.205 64.5899 180.04 64.4692 181.809 64.5735C183.469 64.6657 185.103 65.0309 186.755 65.1691C187.441 65.2236 188.154 65.2682 188.843 65.214C189.63 65.1537 190.393 64.8734 191.177 64.8285C191.346 64.8125 191.521 64.8125 191.69 64.8364C192.489 64.4449 192.689 64.3085 192.289 64.4168C192.08 64.3864 191.779 64.4818 191.572 64.4914C191.092 64.5224 190.604 64.5026 190.127 64.4699C189.37 64.4167 188.613 64.3184 187.854 64.2651C184.69 64.0464 181.555 63.2781 178.404 64.0209C177.916 64.136 177.297 64.4502 176.972 64.8345C176.707 65.1248 176.729 65.31 177.177 65.202Z" fill="#99C8FF"/>
<path id="Vector_8" d="M178.359 69.7621C180.688 69.8746 182.991 69.6181 185.317 69.4916C187.325 69.3778 189.315 69.6173 191.18 68.7256C191.414 68.611 192.41 68.1451 192.319 67.74C192.092 66.7011 190.842 66.9062 190.042 67.0035C188.4 67.2 186.76 67.0317 185.113 66.9976C183.48 66.9664 181.98 67.3386 180.387 67.6082C178.942 67.8481 177.583 67.9702 176.253 68.6604C176.527 68.6718 176.801 68.6901 177.084 68.7022C176.801 68.8562 176.53 69.0042 176.248 69.1583C176.334 69.1583 176.414 69.1577 176.501 69.1576C176.621 69.188 176.765 69.1821 176.889 69.1971C177.221 69.2339 177.553 69.2879 177.885 69.3248C178.792 69.428 179.709 69.5182 180.617 69.6146C182.247 69.7805 183.875 70.0085 185.522 69.9647C187.056 69.9309 188.658 69.7433 190.142 69.3266C190.578 69.2004 192.106 68.3338 192.242 69.0956C192.847 68.6921 193.452 68.2885 194.057 67.885C192.055 68.2692 189.797 67.5585 187.804 67.2946C186.653 67.1374 185.509 66.9911 184.353 67.086C183.855 67.1295 183.36 67.1957 182.88 67.353C182.594 67.4428 182.327 67.56 182.065 67.7018C181.954 67.7518 181.847 67.8125 181.746 67.8806C181.39 68.0928 181.39 68.0997 181.759 67.8903C181.255 67.9246 180.699 68.2732 180.318 68.5838C180.177 68.7007 179.661 69.1839 180.157 69.1558C180.661 69.1215 181.116 68.9361 181.562 68.7017C181.641 68.6613 182.397 68.294 182.016 68.4212C181.645 68.5439 182.523 68.3802 182.619 68.3739C183.941 68.2454 185.226 68.4826 186.534 68.6367C188.463 68.8644 190.506 69.5355 192.452 69.1572C192.861 69.0825 194.379 68.5301 194.265 67.9465C194.069 66.9049 191.962 67.9417 191.44 68.1147C189.771 68.6621 187.492 68.7976 185.614 68.6812C183.454 68.5528 181.265 68.2767 179.117 67.9987C177.672 67.8111 176.039 68.0879 175.181 69.4351C174.859 69.9372 175.88 69.5477 176.012 69.4769C177.062 68.9254 178.402 68.9593 179.543 68.7333C181.021 68.4442 182.39 68.2277 183.9 68.2768C185.284 68.3176 186.687 68.4412 188.073 68.3091C188.838 68.2367 190.062 67.8599 190.29 68.9007C190.668 68.5742 191.052 68.2414 191.429 67.915C190.735 68.2456 189.822 68.1731 189.071 68.1774C188.145 68.1816 187.222 68.2086 186.301 68.2686C184.281 68.4039 182.264 68.6174 180.241 68.5136C179.763 68.4895 179.266 68.7771 178.886 69.0392C178.818 69.0789 178.037 69.7503 178.359 69.7621Z" fill="#99C8FF"/>
</g>
</g>
<g id="Thumb">
<path id="Vector_9" d="M163.687 75.3471L164.25 73.6249L164.264 72.428L163.421 70.8448L162.418 69.5907L161.43 68.7782L160.035 67.5584L158.446 67.7449L156.631 67.4766L154.355 67.6022L152.509 68.2511L150.776 68.3938L148.193 68.9628L145.771 69.2063L144.207 70.3272L142.199 71.3034L140.422 72.5745L139.101 73.6116L137.467 74.1121L135.733 74.4166L134.886 74.6411L133.514 75.8209L128.882 79.9161L140.072 92.6334L141.95 90.6296L143.421 89.6838L145.05 88.7038L146.966 87.4269L149.472 85.8056L151.24 84.5782L153.354 83.0045L154.65 82.2357L156.072 81.2767L158.315 79.9161L160.02 78.3518L161.769 76.917L163.687 75.3471Z" fill="#0075FF"/>
<path id="Vector 49" d="M161.99 74.6468V75.8837L160.468 76.9303L157.899 78.8332L157.138 79.309L155.615 79.5944L154.474 79.2138L152.856 77.6915L151.714 75.5983L152.38 73.1244L155.615 70.7458L157.328 69.6992L157.804 69.604L159.612 71.0312L161.99 74.6468Z" fill="#DBFF00"/>
</g>
</g>
</svg>
