<svg width="154" height="169" viewBox="0 0 154 169" fill="none" xmlns="http://www.w3.org/2000/svg">
<g id="pool" clip-path="url(#clip0_1567_16843)">
<g id="Box">
<path id="Vector" d="M162.478 105.074C156.728 104.108 150.975 103.198 145.304 101.816C143.879 101.467 142.458 101.103 141.034 100.757C139.568 100.403 138.057 100.192 136.575 99.9148C135.204 99.6598 133.86 99.4029 132.53 98.9834C131.242 98.5769 129.98 98.0928 128.721 97.6086C127.478 97.1319 126.229 96.596 124.926 96.2985C124.019 96.0934 122.734 95.8384 122.241 94.9459C122.232 94.9219 122.237 94.9071 122.261 94.8978C123.069 94.4895 124.118 94.9403 124.904 95.2009C126.11 95.6037 127.361 95.8698 128.581 96.2264C131.083 96.9563 133.6 97.5865 136.15 98.139C138.693 98.6915 141.23 99.2551 143.754 99.8833C146.431 100.547 149.113 101.205 151.792 101.857C153.241 102.208 154.686 102.6 156.147 102.899C156.848 103.043 157.563 103.173 158.278 103.189C158.812 103.202 159.35 103.283 159.773 103.642C159.978 103.816 159.656 103.762 159.555 103.723C157.275 102.869 154.887 102.324 152.533 101.718C150.153 101.103 147.771 100.497 145.378 99.9258C140.529 98.7672 135.634 97.8082 130.75 96.8196C129.411 96.548 128.069 96.2431 126.711 96.0786C125.405 95.9179 124.085 95.8347 122.794 95.5668C122.636 95.5353 122.47 95.4744 122.339 95.3764C122.295 95.3413 122.152 95.2231 122.302 95.2231C123.379 95.2305 124.41 95.5002 125.442 95.7903C126.585 96.1137 127.74 96.3927 128.904 96.6293C131.288 97.1134 133.698 97.4571 136.098 97.8267C140.956 98.5751 145.703 99.7521 150.428 101.097C151.762 101.478 153.106 101.848 154.46 102.154C155.547 102.398 156.672 102.47 157.642 103.075C157.683 103.099 157.877 103.25 157.712 103.252C155.312 103.258 152.969 102.699 150.672 102.056C148.205 101.365 145.751 100.63 143.286 99.9314C140.788 99.2255 138.273 98.5326 135.727 98.0318C133.223 97.5421 130.689 97.2206 128.176 96.7753C126.766 96.5239 125.386 96.1636 123.98 95.8975C123.627 95.831 123.274 95.7608 122.917 95.7109C122.651 95.6739 122.389 95.7478 122.121 95.7146C121.653 95.6536 121.169 95.4134 120.883 95.0327C120.818 94.9459 120.909 94.9348 120.983 94.9496C123.32 95.3635 125.591 96.0546 127.901 96.5849C130.318 97.1374 132.739 97.6715 135.152 98.2424C137.508 98.8005 139.873 99.3179 142.224 99.8944C144.524 100.46 146.777 101.14 149.031 101.866C151.317 102.605 153.682 103.18 155.798 104.35C155.822 104.363 156.097 104.52 155.988 104.564C155.255 104.876 154.468 104.533 153.876 104.071C153.984 104.128 154.093 104.185 154.2 104.242C152.023 103.537 149.781 103.065 147.59 102.409C145.391 101.752 143.205 101.038 140.997 100.406C138.746 99.7632 136.462 99.2347 134.18 98.7284C131.931 98.2314 129.677 97.7232 127.41 97.2982C125.674 96.973 123.71 96.9841 122.176 95.9918C122.073 95.9252 121.955 95.7885 122.167 95.8199C126.367 96.4445 130.446 97.653 134.585 98.5695C136.682 99.0352 138.803 99.3493 140.914 99.754C142.303 100.022 143.528 100.307 144.872 100.621C145.543 100.778 146.215 100.957 146.854 101.219C147.213 101.367 147.921 101.631 148.008 102.077C148.02 102.147 147.923 102.132 147.88 102.125C145.611 101.709 143.473 100.818 141.255 100.214C138.859 99.5618 136.447 98.9687 134.056 98.3053C131.676 97.6437 129.326 96.8713 126.929 96.2579C125.761 95.9567 124.584 95.6813 123.409 95.4097C122.333 95.1602 121.228 94.957 120.168 94.6428C119.523 94.4507 118.902 94.1753 118.268 93.9517C117.893 93.8187 117.516 93.693 117.13 93.5969C116.899 93.5397 116.612 93.4565 116.38 93.5323C116.226 93.4269 116.073 93.3179 115.921 93.2107C119.9 94.1495 123.838 95.2434 127.796 96.2689C131.709 97.2834 135.668 98.1168 139.585 99.1202C141.505 99.6099 143.464 100.059 145.225 100.998C145.404 101.092 145.543 101.266 145.236 101.197C141.383 100.323 137.639 99.037 133.873 97.8489C129.978 96.62 126.022 95.6093 122.075 94.5708C119.974 94.0164 117.804 93.5581 115.807 92.6712C115.801 92.6712 115.404 92.4346 115.526 92.4125C117.376 92.0632 119.323 92.8486 121.047 93.4362C123.261 94.1883 125.543 94.7519 127.788 95.4023C130.229 96.1119 132.663 96.8399 135.11 97.531C137.551 98.2221 140.006 98.8633 142.453 99.5286C143.726 99.8741 144.996 100.234 146.272 100.563C147.407 100.853 148.534 101.19 149.541 101.798C149.807 101.957 149.578 101.995 149.388 101.925C148.967 101.766 148.54 101.631 148.089 101.753C147.948 101.792 147.76 101.696 147.638 101.63C147.614 101.617 147.34 101.443 147.448 101.415C148.065 101.251 148.7 101.454 149.281 101.672C149.231 101.715 149.177 101.757 149.127 101.8C148.255 101.275 147.233 101.042 146.256 100.794C145.173 100.521 144.103 100.209 143.026 99.9148C140.697 99.2791 138.36 98.6693 136.035 98.0189C133.689 97.3629 131.351 96.6644 129.01 95.9825C126.759 95.3265 124.482 94.7352 122.241 94.0441C121.241 93.7355 120.266 93.3623 119.259 93.0759C118.264 92.795 117.195 92.5548 116.165 92.7506C116.071 92.6638 115.977 92.5788 115.884 92.4919C117.634 93.268 119.539 93.6653 121.382 94.1531C123.346 94.6724 125.314 95.1806 127.278 95.709C131.096 96.7365 134.843 97.9653 138.615 99.1405C140.709 99.7928 142.815 100.404 144.953 100.89C144.957 100.957 144.96 101.023 144.964 101.09C143.41 100.262 141.655 99.8815 139.96 99.451C138.079 98.9705 136.191 98.5233 134.296 98.0909C130.438 97.2076 126.615 96.1932 122.788 95.1806C120.598 94.604 118.405 94.0349 116.199 93.5138C116.134 93.499 115.618 93.2311 115.74 93.1923C116.223 93.0352 116.871 93.2791 117.329 93.4196C118.019 93.6302 118.691 93.8852 119.368 94.1402C120.109 94.4192 120.855 94.5689 121.681 94.7611C122.877 95.0401 124.074 95.3136 125.268 95.6019C127.683 96.1858 130.046 96.9286 132.432 97.6123C134.866 98.3108 137.316 98.9465 139.768 99.5858C141.041 99.9166 142.292 100.286 143.545 100.696C144.829 101.118 146.119 101.537 147.451 101.779C147.409 101.794 147.366 101.813 147.324 101.827C147.263 101.515 146.805 101.399 146.551 101.308C146.014 101.12 145.458 100.985 144.903 100.861C143.623 100.574 142.342 100.27 141.054 100.027C139.066 99.6542 137.07 99.3475 135.095 98.9132C133.147 98.4864 131.216 97.9911 129.28 97.5199C127.071 96.9822 124.85 96.4778 122.601 96.1451C122.598 96.0897 122.596 96.0324 122.592 95.9733C123.257 96.4038 124.15 96.5092 124.917 96.6311C125.739 96.7623 126.565 96.8547 127.38 97.0247C129.734 97.5144 132.088 98.0004 134.437 98.5252C136.774 99.0481 139.103 99.6062 141.405 100.281C143.667 100.944 145.905 101.681 148.166 102.339C149.432 102.707 150.718 102.988 151.988 103.339C152.62 103.513 153.248 103.701 153.871 103.902C154.008 103.945 154.148 103.986 154.277 104.054C154.392 104.115 154.482 104.215 154.599 104.272C154.837 104.39 155.122 104.309 155.351 104.211C155.414 104.283 155.478 104.353 155.541 104.425C153.695 103.404 151.624 102.882 149.623 102.254C147.446 101.57 145.289 100.877 143.072 100.321C140.771 99.7448 138.452 99.2421 136.142 98.697C133.783 98.1408 131.429 97.568 129.056 97.0617C126.497 96.5165 123.989 95.7257 121.408 95.2674C121.441 95.2397 121.474 95.212 121.507 95.1824C121.657 95.3838 121.705 95.3801 121.977 95.345C122.258 95.3062 122.494 95.3543 122.777 95.4023C123.387 95.5039 123.997 95.6203 124.603 95.7497C125.785 96.0029 126.955 96.28 128.147 96.4851C130.527 96.8954 132.922 97.2058 135.291 97.6715C140.11 98.6157 144.807 100.138 149.525 101.484C152.019 102.195 154.542 102.886 157.153 102.882C157.175 102.942 157.201 102.999 157.223 103.06C156.829 102.816 156.332 102.746 155.881 102.666C155.397 102.579 154.919 102.487 154.438 102.378C153.261 102.103 152.097 101.785 150.935 101.456C148.647 100.807 146.354 100.17 144.04 99.6154C141.741 99.0647 139.428 98.6046 137.092 98.2387C134.788 97.8803 132.476 97.555 130.185 97.1226C128.928 96.8843 127.674 96.6163 126.436 96.2837C125.251 95.9659 124.087 95.5686 122.847 95.5575C122.683 95.4411 122.52 95.3284 122.356 95.212C123.516 95.4522 124.697 95.5464 125.874 95.6795C127.082 95.8144 128.269 96.0583 129.459 96.2948C131.95 96.7937 134.441 97.313 136.93 97.8248C141.83 98.8338 146.688 99.9665 151.535 101.214C154.181 101.894 156.874 102.5 159.438 103.455C159.366 103.481 159.292 103.511 159.22 103.537C159.289 103.594 159.278 103.544 159.198 103.54C159.132 103.537 159.065 103.529 158.999 103.525C158.88 103.522 158.764 103.522 158.646 103.516C158.337 103.501 158.027 103.466 157.722 103.422C157.114 103.337 156.515 103.213 155.916 103.078C154.627 102.786 153.344 102.457 152.062 102.145C149.401 101.497 146.74 100.848 144.083 100.188C139.049 98.9391 133.942 98.0207 128.965 96.548C127.735 96.1839 126.482 95.8994 125.255 95.5169C124.817 95.3801 124.386 95.2064 123.932 95.1233C123.708 95.0826 123.475 95.0586 123.25 95.0974C123.198 95.1048 122.986 95.1362 122.96 95.1843C122.919 95.2674 123.071 95.3912 123.13 95.4448C123.422 95.6998 123.854 95.7867 124.222 95.8772C124.606 95.9714 124.994 96.0435 125.373 96.1618C126.537 96.5295 127.677 96.9785 128.816 97.4165C129.971 97.8599 131.127 98.3016 132.306 98.6749C133.585 99.0795 134.882 99.3216 136.2 99.5655C137.549 99.8168 138.898 100.066 140.247 100.319C141.588 100.571 142.909 100.97 144.236 101.293C146.867 101.94 149.504 102.524 152.165 103.019C154.791 103.507 157.428 103.941 160.063 104.379C160.723 104.488 161.379 104.597 162.038 104.71C162.197 104.736 162.408 104.808 162.524 104.922C162.617 105.031 162.631 105.1 162.478 105.074Z" fill="#DBFF00"/>
<path id="Vector_2" d="M156.804 103.86C152.986 102.592 149.141 101.393 145.216 100.509C143.248 100.068 141.269 99.6835 139.301 99.2419C137.352 98.8058 135.435 98.2255 133.48 97.8042C132.442 97.5806 131.396 97.4069 130.339 97.3238C129.441 97.2536 128.565 97.1057 127.8 96.5994C127.752 96.5698 127.658 96.5163 127.663 96.446C127.687 96.1097 128.402 96.143 128.617 96.143C129.308 96.1411 130.004 96.2335 130.69 96.3333C132.024 96.5255 133.34 96.8101 134.659 97.0762C137.267 97.6065 139.887 98.0832 142.459 98.7762C143.734 99.1199 144.991 99.5116 146.218 99.9976C147.454 100.487 148.671 101.042 149.959 101.387C151.441 101.783 152.973 102.017 154.468 102.357C156.063 102.721 157.659 103.076 159.25 103.459C159.254 103.525 159.258 103.592 159.262 103.658C158.362 103.211 157.43 102.83 156.451 102.607C155.379 102.363 154.269 102.256 153.184 102.093C150.985 101.76 148.792 101.398 146.633 100.87C144.449 100.336 142.271 99.7851 140.062 99.3472C137.862 98.9092 135.648 98.5489 133.427 98.244C132.808 98.159 132.189 98.0759 131.568 97.9927C131.004 97.9151 130.437 97.8079 129.866 97.7728C128.986 97.7211 128.07 97.7359 127.301 97.2425C127.275 97.224 127.1 97.1076 127.188 97.0725C128.048 96.7195 129.116 97.0263 129.992 97.1759C131.202 97.3811 132.442 97.4476 133.66 97.601C134.986 97.7673 136.302 97.9964 137.625 98.1978C138.9 98.3918 140.182 98.5729 141.448 98.8205C144.052 99.3268 146.545 100.223 149.048 101.077C150.283 101.496 151.517 101.903 152.737 102.361C153.966 102.825 155.194 103.25 156.468 103.579C157.87 103.941 159.267 104.309 160.642 104.767C161.285 104.981 161.969 105.016 162.639 105.098C162.963 105.138 163.29 105.186 163.606 105.27C163.942 105.358 164.269 105.526 164.62 105.545C164.79 105.554 164.964 105.626 165.103 105.719C165.145 105.746 165.337 105.905 165.173 105.896C164.606 105.865 164.097 105.602 163.543 105.506C162.95 105.404 162.346 105.375 161.751 105.273C161.15 105.17 160.588 104.957 160.01 104.776C159.408 104.588 158.8 104.42 158.186 104.259C156.937 103.93 155.68 103.631 154.457 103.205C153.265 102.792 152.099 102.313 150.906 101.912C148.357 101.062 145.824 100.083 143.209 99.447C141.942 99.1384 140.654 98.9333 139.368 98.7374C138.081 98.5415 136.797 98.3235 135.507 98.1331C134.031 97.9151 132.543 97.7562 131.06 97.6028C130.52 97.5474 129.988 97.4291 129.45 97.3515C128.92 97.2757 128.334 97.2018 127.828 97.4106C127.791 97.3533 127.752 97.2979 127.715 97.2406C127.985 97.4125 128.474 97.3811 128.781 97.3977C129.169 97.4162 129.555 97.4346 129.94 97.4882C131.058 97.6453 132.179 97.7913 133.297 97.9465C135.498 98.2496 137.688 98.6154 139.865 99.0534C142.025 99.4876 144.159 100.022 146.299 100.548C148.465 101.08 150.667 101.441 152.874 101.772C154.058 101.951 155.268 102.067 156.431 102.363C157.506 102.638 158.532 103.072 159.522 103.568C159.701 103.658 159.838 103.839 159.533 103.767C156.832 103.119 154.119 102.527 151.401 101.964C148.845 101.435 146.543 100.212 144.057 99.458C141.541 98.6949 138.955 98.1886 136.378 97.673C134.903 97.3774 133.436 97.0503 131.954 96.799C131.17 96.6659 130.38 96.544 129.587 96.4996C129.372 96.4867 128.382 96.3684 128.356 96.7399C128.31 96.6881 128.266 96.6382 128.219 96.5865C128.868 97.017 129.762 96.945 130.505 97.0244C131.446 97.1261 132.379 97.3035 133.301 97.5067C135.182 97.9225 137.032 98.4731 138.909 98.8981C140.857 99.3379 142.817 99.7167 144.763 100.151C146.655 100.574 148.533 101.066 150.394 101.609C152.509 102.226 154.607 102.901 156.697 103.595C156.763 103.618 157.107 103.745 157.092 103.845C157.074 103.963 156.87 103.882 156.804 103.86Z" fill="#DBFF00"/>
<path id="Vector_3" d="M148.581 95.2548C148.442 95.2955 148.248 95.1957 148.13 95.131C148.102 95.1162 147.835 94.9462 147.94 94.9167C148.078 94.876 148.272 94.9758 148.391 95.0405C148.418 95.0553 148.686 95.2253 148.581 95.2548Z" fill="#DBFF00"/>
<path id="Vector_4" d="M133.681 138.478C134.93 138.171 136.124 137.689 137.234 137.038C137.343 136.975 137.589 137.112 137.683 137.162C137.724 137.184 137.972 137.319 137.874 137.376C136.765 138.027 135.569 138.511 134.32 138.816C134.176 138.849 133.993 138.759 133.871 138.692C133.849 138.677 133.577 138.502 133.681 138.478Z" fill="#DBFF00"/>
<path id="Vector_5" d="M133.458 131.043C128.777 129.634 124.097 128.227 119.396 126.886C114.695 125.544 109.975 124.267 105.223 123.124C103.951 122.817 102.669 122.543 101.412 122.172C100.845 122.004 100.272 121.828 99.729 121.595C99.2264 121.381 98.72 121.047 98.1509 121.178C98.0068 121.209 97.8257 121.122 97.7 121.054C97.676 121.041 97.4044 120.862 97.5097 120.84C98.4373 120.627 99.2929 121.242 100.128 121.538C101.231 121.934 102.373 122.209 103.512 122.477C105.923 123.046 108.329 123.645 110.726 124.273C115.552 125.539 120.353 126.917 125.139 128.333C127.82 129.125 130.501 129.931 133.179 130.739C133.301 130.776 133.578 130.848 133.633 130.977C133.689 131.099 133.556 131.073 133.458 131.043Z" fill="#DBFF00"/>
<path id="Vector_6" d="M129.353 149.385C124.498 148.901 119.816 147.484 115.109 146.274C112.733 145.662 110.335 145.084 107.899 144.773C106.667 144.616 105.425 144.529 104.181 144.516C102.943 144.503 101.687 144.514 100.452 144.583C100.149 144.598 99.848 144.627 99.5487 144.679C99.3824 144.707 98.8114 144.76 98.7855 144.947C98.7559 145.165 99.0627 145.392 99.2105 145.49C99.7815 145.865 100.506 146.043 101.154 146.226C103.054 146.75 104.928 147.353 106.807 147.955C109.292 148.755 111.781 149.55 114.3 150.243C116.699 150.903 119.13 151.403 121.555 151.948C122.756 152.216 123.951 152.505 125.132 152.846C125.722 153.018 126.307 153.199 126.888 153.401C127.189 153.506 127.281 153.536 127.579 153.626C128.231 153.82 128.887 154.011 129.528 154.232C130.136 154.443 130.813 154.656 131.332 155.047C131.452 155.138 131.6 155.251 131.602 155.413C131.585 155.433 131.563 155.443 131.535 155.437C130.07 155.369 128.654 154.935 127.279 154.447C125.792 153.922 124.315 153.384 122.813 152.904C119.677 151.897 116.503 151.026 113.321 150.171C110.148 149.319 106.977 148.458 103.825 147.53C100.726 146.617 97.6324 145.677 94.528 144.784C91.0023 143.768 87.4545 142.811 83.8659 142.035C83.7052 142.001 83.5 141.94 83.3818 141.822C83.3023 141.741 83.2801 141.661 83.4391 141.697C89.5462 143.02 95.524 144.845 101.509 146.623C104.492 147.51 107.482 148.377 110.49 149.18C113.566 150.003 116.645 150.818 119.698 151.723C121.206 152.168 122.706 152.638 124.197 153.14C125.598 153.613 126.975 154.175 128.392 154.6C129.09 154.809 129.8 154.979 130.524 155.057C130.631 155.068 131.003 155.188 130.872 155.025C130.814 154.951 130.705 154.911 130.615 154.866C129.894 154.515 129.098 154.301 128.335 154.073C127.427 153.802 126.538 153.488 125.633 153.22C124.199 152.797 122.741 152.457 121.283 152.135C118.28 151.474 115.3 150.792 112.351 149.912C109.342 149.018 106.367 148.018 103.374 147.081C102.557 146.826 101.727 146.632 100.911 146.383C100.081 146.128 99.1514 145.841 98.4825 145.263C98.2737 145.082 98.0907 144.86 98.1036 144.566C98.111 144.559 98.1184 144.553 98.1258 144.546C99.0793 144.223 100.099 144.217 101.097 144.211C102.113 144.206 103.13 144.154 104.144 144.18C106.188 144.235 108.221 144.494 110.224 144.897C114.226 145.703 118.133 146.913 122.104 147.855C124.352 148.388 126.623 148.826 128.922 149.053C129.077 149.068 129.297 149.154 129.408 149.265C129.499 149.352 129.501 149.402 129.353 149.385Z" fill="#DBFF00"/>
<path id="Vector_7" d="M38.7294 133.906L162.595 161.816C162.656 161.829 162.724 161.814 162.783 161.777L226.309 120.443C226.464 120.343 226.464 120.145 226.313 120.106L106.597 88.959C106.535 88.9443 106.463 88.9572 106.402 88.9978L38.7257 133.57C38.5668 133.67 38.5705 133.869 38.7294 133.906Z" fill="#004699" stroke="black" stroke-width="0.554357" stroke-miterlimit="10"/>
<path id="Vector_8" d="M111.031 17.9697L219.703 56.3274C220.533 56.6212 221.179 57.4713 221.262 58.3786L226.623 117.826C226.721 118.925 227.364 121.152 225.126 120.234C224.517 119.982 223.896 119.757 223.262 119.589L108.432 89.2987C107.444 89.0419 106.677 87.9904 106.712 86.939L108.978 19.3925C109.014 18.2561 109.97 17.5945 111.031 17.9697Z" fill="#0075FF" stroke="black" stroke-width="0.554357" stroke-miterlimit="10"/>
<path id="Vector_9" d="M107.847 31.6323L108.23 26.2052C108.23 26.2052 108.516 22.406 104.637 24.6216C103.604 25.211 87.7905 35.6847 87.7905 35.6847L48.4423 61.7376C48.4423 61.7376 44.1719 63.7813 44.194 68.4619C44.1996 69.6187 41.6699 124.372 41.6699 124.372C41.6699 124.372 40.587 128.214 44.5026 126.756C45.9514 126.217 102.231 88.391 102.231 88.391C102.231 88.391 105.419 87.1419 105.705 80.9645L107.847 31.6323Z" fill="#0075FF" stroke="black" stroke-width="0.554357" stroke-miterlimit="10"/>
<path id="Vector_10" d="M108.234 25.8947C108.234 25.8947 108.326 22.8532 105.074 24.3167L91.0916 33.4026L59.6706 54.1226L48.8219 61.4475C48.8219 61.4475 44.9562 63.2676 44.4443 66.5937L105.39 82.1823L108.234 25.8947Z" fill="#121212"/>
</g>
<path id="Arrow" d="M116.492 156.305L116.4 149.63L118.241 148.938L118.299 146.217L120.342 145.858L120.493 143.838L122.979 143.149L123.246 141.004L125.237 140.501L125.239 138.291L129.317 137.332L129.457 139.489L131.403 139.085L131.473 141.269L133.728 140.83L133.753 143.112L136.019 142.261L136.025 144.714L138.378 144.321L138.197 150.689L136.143 151.461L136.003 149.304L133.845 149.788L133.723 147.46L131.874 147.909L131.76 145.825L129.602 146.308L129.529 170.55L125.096 171.642L125.221 147.544L123.018 148.126L122.874 150.389L120.742 150.945L120.811 153.128L118.608 153.71L118.651 155.822L116.492 156.305Z" fill="#DBFF00" stroke="black" stroke-width="0.714625"/>
<g id="Notes below the naira note">
<path id="Vector_11" d="M46.5896 116.539C46.5896 116.539 35.1976 111.705 31.938 113.273L32.3796 104.446L33.5271 100.298C33.5271 100.298 45.4051 102.82 54.0938 111.507L46.5896 116.539Z" fill="#0075FF" stroke="#231F20" stroke-width="0.184786" stroke-miterlimit="10"/>
<path id="Vector_12" d="M51.976 116.313C51.976 116.313 36.0165 101.669 20.1526 110.353C20.1526 110.353 21.8881 103.148 22.0551 97.6318C22.222 92.1159 41.3753 94.4143 63.8168 106.803L51.976 116.313Z" fill="#E9FF66" stroke="#231F20" stroke-width="0.184786" stroke-miterlimit="10"/>
<g id="Vector_13">
<path d="M58.3781 112.205C58.3781 112.205 47.0655 88.8479 11.971 102.167L9.21771 101.709L11.971 61.2042C11.971 61.2042 37.6691 42.8919 68.6429 69.9223L70.877 71.3064" fill="#E9FF66"/>
<path d="M58.3781 112.205C58.3781 112.205 47.0655 88.8479 11.971 102.167L9.21771 101.709L11.971 61.2042C11.971 61.2042 37.6691 42.8919 68.6429 69.9223L70.877 71.3064" stroke="#231F20" stroke-width="0.184786" stroke-miterlimit="10"/>
</g>
<path id="Vector_14" d="M82.5215 94.8083L64.896 108.36C64.896 108.36 19.806 81.6029 13.2269 91.4108L19.5537 73.6043L22.102 67.5101C25.2655 59.4162 77.9556 87.1334 82.5215 94.8083Z" fill="#0075FF" stroke="#231F20" stroke-width="0.184786" stroke-miterlimit="10"/>
</g>
<path id="Box thickness" d="M105.815 17.8154L86.1352 30.4732C88.2787 31.6558 94.1118 33.245 96.7605 33.8917C99.6432 31.3787 100.918 33.5838 101.195 35.0005L98.9779 77.1316C98.9779 83.1925 95.0974 86.6788 93.1572 87.6643L61.1893 109.099C50.8413 115.752 48.3467 116.583 46.776 116.306L38.5531 113.811V129.888C38.3313 135.579 42.218 133.43 44.189 131.643L98.9779 93.4851C104.152 91.1198 105.692 87.9415 105.815 86.648L109.511 21.8807C110.028 16.2632 107.262 16.8299 105.815 17.8154Z" fill="#004699" stroke="black" stroke-width="1.47828"/>
<g id="box glowing outline">
<path id="Vector 56" d="M38.6367 113.443C37.0352 112.888 33.1301 111.835 31.7997 113.165L32.0768 108.269" stroke="black" stroke-width="0.739142"/>
<path id="box outline" d="M161.889 35.5556L107.931 17.0771M107.1 67.8007L108.578 39.7133L109.41 20.9576C109.902 17.7239 110.334 13.1964 98.692 22.0664M100.725 58.3768L101.371 37.3112C101.587 35.0938 101.039 31.2687 97.1213 33.7079M160.41 102.818C160.41 102.818 108.578 88.5891 106.268 89.8827M107.1 82.0293V89.8827L93.518 98.8448M52.4032 114.459L48.1532 116.214C46.9521 116.399 43.9955 115.198 42.3324 114.829M37.1584 113.627L37.6204 132.476C37.6204 132.476 37.9031 133.427 38.5443 133.862M69.1263 141.715L42.7944 135.432C40.5304 134.757 39.2891 134.366 38.5443 133.862M52.8652 125.546L38.5443 133.862" stroke="#DBFF00" stroke-width="1.47828"/>
</g>
<g id="notes before the naira note">
<path id="Vector_15" d="M97.9556 82.1212C97.9556 82.1212 91.5657 89.3888 89.2651 88.6275C82.3597 86.3417 71.6421 74.5875 49.9113 71.3057L51.4155 60.6417L54.1633 49.3901C54.1633 49.3901 63.0403 55.5065 78.4995 57.7646C93.9587 60.0208 98.7871 70.8493 98.7871 70.8493L97.9556 82.1212Z" fill="#FFDB66" stroke="#231F20" stroke-width="0.184786" stroke-miterlimit="10"/>
<path id="Vector_16" d="M100.82 35.0105C100.82 35.0105 76.29 31.6031 60.9732 10.1052L59.4413 7.46826L50.4127 47.7885C50.4127 47.7885 57.5971 55.1559 75.3218 60.0102C91.1486 64.3453 96.4686 71.2581 98.8302 75.3437L100.82 35.0105Z" fill="#0075FF" stroke="#231F20" stroke-width="0.184786" stroke-miterlimit="10"/>
<path id="Vector_17" d="M45.0762 25.7297C45.0762 25.7297 34.5582 22.5422 32.4276 17.4199C30.297 12.2977 16.78 66.2772 16.78 66.2772C16.78 66.2772 18.6389 75.2541 41.5006 80.26C64.3622 85.2658 77.9975 96.8121 77.9975 96.8121L93.5195 86.5565C93.5195 86.5565 75.7025 73.8775 63.3404 71.3736C50.9764 68.8698 52.3475 69.3391 52.3475 69.3391L53.4266 58.446C53.4266 58.446 44.8637 55.6502 41.6761 48.1775L45.0762 25.7297Z" fill="#FFC60C" stroke="#231F20" stroke-width="0.184786" stroke-miterlimit="10"/>
<path id="Vector_18" d="M54.1319 15.0719C54.1319 15.0719 50.852 12.9598 47.1987 7.4292L38.2163 50.6856C38.2163 50.6856 41.2357 57.3287 50.9019 60.2982C60.568 63.2677 67.7469 64.0198 78.8747 69.5689C78.8747 69.5689 91.928 74.2107 97.8596 82.2137L99.2417 69.0016L99.9883 47.9896L54.1319 15.0719Z" fill="#0075FF" stroke="#231F20" stroke-width="0.184786" stroke-miterlimit="10"/>
</g>
</g>
<defs>
<clipPath id="clip0_1567_16843">
<rect width="153.769" height="168.555" fill="white" transform="matrix(-1 0 0 1 153.77 0)"/>
</clipPath>
</defs>
</svg>
