<svg width="1512" height="735" viewBox="0 0 1512 735" fill="none" xmlns="http://www.w3.org/2000/svg">
<path d="M922.464 573.442L916.012 503.978C859.652 505.406 846.376 480.251 843.974 448.868C843.266 409.964 883.388 395.359 898.001 394.725L889.9 318.561C842.817 317.352 831.17 279.125 831.231 260.163C831.313 235.275 853.072 219.265 875.232 208.486L867.543 133.996L-338.539 288.544L-328.333 358.862C-277.183 342.018 -255.347 379.396 -250.823 400.191C-238.464 450.44 -301.554 467.734 -316.983 462.648L-306.8 540.076C-265.356 529.882 -243.001 561.686 -238.881 578.436C-226.522 628.684 -273.894 647.441 -294.214 648.887L-282.36 725.904L922.464 573.442Z" fill="#DBFF00" stroke="black" stroke-width="17.0548"/>
<path d="M1621.46 710.442L1615.01 640.978C1558.65 642.406 1545.38 617.251 1542.97 585.868C1542.27 546.964 1582.39 532.359 1597 531.725L1588.9 455.561C1541.82 454.352 1530.17 416.125 1530.23 397.163C1530.31 372.275 1552.07 356.265 1574.23 345.486L1566.54 270.996L360.461 425.544L370.667 495.862C421.817 479.018 443.653 516.396 448.177 537.191C460.536 587.44 397.446 604.734 382.017 599.648L392.2 677.076C433.644 666.882 455.999 698.686 460.119 715.436C472.478 765.684 425.106 784.441 404.786 785.887L416.64 862.904L1621.46 710.442Z" fill="#DBFF00" stroke="black" stroke-width="17.0548"/>
</svg>
