<svg width="1512" height="2220" viewBox="0 0 1512 2220" fill="none" xmlns="http://www.w3.org/2000/svg">
<path d="M-1223.42 1170.27L-680.569 1839.22L-437.937 1752.91L-207.07 2017.71L28.296 1881.41L210.622 2068.86L517.951 1928L722.26 2118.14L964.265 2000.51L1147.22 2219.28L1637.24 1971.37L1472.95 1745.96L1702.3 1622.32L1528.68 1400.24L1792.04 1253.98L1605.77 1025.89L1904.4 919.654L1702.15 676.211L1971.53 517.307L1426.61 -98.3458L1155.99 -2.07356L1320.27 223.333L1062.93 356.933L1243.19 597.684L1019.85 708.673L1180.81 924.748L923.466 1058.35L-1088.86 -1336.89L-1625.55 -1072.38L380.144 1304.19L110.143 1431.78L-91.474 1219.65L-352.143 1343.92L-525.764 1121.83L-795.765 1249.42L-966.066 1036.67L-1223.42 1170.27Z" fill="#0075FF"/>
</svg>
