<svg width="104" height="114" viewBox="0 0 104 114" fill="none" xmlns="http://www.w3.org/2000/svg">
<g id="pool" clip-path="url(#clip0_1215_12479)">
<g id="Box">
<path id="Vector" d="M109.891 71.0652C106.001 70.4116 102.111 69.7967 98.2751 68.8618C97.3116 68.6256 96.3505 68.3794 95.3869 68.1457C94.3958 67.9057 93.3735 67.7633 92.3712 67.5758C91.4439 67.4033 90.5353 67.2296 89.6354 66.9459C88.7643 66.671 87.9107 66.3435 87.0597 66.0161C86.2186 65.6936 85.3737 65.3312 84.4926 65.13C83.879 64.9913 83.0104 64.8188 82.6767 64.2152C82.6704 64.1989 82.6742 64.1889 82.6904 64.1827C83.2366 63.9065 83.9465 64.2114 84.4776 64.3876C85.2937 64.6601 86.1398 64.8401 86.9647 65.0813C88.6569 65.5749 90.3591 66.0011 92.0837 66.3748C93.8034 66.7485 95.5194 67.1296 97.2266 67.5546C99.0375 68.0032 100.851 68.4482 102.663 68.8893C103.643 69.1268 104.62 69.3917 105.609 69.5942C106.082 69.6917 106.566 69.7792 107.05 69.7904C107.411 69.7992 107.775 69.8542 108.061 70.0966C108.2 70.2141 107.982 70.1778 107.913 70.1516C106.371 69.5742 104.756 69.2055 103.164 68.7956C101.555 68.3794 99.9436 67.9695 98.3251 67.5833C95.0457 66.7997 91.7351 66.1511 88.4319 65.4824C87.5258 65.2987 86.6185 65.0925 85.6999 64.9813C84.8163 64.8726 83.924 64.8163 83.0504 64.6351C82.9441 64.6138 82.8317 64.5726 82.7429 64.5064C82.7129 64.4826 82.6167 64.4026 82.7179 64.4026C83.4466 64.4076 84.1439 64.5901 84.8413 64.7863C85.6149 65.005 86.396 65.1937 87.1834 65.3537C88.7956 65.6812 90.4253 65.9136 92.0487 66.1636C95.3344 66.6697 98.5451 67.4658 101.741 68.3757C102.643 68.6331 103.552 68.8831 104.468 69.0905C105.203 69.2555 105.964 69.3042 106.62 69.7129C106.647 69.7292 106.779 69.8316 106.667 69.8329C105.044 69.8366 103.459 69.4592 101.906 69.0243C100.237 68.5569 98.5776 68.0595 96.9104 67.5871C95.2207 67.1096 93.5197 66.641 91.7976 66.3023C90.1041 65.9711 88.3907 65.7536 86.691 65.4524C85.7374 65.2825 84.8038 65.0388 83.8527 64.8588C83.614 64.8138 83.3753 64.7663 83.1341 64.7326C82.9541 64.7076 82.7767 64.7576 82.5955 64.7351C82.2793 64.6938 81.9518 64.5314 81.7581 64.2739C81.7144 64.2152 81.7756 64.2077 81.8256 64.2177C83.4066 64.4976 84.9425 64.965 86.5047 65.3237C88.1395 65.6974 89.7767 66.0586 91.4089 66.4448C93.0023 66.8222 94.602 67.1721 96.1918 67.5621C97.7477 67.9445 99.2712 68.4044 100.796 68.8956C102.342 69.3955 103.942 69.7842 105.373 70.5753C105.389 70.584 105.575 70.6902 105.501 70.7202C105.005 70.9315 104.473 70.699 104.073 70.3866C104.145 70.4253 104.219 70.464 104.292 70.5028C102.819 70.0254 101.303 69.7067 99.8211 69.263C98.3339 68.8181 96.8554 68.3357 95.3619 67.9083C93.8397 67.4733 92.295 67.1159 90.7515 66.7735C89.2305 66.4373 87.7058 66.0936 86.1723 65.8061C84.9988 65.5862 83.6703 65.5937 82.6329 64.9225C82.563 64.8775 82.483 64.7851 82.6267 64.8063C85.4674 65.2287 88.2257 66.0461 91.0252 66.666C92.4437 66.9809 93.8784 67.1934 95.3057 67.4671C96.2455 67.6483 97.0741 67.8408 97.9827 68.0532C98.4364 68.1595 98.8913 68.2807 99.3237 68.4581C99.5661 68.5581 100.045 68.7368 100.104 69.038C100.112 69.0855 100.046 69.0755 100.017 69.0705C98.4826 68.7893 97.0366 68.1869 95.5369 67.7783C93.9159 67.3371 92.285 66.9359 90.6677 66.4873C89.058 66.0398 87.4683 65.5174 85.8474 65.1025C85.0575 64.8988 84.2614 64.7126 83.4665 64.5289C82.7392 64.3601 81.9918 64.2227 81.2744 64.0102C80.8383 63.8802 80.4183 63.694 79.9897 63.5428C79.736 63.4528 79.481 63.3678 79.2198 63.3028C79.0636 63.2641 78.8699 63.2078 78.7124 63.2591C78.6087 63.1879 78.5049 63.1141 78.4025 63.0416C81.0932 63.6765 83.7565 64.4164 86.4335 65.11C89.0805 65.7961 91.7576 66.3598 94.4071 67.0384C95.7056 67.3696 97.0304 67.6733 98.2214 68.3082C98.3426 68.3719 98.4363 68.4894 98.2289 68.4432C95.6231 67.852 93.0911 66.9822 90.544 66.1786C87.9095 65.3475 85.2337 64.6638 82.5642 63.9615C81.1432 63.5865 79.676 63.2766 78.325 62.6767C78.3212 62.6767 78.0525 62.5167 78.135 62.5017C79.386 62.2655 80.7033 62.7967 81.8693 63.1941C83.3666 63.7028 84.91 64.0839 86.4285 64.5239C88.0795 65.0038 89.7254 65.4962 91.3801 65.9636C93.0311 66.431 94.692 66.8647 96.3467 67.3146C97.2078 67.5483 98.0664 67.792 98.93 68.0145C99.6974 68.2107 100.46 68.4382 101.141 68.8493C101.321 68.9568 101.166 68.9831 101.037 68.9356C100.752 68.8281 100.463 68.7368 100.159 68.8193C100.064 68.8456 99.9361 68.7806 99.8536 68.7356C99.8373 68.7269 99.6524 68.6094 99.7249 68.5906C100.142 68.4794 100.572 68.6169 100.965 68.7643C100.931 68.7931 100.895 68.8218 100.861 68.8506C100.271 68.4956 99.5799 68.3382 98.9188 68.1707C98.1864 67.9857 97.4628 67.7745 96.7342 67.5758C95.1594 67.1459 93.5785 66.7335 92.0063 66.2935C90.419 65.8499 88.8381 65.3775 87.2546 64.9163C85.7324 64.4726 84.1927 64.0727 82.6767 63.6053C82.0006 63.3966 81.3407 63.1441 80.6596 62.9504C79.9872 62.7604 79.2636 62.598 78.5674 62.7304C78.5037 62.6717 78.44 62.6142 78.3775 62.5555C79.561 63.0804 80.8495 63.3491 82.0955 63.679C83.4241 64.0302 84.7551 64.3739 86.0836 64.7313C88.6656 65.4262 91.2002 66.2573 93.7509 67.0522C95.1669 67.4933 96.5917 67.907 98.0377 68.2357C98.0402 68.2807 98.0427 68.3257 98.0452 68.3707C96.9941 67.8108 95.8068 67.5533 94.6608 67.2621C93.3885 66.9372 92.1112 66.6347 90.8302 66.3423C88.2207 65.7449 85.6349 65.0588 83.0466 64.3739C81.5656 63.984 80.0822 63.599 78.5899 63.2466C78.5462 63.2366 78.1975 63.0554 78.28 63.0291C78.6062 62.9229 79.0448 63.0879 79.3548 63.1829C79.821 63.3253 80.2759 63.4978 80.7333 63.6703C81.2344 63.859 81.7394 63.9602 82.298 64.0902C83.1066 64.2789 83.9165 64.4639 84.7238 64.6588C86.3573 65.0538 87.9557 65.5562 89.5692 66.0186C91.2152 66.491 92.8724 66.9209 94.5308 67.3534C95.3919 67.5771 96.238 67.827 97.0853 68.1045C97.9539 68.3894 98.8263 68.6731 99.7274 68.8368C99.6986 68.8468 99.6699 68.8593 99.6411 68.8693C99.5999 68.6581 99.2899 68.5794 99.1187 68.5181C98.755 68.3907 98.3789 68.2994 98.0039 68.2157C97.1378 68.022 96.2717 67.8158 95.4006 67.652C94.0559 67.3996 92.7061 67.1921 91.3701 66.8984C90.0529 66.6097 88.7468 66.2748 87.4371 65.9561C85.9436 65.5924 84.4414 65.2512 82.9204 65.0263C82.9179 64.9888 82.9166 64.95 82.9141 64.91C83.3641 65.2012 83.9677 65.2725 84.4864 65.355C85.0425 65.4437 85.6012 65.5062 86.1523 65.6212C87.7445 65.9524 89.3367 66.281 90.9252 66.636C92.5062 66.9897 94.0809 67.3671 95.6381 67.8233C97.1678 68.2719 98.6813 68.7706 100.211 69.2155C101.067 69.4642 101.937 69.6542 102.796 69.8916C103.223 70.0091 103.648 70.1366 104.069 70.2728C104.162 70.3016 104.257 70.3291 104.344 70.3753C104.422 70.4165 104.483 70.484 104.562 70.5228C104.723 70.6028 104.915 70.5478 105.07 70.4815C105.113 70.5303 105.156 70.5778 105.199 70.6265C103.95 69.9354 102.549 69.5829 101.196 69.158C99.7236 68.6956 98.2651 68.2269 96.7654 67.8508C95.2094 67.4608 93.641 67.1209 92.0787 66.7522C90.4828 66.376 88.8906 65.9886 87.2859 65.6462C85.5549 65.2775 83.859 64.7426 82.113 64.4326C82.1355 64.4139 82.158 64.3951 82.1805 64.3751C82.2818 64.5114 82.3143 64.5089 82.498 64.4851C82.6879 64.4589 82.8479 64.4914 83.0391 64.5239C83.4516 64.5926 83.864 64.6713 84.2739 64.7588C85.0738 64.93 85.8649 65.1175 86.671 65.2562C88.2807 65.5337 89.9004 65.7436 91.5026 66.0586C94.762 66.6972 97.9389 67.727 101.13 68.6369C102.817 69.118 104.523 69.5854 106.289 69.5829C106.304 69.6229 106.321 69.6617 106.336 69.7029C106.07 69.538 105.734 69.4905 105.429 69.4367C105.101 69.378 104.778 69.3155 104.453 69.2418C103.657 69.0555 102.869 68.8406 102.083 68.6181C100.536 68.1795 98.985 67.7483 97.4203 67.3733C95.8656 67.0009 94.3008 66.6897 92.7211 66.4423C91.1627 66.1998 89.5992 65.9798 88.0495 65.6874C87.1996 65.5262 86.351 65.345 85.5137 65.12C84.7126 64.905 83.9252 64.6363 83.0866 64.6288C82.9754 64.5501 82.8654 64.4739 82.7542 64.3951C83.539 64.5576 84.3376 64.6213 85.1338 64.7113C85.9511 64.8026 86.7535 64.9675 87.5583 65.1275C89.243 65.4649 90.9277 65.8161 92.6111 66.1623C95.9255 66.8447 99.2112 67.6108 102.489 68.4544C104.279 68.9143 106.1 69.3242 107.835 69.9704C107.786 69.9879 107.736 70.0079 107.687 70.0254C107.733 70.0641 107.726 70.0304 107.672 70.0279C107.627 70.0254 107.582 70.0204 107.537 70.0179C107.457 70.0154 107.378 70.0154 107.299 70.0116C107.09 70.0016 106.88 69.9779 106.674 69.9479C106.262 69.8904 105.858 69.8067 105.453 69.7154C104.58 69.518 103.713 69.2955 102.846 69.0843C101.046 68.6456 99.2462 68.2069 97.449 67.7608C94.0446 66.9159 90.5903 66.2948 87.2246 65.2987C86.3923 65.0525 85.5449 64.86 84.7151 64.6013C84.4189 64.5089 84.1277 64.3914 83.8202 64.3351C83.669 64.3076 83.5115 64.2914 83.3591 64.3176C83.3241 64.3226 83.1803 64.3439 83.1629 64.3764C83.1354 64.4326 83.2378 64.5164 83.2778 64.5526C83.4753 64.7251 83.7677 64.7838 84.0165 64.8451C84.2764 64.9088 84.5389 64.9575 84.7951 65.0375C85.5824 65.2862 86.3535 65.5899 87.1234 65.8861C87.9045 66.1861 88.6869 66.4848 89.4842 66.7372C90.3491 67.0109 91.2264 67.1746 92.1175 67.3396C93.0298 67.5096 93.9422 67.6783 94.8545 67.8495C95.7618 68.0195 96.6554 68.2894 97.5528 68.5081C99.3324 68.9456 101.116 69.3405 102.916 69.6754C104.691 70.0054 106.475 70.2991 108.257 70.5953C108.703 70.669 109.147 70.7427 109.593 70.819C109.701 70.8365 109.843 70.8852 109.922 70.9627C109.984 71.0364 109.994 71.0827 109.891 71.0652Z" fill="#DBFF00"/>
<path id="Vector_2" d="M106.053 70.2441C103.471 69.3867 100.871 68.5756 98.216 67.9782C96.885 67.6795 95.5465 67.4196 94.2155 67.1209C92.8969 66.826 91.6009 66.4335 90.2787 66.1486C89.5763 65.9974 88.8689 65.8799 88.154 65.8236C87.5467 65.7761 86.9543 65.6762 86.4369 65.3337C86.4044 65.3137 86.3406 65.2775 86.3444 65.23C86.3606 65.0025 86.8443 65.025 86.9893 65.025C87.4567 65.0238 87.9278 65.0863 88.3915 65.1538C89.2938 65.2837 90.1837 65.4762 91.076 65.6562C92.8395 66.0148 94.6116 66.3373 96.3513 66.806C97.2137 67.0384 98.0635 67.3034 98.8934 67.6321C99.7295 67.9632 100.553 68.3382 101.424 68.5719C102.426 68.8393 103.463 68.9981 104.474 69.228C105.552 69.4742 106.632 69.7142 107.708 69.9729C107.711 70.0179 107.713 70.0629 107.716 70.1079C107.107 69.8054 106.477 69.548 105.815 69.3967C105.09 69.2318 104.339 69.1593 103.605 69.0493C102.118 68.8243 100.634 68.5794 99.1746 68.222C97.6973 67.8608 96.2238 67.4883 94.7304 67.1921C93.2419 66.8959 91.7446 66.6522 90.2424 66.446C89.8237 66.3885 89.4051 66.3323 88.9851 66.2761C88.604 66.2236 88.2203 66.1511 87.8341 66.1273C87.2392 66.0923 86.6193 66.1023 86.0994 65.7686C86.0819 65.7561 85.9632 65.6774 86.0232 65.6537C86.6043 65.415 87.3267 65.6224 87.9191 65.7236C88.7377 65.8624 89.5763 65.9074 90.3999 66.0111C91.2972 66.1236 92.1871 66.2786 93.0819 66.4148C93.9443 66.546 94.8116 66.6685 95.6677 66.8359C97.4286 67.1784 99.1146 67.7845 100.808 68.3619C101.643 68.6456 102.478 68.9206 103.303 69.2305C104.134 69.5442 104.965 69.8317 105.826 70.0541C106.774 70.2991 107.719 70.5478 108.649 70.8577C109.084 71.0027 109.546 71.0264 110 71.0814C110.219 71.1089 110.44 71.1414 110.654 71.1977C110.881 71.2577 111.102 71.3714 111.34 71.3839C111.455 71.3901 111.572 71.4389 111.666 71.5014C111.695 71.5201 111.825 71.6276 111.714 71.6213C111.33 71.6001 110.986 71.4226 110.611 71.3576C110.21 71.2889 109.801 71.2689 109.399 71.2002C108.993 71.1302 108.613 70.9864 108.222 70.864C107.814 70.7365 107.403 70.6228 106.988 70.514C106.143 70.2916 105.293 70.0891 104.466 69.8017C103.66 69.5217 102.871 69.198 102.064 68.9268C100.341 68.3519 98.6272 67.6895 96.8587 67.2596C96.0014 67.0509 95.1303 66.9122 94.2604 66.7797C93.3906 66.6472 92.522 66.4998 91.6497 66.371C90.6511 66.2236 89.645 66.1161 88.6415 66.0124C88.2765 65.9749 87.9166 65.8949 87.5529 65.8424C87.1942 65.7911 86.798 65.7411 86.4556 65.8824C86.4306 65.8436 86.4044 65.8061 86.3794 65.7674C86.5618 65.8836 86.893 65.8624 87.1005 65.8736C87.3629 65.8861 87.6241 65.8986 87.8841 65.9349C88.6402 66.0411 89.3988 66.1398 90.1549 66.2448C91.6434 66.4498 93.1244 66.6972 94.5966 66.9934C96.0576 67.2871 97.5011 67.6483 98.9483 68.0045C100.413 68.3644 101.903 68.6081 103.395 68.8318C104.196 68.9531 105.015 69.0318 105.801 69.2318C106.528 69.418 107.222 69.7117 107.892 70.0466C108.013 70.1079 108.105 70.2303 107.899 70.1816C106.072 69.7429 104.237 69.343 102.399 68.9618C100.671 68.6044 99.1133 67.777 97.4324 67.2671C95.7302 66.751 93.9817 66.4085 92.2383 66.0598C91.241 65.8599 90.2487 65.6387 89.2463 65.4687C88.7164 65.3787 88.1815 65.2962 87.6454 65.2662C87.5004 65.2575 86.8305 65.1775 86.813 65.4287C86.7818 65.3937 86.7518 65.36 86.7206 65.325C87.1592 65.6162 87.7641 65.5674 88.2665 65.6212C88.9027 65.6899 89.5338 65.8099 90.1574 65.9474C91.4297 66.2286 92.6807 66.601 93.9505 66.8884C95.2678 67.1859 96.5938 67.4421 97.9098 67.7358C99.1896 68.022 100.459 68.3544 101.718 68.7219C103.149 69.1393 104.567 69.5955 105.981 70.0654C106.026 70.0804 106.258 70.1666 106.248 70.2341C106.236 70.3141 106.098 70.2591 106.053 70.2441Z" fill="#DBFF00"/>
<path id="Vector_3" d="M100.491 64.4241C100.398 64.4516 100.266 64.3841 100.186 64.3403C100.168 64.3303 99.9864 64.2154 100.058 64.1954C100.151 64.1679 100.283 64.2353 100.363 64.2791C100.381 64.2891 100.563 64.4041 100.491 64.4241Z" fill="#DBFF00"/>
<path id="Vector_4" d="M90.4145 93.6574C91.2594 93.4499 92.0667 93.1237 92.8178 92.6838C92.8916 92.6413 93.0578 92.7338 93.1215 92.7675C93.149 92.7825 93.3165 92.8738 93.2502 92.9125C92.5004 93.3524 91.6918 93.6799 90.8469 93.8861C90.7494 93.9086 90.6257 93.8474 90.5432 93.8024C90.5282 93.7924 90.3445 93.6736 90.4145 93.6574Z" fill="#DBFF00"/>
<path id="Vector_5" d="M90.2631 88.6296C87.0974 87.676 83.9317 86.7249 80.7523 85.8176C77.5729 84.9102 74.3809 84.0466 71.1665 83.273C70.3067 83.0656 69.4393 82.8806 68.5895 82.6294C68.2058 82.5157 67.8184 82.3969 67.4509 82.2395C67.111 82.0945 66.7686 81.8683 66.3836 81.957C66.2861 81.9783 66.1637 81.9195 66.0787 81.8733C66.0624 81.8645 65.8787 81.7433 65.95 81.7283C66.5773 81.5846 67.156 82.0008 67.7209 82.2007C68.467 82.4682 69.2394 82.6544 70.0092 82.8356C71.6402 83.2205 73.2674 83.6255 74.8883 84.0504C78.1528 84.9065 81.3997 85.8388 84.6366 86.7961C86.45 87.3323 88.2634 87.8772 90.0743 88.4233C90.1568 88.4483 90.3443 88.4971 90.3818 88.5846C90.4193 88.6671 90.3293 88.6496 90.2631 88.6296Z" fill="#DBFF00"/>
<path id="Vector_6" d="M87.4868 101.035C84.2037 100.707 81.0368 99.7487 77.8536 98.9301C76.2464 98.5164 74.6242 98.1252 72.977 97.9153C72.1434 97.809 71.3035 97.7503 70.4624 97.7415C69.6251 97.7328 68.7752 97.7403 67.9404 97.7865C67.7354 97.7965 67.5317 97.8165 67.3292 97.8515C67.2167 97.8703 66.8306 97.9065 66.8131 98.0327C66.7931 98.1802 67.0005 98.3339 67.1005 98.4002C67.4867 98.6539 67.9766 98.7739 68.4153 98.8976C69.7 99.2525 70.9673 99.6599 72.2383 100.067C73.9193 100.609 75.6027 101.146 77.3062 101.615C78.9284 102.061 80.5731 102.399 82.2128 102.768C83.0251 102.949 83.8337 103.144 84.6324 103.376C85.031 103.492 85.4272 103.614 85.8196 103.75C86.0233 103.822 86.0858 103.842 86.2871 103.903C86.7282 104.034 87.1719 104.163 87.6056 104.313C88.0167 104.455 88.4742 104.599 88.8253 104.864C88.9066 104.925 89.0066 105.001 89.0078 105.111C88.9966 105.125 88.9816 105.131 88.9628 105.128C87.9718 105.081 87.0144 104.788 86.0846 104.458C85.0785 104.103 84.08 103.739 83.0639 103.414C80.943 102.733 78.7959 102.144 76.6438 101.566C74.4979 100.99 72.3533 100.407 70.2212 99.7799C68.1253 99.1625 66.0332 98.5264 63.9336 97.9228C61.549 97.2354 59.1494 96.588 56.7224 96.0631C56.6137 96.0406 56.4749 95.9993 56.3949 95.9194C56.3412 95.8644 56.3262 95.8106 56.4337 95.8344C60.5642 96.7292 64.6072 97.964 68.6552 99.1663C70.6724 99.7662 72.6945 100.352 74.7291 100.896C76.81 101.452 78.8921 102.003 80.9568 102.616C81.9766 102.917 82.9914 103.234 84 103.574C84.9473 103.894 85.8784 104.274 86.837 104.562C87.3094 104.703 87.7893 104.818 88.2792 104.87C88.3517 104.878 88.6029 104.959 88.5142 104.849C88.4754 104.799 88.4017 104.772 88.3404 104.742C87.853 104.504 87.3144 104.359 86.7982 104.205C86.1846 104.022 85.5834 103.809 84.971 103.628C84.0012 103.342 83.0151 103.112 82.0291 102.894C79.9982 102.447 77.9823 101.986 75.9877 101.391C73.953 100.786 71.9409 100.11 69.9163 99.4762C69.3639 99.3038 68.8027 99.1725 68.2503 99.0038C67.6892 98.8313 67.0605 98.6376 66.6081 98.2464C66.4669 98.124 66.3431 97.974 66.3519 97.7753C66.3569 97.7703 66.3619 97.7665 66.3669 97.7615C67.0118 97.5428 67.7017 97.5391 68.3765 97.5353C69.0639 97.5316 69.7513 97.4966 70.4374 97.5141C71.8197 97.5516 73.1944 97.7265 74.5492 97.999C77.2562 98.5439 79.8982 99.3625 82.584 99.9999C84.1049 100.36 85.6409 100.656 87.1956 100.81C87.3006 100.82 87.4493 100.878 87.5243 100.953C87.5856 101.012 87.5868 101.046 87.4868 101.035Z" fill="#DBFF00"/>
<path id="Vector_7" d="M26.1944 90.5656L109.969 109.442C110.011 109.451 110.057 109.441 110.097 109.416L153.062 81.4598C153.167 81.3923 153.167 81.2586 153.064 81.2323L72.0962 60.1661C72.0537 60.1561 72.0049 60.1649 71.9637 60.1924L26.1919 90.3382C26.0844 90.4057 26.087 90.5406 26.1944 90.5656Z" fill="#004699" stroke="black" stroke-width="0.374932" stroke-miterlimit="10"/>
<path id="Vector_8" d="M75.0949 12.1533L148.594 38.0961C149.155 38.2949 149.593 38.8698 149.649 39.4834L153.275 79.6899C153.341 80.4335 153.776 81.9395 152.262 81.3183C151.85 81.1484 151.43 80.9959 151.001 80.8822L73.3377 60.3959C72.6691 60.2222 72.1504 59.511 72.1741 58.7999L73.7064 13.1156C73.7314 12.347 74.3775 11.8996 75.0949 12.1533Z" fill="#0075FF" stroke="black" stroke-width="0.374932" stroke-miterlimit="10"/>
<path id="Vector_9" d="M72.9412 21.394L73.1999 17.7234C73.1999 17.7234 73.3936 15.1539 70.7704 16.6524C70.0717 17.051 59.3762 24.1348 59.3762 24.1348L32.7635 41.7553C32.7635 41.7553 29.8752 43.1376 29.8902 46.3033C29.894 47.0856 28.183 84.1177 28.183 84.1177C28.183 84.1177 27.4507 86.716 30.0989 85.7299C31.0788 85.365 69.1431 59.7821 69.1431 59.7821C69.1431 59.7821 71.299 58.9372 71.4927 54.7592L72.9412 21.394Z" fill="#0075FF" stroke="black" stroke-width="0.374932" stroke-miterlimit="10"/>
<path id="Vector_10" d="M73.2029 17.5134C73.2029 17.5134 73.2654 15.4563 71.0658 16.4461L61.6088 22.5912L40.3576 36.6049L33.0202 41.559C33.0202 41.559 30.4057 42.7901 30.0595 45.0397L71.2795 55.5828L73.2029 17.5134Z" fill="#121212"/>
</g>
<path id="Arrow" d="M78.7876 105.715L78.7254 101.2L79.9708 100.733L80.0095 98.8918L81.3914 98.6495L81.4935 97.283L83.1753 96.8173L83.3556 95.3661L84.7021 95.0264L84.7032 93.5317L87.4618 92.883L87.5565 94.3417L88.8728 94.0687L88.9195 95.5453L90.4451 95.249L90.4617 96.7924L91.9946 96.2166L91.9987 97.8754L93.5899 97.6098L93.4678 101.917L92.0786 102.439L91.9839 100.98L90.5239 101.307L90.4417 99.733L89.191 100.037L89.1141 98.6267L87.6541 98.9537L87.6052 115.349L84.6071 116.088L84.6914 99.7898L83.2012 100.183L83.1042 101.714L81.6619 102.09L81.7087 103.566L80.2185 103.96L80.2476 105.388L78.7876 105.715Z" fill="#DBFF00" stroke="black" stroke-width="0.483328"/>
<g id="Notes below the naira note">
<path id="Vector_11" d="M31.5106 78.8197C31.5106 78.8197 23.8057 75.5503 21.6011 76.6114L21.8998 70.6412L22.6759 67.8354C22.6759 67.8354 30.7095 69.5414 36.5859 75.4166L31.5106 78.8197Z" fill="#0075FF" stroke="#231F20" stroke-width="0.124977" stroke-miterlimit="10"/>
<path id="Vector_12" d="M35.154 78.667C35.154 78.667 24.36 68.7625 13.6306 74.6357C13.6306 74.6357 14.8045 69.7628 14.9174 66.0322C15.0303 62.3016 27.9844 63.8561 43.1624 72.2353L35.154 78.667Z" fill="#E9FF66" stroke="#231F20" stroke-width="0.124977" stroke-miterlimit="10"/>
<g id="Vector_13">
<path d="M39.484 75.8885C39.484 75.8885 31.8329 60.0915 8.09718 69.0998L6.23502 68.7899L8.09718 41.3949C8.09718 41.3949 25.4778 29.0097 46.4265 47.2914L47.9375 48.2274" fill="#E9FF66"/>
<path d="M39.484 75.8885C39.484 75.8885 31.8329 60.0915 8.09718 69.0998L6.23502 68.7899L8.09718 41.3949C8.09718 41.3949 25.4778 29.0097 46.4265 47.2914L47.9375 48.2274" stroke="#231F20" stroke-width="0.124977" stroke-miterlimit="10"/>
</g>
<path id="Vector_14" d="M55.8125 64.1225L43.8917 73.2883C43.8917 73.2883 13.3956 55.1913 8.94595 61.8247L13.225 49.7815L14.9485 45.6597C17.0881 40.1855 52.7244 58.9317 55.8125 64.1225Z" fill="#0075FF" stroke="#231F20" stroke-width="0.124977" stroke-miterlimit="10"/>
</g>
<path id="Box thickness" d="M71.5668 12.0492L58.2567 20.6102C59.7064 21.41 63.6516 22.4849 65.443 22.9223C67.3926 21.2226 68.255 22.714 68.4424 23.6721L66.9427 52.167C66.9427 56.2663 64.3182 58.6242 63.0059 59.2907L41.3848 73.7881C34.3861 78.2873 32.6989 78.8497 31.6366 78.6622L26.0751 76.975V87.8481C25.9251 91.6974 28.5538 90.2435 29.8869 89.0354L66.9427 63.2275C70.4421 61.6278 71.4835 59.4782 71.5668 58.6033L74.0663 14.7987C74.4163 10.9994 72.5458 11.3827 71.5668 12.0492Z" fill="#004699" stroke="black" stroke-width="0.99982"/>
<g id="box glowing outline">
<path id="Vector 56" d="M26.1328 76.7254C25.0497 76.3505 22.4085 75.6381 21.5086 76.538L21.6961 73.2261" stroke="black" stroke-width="0.49991"/>
<path id="box outline" d="M109.492 24.0475L72.9988 11.5498M72.4364 45.8561L73.4362 26.8595L73.9986 14.1744C74.3319 11.9873 74.6235 8.92518 66.7499 14.9243M68.1246 39.4823L68.5621 25.2349C68.7079 23.7352 68.3371 21.1481 65.6876 22.7978M108.492 69.5393C108.492 69.5393 73.4362 59.9161 71.874 60.791M72.4364 55.4794V60.791L63.2505 66.8524M35.443 77.4129L32.5686 78.6002C31.7562 78.7252 29.7566 77.9128 28.6318 77.6629M25.1324 76.8505L25.4448 89.5982C25.4448 89.5982 25.6361 90.2418 26.0697 90.5355M46.7535 95.8472L28.9442 91.5979C27.413 91.1412 26.5734 90.8768 26.0697 90.5355M35.7555 84.9116L26.0697 90.5355" stroke="#DBFF00" stroke-width="0.99982"/>
</g>
<g id="notes before the naira note">
<path id="Vector_15" d="M66.2501 55.5415C66.2501 55.5415 61.9284 60.4569 60.3724 59.942C55.702 58.396 48.4533 50.4462 33.756 48.2266L34.7733 41.0142L36.6317 33.4043C36.6317 33.4043 42.6356 37.5411 53.0912 39.0683C63.5468 40.5943 66.8125 47.9179 66.8125 47.9179L66.2501 55.5415Z" fill="#FFDB66" stroke="#231F20" stroke-width="0.124977" stroke-miterlimit="10"/>
<path id="Vector_16" d="M68.1875 23.6787C68.1875 23.6787 51.5967 21.3741 41.2374 6.83421L40.2013 5.05078L34.0949 32.3209C34.0949 32.3209 38.954 37.3037 50.9419 40.5869C61.6462 43.5188 65.2443 48.1942 66.8415 50.9575L68.1875 23.6787Z" fill="#0075FF" stroke="#231F20" stroke-width="0.124977" stroke-miterlimit="10"/>
<path id="Vector_17" d="M30.4859 17.4019C30.4859 17.4019 23.3722 15.246 21.9312 11.7816C20.4902 8.31726 11.3481 44.8257 11.3481 44.8257C11.3481 44.8257 12.6054 50.8971 28.0676 54.2827C43.5298 57.6684 52.7519 65.4776 52.7519 65.4776L63.25 58.5413C63.25 58.5413 51.1997 49.966 42.8387 48.2726C34.4764 46.5791 35.4038 46.8966 35.4038 46.8966L36.1336 39.5291C36.1336 39.5291 30.3422 37.6382 28.1863 32.5841L30.4859 17.4019Z" fill="#FFC60C" stroke="#231F20" stroke-width="0.124977" stroke-miterlimit="10"/>
<path id="Vector_18" d="M36.6106 10.1935C36.6106 10.1935 34.3922 8.76499 31.9214 5.02441L25.8463 34.2804C25.8463 34.2804 27.8884 38.7733 34.426 40.7817C40.9636 42.7901 45.8189 43.2988 53.3451 47.0518C53.3451 47.0518 62.1735 50.1913 66.1853 55.604L67.1201 46.6682L67.625 32.457L36.6106 10.1935Z" fill="#0075FF" stroke="#231F20" stroke-width="0.124977" stroke-miterlimit="10"/>
</g>
</g>
<defs>
<clipPath id="clip0_1215_12479">
<rect width="104" height="114" fill="white" transform="matrix(-1 0 0 1 104 0)"/>
</clipPath>
</defs>
</svg>
