<svg width="32" height="32" viewBox="0 0 32 32" fill="none" xmlns="http://www.w3.org/2000/svg">
<path d="M25.599 4.26758H6.39896C5.22029 4.26758 4.26562 5.22224 4.26562 6.40091V25.6009C4.26562 26.7796 5.22029 27.7342 6.39896 27.7342H17.0656V18.1342H13.8656V14.9342H17.0656V13.2158C17.0656 9.96251 18.6507 8.53425 21.3547 8.53425C22.6496 8.53425 23.3344 8.63024 23.6587 8.67398V11.7342H21.8144C20.6667 11.7342 20.2656 12.3401 20.2656 13.5668V14.9342H23.6299L23.1734 18.1342H20.2656V27.7342H25.599C26.7776 27.7342 27.7323 26.7796 27.7323 25.6009V6.40091C27.7323 5.22224 26.7766 4.26758 25.599 4.26758Z" fill="#DBFF00"/>
</svg>
