<svg width="283" height="216" viewBox="0 0 283 216" fill="none" xmlns="http://www.w3.org/2000/svg">
<path d="M274.56 216.168L253.305 182.839C225.277 198.166 212.068 188.931 202.723 173.741C192.284 154.322 208.715 136.563 215.913 132.457L192.092 96.1788C168.054 107.773 152.278 91.5302 147.394 81.9595C140.985 69.398 147.799 55.6915 156.171 44.5167L132.991 8.97586L-434.669 399.441L-411.302 432.227C-389.894 410.482 -369.204 423.657 -361.535 432.963C-342.284 455.079 -369.591 480.145 -378.684 481.58L-353.485 517.955C-335.244 502.078 -315.737 512.309 -309.32 519.681C-290.069 541.797 -309.077 563.526 -318.941 569.521L-293.007 605.255L274.56 216.168Z" fill="#DBFF00" stroke="black" stroke-width="12"/>
</svg>
