<svg width="424" height="190" viewBox="0 0 424 190" fill="none" xmlns="http://www.w3.org/2000/svg">
<path d="M17.4246 4.66421L14.667 27.6803C33.075 31.1542 35.63 40.2534 34.2177 50.6156C31.7294 63.303 17.6753 65.2441 12.8842 64.4289L10.1939 89.7366C25.4044 93.4189 26.517 106.65 25.172 112.806C23.4066 120.885 15.2196 124.565 7.26795 126.519L4.56082 151.253L407.149 185.319L408.747 161.764C390.954 163.662 386.473 149.994 386.456 142.923C385.952 125.736 407.655 124.526 412.312 127.257L414.414 101.393C400.239 101.808 395.199 89.9153 395.031 84.1864C394.527 66.9997 411.226 64.2166 417.928 65.1668L419.458 39.3198L17.4246 4.66421Z" fill="#DBFF00" stroke="black" stroke-width="8"/>
</svg>
