<svg width="392" height="179" viewBox="0 0 392 179" fill="none" xmlns="http://www.w3.org/2000/svg">
<path d="M25.1223 138.169L44.8351 157.924L16.7739 175.819L10.4804 179.832L15.7529 185.116L64.1213 233.587L38.1091 254.441L32.6266 258.836L37.8265 263.562L172.122 385.623L174.836 388.09L178.268 386.8L225.285 369.131L294.529 417.403L297.002 419.127L299.862 418.172L334.405 406.633L366.259 429.849L369.101 431.92L372.297 430.452L444.557 397.263L495.03 424.041L498.078 425.658L501.009 423.837L657.166 326.814L666.569 320.972L656.542 316.283L618.515 298.499L654.589 270.096L662.326 264.004L653.364 259.921L619.451 244.474L617.153 242.939L629.737 232.43L637.988 225.539L627.793 222.134L562.969 200.48L560.841 199.058L576.708 185.429L582.534 180.425L576.268 175.983L448.218 85.2195L445.43 83.2429L442.308 84.6336L418.368 95.2961L361.93 26.8324L358.75 22.9746L354.382 25.4065L330.043 38.9566L298.878 10.5646L295.764 7.72778L292.038 9.69293L236.256 39.1142L201.866 10.3947L198.914 7.92944L195.441 9.58245L70.5148 69.0481L63.31 72.4776L68.605 78.4471L88.2013 100.54L26.8823 128.471L19.0188 132.053L25.1223 138.169Z" fill="#FFC60C" stroke="black" stroke-width="12"/>
</svg>
