<svg width="1352" height="779" viewBox="0 0 1352 779" fill="none" xmlns="http://www.w3.org/2000/svg">
<rect width="1352" height="779" rx="16" fill="#002F66"/>
<rect x="47.0005" y="67" width="1250" height="58" rx="21" fill="#005ECC" stroke="#B3D6FF" stroke-width="2"/>
<path d="M177.921 101.16C176.374 101.16 175.19 100.76 174.369 99.96C173.558 99.1493 173.153 97.9547 173.153 96.376V89.72H175.201V96.36C175.201 97.3733 175.43 98.136 175.889 98.648C176.358 99.1493 177.035 99.4 177.921 99.4C179.723 99.4 180.625 98.3867 180.625 96.36V89.72H182.657V96.376C182.657 97.9547 182.257 99.1493 181.457 99.96C180.657 100.76 179.478 101.16 177.921 101.16ZM187.717 101.16C187.056 101.16 186.437 101.08 185.861 100.92C185.285 100.76 184.805 100.531 184.421 100.232L184.933 98.92C185.328 99.1867 185.77 99.3947 186.261 99.544C186.752 99.6827 187.242 99.752 187.733 99.752C188.245 99.752 188.624 99.6667 188.869 99.496C189.125 99.3147 189.253 99.08 189.253 98.792C189.253 98.344 188.922 98.056 188.261 97.928L186.661 97.624C185.306 97.368 184.629 96.664 184.629 95.512C184.629 95 184.768 94.5573 185.045 94.184C185.333 93.8107 185.728 93.5227 186.229 93.32C186.73 93.1173 187.306 93.016 187.957 93.016C188.512 93.016 189.045 93.096 189.557 93.256C190.069 93.4053 190.506 93.6347 190.869 93.944L190.325 95.256C190.016 95 189.642 94.7973 189.205 94.648C188.778 94.4987 188.368 94.424 187.973 94.424C187.45 94.424 187.061 94.5147 186.805 94.696C186.56 94.8773 186.437 95.1173 186.437 95.416C186.437 95.8853 186.741 96.1733 187.349 96.28L188.949 96.584C189.642 96.712 190.165 96.9467 190.517 97.288C190.88 97.6293 191.061 98.088 191.061 98.664C191.061 99.4427 190.757 100.056 190.149 100.504C189.541 100.941 188.73 101.16 187.717 101.16ZM196.522 101.16C195.636 101.16 194.874 100.995 194.234 100.664C193.594 100.333 193.098 99.864 192.746 99.256C192.404 98.648 192.234 97.928 192.234 97.096C192.234 96.2853 192.399 95.576 192.73 94.968C193.071 94.36 193.535 93.8853 194.122 93.544C194.719 93.192 195.396 93.016 196.154 93.016C197.263 93.016 198.138 93.368 198.778 94.072C199.428 94.776 199.754 95.736 199.754 96.952V97.544H194.154C194.303 98.9413 195.103 99.64 196.554 99.64C196.991 99.64 197.428 99.576 197.866 99.448C198.303 99.3093 198.703 99.096 199.066 98.808L199.626 100.152C199.252 100.461 198.783 100.707 198.218 100.888C197.652 101.069 197.087 101.16 196.522 101.16ZM196.234 94.376C195.647 94.376 195.172 94.5573 194.81 94.92C194.447 95.2827 194.228 95.7733 194.154 96.392H198.09C198.047 95.7413 197.866 95.2453 197.546 94.904C197.236 94.552 196.799 94.376 196.234 94.376ZM201.337 101V93.176H203.289V94.552C203.673 93.624 204.495 93.112 205.753 93.016L206.361 92.968L206.489 94.664L205.337 94.776C204.025 94.904 203.369 95.576 203.369 96.792V101H201.337Z" fill="#B3D6FF"/>
<path d="M566.953 101V91.432H563.081V89.72H572.873V91.432H569.001V101H566.953ZM576.296 101.16C575.485 101.16 574.781 100.995 574.184 100.664C573.587 100.333 573.123 99.864 572.792 99.256C572.461 98.6373 572.296 97.912 572.296 97.08C572.296 96.248 572.461 95.528 572.792 94.92C573.123 94.312 573.587 93.8427 574.184 93.512C574.781 93.1813 575.485 93.016 576.296 93.016C577.107 93.016 577.811 93.1813 578.408 93.512C579.005 93.8427 579.469 94.312 579.8 94.92C580.131 95.528 580.296 96.248 580.296 97.08C580.296 97.912 580.131 98.6373 579.8 99.256C579.469 99.864 579.005 100.333 578.408 100.664C577.811 100.995 577.107 101.16 576.296 101.16ZM576.296 99.64C576.893 99.64 577.373 99.4267 577.736 99C578.099 98.5627 578.28 97.9227 578.28 97.08C578.28 96.2267 578.099 95.592 577.736 95.176C577.373 94.7493 576.893 94.536 576.296 94.536C575.699 94.536 575.219 94.7493 574.856 95.176C574.493 95.592 574.312 96.2267 574.312 97.08C574.312 97.9227 574.493 98.5627 574.856 99C575.219 99.4267 575.699 99.64 576.296 99.64ZM585.453 101.16C583.383 101.16 582.349 100.136 582.349 98.088V94.68H580.845V93.176H582.349V90.84H584.349V93.176H586.717V94.68H584.349V97.976C584.349 98.488 584.461 98.872 584.685 99.128C584.909 99.384 585.271 99.512 585.773 99.512C585.922 99.512 586.077 99.496 586.237 99.464C586.397 99.4213 586.562 99.3787 586.733 99.336L587.037 100.808C586.845 100.915 586.599 101 586.301 101.064C586.013 101.128 585.73 101.16 585.453 101.16ZM590.585 101.16C590.02 101.16 589.513 101.053 589.065 100.84C588.628 100.616 588.281 100.317 588.025 99.944C587.78 99.5707 587.657 99.1493 587.657 98.68C587.657 98.104 587.807 97.6507 588.105 97.32C588.404 96.9787 588.889 96.7333 589.561 96.584C590.233 96.4347 591.135 96.36 592.265 96.36H592.825V96.024C592.825 95.4907 592.708 95.1067 592.473 94.872C592.239 94.6373 591.844 94.52 591.289 94.52C590.852 94.52 590.404 94.5893 589.945 94.728C589.487 94.856 589.023 95.0587 588.553 95.336L587.977 93.976C588.255 93.784 588.58 93.6187 588.953 93.48C589.337 93.3307 589.737 93.2187 590.153 93.144C590.58 93.0587 590.98 93.016 591.353 93.016C592.495 93.016 593.343 93.2827 593.897 93.816C594.452 94.3387 594.729 95.1547 594.729 96.264V101H592.857V99.752C592.676 100.189 592.388 100.536 591.993 100.792C591.599 101.037 591.129 101.16 590.585 101.16ZM591.001 99.784C591.524 99.784 591.956 99.6027 592.297 99.24C592.649 98.8773 592.825 98.4187 592.825 97.864V97.512H592.281C591.279 97.512 590.58 97.592 590.185 97.752C589.801 97.9013 589.609 98.1787 589.609 98.584C589.609 98.936 589.732 99.224 589.977 99.448C590.223 99.672 590.564 99.784 591.001 99.784ZM599.479 101.16C598.551 101.16 597.863 100.909 597.415 100.408C596.978 99.896 596.759 99.1493 596.759 98.168V89.72H598.759V98.072C598.759 99.032 599.165 99.512 599.975 99.512C600.093 99.512 600.21 99.5067 600.327 99.496C600.445 99.4853 600.557 99.464 600.663 99.432L600.631 101.016C600.247 101.112 599.863 101.16 599.479 101.16ZM606.181 103.88V93.176H608.133V94.424C608.357 93.9973 608.693 93.656 609.141 93.4C609.6 93.144 610.117 93.016 610.693 93.016C611.376 93.016 611.973 93.1813 612.485 93.512C613.008 93.8427 613.413 94.312 613.701 94.92C613.989 95.5173 614.133 96.2373 614.133 97.08C614.133 97.912 613.989 98.6373 613.701 99.256C613.413 99.864 613.013 100.333 612.501 100.664C611.989 100.995 611.387 101.16 610.693 101.16C610.139 101.16 609.637 101.043 609.189 100.808C608.752 100.563 608.416 100.237 608.181 99.832V103.88H606.181ZM610.133 99.64C610.731 99.64 611.211 99.4267 611.573 99C611.936 98.5627 612.117 97.9227 612.117 97.08C612.117 96.2267 611.936 95.592 611.573 95.176C611.211 94.7493 610.731 94.536 610.133 94.536C609.536 94.536 609.056 94.7493 608.693 95.176C608.331 95.592 608.149 96.2267 608.149 97.08C608.149 97.9227 608.331 98.5627 608.693 99C609.056 99.4267 609.536 99.64 610.133 99.64ZM615.775 101V93.176H617.727V94.552C618.111 93.624 618.932 93.112 620.191 93.016L620.799 92.968L620.927 94.664L619.775 94.776C618.463 94.904 617.807 95.576 617.807 96.792V101H615.775ZM625.772 101.16C624.886 101.16 624.124 100.995 623.484 100.664C622.844 100.333 622.348 99.864 621.996 99.256C621.654 98.648 621.484 97.928 621.484 97.096C621.484 96.2853 621.649 95.576 621.98 94.968C622.321 94.36 622.785 93.8853 623.372 93.544C623.969 93.192 624.646 93.016 625.404 93.016C626.513 93.016 627.388 93.368 628.028 94.072C628.678 94.776 629.004 95.736 629.004 96.952V97.544H623.404C623.553 98.9413 624.353 99.64 625.804 99.64C626.241 99.64 626.678 99.576 627.116 99.448C627.553 99.3093 627.953 99.096 628.316 98.808L628.876 100.152C628.502 100.461 628.033 100.707 627.468 100.888C626.902 101.069 626.337 101.16 625.772 101.16ZM625.484 94.376C624.897 94.376 624.422 94.5573 624.06 94.92C623.697 95.2827 623.478 95.7733 623.404 96.392H627.34C627.297 95.7413 627.116 95.2453 626.796 94.904C626.486 94.552 626.049 94.376 625.484 94.376ZM633.595 101.16C632.913 101.16 632.31 100.995 631.787 100.664C631.275 100.333 630.875 99.864 630.587 99.256C630.299 98.6373 630.155 97.912 630.155 97.08C630.155 96.2373 630.299 95.5173 630.587 94.92C630.875 94.312 631.275 93.8427 631.787 93.512C632.31 93.1813 632.913 93.016 633.595 93.016C634.15 93.016 634.651 93.1387 635.099 93.384C635.547 93.6293 635.883 93.9547 636.107 94.36V89.72H638.107V101H636.155V99.704C635.942 100.152 635.606 100.509 635.147 100.776C634.689 101.032 634.171 101.16 633.595 101.16ZM634.155 99.64C634.753 99.64 635.233 99.4267 635.595 99C635.958 98.5627 636.139 97.9227 636.139 97.08C636.139 96.2267 635.958 95.592 635.595 95.176C635.233 94.7493 634.753 94.536 634.155 94.536C633.558 94.536 633.078 94.7493 632.715 95.176C632.353 95.592 632.171 96.2267 632.171 97.08C632.171 97.9227 632.353 98.5627 632.715 99C633.078 99.4267 633.558 99.64 634.155 99.64ZM640.053 91.496V89.544H642.293V91.496H640.053ZM640.181 101V93.176H642.181V101H640.181ZM647.875 101.16C647.054 101.16 646.339 100.995 645.731 100.664C645.123 100.323 644.654 99.8427 644.323 99.224C643.993 98.6053 643.827 97.88 643.827 97.048C643.827 96.216 643.993 95.5013 644.323 94.904C644.654 94.296 645.123 93.832 645.731 93.512C646.339 93.1813 647.054 93.016 647.875 93.016C648.377 93.016 648.873 93.096 649.363 93.256C649.854 93.416 650.259 93.64 650.579 93.928L649.987 95.32C649.71 95.0747 649.395 94.888 649.043 94.76C648.702 94.632 648.371 94.568 648.051 94.568C647.358 94.568 646.819 94.7867 646.435 95.224C646.062 95.6507 645.875 96.264 645.875 97.064C645.875 97.8533 646.062 98.4773 646.435 98.936C646.819 99.384 647.358 99.608 648.051 99.608C648.361 99.608 648.691 99.544 649.043 99.416C649.395 99.288 649.71 99.096 649.987 98.84L650.579 100.248C650.259 100.525 649.849 100.749 649.347 100.92C648.857 101.08 648.366 101.16 647.875 101.16ZM655.421 101.16C653.352 101.16 652.317 100.136 652.317 98.088V94.68H650.813V93.176H652.317V90.84H654.317V93.176H656.685V94.68H654.317V97.976C654.317 98.488 654.429 98.872 654.653 99.128C654.877 99.384 655.24 99.512 655.741 99.512C655.891 99.512 656.045 99.496 656.205 99.464C656.365 99.4213 656.531 99.3787 656.701 99.336L657.005 100.808C656.813 100.915 656.568 101 656.269 101.064C655.981 101.128 655.699 101.16 655.421 101.16ZM657.85 91.496V89.544H660.09V91.496H657.85ZM657.978 101V93.176H659.978V101H657.978ZM665.624 101.16C664.814 101.16 664.11 100.995 663.512 100.664C662.915 100.333 662.451 99.864 662.12 99.256C661.79 98.6373 661.624 97.912 661.624 97.08C661.624 96.248 661.79 95.528 662.12 94.92C662.451 94.312 662.915 93.8427 663.512 93.512C664.11 93.1813 664.814 93.016 665.624 93.016C666.435 93.016 667.139 93.1813 667.736 93.512C668.334 93.8427 668.798 94.312 669.128 94.92C669.459 95.528 669.624 96.248 669.624 97.08C669.624 97.912 669.459 98.6373 669.128 99.256C668.798 99.864 668.334 100.333 667.736 100.664C667.139 100.995 666.435 101.16 665.624 101.16ZM665.624 99.64C666.222 99.64 666.702 99.4267 667.064 99C667.427 98.5627 667.608 97.9227 667.608 97.08C667.608 96.2267 667.427 95.592 667.064 95.176C666.702 94.7493 666.222 94.536 665.624 94.536C665.027 94.536 664.547 94.7493 664.184 95.176C663.822 95.592 663.64 96.2267 663.64 97.08C663.64 97.9227 663.822 98.5627 664.184 99C664.547 99.4267 665.027 99.64 665.624 99.64ZM671.275 101V93.176H673.227V94.392C673.494 93.944 673.851 93.6027 674.299 93.368C674.758 93.1333 675.27 93.016 675.835 93.016C677.68 93.016 678.603 94.088 678.603 96.232V101H676.603V96.328C676.603 95.72 676.486 95.2773 676.251 95C676.027 94.7227 675.675 94.584 675.195 94.584C674.608 94.584 674.139 94.7707 673.787 95.144C673.446 95.5067 673.275 95.992 673.275 96.6V101H671.275ZM683.498 101.16C682.837 101.16 682.218 101.08 681.642 100.92C681.066 100.76 680.586 100.531 680.202 100.232L680.714 98.92C681.109 99.1867 681.552 99.3947 682.042 99.544C682.533 99.6827 683.024 99.752 683.514 99.752C684.026 99.752 684.405 99.6667 684.65 99.496C684.906 99.3147 685.034 99.08 685.034 98.792C685.034 98.344 684.704 98.056 684.042 97.928L682.442 97.624C681.088 97.368 680.41 96.664 680.41 95.512C680.41 95 680.549 94.5573 680.826 94.184C681.114 93.8107 681.509 93.5227 682.01 93.32C682.512 93.1173 683.088 93.016 683.738 93.016C684.293 93.016 684.826 93.096 685.338 93.256C685.85 93.4053 686.288 93.6347 686.65 93.944L686.106 95.256C685.797 95 685.424 94.7973 684.986 94.648C684.56 94.4987 684.149 94.424 683.754 94.424C683.232 94.424 682.842 94.5147 682.586 94.696C682.341 94.8773 682.218 95.1173 682.218 95.416C682.218 95.8853 682.522 96.1733 683.13 96.28L684.73 96.584C685.424 96.712 685.946 96.9467 686.298 97.288C686.661 97.6293 686.842 98.088 686.842 98.664C686.842 99.4427 686.538 100.056 685.93 100.504C685.322 100.941 684.512 101.16 683.498 101.16Z" fill="#B3D6FF"/>
<path d="M1043.95 101V91.432H1040.08V89.72H1049.87V91.432H1046V101H1043.95ZM1053.3 101.16C1052.49 101.16 1051.78 100.995 1051.18 100.664C1050.59 100.333 1050.12 99.864 1049.79 99.256C1049.46 98.6373 1049.3 97.912 1049.3 97.08C1049.3 96.248 1049.46 95.528 1049.79 94.92C1050.12 94.312 1050.59 93.8427 1051.18 93.512C1051.78 93.1813 1052.49 93.016 1053.3 93.016C1054.11 93.016 1054.81 93.1813 1055.41 93.512C1056.01 93.8427 1056.47 94.312 1056.8 94.92C1057.13 95.528 1057.3 96.248 1057.3 97.08C1057.3 97.912 1057.13 98.6373 1056.8 99.256C1056.47 99.864 1056.01 100.333 1055.41 100.664C1054.81 100.995 1054.11 101.16 1053.3 101.16ZM1053.3 99.64C1053.89 99.64 1054.37 99.4267 1054.74 99C1055.1 98.5627 1055.28 97.9227 1055.28 97.08C1055.28 96.2267 1055.1 95.592 1054.74 95.176C1054.37 94.7493 1053.89 94.536 1053.3 94.536C1052.7 94.536 1052.22 94.7493 1051.86 95.176C1051.49 95.592 1051.31 96.2267 1051.31 97.08C1051.31 97.9227 1051.49 98.5627 1051.86 99C1052.22 99.4267 1052.7 99.64 1053.3 99.64ZM1062.45 101.16C1060.38 101.16 1059.35 100.136 1059.35 98.088V94.68H1057.84V93.176H1059.35V90.84H1061.35V93.176H1063.72V94.68H1061.35V97.976C1061.35 98.488 1061.46 98.872 1061.68 99.128C1061.91 99.384 1062.27 99.512 1062.77 99.512C1062.92 99.512 1063.08 99.496 1063.24 99.464C1063.4 99.4213 1063.56 99.3787 1063.73 99.336L1064.04 100.808C1063.84 100.915 1063.6 101 1063.3 101.064C1063.01 101.128 1062.73 101.16 1062.45 101.16ZM1067.59 101.16C1067.02 101.16 1066.51 101.053 1066.07 100.84C1065.63 100.616 1065.28 100.317 1065.03 99.944C1064.78 99.5707 1064.66 99.1493 1064.66 98.68C1064.66 98.104 1064.81 97.6507 1065.11 97.32C1065.4 96.9787 1065.89 96.7333 1066.56 96.584C1067.23 96.4347 1068.13 96.36 1069.27 96.36H1069.83V96.024C1069.83 95.4907 1069.71 95.1067 1069.47 94.872C1069.24 94.6373 1068.84 94.52 1068.29 94.52C1067.85 94.52 1067.4 94.5893 1066.95 94.728C1066.49 94.856 1066.02 95.0587 1065.55 95.336L1064.98 93.976C1065.25 93.784 1065.58 93.6187 1065.95 93.48C1066.34 93.3307 1066.74 93.2187 1067.15 93.144C1067.58 93.0587 1067.98 93.016 1068.35 93.016C1069.49 93.016 1070.34 93.2827 1070.9 93.816C1071.45 94.3387 1071.73 95.1547 1071.73 96.264V101H1069.86V99.752C1069.68 100.189 1069.39 100.536 1068.99 100.792C1068.6 101.037 1068.13 101.16 1067.59 101.16ZM1068 99.784C1068.52 99.784 1068.96 99.6027 1069.3 99.24C1069.65 98.8773 1069.83 98.4187 1069.83 97.864V97.512H1069.28C1068.28 97.512 1067.58 97.592 1067.19 97.752C1066.8 97.9013 1066.61 98.1787 1066.61 98.584C1066.61 98.936 1066.73 99.224 1066.98 99.448C1067.22 99.672 1067.56 99.784 1068 99.784ZM1076.48 101.16C1075.55 101.16 1074.86 100.909 1074.42 100.408C1073.98 99.896 1073.76 99.1493 1073.76 98.168V89.72H1075.76V98.072C1075.76 99.032 1076.16 99.512 1076.98 99.512C1077.09 99.512 1077.21 99.5067 1077.33 99.496C1077.44 99.4853 1077.56 99.464 1077.66 99.432L1077.63 101.016C1077.25 101.112 1076.86 101.16 1076.48 101.16ZM1083.18 103.88V93.176H1085.13V94.424C1085.36 93.9973 1085.69 93.656 1086.14 93.4C1086.6 93.144 1087.12 93.016 1087.69 93.016C1088.38 93.016 1088.97 93.1813 1089.49 93.512C1090.01 93.8427 1090.41 94.312 1090.7 94.92C1090.99 95.5173 1091.13 96.2373 1091.13 97.08C1091.13 97.912 1090.99 98.6373 1090.7 99.256C1090.41 99.864 1090.01 100.333 1089.5 100.664C1088.99 100.995 1088.39 101.16 1087.69 101.16C1087.14 101.16 1086.64 101.043 1086.19 100.808C1085.75 100.563 1085.42 100.237 1085.18 99.832V103.88H1083.18ZM1087.13 99.64C1087.73 99.64 1088.21 99.4267 1088.57 99C1088.94 98.5627 1089.12 97.9227 1089.12 97.08C1089.12 96.2267 1088.94 95.592 1088.57 95.176C1088.21 94.7493 1087.73 94.536 1087.13 94.536C1086.54 94.536 1086.06 94.7493 1085.69 95.176C1085.33 95.592 1085.15 96.2267 1085.15 97.08C1085.15 97.9227 1085.33 98.5627 1085.69 99C1086.06 99.4267 1086.54 99.64 1087.13 99.64ZM1096.34 101.16C1095.53 101.16 1094.83 100.995 1094.23 100.664C1093.63 100.333 1093.17 99.864 1092.84 99.256C1092.51 98.6373 1092.34 97.912 1092.34 97.08C1092.34 96.248 1092.51 95.528 1092.84 94.92C1093.17 94.312 1093.63 93.8427 1094.23 93.512C1094.83 93.1813 1095.53 93.016 1096.34 93.016C1097.15 93.016 1097.86 93.1813 1098.45 93.512C1099.05 93.8427 1099.52 94.312 1099.85 94.92C1100.18 95.528 1100.34 96.248 1100.34 97.08C1100.34 97.912 1100.18 98.6373 1099.85 99.256C1099.52 99.864 1099.05 100.333 1098.45 100.664C1097.86 100.995 1097.15 101.16 1096.34 101.16ZM1096.34 99.64C1096.94 99.64 1097.42 99.4267 1097.78 99C1098.15 98.5627 1098.33 97.9227 1098.33 97.08C1098.33 96.2267 1098.15 95.592 1097.78 95.176C1097.42 94.7493 1096.94 94.536 1096.34 94.536C1095.75 94.536 1095.27 94.7493 1094.9 95.176C1094.54 95.592 1094.36 96.2267 1094.36 97.08C1094.36 97.9227 1094.54 98.5627 1094.9 99C1095.27 99.4267 1095.75 99.64 1096.34 99.64ZM1101.87 91.496V89.544H1104.11V91.496H1101.87ZM1101.99 101V93.176H1103.99V101H1101.99ZM1106.07 101V93.176H1108.02V94.392C1108.29 93.944 1108.65 93.6027 1109.1 93.368C1109.55 93.1333 1110.07 93.016 1110.63 93.016C1112.48 93.016 1113.4 94.088 1113.4 96.232V101H1111.4V96.328C1111.4 95.72 1111.28 95.2773 1111.05 95C1110.82 94.7227 1110.47 94.584 1109.99 94.584C1109.41 94.584 1108.94 94.7707 1108.58 95.144C1108.24 95.5067 1108.07 95.992 1108.07 96.6V101H1106.07ZM1119.02 101.16C1116.95 101.16 1115.91 100.136 1115.91 98.088V94.68H1114.41V93.176H1115.91V90.84H1117.91V93.176H1120.28V94.68H1117.91V97.976C1117.91 98.488 1118.02 98.872 1118.25 99.128C1118.47 99.384 1118.83 99.512 1119.34 99.512C1119.48 99.512 1119.64 99.496 1119.8 99.464C1119.96 99.4213 1120.12 99.3787 1120.3 99.336L1120.6 100.808C1120.41 100.915 1120.16 101 1119.86 101.064C1119.58 101.128 1119.29 101.16 1119.02 101.16ZM1124.44 101.16C1123.77 101.16 1123.16 101.08 1122.58 100.92C1122 100.76 1121.52 100.531 1121.14 100.232L1121.65 98.92C1122.05 99.1867 1122.49 99.3947 1122.98 99.544C1123.47 99.6827 1123.96 99.752 1124.45 99.752C1124.96 99.752 1125.34 99.6667 1125.59 99.496C1125.84 99.3147 1125.97 99.08 1125.97 98.792C1125.97 98.344 1125.64 98.056 1124.98 97.928L1123.38 97.624C1122.03 97.368 1121.35 96.664 1121.35 95.512C1121.35 95 1121.49 94.5573 1121.76 94.184C1122.05 93.8107 1122.45 93.5227 1122.95 93.32C1123.45 93.1173 1124.03 93.016 1124.68 93.016C1125.23 93.016 1125.76 93.096 1126.28 93.256C1126.79 93.4053 1127.23 93.6347 1127.59 93.944L1127.04 95.256C1126.73 95 1126.36 94.7973 1125.92 94.648C1125.5 94.4987 1125.09 94.424 1124.69 94.424C1124.17 94.424 1123.78 94.5147 1123.52 94.696C1123.28 94.8773 1123.16 95.1173 1123.16 95.416C1123.16 95.8853 1123.46 96.1733 1124.07 96.28L1125.67 96.584C1126.36 96.712 1126.88 96.9467 1127.24 97.288C1127.6 97.6293 1127.78 98.088 1127.78 98.664C1127.78 99.4427 1127.48 100.056 1126.87 100.504C1126.26 100.941 1125.45 101.16 1124.44 101.16ZM1137.55 101.16C1136.67 101.16 1135.9 100.995 1135.26 100.664C1134.62 100.333 1134.13 99.864 1133.78 99.256C1133.44 98.648 1133.26 97.928 1133.26 97.096C1133.26 96.2853 1133.43 95.576 1133.76 94.968C1134.1 94.36 1134.57 93.8853 1135.15 93.544C1135.75 93.192 1136.43 93.016 1137.18 93.016C1138.29 93.016 1139.17 93.368 1139.81 94.072C1140.46 94.776 1140.78 95.736 1140.78 96.952V97.544H1135.18C1135.33 98.9413 1136.13 99.64 1137.58 99.64C1138.02 99.64 1138.46 99.576 1138.9 99.448C1139.33 99.3093 1139.73 99.096 1140.1 98.808L1140.66 100.152C1140.28 100.461 1139.81 100.707 1139.25 100.888C1138.68 101.069 1138.12 101.16 1137.55 101.16ZM1137.26 94.376C1136.68 94.376 1136.2 94.5573 1135.84 94.92C1135.48 95.2827 1135.26 95.7733 1135.18 96.392H1139.12C1139.08 95.7413 1138.9 95.2453 1138.58 94.904C1138.27 94.552 1137.83 94.376 1137.26 94.376ZM1144.94 101.16C1144.38 101.16 1143.87 101.053 1143.42 100.84C1142.99 100.616 1142.64 100.317 1142.38 99.944C1142.14 99.5707 1142.02 99.1493 1142.02 98.68C1142.02 98.104 1142.17 97.6507 1142.46 97.32C1142.76 96.9787 1143.25 96.7333 1143.92 96.584C1144.59 96.4347 1145.49 96.36 1146.62 96.36H1147.18V96.024C1147.18 95.4907 1147.07 95.1067 1146.83 94.872C1146.6 94.6373 1146.2 94.52 1145.65 94.52C1145.21 94.52 1144.76 94.5893 1144.3 94.728C1143.85 94.856 1143.38 95.0587 1142.91 95.336L1142.34 93.976C1142.61 93.784 1142.94 93.6187 1143.31 93.48C1143.7 93.3307 1144.1 93.2187 1144.51 93.144C1144.94 93.0587 1145.34 93.016 1145.71 93.016C1146.85 93.016 1147.7 93.2827 1148.26 93.816C1148.81 94.3387 1149.09 95.1547 1149.09 96.264V101H1147.22V99.752C1147.04 100.189 1146.75 100.536 1146.35 100.792C1145.96 101.037 1145.49 101.16 1144.94 101.16ZM1145.36 99.784C1145.88 99.784 1146.32 99.6027 1146.66 99.24C1147.01 98.8773 1147.18 98.4187 1147.18 97.864V97.512H1146.64C1145.64 97.512 1144.94 97.592 1144.54 97.752C1144.16 97.9013 1143.97 98.1787 1143.97 98.584C1143.97 98.936 1144.09 99.224 1144.34 99.448C1144.58 99.672 1144.92 99.784 1145.36 99.784ZM1151.12 101V93.176H1153.07V94.552C1153.45 93.624 1154.28 93.112 1155.53 93.016L1156.14 92.968L1156.27 94.664L1155.12 94.776C1153.81 94.904 1153.15 95.576 1153.15 96.792V101H1151.12ZM1157.38 101V93.176H1159.34V94.392C1159.6 93.944 1159.96 93.6027 1160.41 93.368C1160.87 93.1333 1161.38 93.016 1161.94 93.016C1163.79 93.016 1164.71 94.088 1164.71 96.232V101H1162.71V96.328C1162.71 95.72 1162.6 95.2773 1162.36 95C1162.14 94.7227 1161.78 94.584 1161.3 94.584C1160.72 94.584 1160.25 94.7707 1159.9 95.144C1159.56 95.5067 1159.38 95.992 1159.38 96.6V101H1157.38ZM1170.6 101.16C1169.71 101.16 1168.95 100.995 1168.31 100.664C1167.67 100.333 1167.18 99.864 1166.82 99.256C1166.48 98.648 1166.31 97.928 1166.31 97.096C1166.31 96.2853 1166.48 95.576 1166.81 94.968C1167.15 94.36 1167.61 93.8853 1168.2 93.544C1168.8 93.192 1169.47 93.016 1170.23 93.016C1171.34 93.016 1172.22 93.368 1172.86 94.072C1173.51 94.776 1173.83 95.736 1173.83 96.952V97.544H1168.23C1168.38 98.9413 1169.18 99.64 1170.63 99.64C1171.07 99.64 1171.51 99.576 1171.94 99.448C1172.38 99.3093 1172.78 99.096 1173.14 98.808L1173.7 100.152C1173.33 100.461 1172.86 100.707 1172.3 100.888C1171.73 101.069 1171.17 101.16 1170.6 101.16ZM1170.31 94.376C1169.73 94.376 1169.25 94.5573 1168.89 94.92C1168.53 95.2827 1168.31 95.7733 1168.23 96.392H1172.17C1172.13 95.7413 1171.94 95.2453 1171.62 94.904C1171.31 94.552 1170.88 94.376 1170.31 94.376ZM1178.42 101.16C1177.74 101.16 1177.14 100.995 1176.62 100.664C1176.1 100.333 1175.7 99.864 1175.42 99.256C1175.13 98.6373 1174.98 97.912 1174.98 97.08C1174.98 96.2373 1175.13 95.5173 1175.42 94.92C1175.7 94.312 1176.1 93.8427 1176.62 93.512C1177.14 93.1813 1177.74 93.016 1178.42 93.016C1178.98 93.016 1179.48 93.1387 1179.93 93.384C1180.38 93.6293 1180.71 93.9547 1180.94 94.36V89.72H1182.94V101H1180.98V99.704C1180.77 100.152 1180.43 100.509 1179.98 100.776C1179.52 101.032 1179 101.16 1178.42 101.16ZM1178.98 99.64C1179.58 99.64 1180.06 99.4267 1180.42 99C1180.79 98.5627 1180.97 97.9227 1180.97 97.08C1180.97 96.2267 1180.79 95.592 1180.42 95.176C1180.06 94.7493 1179.58 94.536 1178.98 94.536C1178.39 94.536 1177.91 94.7493 1177.54 95.176C1177.18 95.592 1177 96.2267 1177 97.08C1177 97.9227 1177.18 98.5627 1177.54 99C1177.91 99.4267 1178.39 99.64 1178.98 99.64Z" fill="#B3D6FF"/>
<path d="M179.657 184.16C178.409 184.16 177.353 183.925 176.489 183.456C175.635 182.987 174.985 182.32 174.537 181.456C174.089 180.592 173.865 179.568 173.865 178.384C173.865 177.189 174.094 176.16 174.553 175.296C175.011 174.421 175.673 173.749 176.537 173.28C177.401 172.8 178.435 172.56 179.641 172.56C180.43 172.56 181.171 172.677 181.865 172.912C182.558 173.136 183.134 173.451 183.593 173.856L182.905 175.456C182.403 175.061 181.891 174.779 181.369 174.608C180.846 174.437 180.27 174.352 179.641 174.352C178.446 174.352 177.539 174.699 176.921 175.392C176.313 176.085 176.009 177.083 176.009 178.384C176.009 179.696 176.323 180.693 176.953 181.376C177.582 182.059 178.515 182.4 179.753 182.4C180.105 182.4 180.462 182.373 180.825 182.32C181.198 182.256 181.566 182.165 181.929 182.048V179.424H179.337V177.904H183.641V183.328C183.118 183.584 182.499 183.787 181.785 183.936C181.07 184.085 180.361 184.16 179.657 184.16ZM185.822 184V176.176H187.774V177.552C188.158 176.624 188.979 176.112 190.238 176.016L190.846 175.968L190.974 177.664L189.822 177.776C188.51 177.904 187.854 178.576 187.854 179.792V184H185.822ZM195.818 184.16C194.933 184.16 194.17 183.995 193.53 183.664C192.89 183.333 192.394 182.864 192.042 182.256C191.701 181.648 191.53 180.928 191.53 180.096C191.53 179.285 191.696 178.576 192.026 177.968C192.368 177.36 192.832 176.885 193.418 176.544C194.016 176.192 194.693 176.016 195.45 176.016C196.56 176.016 197.434 176.368 198.074 177.072C198.725 177.776 199.05 178.736 199.05 179.952V180.544H193.45C193.6 181.941 194.4 182.64 195.85 182.64C196.288 182.64 196.725 182.576 197.162 182.448C197.6 182.309 198 182.096 198.362 181.808L198.922 183.152C198.549 183.461 198.08 183.707 197.514 183.888C196.949 184.069 196.384 184.16 195.818 184.16ZM195.53 177.376C194.944 177.376 194.469 177.557 194.106 177.92C193.744 178.283 193.525 178.773 193.45 179.392H197.386C197.344 178.741 197.162 178.245 196.842 177.904C196.533 177.552 196.096 177.376 195.53 177.376ZM204.49 184.16C203.605 184.16 202.842 183.995 202.202 183.664C201.562 183.333 201.066 182.864 200.714 182.256C200.373 181.648 200.202 180.928 200.202 180.096C200.202 179.285 200.368 178.576 200.698 177.968C201.04 177.36 201.504 176.885 202.09 176.544C202.688 176.192 203.365 176.016 204.122 176.016C205.232 176.016 206.106 176.368 206.746 177.072C207.397 177.776 207.722 178.736 207.722 179.952V180.544H202.122C202.272 181.941 203.072 182.64 204.522 182.64C204.96 182.64 205.397 182.576 205.834 182.448C206.272 182.309 206.672 182.096 207.034 181.808L207.594 183.152C207.221 183.461 206.752 183.707 206.186 183.888C205.621 184.069 205.056 184.16 204.49 184.16ZM204.202 177.376C203.616 177.376 203.141 177.557 202.778 177.92C202.416 178.283 202.197 178.773 202.122 179.392H206.058C206.016 178.741 205.834 178.245 205.514 177.904C205.205 177.552 204.768 177.376 204.202 177.376ZM209.306 184V176.176H211.258V177.392C211.525 176.944 211.882 176.603 212.33 176.368C212.789 176.133 213.301 176.016 213.866 176.016C215.712 176.016 216.634 177.088 216.634 179.232V184H214.634V179.328C214.634 178.72 214.517 178.277 214.282 178C214.058 177.723 213.706 177.584 213.226 177.584C212.64 177.584 212.17 177.771 211.818 178.144C211.477 178.507 211.306 178.992 211.306 179.6V184H209.306ZM218.666 184V172.72H220.666V177.312C220.932 176.885 221.29 176.565 221.738 176.352C222.186 176.128 222.682 176.016 223.226 176.016C225.071 176.016 225.994 177.088 225.994 179.232V184H223.994V179.328C223.994 178.72 223.876 178.277 223.642 178C223.418 177.723 223.066 177.584 222.586 177.584C221.999 177.584 221.53 177.771 221.178 178.144C220.836 178.507 220.666 178.992 220.666 179.6V184H218.666ZM231.593 184.16C230.782 184.16 230.078 183.995 229.481 183.664C228.884 183.333 228.42 182.864 228.089 182.256C227.758 181.637 227.593 180.912 227.593 180.08C227.593 179.248 227.758 178.528 228.089 177.92C228.42 177.312 228.884 176.843 229.481 176.512C230.078 176.181 230.782 176.016 231.593 176.016C232.404 176.016 233.108 176.181 233.705 176.512C234.302 176.843 234.766 177.312 235.097 177.92C235.428 178.528 235.593 179.248 235.593 180.08C235.593 180.912 235.428 181.637 235.097 182.256C234.766 182.864 234.302 183.333 233.705 183.664C233.108 183.995 232.404 184.16 231.593 184.16ZM231.593 182.64C232.19 182.64 232.67 182.427 233.033 182C233.396 181.563 233.577 180.923 233.577 180.08C233.577 179.227 233.396 178.592 233.033 178.176C232.67 177.749 232.19 177.536 231.593 177.536C230.996 177.536 230.516 177.749 230.153 178.176C229.79 178.592 229.609 179.227 229.609 180.08C229.609 180.923 229.79 181.563 230.153 182C230.516 182.427 230.996 182.64 231.593 182.64ZM240.076 184.16C238.156 184.16 237.196 183.083 237.196 180.928V176.176H239.196V180.96C239.196 181.515 239.308 181.925 239.532 182.192C239.756 182.459 240.113 182.592 240.604 182.592C241.137 182.592 241.574 182.411 241.916 182.048C242.257 181.675 242.428 181.184 242.428 180.576V176.176H244.428V184H242.476V182.832C241.953 183.717 241.153 184.16 240.076 184.16ZM249.373 184.16C248.712 184.16 248.093 184.08 247.517 183.92C246.941 183.76 246.461 183.531 246.077 183.232L246.589 181.92C246.984 182.187 247.427 182.395 247.917 182.544C248.408 182.683 248.899 182.752 249.389 182.752C249.901 182.752 250.28 182.667 250.525 182.496C250.781 182.315 250.909 182.08 250.909 181.792C250.909 181.344 250.579 181.056 249.917 180.928L248.317 180.624C246.963 180.368 246.285 179.664 246.285 178.512C246.285 178 246.424 177.557 246.701 177.184C246.989 176.811 247.384 176.523 247.885 176.32C248.387 176.117 248.963 176.016 249.613 176.016C250.168 176.016 250.701 176.096 251.213 176.256C251.725 176.405 252.163 176.635 252.525 176.944L251.981 178.256C251.672 178 251.299 177.797 250.861 177.648C250.435 177.499 250.024 177.424 249.629 177.424C249.107 177.424 248.717 177.515 248.461 177.696C248.216 177.877 248.093 178.117 248.093 178.416C248.093 178.885 248.397 179.173 249.005 179.28L250.605 179.584C251.299 179.712 251.821 179.947 252.173 180.288C252.536 180.629 252.717 181.088 252.717 181.664C252.717 182.443 252.413 183.056 251.805 183.504C251.197 183.941 250.387 184.16 249.373 184.16ZM258.178 184.16C257.293 184.16 256.53 183.995 255.89 183.664C255.25 183.333 254.754 182.864 254.402 182.256C254.061 181.648 253.89 180.928 253.89 180.096C253.89 179.285 254.055 178.576 254.386 177.968C254.727 177.36 255.191 176.885 255.778 176.544C256.375 176.192 257.053 176.016 257.81 176.016C258.919 176.016 259.794 176.368 260.434 177.072C261.085 177.776 261.41 178.736 261.41 179.952V180.544H255.81C255.959 181.941 256.759 182.64 258.21 182.64C258.647 182.64 259.085 182.576 259.522 182.448C259.959 182.309 260.359 182.096 260.722 181.808L261.282 183.152C260.909 183.461 260.439 183.707 259.874 183.888C259.309 184.069 258.743 184.16 258.178 184.16ZM257.89 177.376C257.303 177.376 256.829 177.557 256.466 177.92C256.103 178.283 255.885 178.773 255.81 179.392H259.746C259.703 178.741 259.522 178.245 259.202 177.904C258.893 177.552 258.455 177.376 257.89 177.376ZM263.234 184V182.48L266.882 178.592C267.372 178.059 267.724 177.589 267.938 177.184C268.151 176.768 268.258 176.347 268.258 175.92C268.258 174.832 267.602 174.288 266.29 174.288C265.266 174.288 264.322 174.672 263.458 175.44L262.77 173.904C263.218 173.499 263.778 173.173 264.45 172.928C265.122 172.683 265.82 172.56 266.546 172.56C267.751 172.56 268.674 172.832 269.314 173.376C269.964 173.92 270.29 174.699 270.29 175.712C270.29 176.395 270.124 177.051 269.794 177.68C269.474 178.309 268.967 178.987 268.274 179.712L265.794 182.304H270.722V184H263.234Z" fill="white"/>
<path d="M614.441 184V183.008L618.297 178.848C618.841 178.251 619.23 177.707 619.465 177.216C619.71 176.725 619.833 176.224 619.833 175.712C619.833 174.4 619.07 173.744 617.545 173.744C616.403 173.744 615.395 174.171 614.521 175.024L614.025 174C614.441 173.573 614.969 173.232 615.609 172.976C616.259 172.709 616.942 172.576 617.657 172.576C618.787 172.576 619.651 172.843 620.249 173.376C620.857 173.899 621.161 174.645 621.161 175.616C621.161 176.288 620.995 176.949 620.665 177.6C620.334 178.24 619.827 178.923 619.145 179.648L616.121 182.88H621.625V184H614.441ZM627.778 184.144C626.445 184.144 625.416 183.664 624.69 182.704C623.976 181.733 623.618 180.379 623.618 178.64C623.618 176.688 624.018 175.189 624.818 174.144C625.618 173.099 626.738 172.576 628.178 172.576C628.754 172.576 629.33 172.699 629.906 172.944C630.493 173.189 630.973 173.52 631.346 173.936L630.866 174.96C630.472 174.555 630.04 174.251 629.57 174.048C629.112 173.845 628.637 173.744 628.146 173.744C627.101 173.744 626.296 174.133 625.73 174.912C625.176 175.691 624.898 176.848 624.898 178.384V179.168C625.101 178.464 625.474 177.915 626.018 177.52C626.573 177.125 627.224 176.928 627.97 176.928C628.632 176.928 629.218 177.083 629.73 177.392C630.242 177.691 630.642 178.107 630.93 178.64C631.218 179.173 631.362 179.787 631.362 180.48C631.362 181.195 631.208 181.829 630.898 182.384C630.6 182.928 630.178 183.36 629.634 183.68C629.101 183.989 628.482 184.144 627.778 184.144ZM627.698 183.024C628.413 183.024 628.989 182.795 629.426 182.336C629.874 181.877 630.098 181.275 630.098 180.528C630.098 179.792 629.874 179.195 629.426 178.736C628.989 178.267 628.413 178.032 627.698 178.032C626.984 178.032 626.402 178.267 625.954 178.736C625.517 179.195 625.298 179.792 625.298 180.528C625.298 181.275 625.517 181.877 625.954 182.336C626.402 182.795 626.984 183.024 627.698 183.024Z" fill="white"/>
<path d="M1104.3 184.16C1103.57 184.16 1102.85 184.048 1102.16 183.824C1101.47 183.589 1100.9 183.275 1100.46 182.88L1101.13 181.312C1102.11 182.059 1103.15 182.432 1104.27 182.432C1104.94 182.432 1105.47 182.261 1105.84 181.92C1106.22 181.568 1106.41 181.099 1106.41 180.512C1106.41 179.915 1106.23 179.435 1105.87 179.072C1105.51 178.699 1105.01 178.512 1104.38 178.512C1103.49 178.512 1102.75 178.869 1102.16 179.584H1100.78V172.72H1107.71V174.416H1102.78V177.472C1103.35 177.045 1104.04 176.832 1104.86 176.832C1105.58 176.832 1106.2 176.987 1106.72 177.296C1107.25 177.595 1107.66 178.016 1107.95 178.56C1108.25 179.093 1108.4 179.717 1108.4 180.432C1108.4 181.168 1108.23 181.819 1107.9 182.384C1107.57 182.939 1107.1 183.376 1106.48 183.696C1105.87 184.005 1105.15 184.16 1104.3 184.16ZM1114.58 184V181.856H1109.67V180.352L1114.94 172.72H1116.63V180.16H1118.22V181.856H1116.63V184H1114.58ZM1114.58 180.16V175.856L1111.64 180.16H1114.58Z" fill="white"/>
<path d="M76.4806 186V184.6H79.7006V173.88L77.1606 175.48L76.4606 174.26L80.1606 171.9H81.3406V184.6H84.3606V186H76.4806ZM86.2528 186V183.96H88.2928V186H86.2528Z" fill="#B3D6FF"/>
<circle cx="145.001" cy="179" r="16" fill="#0075FF"/>
<path d="M174.233 376V364.72H181.609V366.352H176.281V369.536H181.273V371.168H176.281V376H174.233ZM182.869 376V368.176H184.821V369.552C185.205 368.624 186.026 368.112 187.285 368.016L187.893 367.968L188.021 369.664L186.869 369.776C185.557 369.904 184.901 370.576 184.901 371.792V376H182.869ZM192.865 376.16C191.98 376.16 191.217 375.995 190.577 375.664C189.937 375.333 189.441 374.864 189.089 374.256C188.748 373.648 188.577 372.928 188.577 372.096C188.577 371.285 188.743 370.576 189.073 369.968C189.415 369.36 189.879 368.885 190.465 368.544C191.063 368.192 191.74 368.016 192.497 368.016C193.607 368.016 194.481 368.368 195.121 369.072C195.772 369.776 196.097 370.736 196.097 371.952V372.544H190.497C190.647 373.941 191.447 374.64 192.897 374.64C193.335 374.64 193.772 374.576 194.209 374.448C194.647 374.309 195.047 374.096 195.409 373.808L195.969 375.152C195.596 375.461 195.127 375.707 194.561 375.888C193.996 376.069 193.431 376.16 192.865 376.16ZM192.577 369.376C191.991 369.376 191.516 369.557 191.153 369.92C190.791 370.283 190.572 370.773 190.497 371.392H194.433C194.391 370.741 194.209 370.245 193.889 369.904C193.58 369.552 193.143 369.376 192.577 369.376ZM198.26 378.88L199.7 375.68L196.452 368.176H198.58L200.772 373.648L203.012 368.176H205.028L200.324 378.88H198.26ZM208.398 376.16C207.833 376.16 207.326 376.053 206.878 375.84C206.441 375.616 206.094 375.317 205.838 374.944C205.593 374.571 205.47 374.149 205.47 373.68C205.47 373.104 205.619 372.651 205.918 372.32C206.217 371.979 206.702 371.733 207.374 371.584C208.046 371.435 208.947 371.36 210.078 371.36H210.638V371.024C210.638 370.491 210.521 370.107 210.286 369.872C210.051 369.637 209.657 369.52 209.102 369.52C208.665 369.52 208.217 369.589 207.758 369.728C207.299 369.856 206.835 370.059 206.366 370.336L205.79 368.976C206.067 368.784 206.393 368.619 206.766 368.48C207.15 368.331 207.55 368.219 207.966 368.144C208.393 368.059 208.793 368.016 209.166 368.016C210.307 368.016 211.155 368.283 211.71 368.816C212.265 369.339 212.542 370.155 212.542 371.264V376H210.67V374.752C210.489 375.189 210.201 375.536 209.806 375.792C209.411 376.037 208.942 376.16 208.398 376.16ZM208.814 374.784C209.337 374.784 209.769 374.603 210.11 374.24C210.462 373.877 210.638 373.419 210.638 372.864V372.512H210.094C209.091 372.512 208.393 372.592 207.998 372.752C207.614 372.901 207.422 373.179 207.422 373.584C207.422 373.936 207.545 374.224 207.79 374.448C208.035 374.672 208.377 374.784 208.814 374.784ZM217.436 376.16C216.775 376.16 216.156 376.08 215.58 375.92C215.004 375.76 214.524 375.531 214.14 375.232L214.652 373.92C215.047 374.187 215.489 374.395 215.98 374.544C216.471 374.683 216.961 374.752 217.452 374.752C217.964 374.752 218.343 374.667 218.588 374.496C218.844 374.315 218.972 374.08 218.972 373.792C218.972 373.344 218.641 373.056 217.98 372.928L216.38 372.624C215.025 372.368 214.348 371.664 214.348 370.512C214.348 370 214.487 369.557 214.764 369.184C215.052 368.811 215.447 368.523 215.948 368.32C216.449 368.117 217.025 368.016 217.676 368.016C218.231 368.016 218.764 368.096 219.276 368.256C219.788 368.405 220.225 368.635 220.588 368.944L220.044 370.256C219.735 370 219.361 369.797 218.924 369.648C218.497 369.499 218.087 369.424 217.692 369.424C217.169 369.424 216.78 369.515 216.524 369.696C216.279 369.877 216.156 370.117 216.156 370.416C216.156 370.885 216.46 371.173 217.068 371.28L218.668 371.584C219.361 371.712 219.884 371.947 220.236 372.288C220.599 372.629 220.78 373.088 220.78 373.664C220.78 374.443 220.476 375.056 219.868 375.504C219.26 375.941 218.449 376.16 217.436 376.16ZM226 376.16C225.179 376.16 224.464 375.995 223.856 375.664C223.248 375.323 222.779 374.843 222.448 374.224C222.118 373.605 221.952 372.88 221.952 372.048C221.952 371.216 222.118 370.501 222.448 369.904C222.779 369.296 223.248 368.832 223.856 368.512C224.464 368.181 225.179 368.016 226 368.016C226.502 368.016 226.998 368.096 227.488 368.256C227.979 368.416 228.384 368.64 228.704 368.928L228.112 370.32C227.835 370.075 227.52 369.888 227.168 369.76C226.827 369.632 226.496 369.568 226.176 369.568C225.483 369.568 224.944 369.787 224.56 370.224C224.187 370.651 224 371.264 224 372.064C224 372.853 224.187 373.477 224.56 373.936C224.944 374.384 225.483 374.608 226.176 374.608C226.486 374.608 226.816 374.544 227.168 374.416C227.52 374.288 227.835 374.096 228.112 373.84L228.704 375.248C228.384 375.525 227.974 375.749 227.472 375.92C226.982 376.08 226.491 376.16 226 376.16ZM229.931 376V368.176H231.883V369.552C232.267 368.624 233.089 368.112 234.347 368.016L234.955 367.968L235.083 369.664L233.931 369.776C232.619 369.904 231.963 370.576 231.963 371.792V376H229.931ZM236.069 366.496V364.544H238.309V366.496H236.069ZM236.197 376V368.176H238.197V376H236.197ZM244.787 376.16C244.211 376.16 243.694 376.032 243.235 375.776C242.787 375.52 242.451 375.173 242.227 374.736V376H240.275V364.72H242.275V369.328C242.51 368.933 242.846 368.619 243.283 368.384C243.731 368.139 244.232 368.016 244.787 368.016C245.48 368.016 246.083 368.181 246.595 368.512C247.107 368.843 247.507 369.312 247.795 369.92C248.083 370.517 248.227 371.237 248.227 372.08C248.227 372.912 248.083 373.637 247.795 374.256C247.507 374.864 247.102 375.333 246.579 375.664C246.067 375.995 245.47 376.16 244.787 376.16ZM244.227 374.64C244.824 374.64 245.304 374.427 245.667 374C246.03 373.563 246.211 372.923 246.211 372.08C246.211 371.227 246.03 370.592 245.667 370.176C245.304 369.749 244.824 369.536 244.227 369.536C243.63 369.536 243.15 369.749 242.787 370.176C242.424 370.592 242.243 371.227 242.243 372.08C242.243 372.923 242.424 373.563 242.787 374C243.15 374.427 243.63 374.64 244.227 374.64ZM250.109 376V374.48L253.757 370.592C254.247 370.059 254.599 369.589 254.813 369.184C255.026 368.768 255.133 368.347 255.133 367.92C255.133 366.832 254.477 366.288 253.165 366.288C252.141 366.288 251.197 366.672 250.333 367.44L249.645 365.904C250.093 365.499 250.653 365.173 251.325 364.928C251.997 364.683 252.695 364.56 253.421 364.56C254.626 364.56 255.549 364.832 256.189 365.376C256.839 365.92 257.165 366.699 257.165 367.712C257.165 368.395 256.999 369.051 256.669 369.68C256.349 370.309 255.842 370.987 255.149 371.712L252.669 374.304H257.597V376H250.109ZM259.702 376V374.48L263.35 370.592C263.841 370.059 264.193 369.589 264.406 369.184C264.62 368.768 264.726 368.347 264.726 367.92C264.726 366.832 264.07 366.288 262.758 366.288C261.734 366.288 260.79 366.672 259.926 367.44L259.238 365.904C259.686 365.499 260.246 365.173 260.918 364.928C261.59 364.683 262.289 364.56 263.014 364.56C264.22 364.56 265.142 364.832 265.782 365.376C266.433 365.92 266.758 366.699 266.758 367.712C266.758 368.395 266.593 369.051 266.262 369.68C265.942 370.309 265.436 370.987 264.742 371.712L262.262 374.304H267.19V376H259.702ZM272.592 376.16C271.824 376.16 271.088 376.048 270.384 375.824C269.691 375.589 269.115 375.275 268.656 374.88L269.328 373.312C270.288 374.059 271.355 374.432 272.528 374.432C273.968 374.432 274.688 373.867 274.688 372.736C274.688 372.203 274.507 371.808 274.144 371.552C273.792 371.285 273.275 371.152 272.592 371.152H270.784V369.456H272.4C272.998 369.456 273.472 369.312 273.824 369.024C274.176 368.725 274.352 368.315 274.352 367.792C274.352 367.301 274.187 366.928 273.856 366.672C273.536 366.416 273.067 366.288 272.448 366.288C271.339 366.288 270.363 366.672 269.52 367.44L268.848 365.904C269.296 365.477 269.856 365.147 270.528 364.912C271.2 364.677 271.899 364.56 272.624 364.56C273.798 364.56 274.71 364.827 275.36 365.36C276.011 365.883 276.336 366.613 276.336 367.552C276.336 368.16 276.182 368.693 275.872 369.152C275.563 369.611 275.142 369.941 274.608 370.144C275.259 370.325 275.766 370.661 276.128 371.152C276.491 371.632 276.672 372.219 276.672 372.912C276.672 373.915 276.31 374.709 275.584 375.296C274.859 375.872 273.862 376.16 272.592 376.16ZM283.194 376V373.856H278.282V372.352L283.546 364.72H285.242V372.16H286.826V373.856H285.242V376H283.194ZM283.194 372.16V367.856L280.25 372.16H283.194Z" fill="white"/>
<path d="M614.441 376V375.008L618.297 370.848C618.841 370.251 619.23 369.707 619.465 369.216C619.71 368.725 619.833 368.224 619.833 367.712C619.833 366.4 619.07 365.744 617.545 365.744C616.403 365.744 615.395 366.171 614.521 367.024L614.025 366C614.441 365.573 614.969 365.232 615.609 364.976C616.259 364.709 616.942 364.576 617.657 364.576C618.787 364.576 619.651 364.843 620.249 365.376C620.857 365.899 621.161 366.645 621.161 367.616C621.161 368.288 620.995 368.949 620.665 369.6C620.334 370.24 619.827 370.923 619.145 371.648L616.121 374.88H621.625V376H614.441ZM627.778 376.144C626.445 376.144 625.416 375.664 624.69 374.704C623.976 373.733 623.618 372.379 623.618 370.64C623.618 368.688 624.018 367.189 624.818 366.144C625.618 365.099 626.738 364.576 628.178 364.576C628.754 364.576 629.33 364.699 629.906 364.944C630.493 365.189 630.973 365.52 631.346 365.936L630.866 366.96C630.472 366.555 630.04 366.251 629.57 366.048C629.112 365.845 628.637 365.744 628.146 365.744C627.101 365.744 626.296 366.133 625.73 366.912C625.176 367.691 624.898 368.848 624.898 370.384V371.168C625.101 370.464 625.474 369.915 626.018 369.52C626.573 369.125 627.224 368.928 627.97 368.928C628.632 368.928 629.218 369.083 629.73 369.392C630.242 369.691 630.642 370.107 630.93 370.64C631.218 371.173 631.362 371.787 631.362 372.48C631.362 373.195 631.208 373.829 630.898 374.384C630.6 374.928 630.178 375.36 629.634 375.68C629.101 375.989 628.482 376.144 627.778 376.144ZM627.698 375.024C628.413 375.024 628.989 374.795 629.426 374.336C629.874 373.877 630.098 373.275 630.098 372.528C630.098 371.792 629.874 371.195 629.426 370.736C628.989 370.267 628.413 370.032 627.698 370.032C626.984 370.032 626.402 370.267 625.954 370.736C625.517 371.195 625.298 371.792 625.298 372.528C625.298 373.275 625.517 373.877 625.954 374.336C626.402 374.795 626.984 375.024 627.698 375.024Z" fill="white"/>
<path d="M1104.3 376.16C1103.57 376.16 1102.85 376.048 1102.16 375.824C1101.47 375.589 1100.9 375.275 1100.46 374.88L1101.13 373.312C1102.11 374.059 1103.15 374.432 1104.27 374.432C1104.94 374.432 1105.47 374.261 1105.84 373.92C1106.22 373.568 1106.41 373.099 1106.41 372.512C1106.41 371.915 1106.23 371.435 1105.87 371.072C1105.51 370.699 1105.01 370.512 1104.38 370.512C1103.49 370.512 1102.75 370.869 1102.16 371.584H1100.78V364.72H1107.71V366.416H1102.78V369.472C1103.35 369.045 1104.04 368.832 1104.86 368.832C1105.58 368.832 1106.2 368.987 1106.72 369.296C1107.25 369.595 1107.66 370.016 1107.95 370.56C1108.25 371.093 1108.4 371.717 1108.4 372.432C1108.4 373.168 1108.23 373.819 1107.9 374.384C1107.57 374.939 1107.1 375.376 1106.48 375.696C1105.87 376.005 1105.15 376.16 1104.3 376.16ZM1114.58 376V373.856H1109.67V372.352L1114.94 364.72H1116.63V372.16H1118.22V373.856H1116.63V376H1114.58ZM1114.58 372.16V367.856L1111.64 372.16H1114.58Z" fill="white"/>
<path d="M79.8406 378.18C78.9073 378.18 78.0206 378.04 77.1806 377.76C76.3406 377.467 75.6339 377.047 75.0606 376.5L75.6606 375.2C76.3139 375.733 76.9739 376.12 77.6406 376.36C78.3073 376.6 79.0273 376.72 79.8006 376.72C80.8139 376.72 81.5873 376.5 82.1206 376.06C82.6673 375.607 82.9406 374.947 82.9406 374.08C82.9406 373.253 82.6673 372.627 82.1206 372.2C81.5739 371.773 80.7806 371.56 79.7406 371.56H77.6606V370.14H79.6006C80.5073 370.14 81.2206 369.907 81.7406 369.44C82.2739 368.96 82.5406 368.307 82.5406 367.48C82.5406 366.747 82.2939 366.18 81.8006 365.78C81.3206 365.38 80.6339 365.18 79.7406 365.18C78.2739 365.18 76.9939 365.713 75.9006 366.78L75.3006 365.5C75.8206 364.94 76.4806 364.507 77.2806 364.2C78.0939 363.88 78.9473 363.72 79.8406 363.72C81.2006 363.72 82.2606 364.04 83.0206 364.68C83.7939 365.32 84.1806 366.207 84.1806 367.34C84.1806 368.127 83.9806 368.82 83.5806 369.42C83.1806 370.007 82.6273 370.433 81.9206 370.7C82.7606 370.927 83.4139 371.347 83.8806 371.96C84.3473 372.56 84.5806 373.307 84.5806 374.2C84.5806 375.413 84.1539 376.38 83.3006 377.1C82.4606 377.82 81.3073 378.18 79.8406 378.18ZM86.2528 378V375.96H88.2928V378H86.2528Z" fill="#B3D6FF"/>
<circle cx="145.001" cy="371" r="16" fill="#DBFF00"/>
<path d="M174.233 568V556.72H181.609V558.352H176.281V561.536H181.273V563.168H176.281V568H174.233ZM182.869 568V560.176H184.821V561.552C185.205 560.624 186.026 560.112 187.285 560.016L187.893 559.968L188.021 561.664L186.869 561.776C185.557 561.904 184.901 562.576 184.901 563.792V568H182.869ZM192.865 568.16C191.98 568.16 191.217 567.995 190.577 567.664C189.937 567.333 189.441 566.864 189.089 566.256C188.748 565.648 188.577 564.928 188.577 564.096C188.577 563.285 188.743 562.576 189.073 561.968C189.415 561.36 189.879 560.885 190.465 560.544C191.063 560.192 191.74 560.016 192.497 560.016C193.607 560.016 194.481 560.368 195.121 561.072C195.772 561.776 196.097 562.736 196.097 563.952V564.544H190.497C190.647 565.941 191.447 566.64 192.897 566.64C193.335 566.64 193.772 566.576 194.209 566.448C194.647 566.309 195.047 566.096 195.409 565.808L195.969 567.152C195.596 567.461 195.127 567.707 194.561 567.888C193.996 568.069 193.431 568.16 192.865 568.16ZM192.577 561.376C191.991 561.376 191.516 561.557 191.153 561.92C190.791 562.283 190.572 562.773 190.497 563.392H194.433C194.391 562.741 194.209 562.245 193.889 561.904C193.58 561.552 193.143 561.376 192.577 561.376ZM198.26 570.88L199.7 567.68L196.452 560.176H198.58L200.772 565.648L203.012 560.176H205.028L200.324 570.88H198.26ZM208.398 568.16C207.833 568.16 207.326 568.053 206.878 567.84C206.441 567.616 206.094 567.317 205.838 566.944C205.593 566.571 205.47 566.149 205.47 565.68C205.47 565.104 205.619 564.651 205.918 564.32C206.217 563.979 206.702 563.733 207.374 563.584C208.046 563.435 208.947 563.36 210.078 563.36H210.638V563.024C210.638 562.491 210.521 562.107 210.286 561.872C210.051 561.637 209.657 561.52 209.102 561.52C208.665 561.52 208.217 561.589 207.758 561.728C207.299 561.856 206.835 562.059 206.366 562.336L205.79 560.976C206.067 560.784 206.393 560.619 206.766 560.48C207.15 560.331 207.55 560.219 207.966 560.144C208.393 560.059 208.793 560.016 209.166 560.016C210.307 560.016 211.155 560.283 211.71 560.816C212.265 561.339 212.542 562.155 212.542 563.264V568H210.67V566.752C210.489 567.189 210.201 567.536 209.806 567.792C209.411 568.037 208.942 568.16 208.398 568.16ZM208.814 566.784C209.337 566.784 209.769 566.603 210.11 566.24C210.462 565.877 210.638 565.419 210.638 564.864V564.512H210.094C209.091 564.512 208.393 564.592 207.998 564.752C207.614 564.901 207.422 565.179 207.422 565.584C207.422 565.936 207.545 566.224 207.79 566.448C208.035 566.672 208.377 566.784 208.814 566.784ZM217.436 568.16C216.775 568.16 216.156 568.08 215.58 567.92C215.004 567.76 214.524 567.531 214.14 567.232L214.652 565.92C215.047 566.187 215.489 566.395 215.98 566.544C216.471 566.683 216.961 566.752 217.452 566.752C217.964 566.752 218.343 566.667 218.588 566.496C218.844 566.315 218.972 566.08 218.972 565.792C218.972 565.344 218.641 565.056 217.98 564.928L216.38 564.624C215.025 564.368 214.348 563.664 214.348 562.512C214.348 562 214.487 561.557 214.764 561.184C215.052 560.811 215.447 560.523 215.948 560.32C216.449 560.117 217.025 560.016 217.676 560.016C218.231 560.016 218.764 560.096 219.276 560.256C219.788 560.405 220.225 560.635 220.588 560.944L220.044 562.256C219.735 562 219.361 561.797 218.924 561.648C218.497 561.499 218.087 561.424 217.692 561.424C217.169 561.424 216.78 561.515 216.524 561.696C216.279 561.877 216.156 562.117 216.156 562.416C216.156 562.885 216.46 563.173 217.068 563.28L218.668 563.584C219.361 563.712 219.884 563.947 220.236 564.288C220.599 564.629 220.78 565.088 220.78 565.664C220.78 566.443 220.476 567.056 219.868 567.504C219.26 567.941 218.449 568.16 217.436 568.16ZM226 568.16C225.179 568.16 224.464 567.995 223.856 567.664C223.248 567.323 222.779 566.843 222.448 566.224C222.118 565.605 221.952 564.88 221.952 564.048C221.952 563.216 222.118 562.501 222.448 561.904C222.779 561.296 223.248 560.832 223.856 560.512C224.464 560.181 225.179 560.016 226 560.016C226.502 560.016 226.998 560.096 227.488 560.256C227.979 560.416 228.384 560.64 228.704 560.928L228.112 562.32C227.835 562.075 227.52 561.888 227.168 561.76C226.827 561.632 226.496 561.568 226.176 561.568C225.483 561.568 224.944 561.787 224.56 562.224C224.187 562.651 224 563.264 224 564.064C224 564.853 224.187 565.477 224.56 565.936C224.944 566.384 225.483 566.608 226.176 566.608C226.486 566.608 226.816 566.544 227.168 566.416C227.52 566.288 227.835 566.096 228.112 565.84L228.704 567.248C228.384 567.525 227.974 567.749 227.472 567.92C226.982 568.08 226.491 568.16 226 568.16ZM229.931 568V560.176H231.883V561.552C232.267 560.624 233.089 560.112 234.347 560.016L234.955 559.968L235.083 561.664L233.931 561.776C232.619 561.904 231.963 562.576 231.963 563.792V568H229.931ZM236.069 558.496V556.544H238.309V558.496H236.069ZM236.197 568V560.176H238.197V568H236.197ZM244.787 568.16C244.211 568.16 243.694 568.032 243.235 567.776C242.787 567.52 242.451 567.173 242.227 566.736V568H240.275V556.72H242.275V561.328C242.51 560.933 242.846 560.619 243.283 560.384C243.731 560.139 244.232 560.016 244.787 560.016C245.48 560.016 246.083 560.181 246.595 560.512C247.107 560.843 247.507 561.312 247.795 561.92C248.083 562.517 248.227 563.237 248.227 564.08C248.227 564.912 248.083 565.637 247.795 566.256C247.507 566.864 247.102 567.333 246.579 567.664C246.067 567.995 245.47 568.16 244.787 568.16ZM244.227 566.64C244.824 566.64 245.304 566.427 245.667 566C246.03 565.563 246.211 564.923 246.211 564.08C246.211 563.227 246.03 562.592 245.667 562.176C245.304 561.749 244.824 561.536 244.227 561.536C243.63 561.536 243.15 561.749 242.787 562.176C242.424 562.592 242.243 563.227 242.243 564.08C242.243 564.923 242.424 565.563 242.787 566C243.15 566.427 243.63 566.64 244.227 566.64ZM250.109 568V566.48L253.757 562.592C254.247 562.059 254.599 561.589 254.813 561.184C255.026 560.768 255.133 560.347 255.133 559.92C255.133 558.832 254.477 558.288 253.165 558.288C252.141 558.288 251.197 558.672 250.333 559.44L249.645 557.904C250.093 557.499 250.653 557.173 251.325 556.928C251.997 556.683 252.695 556.56 253.421 556.56C254.626 556.56 255.549 556.832 256.189 557.376C256.839 557.92 257.165 558.699 257.165 559.712C257.165 560.395 256.999 561.051 256.669 561.68C256.349 562.309 255.842 562.987 255.149 563.712L252.669 566.304H257.597V568H250.109ZM259.702 568V566.48L263.35 562.592C263.841 562.059 264.193 561.589 264.406 561.184C264.62 560.768 264.726 560.347 264.726 559.92C264.726 558.832 264.07 558.288 262.758 558.288C261.734 558.288 260.79 558.672 259.926 559.44L259.238 557.904C259.686 557.499 260.246 557.173 260.918 556.928C261.59 556.683 262.289 556.56 263.014 556.56C264.22 556.56 265.142 556.832 265.782 557.376C266.433 557.92 266.758 558.699 266.758 559.712C266.758 560.395 266.593 561.051 266.262 561.68C265.942 562.309 265.436 562.987 264.742 563.712L262.262 566.304H267.19V568H259.702ZM272.592 568.16C271.824 568.16 271.088 568.048 270.384 567.824C269.691 567.589 269.115 567.275 268.656 566.88L269.328 565.312C270.288 566.059 271.355 566.432 272.528 566.432C273.968 566.432 274.688 565.867 274.688 564.736C274.688 564.203 274.507 563.808 274.144 563.552C273.792 563.285 273.275 563.152 272.592 563.152H270.784V561.456H272.4C272.998 561.456 273.472 561.312 273.824 561.024C274.176 560.725 274.352 560.315 274.352 559.792C274.352 559.301 274.187 558.928 273.856 558.672C273.536 558.416 273.067 558.288 272.448 558.288C271.339 558.288 270.363 558.672 269.52 559.44L268.848 557.904C269.296 557.477 269.856 557.147 270.528 556.912C271.2 556.677 271.899 556.56 272.624 556.56C273.798 556.56 274.71 556.827 275.36 557.36C276.011 557.883 276.336 558.613 276.336 559.552C276.336 560.16 276.182 560.693 275.872 561.152C275.563 561.611 275.142 561.941 274.608 562.144C275.259 562.325 275.766 562.661 276.128 563.152C276.491 563.632 276.672 564.219 276.672 564.912C276.672 565.915 276.31 566.709 275.584 567.296C274.859 567.872 273.862 568.16 272.592 568.16ZM283.194 568V565.856H278.282V564.352L283.546 556.72H285.242V564.16H286.826V565.856H285.242V568H283.194ZM283.194 564.16V559.856L280.25 564.16H283.194Z" fill="white"/>
<path d="M614.441 568V567.008L618.297 562.848C618.841 562.251 619.23 561.707 619.465 561.216C619.71 560.725 619.833 560.224 619.833 559.712C619.833 558.4 619.07 557.744 617.545 557.744C616.403 557.744 615.395 558.171 614.521 559.024L614.025 558C614.441 557.573 614.969 557.232 615.609 556.976C616.259 556.709 616.942 556.576 617.657 556.576C618.787 556.576 619.651 556.843 620.249 557.376C620.857 557.899 621.161 558.645 621.161 559.616C621.161 560.288 620.995 560.949 620.665 561.6C620.334 562.24 619.827 562.923 619.145 563.648L616.121 566.88H621.625V568H614.441ZM627.778 568.144C626.445 568.144 625.416 567.664 624.69 566.704C623.976 565.733 623.618 564.379 623.618 562.64C623.618 560.688 624.018 559.189 624.818 558.144C625.618 557.099 626.738 556.576 628.178 556.576C628.754 556.576 629.33 556.699 629.906 556.944C630.493 557.189 630.973 557.52 631.346 557.936L630.866 558.96C630.472 558.555 630.04 558.251 629.57 558.048C629.112 557.845 628.637 557.744 628.146 557.744C627.101 557.744 626.296 558.133 625.73 558.912C625.176 559.691 624.898 560.848 624.898 562.384V563.168C625.101 562.464 625.474 561.915 626.018 561.52C626.573 561.125 627.224 560.928 627.97 560.928C628.632 560.928 629.218 561.083 629.73 561.392C630.242 561.691 630.642 562.107 630.93 562.64C631.218 563.173 631.362 563.787 631.362 564.48C631.362 565.195 631.208 565.829 630.898 566.384C630.6 566.928 630.178 567.36 629.634 567.68C629.101 567.989 628.482 568.144 627.778 568.144ZM627.698 567.024C628.413 567.024 628.989 566.795 629.426 566.336C629.874 565.877 630.098 565.275 630.098 564.528C630.098 563.792 629.874 563.195 629.426 562.736C628.989 562.267 628.413 562.032 627.698 562.032C626.984 562.032 626.402 562.267 625.954 562.736C625.517 563.195 625.298 563.792 625.298 564.528C625.298 565.275 625.517 565.877 625.954 566.336C626.402 566.795 626.984 567.024 627.698 567.024Z" fill="white"/>
<path d="M1104.3 568.16C1103.57 568.16 1102.85 568.048 1102.16 567.824C1101.47 567.589 1100.9 567.275 1100.46 566.88L1101.13 565.312C1102.11 566.059 1103.15 566.432 1104.27 566.432C1104.94 566.432 1105.47 566.261 1105.84 565.92C1106.22 565.568 1106.41 565.099 1106.41 564.512C1106.41 563.915 1106.23 563.435 1105.87 563.072C1105.51 562.699 1105.01 562.512 1104.38 562.512C1103.49 562.512 1102.75 562.869 1102.16 563.584H1100.78V556.72H1107.71V558.416H1102.78V561.472C1103.35 561.045 1104.04 560.832 1104.86 560.832C1105.58 560.832 1106.2 560.987 1106.72 561.296C1107.25 561.595 1107.66 562.016 1107.95 562.56C1108.25 563.093 1108.4 563.717 1108.4 564.432C1108.4 565.168 1108.23 565.819 1107.9 566.384C1107.57 566.939 1107.1 567.376 1106.48 567.696C1105.87 568.005 1105.15 568.16 1104.3 568.16ZM1114.58 568V565.856H1109.67V564.352L1114.94 556.72H1116.63V564.16H1118.22V565.856H1116.63V568H1114.58ZM1114.58 564.16V559.856L1111.64 564.16H1114.58Z" fill="white"/>
<path d="M80.3006 570.18C79.3939 570.18 78.5273 570.033 77.7006 569.74C76.8739 569.447 76.1739 569.033 75.6006 568.5L76.2206 567.2C77.4606 568.213 78.8139 568.72 80.2806 568.72C81.2539 568.72 82.0206 568.447 82.5806 567.9C83.1406 567.353 83.4206 566.633 83.4206 565.74C83.4206 564.82 83.1539 564.067 82.6206 563.48C82.0873 562.893 81.3539 562.6 80.4206 562.6C79.0739 562.6 78.0139 563.16 77.2406 564.28H76.0406V555.9H84.2206V557.3H77.6606V562.34C78.4339 561.567 79.4539 561.18 80.7206 561.18C81.6006 561.18 82.3673 561.367 83.0206 561.74C83.6739 562.113 84.1739 562.64 84.5206 563.32C84.8806 563.987 85.0606 564.767 85.0606 565.66C85.0606 566.54 84.8673 567.32 84.4806 568C84.0939 568.68 83.5406 569.213 82.8206 569.6C82.1139 569.987 81.2739 570.18 80.3006 570.18ZM86.2528 570V567.96H88.2928V570H86.2528Z" fill="#B3D6FF"/>
<circle cx="145.001" cy="563" r="16" fill="#9747FF"/>
<rect x="52.0006" y="239" width="1248" height="72" rx="8" fill="#004699"/>
<path d="M178.121 280.16C177.235 280.16 176.414 280.048 175.657 279.824C174.899 279.589 174.259 279.275 173.737 278.88L174.361 277.264C174.883 277.637 175.454 277.925 176.073 278.128C176.702 278.331 177.385 278.432 178.121 278.432C178.963 278.432 179.577 278.293 179.961 278.016C180.345 277.728 180.537 277.36 180.537 276.912C180.537 276.539 180.398 276.245 180.121 276.032C179.854 275.819 179.39 275.643 178.729 275.504L176.969 275.136C174.963 274.709 173.961 273.68 173.961 272.048C173.961 271.344 174.147 270.731 174.521 270.208C174.894 269.685 175.411 269.28 176.073 268.992C176.734 268.704 177.497 268.56 178.361 268.56C179.129 268.56 179.849 268.677 180.521 268.912C181.193 269.136 181.753 269.456 182.201 269.872L181.577 271.408C180.691 270.661 179.614 270.288 178.345 270.288C177.609 270.288 177.033 270.443 176.617 270.752C176.201 271.061 175.993 271.467 175.993 271.968C175.993 272.352 176.121 272.661 176.377 272.896C176.633 273.12 177.07 273.296 177.689 273.424L179.433 273.792C180.489 274.016 181.273 274.368 181.785 274.848C182.307 275.328 182.569 275.968 182.569 276.768C182.569 277.44 182.387 278.032 182.025 278.544C181.662 279.056 181.145 279.456 180.473 279.744C179.811 280.021 179.027 280.16 178.121 280.16ZM187.99 280.16C187.105 280.16 186.342 279.995 185.702 279.664C185.062 279.333 184.566 278.864 184.214 278.256C183.873 277.648 183.702 276.928 183.702 276.096C183.702 275.285 183.868 274.576 184.198 273.968C184.54 273.36 185.004 272.885 185.59 272.544C186.188 272.192 186.865 272.016 187.622 272.016C188.732 272.016 189.606 272.368 190.246 273.072C190.897 273.776 191.222 274.736 191.222 275.952V276.544H185.622C185.772 277.941 186.572 278.64 188.022 278.64C188.46 278.64 188.897 278.576 189.334 278.448C189.772 278.309 190.172 278.096 190.534 277.808L191.094 279.152C190.721 279.461 190.252 279.707 189.686 279.888C189.121 280.069 188.556 280.16 187.99 280.16ZM187.702 273.376C187.116 273.376 186.641 273.557 186.278 273.92C185.916 274.283 185.697 274.773 185.622 275.392H189.558C189.516 274.741 189.334 274.245 189.014 273.904C188.705 273.552 188.268 273.376 187.702 273.376ZM196.422 280.16C195.601 280.16 194.886 279.995 194.278 279.664C193.67 279.323 193.201 278.843 192.87 278.224C192.54 277.605 192.374 276.88 192.374 276.048C192.374 275.216 192.54 274.501 192.87 273.904C193.201 273.296 193.67 272.832 194.278 272.512C194.886 272.181 195.601 272.016 196.422 272.016C196.924 272.016 197.42 272.096 197.91 272.256C198.401 272.416 198.806 272.64 199.126 272.928L198.534 274.32C198.257 274.075 197.942 273.888 197.59 273.76C197.249 273.632 196.918 273.568 196.598 273.568C195.905 273.568 195.366 273.787 194.982 274.224C194.609 274.651 194.422 275.264 194.422 276.064C194.422 276.853 194.609 277.477 194.982 277.936C195.366 278.384 195.905 278.608 196.598 278.608C196.908 278.608 197.238 278.544 197.59 278.416C197.942 278.288 198.257 278.096 198.534 277.84L199.126 279.248C198.806 279.525 198.396 279.749 197.894 279.92C197.404 280.08 196.913 280.16 196.422 280.16ZM200.353 280V272.176H202.305V273.552C202.689 272.624 203.51 272.112 204.769 272.016L205.377 271.968L205.505 273.664L204.353 273.776C203.041 273.904 202.385 274.576 202.385 275.792V280H200.353ZM210.35 280.16C209.464 280.16 208.702 279.995 208.062 279.664C207.422 279.333 206.926 278.864 206.574 278.256C206.232 277.648 206.062 276.928 206.062 276.096C206.062 275.285 206.227 274.576 206.558 273.968C206.899 273.36 207.363 272.885 207.95 272.544C208.547 272.192 209.224 272.016 209.982 272.016C211.091 272.016 211.966 272.368 212.606 273.072C213.256 273.776 213.582 274.736 213.582 275.952V276.544H207.982C208.131 277.941 208.931 278.64 210.382 278.64C210.819 278.64 211.256 278.576 211.694 278.448C212.131 278.309 212.531 278.096 212.894 277.808L213.454 279.152C213.08 279.461 212.611 279.707 212.046 279.888C211.48 280.069 210.915 280.16 210.35 280.16ZM210.062 273.376C209.475 273.376 209 273.557 208.638 273.92C208.275 274.283 208.056 274.773 207.982 275.392H211.918C211.875 274.741 211.694 274.245 211.374 273.904C211.064 273.552 210.627 273.376 210.062 273.376ZM218.718 280.16C216.649 280.16 215.614 279.136 215.614 277.088V273.68H214.11V272.176H215.614V269.84H217.614V272.176H219.982V273.68H217.614V276.976C217.614 277.488 217.726 277.872 217.95 278.128C218.174 278.384 218.537 278.512 219.038 278.512C219.188 278.512 219.342 278.496 219.502 278.464C219.662 278.421 219.828 278.379 219.998 278.336L220.302 279.808C220.11 279.915 219.865 280 219.566 280.064C219.278 280.128 218.996 280.16 218.718 280.16ZM221.275 280V268.72H223.275V273.312C223.542 272.885 223.899 272.565 224.347 272.352C224.795 272.128 225.291 272.016 225.835 272.016C227.68 272.016 228.603 273.088 228.603 275.232V280H226.603V275.328C226.603 274.72 226.486 274.277 226.251 274C226.027 273.723 225.675 273.584 225.195 273.584C224.608 273.584 224.139 273.771 223.787 274.144C223.446 274.507 223.275 274.992 223.275 275.6V280H221.275ZM234.202 280.16C233.392 280.16 232.688 279.995 232.09 279.664C231.493 279.333 231.029 278.864 230.698 278.256C230.368 277.637 230.202 276.912 230.202 276.08C230.202 275.248 230.368 274.528 230.698 273.92C231.029 273.312 231.493 272.843 232.09 272.512C232.688 272.181 233.392 272.016 234.202 272.016C235.013 272.016 235.717 272.181 236.314 272.512C236.912 272.843 237.376 273.312 237.706 273.92C238.037 274.528 238.202 275.248 238.202 276.08C238.202 276.912 238.037 277.637 237.706 278.256C237.376 278.864 236.912 279.333 236.314 279.664C235.717 279.995 235.013 280.16 234.202 280.16ZM234.202 278.64C234.8 278.64 235.28 278.427 235.642 278C236.005 277.563 236.186 276.923 236.186 276.08C236.186 275.227 236.005 274.592 235.642 274.176C235.28 273.749 234.8 273.536 234.202 273.536C233.605 273.536 233.125 273.749 232.762 274.176C232.4 274.592 232.218 275.227 232.218 276.08C232.218 276.923 232.4 277.563 232.762 278C233.125 278.427 233.605 278.64 234.202 278.64ZM239.885 280V272.176H241.837V273.376C242.072 272.949 242.397 272.619 242.813 272.384C243.229 272.139 243.709 272.016 244.253 272.016C245.426 272.016 246.194 272.528 246.557 273.552C246.802 273.072 247.154 272.699 247.613 272.432C248.072 272.155 248.594 272.016 249.181 272.016C250.941 272.016 251.821 273.088 251.821 275.232V280H249.821V275.312C249.821 274.715 249.72 274.277 249.517 274C249.325 273.723 248.994 273.584 248.525 273.584C248.002 273.584 247.592 273.771 247.293 274.144C246.994 274.507 246.845 275.013 246.845 275.664V280H244.845V275.312C244.845 274.715 244.744 274.277 244.541 274C244.349 273.723 244.024 273.584 243.565 273.584C243.042 273.584 242.632 273.771 242.333 274.144C242.034 274.507 241.885 275.013 241.885 275.664V280H239.885ZM257.74 280.16C256.855 280.16 256.092 279.995 255.452 279.664C254.812 279.333 254.316 278.864 253.964 278.256C253.623 277.648 253.452 276.928 253.452 276.096C253.452 275.285 253.618 274.576 253.948 273.968C254.29 273.36 254.754 272.885 255.34 272.544C255.938 272.192 256.615 272.016 257.372 272.016C258.482 272.016 259.356 272.368 259.996 273.072C260.647 273.776 260.972 274.736 260.972 275.952V276.544H255.372C255.522 277.941 256.322 278.64 257.772 278.64C258.21 278.64 258.647 278.576 259.084 278.448C259.522 278.309 259.922 278.096 260.284 277.808L260.844 279.152C260.471 279.461 260.002 279.707 259.436 279.888C258.871 280.069 258.306 280.16 257.74 280.16ZM257.452 273.376C256.866 273.376 256.391 273.557 256.028 273.92C255.666 274.283 255.447 274.773 255.372 275.392H259.308C259.266 274.741 259.084 274.245 258.764 273.904C258.455 273.552 258.018 273.376 257.452 273.376ZM265.42 280.16C264.759 280.16 264.14 280.08 263.564 279.92C262.988 279.76 262.508 279.531 262.124 279.232L262.636 277.92C263.031 278.187 263.474 278.395 263.964 278.544C264.455 278.683 264.946 278.752 265.436 278.752C265.948 278.752 266.327 278.667 266.572 278.496C266.828 278.315 266.956 278.08 266.956 277.792C266.956 277.344 266.626 277.056 265.964 276.928L264.364 276.624C263.01 276.368 262.332 275.664 262.332 274.512C262.332 274 262.471 273.557 262.748 273.184C263.036 272.811 263.431 272.523 263.932 272.32C264.434 272.117 265.01 272.016 265.66 272.016C266.215 272.016 266.748 272.096 267.26 272.256C267.772 272.405 268.21 272.635 268.572 272.944L268.028 274.256C267.719 274 267.346 273.797 266.908 273.648C266.482 273.499 266.071 273.424 265.676 273.424C265.154 273.424 264.764 273.515 264.508 273.696C264.263 273.877 264.14 274.117 264.14 274.416C264.14 274.885 264.444 275.173 265.052 275.28L266.652 275.584C267.346 275.712 267.868 275.947 268.22 276.288C268.583 276.629 268.764 277.088 268.764 277.664C268.764 278.443 268.46 279.056 267.852 279.504C267.244 279.941 266.434 280.16 265.42 280.16ZM271.073 280V278.304H273.617V271.056L271.649 272.24L270.849 270.736L274.209 268.72H275.665V278.304H278.049V280H271.073ZM284.506 280V277.856H279.594V276.352L284.858 268.72H286.554V276.16H288.138V277.856H286.554V280H284.506ZM284.506 276.16V271.856L281.562 276.16H284.506Z" fill="white"/>
<path d="M614.441 280V279.008L618.297 274.848C618.841 274.251 619.23 273.707 619.465 273.216C619.71 272.725 619.833 272.224 619.833 271.712C619.833 270.4 619.07 269.744 617.545 269.744C616.403 269.744 615.395 270.171 614.521 271.024L614.025 270C614.441 269.573 614.969 269.232 615.609 268.976C616.259 268.709 616.942 268.576 617.657 268.576C618.787 268.576 619.651 268.843 620.249 269.376C620.857 269.899 621.161 270.645 621.161 271.616C621.161 272.288 620.995 272.949 620.665 273.6C620.334 274.24 619.827 274.923 619.145 275.648L616.121 278.88H621.625V280H614.441ZM627.778 280.144C626.445 280.144 625.416 279.664 624.69 278.704C623.976 277.733 623.618 276.379 623.618 274.64C623.618 272.688 624.018 271.189 624.818 270.144C625.618 269.099 626.738 268.576 628.178 268.576C628.754 268.576 629.33 268.699 629.906 268.944C630.493 269.189 630.973 269.52 631.346 269.936L630.866 270.96C630.472 270.555 630.04 270.251 629.57 270.048C629.112 269.845 628.637 269.744 628.146 269.744C627.101 269.744 626.296 270.133 625.73 270.912C625.176 271.691 624.898 272.848 624.898 274.384V275.168C625.101 274.464 625.474 273.915 626.018 273.52C626.573 273.125 627.224 272.928 627.97 272.928C628.632 272.928 629.218 273.083 629.73 273.392C630.242 273.691 630.642 274.107 630.93 274.64C631.218 275.173 631.362 275.787 631.362 276.48C631.362 277.195 631.208 277.829 630.898 278.384C630.6 278.928 630.178 279.36 629.634 279.68C629.101 279.989 628.482 280.144 627.778 280.144ZM627.698 279.024C628.413 279.024 628.989 278.795 629.426 278.336C629.874 277.877 630.098 277.275 630.098 276.528C630.098 275.792 629.874 275.195 629.426 274.736C628.989 274.267 628.413 274.032 627.698 274.032C626.984 274.032 626.402 274.267 625.954 274.736C625.517 275.195 625.298 275.792 625.298 276.528C625.298 277.275 625.517 277.877 625.954 278.336C626.402 278.795 626.984 279.024 627.698 279.024Z" fill="white"/>
<path d="M1104.3 280.16C1103.57 280.16 1102.85 280.048 1102.16 279.824C1101.47 279.589 1100.9 279.275 1100.46 278.88L1101.13 277.312C1102.11 278.059 1103.15 278.432 1104.27 278.432C1104.94 278.432 1105.47 278.261 1105.84 277.92C1106.22 277.568 1106.41 277.099 1106.41 276.512C1106.41 275.915 1106.23 275.435 1105.87 275.072C1105.51 274.699 1105.01 274.512 1104.38 274.512C1103.49 274.512 1102.75 274.869 1102.16 275.584H1100.78V268.72H1107.71V270.416H1102.78V273.472C1103.35 273.045 1104.04 272.832 1104.86 272.832C1105.58 272.832 1106.2 272.987 1106.72 273.296C1107.25 273.595 1107.66 274.016 1107.95 274.56C1108.25 275.093 1108.4 275.717 1108.4 276.432C1108.4 277.168 1108.23 277.819 1107.9 278.384C1107.57 278.939 1107.1 279.376 1106.48 279.696C1105.87 280.005 1105.15 280.16 1104.3 280.16ZM1114.58 280V277.856H1109.67V276.352L1114.94 268.72H1116.63V276.16H1118.22V277.856H1116.63V280H1114.58ZM1114.58 276.16V271.856L1111.64 276.16H1114.58Z" fill="white"/>
<path d="M75.8006 282V280.76L80.6206 275.56C81.3006 274.813 81.7873 274.133 82.0806 273.52C82.3873 272.907 82.5406 272.28 82.5406 271.64C82.5406 270 81.5873 269.18 79.6806 269.18C78.2539 269.18 76.9939 269.713 75.9006 270.78L75.2806 269.5C75.8006 268.967 76.4606 268.54 77.2606 268.22C78.0739 267.887 78.9273 267.72 79.8206 267.72C81.2339 267.72 82.3139 268.053 83.0606 268.72C83.8206 269.373 84.2006 270.307 84.2006 271.52C84.2006 272.36 83.9939 273.187 83.5806 274C83.1673 274.8 82.5339 275.653 81.6806 276.56L77.9006 280.6H84.7806V282H75.8006ZM86.2528 282V279.96H88.2928V282H86.2528Z" fill="#B3D6FF"/>
<circle cx="145.001" cy="275" r="16" fill="#FFC60C"/>
<rect x="52.0006" y="431" width="1248" height="72" rx="8" fill="#004699"/>
<path d="M178.121 472.16C177.235 472.16 176.414 472.048 175.657 471.824C174.899 471.589 174.259 471.275 173.737 470.88L174.361 469.264C174.883 469.637 175.454 469.925 176.073 470.128C176.702 470.331 177.385 470.432 178.121 470.432C178.963 470.432 179.577 470.293 179.961 470.016C180.345 469.728 180.537 469.36 180.537 468.912C180.537 468.539 180.398 468.245 180.121 468.032C179.854 467.819 179.39 467.643 178.729 467.504L176.969 467.136C174.963 466.709 173.961 465.68 173.961 464.048C173.961 463.344 174.147 462.731 174.521 462.208C174.894 461.685 175.411 461.28 176.073 460.992C176.734 460.704 177.497 460.56 178.361 460.56C179.129 460.56 179.849 460.677 180.521 460.912C181.193 461.136 181.753 461.456 182.201 461.872L181.577 463.408C180.691 462.661 179.614 462.288 178.345 462.288C177.609 462.288 177.033 462.443 176.617 462.752C176.201 463.061 175.993 463.467 175.993 463.968C175.993 464.352 176.121 464.661 176.377 464.896C176.633 465.12 177.07 465.296 177.689 465.424L179.433 465.792C180.489 466.016 181.273 466.368 181.785 466.848C182.307 467.328 182.569 467.968 182.569 468.768C182.569 469.44 182.387 470.032 182.025 470.544C181.662 471.056 181.145 471.456 180.473 471.744C179.811 472.021 179.027 472.16 178.121 472.16ZM187.99 472.16C187.105 472.16 186.342 471.995 185.702 471.664C185.062 471.333 184.566 470.864 184.214 470.256C183.873 469.648 183.702 468.928 183.702 468.096C183.702 467.285 183.868 466.576 184.198 465.968C184.54 465.36 185.004 464.885 185.59 464.544C186.188 464.192 186.865 464.016 187.622 464.016C188.732 464.016 189.606 464.368 190.246 465.072C190.897 465.776 191.222 466.736 191.222 467.952V468.544H185.622C185.772 469.941 186.572 470.64 188.022 470.64C188.46 470.64 188.897 470.576 189.334 470.448C189.772 470.309 190.172 470.096 190.534 469.808L191.094 471.152C190.721 471.461 190.252 471.707 189.686 471.888C189.121 472.069 188.556 472.16 187.99 472.16ZM187.702 465.376C187.116 465.376 186.641 465.557 186.278 465.92C185.916 466.283 185.697 466.773 185.622 467.392H189.558C189.516 466.741 189.334 466.245 189.014 465.904C188.705 465.552 188.268 465.376 187.702 465.376ZM196.422 472.16C195.601 472.16 194.886 471.995 194.278 471.664C193.67 471.323 193.201 470.843 192.87 470.224C192.54 469.605 192.374 468.88 192.374 468.048C192.374 467.216 192.54 466.501 192.87 465.904C193.201 465.296 193.67 464.832 194.278 464.512C194.886 464.181 195.601 464.016 196.422 464.016C196.924 464.016 197.42 464.096 197.91 464.256C198.401 464.416 198.806 464.64 199.126 464.928L198.534 466.32C198.257 466.075 197.942 465.888 197.59 465.76C197.249 465.632 196.918 465.568 196.598 465.568C195.905 465.568 195.366 465.787 194.982 466.224C194.609 466.651 194.422 467.264 194.422 468.064C194.422 468.853 194.609 469.477 194.982 469.936C195.366 470.384 195.905 470.608 196.598 470.608C196.908 470.608 197.238 470.544 197.59 470.416C197.942 470.288 198.257 470.096 198.534 469.84L199.126 471.248C198.806 471.525 198.396 471.749 197.894 471.92C197.404 472.08 196.913 472.16 196.422 472.16ZM200.353 472V464.176H202.305V465.552C202.689 464.624 203.51 464.112 204.769 464.016L205.377 463.968L205.505 465.664L204.353 465.776C203.041 465.904 202.385 466.576 202.385 467.792V472H200.353ZM210.35 472.16C209.464 472.16 208.702 471.995 208.062 471.664C207.422 471.333 206.926 470.864 206.574 470.256C206.232 469.648 206.062 468.928 206.062 468.096C206.062 467.285 206.227 466.576 206.558 465.968C206.899 465.36 207.363 464.885 207.95 464.544C208.547 464.192 209.224 464.016 209.982 464.016C211.091 464.016 211.966 464.368 212.606 465.072C213.256 465.776 213.582 466.736 213.582 467.952V468.544H207.982C208.131 469.941 208.931 470.64 210.382 470.64C210.819 470.64 211.256 470.576 211.694 470.448C212.131 470.309 212.531 470.096 212.894 469.808L213.454 471.152C213.08 471.461 212.611 471.707 212.046 471.888C211.48 472.069 210.915 472.16 210.35 472.16ZM210.062 465.376C209.475 465.376 209 465.557 208.638 465.92C208.275 466.283 208.056 466.773 207.982 467.392H211.918C211.875 466.741 211.694 466.245 211.374 465.904C211.064 465.552 210.627 465.376 210.062 465.376ZM218.718 472.16C216.649 472.16 215.614 471.136 215.614 469.088V465.68H214.11V464.176H215.614V461.84H217.614V464.176H219.982V465.68H217.614V468.976C217.614 469.488 217.726 469.872 217.95 470.128C218.174 470.384 218.537 470.512 219.038 470.512C219.188 470.512 219.342 470.496 219.502 470.464C219.662 470.421 219.828 470.379 219.998 470.336L220.302 471.808C220.11 471.915 219.865 472 219.566 472.064C219.278 472.128 218.996 472.16 218.718 472.16ZM221.275 472V460.72H223.275V465.312C223.542 464.885 223.899 464.565 224.347 464.352C224.795 464.128 225.291 464.016 225.835 464.016C227.68 464.016 228.603 465.088 228.603 467.232V472H226.603V467.328C226.603 466.72 226.486 466.277 226.251 466C226.027 465.723 225.675 465.584 225.195 465.584C224.608 465.584 224.139 465.771 223.787 466.144C223.446 466.507 223.275 466.992 223.275 467.6V472H221.275ZM234.202 472.16C233.392 472.16 232.688 471.995 232.09 471.664C231.493 471.333 231.029 470.864 230.698 470.256C230.368 469.637 230.202 468.912 230.202 468.08C230.202 467.248 230.368 466.528 230.698 465.92C231.029 465.312 231.493 464.843 232.09 464.512C232.688 464.181 233.392 464.016 234.202 464.016C235.013 464.016 235.717 464.181 236.314 464.512C236.912 464.843 237.376 465.312 237.706 465.92C238.037 466.528 238.202 467.248 238.202 468.08C238.202 468.912 238.037 469.637 237.706 470.256C237.376 470.864 236.912 471.333 236.314 471.664C235.717 471.995 235.013 472.16 234.202 472.16ZM234.202 470.64C234.8 470.64 235.28 470.427 235.642 470C236.005 469.563 236.186 468.923 236.186 468.08C236.186 467.227 236.005 466.592 235.642 466.176C235.28 465.749 234.8 465.536 234.202 465.536C233.605 465.536 233.125 465.749 232.762 466.176C232.4 466.592 232.218 467.227 232.218 468.08C232.218 468.923 232.4 469.563 232.762 470C233.125 470.427 233.605 470.64 234.202 470.64ZM239.885 472V464.176H241.837V465.376C242.072 464.949 242.397 464.619 242.813 464.384C243.229 464.139 243.709 464.016 244.253 464.016C245.426 464.016 246.194 464.528 246.557 465.552C246.802 465.072 247.154 464.699 247.613 464.432C248.072 464.155 248.594 464.016 249.181 464.016C250.941 464.016 251.821 465.088 251.821 467.232V472H249.821V467.312C249.821 466.715 249.72 466.277 249.517 466C249.325 465.723 248.994 465.584 248.525 465.584C248.002 465.584 247.592 465.771 247.293 466.144C246.994 466.507 246.845 467.013 246.845 467.664V472H244.845V467.312C244.845 466.715 244.744 466.277 244.541 466C244.349 465.723 244.024 465.584 243.565 465.584C243.042 465.584 242.632 465.771 242.333 466.144C242.034 466.507 241.885 467.013 241.885 467.664V472H239.885ZM257.74 472.16C256.855 472.16 256.092 471.995 255.452 471.664C254.812 471.333 254.316 470.864 253.964 470.256C253.623 469.648 253.452 468.928 253.452 468.096C253.452 467.285 253.618 466.576 253.948 465.968C254.29 465.36 254.754 464.885 255.34 464.544C255.938 464.192 256.615 464.016 257.372 464.016C258.482 464.016 259.356 464.368 259.996 465.072C260.647 465.776 260.972 466.736 260.972 467.952V468.544H255.372C255.522 469.941 256.322 470.64 257.772 470.64C258.21 470.64 258.647 470.576 259.084 470.448C259.522 470.309 259.922 470.096 260.284 469.808L260.844 471.152C260.471 471.461 260.002 471.707 259.436 471.888C258.871 472.069 258.306 472.16 257.74 472.16ZM257.452 465.376C256.866 465.376 256.391 465.557 256.028 465.92C255.666 466.283 255.447 466.773 255.372 467.392H259.308C259.266 466.741 259.084 466.245 258.764 465.904C258.455 465.552 258.018 465.376 257.452 465.376ZM265.42 472.16C264.759 472.16 264.14 472.08 263.564 471.92C262.988 471.76 262.508 471.531 262.124 471.232L262.636 469.92C263.031 470.187 263.474 470.395 263.964 470.544C264.455 470.683 264.946 470.752 265.436 470.752C265.948 470.752 266.327 470.667 266.572 470.496C266.828 470.315 266.956 470.08 266.956 469.792C266.956 469.344 266.626 469.056 265.964 468.928L264.364 468.624C263.01 468.368 262.332 467.664 262.332 466.512C262.332 466 262.471 465.557 262.748 465.184C263.036 464.811 263.431 464.523 263.932 464.32C264.434 464.117 265.01 464.016 265.66 464.016C266.215 464.016 266.748 464.096 267.26 464.256C267.772 464.405 268.21 464.635 268.572 464.944L268.028 466.256C267.719 466 267.346 465.797 266.908 465.648C266.482 465.499 266.071 465.424 265.676 465.424C265.154 465.424 264.764 465.515 264.508 465.696C264.263 465.877 264.14 466.117 264.14 466.416C264.14 466.885 264.444 467.173 265.052 467.28L266.652 467.584C267.346 467.712 267.868 467.947 268.22 468.288C268.583 468.629 268.764 469.088 268.764 469.664C268.764 470.443 268.46 471.056 267.852 471.504C267.244 471.941 266.434 472.16 265.42 472.16ZM271.073 472V470.304H273.617V463.056L271.649 464.24L270.849 462.736L274.209 460.72H275.665V470.304H278.049V472H271.073ZM284.506 472V469.856H279.594V468.352L284.858 460.72H286.554V468.16H288.138V469.856H286.554V472H284.506ZM284.506 468.16V463.856L281.562 468.16H284.506Z" fill="white"/>
<path d="M614.441 472V471.008L618.297 466.848C618.841 466.251 619.23 465.707 619.465 465.216C619.71 464.725 619.833 464.224 619.833 463.712C619.833 462.4 619.07 461.744 617.545 461.744C616.403 461.744 615.395 462.171 614.521 463.024L614.025 462C614.441 461.573 614.969 461.232 615.609 460.976C616.259 460.709 616.942 460.576 617.657 460.576C618.787 460.576 619.651 460.843 620.249 461.376C620.857 461.899 621.161 462.645 621.161 463.616C621.161 464.288 620.995 464.949 620.665 465.6C620.334 466.24 619.827 466.923 619.145 467.648L616.121 470.88H621.625V472H614.441ZM627.778 472.144C626.445 472.144 625.416 471.664 624.69 470.704C623.976 469.733 623.618 468.379 623.618 466.64C623.618 464.688 624.018 463.189 624.818 462.144C625.618 461.099 626.738 460.576 628.178 460.576C628.754 460.576 629.33 460.699 629.906 460.944C630.493 461.189 630.973 461.52 631.346 461.936L630.866 462.96C630.472 462.555 630.04 462.251 629.57 462.048C629.112 461.845 628.637 461.744 628.146 461.744C627.101 461.744 626.296 462.133 625.73 462.912C625.176 463.691 624.898 464.848 624.898 466.384V467.168C625.101 466.464 625.474 465.915 626.018 465.52C626.573 465.125 627.224 464.928 627.97 464.928C628.632 464.928 629.218 465.083 629.73 465.392C630.242 465.691 630.642 466.107 630.93 466.64C631.218 467.173 631.362 467.787 631.362 468.48C631.362 469.195 631.208 469.829 630.898 470.384C630.6 470.928 630.178 471.36 629.634 471.68C629.101 471.989 628.482 472.144 627.778 472.144ZM627.698 471.024C628.413 471.024 628.989 470.795 629.426 470.336C629.874 469.877 630.098 469.275 630.098 468.528C630.098 467.792 629.874 467.195 629.426 466.736C628.989 466.267 628.413 466.032 627.698 466.032C626.984 466.032 626.402 466.267 625.954 466.736C625.517 467.195 625.298 467.792 625.298 468.528C625.298 469.275 625.517 469.877 625.954 470.336C626.402 470.795 626.984 471.024 627.698 471.024Z" fill="white"/>
<path d="M1104.3 472.16C1103.57 472.16 1102.85 472.048 1102.16 471.824C1101.47 471.589 1100.9 471.275 1100.46 470.88L1101.13 469.312C1102.11 470.059 1103.15 470.432 1104.27 470.432C1104.94 470.432 1105.47 470.261 1105.84 469.92C1106.22 469.568 1106.41 469.099 1106.41 468.512C1106.41 467.915 1106.23 467.435 1105.87 467.072C1105.51 466.699 1105.01 466.512 1104.38 466.512C1103.49 466.512 1102.75 466.869 1102.16 467.584H1100.78V460.72H1107.71V462.416H1102.78V465.472C1103.35 465.045 1104.04 464.832 1104.86 464.832C1105.58 464.832 1106.2 464.987 1106.72 465.296C1107.25 465.595 1107.66 466.016 1107.95 466.56C1108.25 467.093 1108.4 467.717 1108.4 468.432C1108.4 469.168 1108.23 469.819 1107.9 470.384C1107.57 470.939 1107.1 471.376 1106.48 471.696C1105.87 472.005 1105.15 472.16 1104.3 472.16ZM1114.58 472V469.856H1109.67V468.352L1114.94 460.72H1116.63V468.16H1118.22V469.856H1116.63V472H1114.58ZM1114.58 468.16V463.856L1111.64 468.16H1114.58Z" fill="white"/>
<path d="M81.5406 474V470.98H75.0406V469.74L81.8206 459.9H83.2006V469.58H85.3006V470.98H83.2006V474H81.5406ZM81.5406 469.58V462.6L76.7406 469.58H81.5406ZM86.2528 474V471.96H88.2928V474H86.2528Z" fill="#B3D6FF"/>
<circle cx="145.001" cy="467" r="16" fill="#E30613"/>
<rect x="52.0006" y="623" width="1248" height="72" rx="8" fill="#004699"/>
<path d="M178.121 664.16C177.235 664.16 176.414 664.048 175.657 663.824C174.899 663.589 174.259 663.275 173.737 662.88L174.361 661.264C174.883 661.637 175.454 661.925 176.073 662.128C176.702 662.331 177.385 662.432 178.121 662.432C178.963 662.432 179.577 662.293 179.961 662.016C180.345 661.728 180.537 661.36 180.537 660.912C180.537 660.539 180.398 660.245 180.121 660.032C179.854 659.819 179.39 659.643 178.729 659.504L176.969 659.136C174.963 658.709 173.961 657.68 173.961 656.048C173.961 655.344 174.147 654.731 174.521 654.208C174.894 653.685 175.411 653.28 176.073 652.992C176.734 652.704 177.497 652.56 178.361 652.56C179.129 652.56 179.849 652.677 180.521 652.912C181.193 653.136 181.753 653.456 182.201 653.872L181.577 655.408C180.691 654.661 179.614 654.288 178.345 654.288C177.609 654.288 177.033 654.443 176.617 654.752C176.201 655.061 175.993 655.467 175.993 655.968C175.993 656.352 176.121 656.661 176.377 656.896C176.633 657.12 177.07 657.296 177.689 657.424L179.433 657.792C180.489 658.016 181.273 658.368 181.785 658.848C182.307 659.328 182.569 659.968 182.569 660.768C182.569 661.44 182.387 662.032 182.025 662.544C181.662 663.056 181.145 663.456 180.473 663.744C179.811 664.021 179.027 664.16 178.121 664.16ZM187.99 664.16C187.105 664.16 186.342 663.995 185.702 663.664C185.062 663.333 184.566 662.864 184.214 662.256C183.873 661.648 183.702 660.928 183.702 660.096C183.702 659.285 183.868 658.576 184.198 657.968C184.54 657.36 185.004 656.885 185.59 656.544C186.188 656.192 186.865 656.016 187.622 656.016C188.732 656.016 189.606 656.368 190.246 657.072C190.897 657.776 191.222 658.736 191.222 659.952V660.544H185.622C185.772 661.941 186.572 662.64 188.022 662.64C188.46 662.64 188.897 662.576 189.334 662.448C189.772 662.309 190.172 662.096 190.534 661.808L191.094 663.152C190.721 663.461 190.252 663.707 189.686 663.888C189.121 664.069 188.556 664.16 187.99 664.16ZM187.702 657.376C187.116 657.376 186.641 657.557 186.278 657.92C185.916 658.283 185.697 658.773 185.622 659.392H189.558C189.516 658.741 189.334 658.245 189.014 657.904C188.705 657.552 188.268 657.376 187.702 657.376ZM196.422 664.16C195.601 664.16 194.886 663.995 194.278 663.664C193.67 663.323 193.201 662.843 192.87 662.224C192.54 661.605 192.374 660.88 192.374 660.048C192.374 659.216 192.54 658.501 192.87 657.904C193.201 657.296 193.67 656.832 194.278 656.512C194.886 656.181 195.601 656.016 196.422 656.016C196.924 656.016 197.42 656.096 197.91 656.256C198.401 656.416 198.806 656.64 199.126 656.928L198.534 658.32C198.257 658.075 197.942 657.888 197.59 657.76C197.249 657.632 196.918 657.568 196.598 657.568C195.905 657.568 195.366 657.787 194.982 658.224C194.609 658.651 194.422 659.264 194.422 660.064C194.422 660.853 194.609 661.477 194.982 661.936C195.366 662.384 195.905 662.608 196.598 662.608C196.908 662.608 197.238 662.544 197.59 662.416C197.942 662.288 198.257 662.096 198.534 661.84L199.126 663.248C198.806 663.525 198.396 663.749 197.894 663.92C197.404 664.08 196.913 664.16 196.422 664.16ZM200.353 664V656.176H202.305V657.552C202.689 656.624 203.51 656.112 204.769 656.016L205.377 655.968L205.505 657.664L204.353 657.776C203.041 657.904 202.385 658.576 202.385 659.792V664H200.353ZM210.35 664.16C209.464 664.16 208.702 663.995 208.062 663.664C207.422 663.333 206.926 662.864 206.574 662.256C206.232 661.648 206.062 660.928 206.062 660.096C206.062 659.285 206.227 658.576 206.558 657.968C206.899 657.36 207.363 656.885 207.95 656.544C208.547 656.192 209.224 656.016 209.982 656.016C211.091 656.016 211.966 656.368 212.606 657.072C213.256 657.776 213.582 658.736 213.582 659.952V660.544H207.982C208.131 661.941 208.931 662.64 210.382 662.64C210.819 662.64 211.256 662.576 211.694 662.448C212.131 662.309 212.531 662.096 212.894 661.808L213.454 663.152C213.08 663.461 212.611 663.707 212.046 663.888C211.48 664.069 210.915 664.16 210.35 664.16ZM210.062 657.376C209.475 657.376 209 657.557 208.638 657.92C208.275 658.283 208.056 658.773 207.982 659.392H211.918C211.875 658.741 211.694 658.245 211.374 657.904C211.064 657.552 210.627 657.376 210.062 657.376ZM218.718 664.16C216.649 664.16 215.614 663.136 215.614 661.088V657.68H214.11V656.176H215.614V653.84H217.614V656.176H219.982V657.68H217.614V660.976C217.614 661.488 217.726 661.872 217.95 662.128C218.174 662.384 218.537 662.512 219.038 662.512C219.188 662.512 219.342 662.496 219.502 662.464C219.662 662.421 219.828 662.379 219.998 662.336L220.302 663.808C220.11 663.915 219.865 664 219.566 664.064C219.278 664.128 218.996 664.16 218.718 664.16ZM221.275 664V652.72H223.275V657.312C223.542 656.885 223.899 656.565 224.347 656.352C224.795 656.128 225.291 656.016 225.835 656.016C227.68 656.016 228.603 657.088 228.603 659.232V664H226.603V659.328C226.603 658.72 226.486 658.277 226.251 658C226.027 657.723 225.675 657.584 225.195 657.584C224.608 657.584 224.139 657.771 223.787 658.144C223.446 658.507 223.275 658.992 223.275 659.6V664H221.275ZM234.202 664.16C233.392 664.16 232.688 663.995 232.09 663.664C231.493 663.333 231.029 662.864 230.698 662.256C230.368 661.637 230.202 660.912 230.202 660.08C230.202 659.248 230.368 658.528 230.698 657.92C231.029 657.312 231.493 656.843 232.09 656.512C232.688 656.181 233.392 656.016 234.202 656.016C235.013 656.016 235.717 656.181 236.314 656.512C236.912 656.843 237.376 657.312 237.706 657.92C238.037 658.528 238.202 659.248 238.202 660.08C238.202 660.912 238.037 661.637 237.706 662.256C237.376 662.864 236.912 663.333 236.314 663.664C235.717 663.995 235.013 664.16 234.202 664.16ZM234.202 662.64C234.8 662.64 235.28 662.427 235.642 662C236.005 661.563 236.186 660.923 236.186 660.08C236.186 659.227 236.005 658.592 235.642 658.176C235.28 657.749 234.8 657.536 234.202 657.536C233.605 657.536 233.125 657.749 232.762 658.176C232.4 658.592 232.218 659.227 232.218 660.08C232.218 660.923 232.4 661.563 232.762 662C233.125 662.427 233.605 662.64 234.202 662.64ZM239.885 664V656.176H241.837V657.376C242.072 656.949 242.397 656.619 242.813 656.384C243.229 656.139 243.709 656.016 244.253 656.016C245.426 656.016 246.194 656.528 246.557 657.552C246.802 657.072 247.154 656.699 247.613 656.432C248.072 656.155 248.594 656.016 249.181 656.016C250.941 656.016 251.821 657.088 251.821 659.232V664H249.821V659.312C249.821 658.715 249.72 658.277 249.517 658C249.325 657.723 248.994 657.584 248.525 657.584C248.002 657.584 247.592 657.771 247.293 658.144C246.994 658.507 246.845 659.013 246.845 659.664V664H244.845V659.312C244.845 658.715 244.744 658.277 244.541 658C244.349 657.723 244.024 657.584 243.565 657.584C243.042 657.584 242.632 657.771 242.333 658.144C242.034 658.507 241.885 659.013 241.885 659.664V664H239.885ZM257.74 664.16C256.855 664.16 256.092 663.995 255.452 663.664C254.812 663.333 254.316 662.864 253.964 662.256C253.623 661.648 253.452 660.928 253.452 660.096C253.452 659.285 253.618 658.576 253.948 657.968C254.29 657.36 254.754 656.885 255.34 656.544C255.938 656.192 256.615 656.016 257.372 656.016C258.482 656.016 259.356 656.368 259.996 657.072C260.647 657.776 260.972 658.736 260.972 659.952V660.544H255.372C255.522 661.941 256.322 662.64 257.772 662.64C258.21 662.64 258.647 662.576 259.084 662.448C259.522 662.309 259.922 662.096 260.284 661.808L260.844 663.152C260.471 663.461 260.002 663.707 259.436 663.888C258.871 664.069 258.306 664.16 257.74 664.16ZM257.452 657.376C256.866 657.376 256.391 657.557 256.028 657.92C255.666 658.283 255.447 658.773 255.372 659.392H259.308C259.266 658.741 259.084 658.245 258.764 657.904C258.455 657.552 258.018 657.376 257.452 657.376ZM265.42 664.16C264.759 664.16 264.14 664.08 263.564 663.92C262.988 663.76 262.508 663.531 262.124 663.232L262.636 661.92C263.031 662.187 263.474 662.395 263.964 662.544C264.455 662.683 264.946 662.752 265.436 662.752C265.948 662.752 266.327 662.667 266.572 662.496C266.828 662.315 266.956 662.08 266.956 661.792C266.956 661.344 266.626 661.056 265.964 660.928L264.364 660.624C263.01 660.368 262.332 659.664 262.332 658.512C262.332 658 262.471 657.557 262.748 657.184C263.036 656.811 263.431 656.523 263.932 656.32C264.434 656.117 265.01 656.016 265.66 656.016C266.215 656.016 266.748 656.096 267.26 656.256C267.772 656.405 268.21 656.635 268.572 656.944L268.028 658.256C267.719 658 267.346 657.797 266.908 657.648C266.482 657.499 266.071 657.424 265.676 657.424C265.154 657.424 264.764 657.515 264.508 657.696C264.263 657.877 264.14 658.117 264.14 658.416C264.14 658.885 264.444 659.173 265.052 659.28L266.652 659.584C267.346 659.712 267.868 659.947 268.22 660.288C268.583 660.629 268.764 661.088 268.764 661.664C268.764 662.443 268.46 663.056 267.852 663.504C267.244 663.941 266.434 664.16 265.42 664.16ZM271.073 664V662.304H273.617V655.056L271.649 656.24L270.849 654.736L274.209 652.72H275.665V662.304H278.049V664H271.073ZM284.506 664V661.856H279.594V660.352L284.858 652.72H286.554V660.16H288.138V661.856H286.554V664H284.506ZM284.506 660.16V655.856L281.562 660.16H284.506Z" fill="white"/>
<path d="M614.441 664V663.008L618.297 658.848C618.841 658.251 619.23 657.707 619.465 657.216C619.71 656.725 619.833 656.224 619.833 655.712C619.833 654.4 619.07 653.744 617.545 653.744C616.403 653.744 615.395 654.171 614.521 655.024L614.025 654C614.441 653.573 614.969 653.232 615.609 652.976C616.259 652.709 616.942 652.576 617.657 652.576C618.787 652.576 619.651 652.843 620.249 653.376C620.857 653.899 621.161 654.645 621.161 655.616C621.161 656.288 620.995 656.949 620.665 657.6C620.334 658.24 619.827 658.923 619.145 659.648L616.121 662.88H621.625V664H614.441ZM627.778 664.144C626.445 664.144 625.416 663.664 624.69 662.704C623.976 661.733 623.618 660.379 623.618 658.64C623.618 656.688 624.018 655.189 624.818 654.144C625.618 653.099 626.738 652.576 628.178 652.576C628.754 652.576 629.33 652.699 629.906 652.944C630.493 653.189 630.973 653.52 631.346 653.936L630.866 654.96C630.472 654.555 630.04 654.251 629.57 654.048C629.112 653.845 628.637 653.744 628.146 653.744C627.101 653.744 626.296 654.133 625.73 654.912C625.176 655.691 624.898 656.848 624.898 658.384V659.168C625.101 658.464 625.474 657.915 626.018 657.52C626.573 657.125 627.224 656.928 627.97 656.928C628.632 656.928 629.218 657.083 629.73 657.392C630.242 657.691 630.642 658.107 630.93 658.64C631.218 659.173 631.362 659.787 631.362 660.48C631.362 661.195 631.208 661.829 630.898 662.384C630.6 662.928 630.178 663.36 629.634 663.68C629.101 663.989 628.482 664.144 627.778 664.144ZM627.698 663.024C628.413 663.024 628.989 662.795 629.426 662.336C629.874 661.877 630.098 661.275 630.098 660.528C630.098 659.792 629.874 659.195 629.426 658.736C628.989 658.267 628.413 658.032 627.698 658.032C626.984 658.032 626.402 658.267 625.954 658.736C625.517 659.195 625.298 659.792 625.298 660.528C625.298 661.275 625.517 661.877 625.954 662.336C626.402 662.795 626.984 663.024 627.698 663.024Z" fill="white"/>
<path d="M1104.3 664.16C1103.57 664.16 1102.85 664.048 1102.16 663.824C1101.47 663.589 1100.9 663.275 1100.46 662.88L1101.13 661.312C1102.11 662.059 1103.15 662.432 1104.27 662.432C1104.94 662.432 1105.47 662.261 1105.84 661.92C1106.22 661.568 1106.41 661.099 1106.41 660.512C1106.41 659.915 1106.23 659.435 1105.87 659.072C1105.51 658.699 1105.01 658.512 1104.38 658.512C1103.49 658.512 1102.75 658.869 1102.16 659.584H1100.78V652.72H1107.71V654.416H1102.78V657.472C1103.35 657.045 1104.04 656.832 1104.86 656.832C1105.58 656.832 1106.2 656.987 1106.72 657.296C1107.25 657.595 1107.66 658.016 1107.95 658.56C1108.25 659.093 1108.4 659.717 1108.4 660.432C1108.4 661.168 1108.23 661.819 1107.9 662.384C1107.57 662.939 1107.1 663.376 1106.48 663.696C1105.87 664.005 1105.15 664.16 1104.3 664.16ZM1114.58 664V661.856H1109.67V660.352L1114.94 652.72H1116.63V660.16H1118.22V661.856H1116.63V664H1114.58ZM1114.58 660.16V655.856L1111.64 660.16H1114.58Z" fill="white"/>
<path d="M80.4806 666.18C78.8139 666.18 77.5273 665.58 76.6206 664.38C75.7273 663.167 75.2806 661.473 75.2806 659.3C75.2806 656.86 75.7806 654.987 76.7806 653.68C77.7806 652.373 79.1806 651.72 80.9806 651.72C81.7006 651.72 82.4206 651.873 83.1406 652.18C83.8739 652.487 84.4739 652.9 84.9406 653.42L84.3406 654.7C83.8473 654.193 83.3073 653.813 82.7206 653.56C82.1473 653.307 81.5539 653.18 80.9406 653.18C79.6339 653.18 78.6273 653.667 77.9206 654.64C77.2273 655.613 76.8806 657.06 76.8806 658.98V659.96C77.1339 659.08 77.6006 658.393 78.2806 657.9C78.9739 657.407 79.7873 657.16 80.7206 657.16C81.5473 657.16 82.2806 657.353 82.9206 657.74C83.5606 658.113 84.0606 658.633 84.4206 659.3C84.7806 659.967 84.9606 660.733 84.9606 661.6C84.9606 662.493 84.7673 663.287 84.3806 663.98C84.0073 664.66 83.4806 665.2 82.8006 665.6C82.1339 665.987 81.3606 666.18 80.4806 666.18ZM80.3806 664.78C81.2739 664.78 81.9939 664.493 82.5406 663.92C83.1006 663.347 83.3806 662.593 83.3806 661.66C83.3806 660.74 83.1006 659.993 82.5406 659.42C81.9939 658.833 81.2739 658.54 80.3806 658.54C79.4873 658.54 78.7606 658.833 78.2006 659.42C77.6539 659.993 77.3806 660.74 77.3806 661.66C77.3806 662.593 77.6539 663.347 78.2006 663.92C78.7606 664.493 79.4873 664.78 80.3806 664.78ZM86.2528 666V663.96H88.2928V666H86.2528Z" fill="#B3D6FF"/>
<circle cx="145.001" cy="659" r="16" fill="#0052C5"/>
</svg>
