<svg width="33" height="28" viewBox="0 0 33 28" fill="none" xmlns="http://www.w3.org/2000/svg">
<path d="M22.8413 26.7783L15.244 26.6501L14.5229 24.4962L11.4285 24.3345L11.0939 21.9591L8.80059 21.7134L8.10615 18.8136L5.67454 18.43L5.17424 16.11L2.66015 16.0304L1.71465 11.28L4.17327 11.1939L3.78355 8.92903L6.26991 8.92578L5.85209 6.30184L8.44902 6.3537L7.56152 3.70274L10.3519 3.78197L9.98916 1.04745L17.2278 1.48002L18.0321 3.88245L15.5735 3.96854L16.0464 6.48191L13.3944 6.54062L13.8392 8.69489L11.4634 8.75325L11.9363 11.2666L30.4192 11.9884L31.5034 17.1531L13.1862 16.3758L13.7697 18.9443L16.3393 19.1896L16.895 21.6752L19.3814 21.672L19.9649 24.2405L22.3684 24.2649L22.8413 26.7783Z" fill="#002F66" stroke="#002F66" stroke-width="1.1871"/>
</svg>
