<svg width="133" height="274" viewBox="0 0 133 274" fill="none" xmlns="http://www.w3.org/2000/svg">
<path d="M-256.762 5.34267L-264.594 27.1601C-247.429 34.6606 -246.972 44.1007 -250.665 53.8851C-255.926 65.6953 -270.058 64.4459 -274.546 62.5805L-282.825 86.6465C-268.823 93.6355 -270.696 106.781 -273.382 112.48C-276.909 119.96 -285.712 121.717 -293.899 121.844L-302.066 145.348L82.7227 268.538L89.545 245.936C71.7781 243.809 70.465 229.485 72.0294 222.589C75.3797 205.724 96.8041 209.396 100.733 213.098L108.562 188.359C94.653 185.595 92.3993 172.877 93.516 167.255C96.8664 150.391 113.765 151.41 120.085 153.835L127.354 128.984L-256.762 5.34267Z" fill="#0075FF" stroke="black" stroke-width="8"/>
</svg>
