<svg width="32" height="32" viewBox="0 0 32 32" fill="none" xmlns="http://www.w3.org/2000/svg">
<path d="M15.9992 3.19922C8.93042 3.19922 3.19922 8.93042 3.19922 15.9992C3.19922 23.068 8.93042 28.7992 15.9992 28.7992C23.068 28.7992 28.7992 23.068 28.7992 15.9992C28.7992 8.93042 23.068 3.19922 15.9992 3.19922ZM22.8942 13.3699C22.9006 13.5118 22.9038 13.6526 22.9038 13.7934C22.9038 18.1326 19.6024 23.1331 13.564 23.1331C11.7091 23.1331 9.98429 22.5902 8.53255 21.6579C8.78962 21.6888 9.05095 21.7027 9.31655 21.7027C10.8558 21.7027 12.2702 21.179 13.3923 20.2968C11.9555 20.2702 10.7427 19.3208 10.3256 18.0174C10.5262 18.0558 10.732 18.076 10.9432 18.076C11.243 18.076 11.5342 18.0355 11.8083 17.9608C10.3064 17.66 9.17469 16.3331 9.17469 14.7427C9.17469 14.7288 9.17469 14.715 9.17469 14.7011C9.61735 14.9475 10.123 15.0947 10.6616 15.1118C9.78162 14.524 9.20135 13.5182 9.20135 12.38C9.20135 11.7774 9.36242 11.2131 9.64509 10.7299C11.2643 12.716 13.6835 14.0238 16.411 14.1603C16.3555 13.9203 16.3267 13.6696 16.3267 13.4126C16.3267 11.6003 17.7966 10.1294 19.6088 10.1294C20.5528 10.1294 21.4062 10.5283 22.0046 11.1662C22.7523 11.0179 23.4552 10.7459 24.0899 10.3694C23.8446 11.1363 23.324 11.7784 22.6456 12.1859C23.3091 12.107 23.9416 11.931 24.5315 11.6696C24.0931 12.3288 23.5374 12.9059 22.8942 13.3699Z" fill="#C9E61A"/>
</svg>
